<?xml version="1.0" encoding="UTF-8"?>
<svg xmlns="http://www.w3.org/2000/svg" version="1.1" viewBox="0 0 109.6 32.5">
  <defs>
    <style>
      .cls-1 {
        fill: #444;
      }

      .cls-2 {
        fill: #4c00c9;
      }
    </style>
  </defs>
  <!-- Generator: Adobe Illustrator 28.7.1, SVG Export Plug-In . SVG Version: 1.2.0 Build 142)  -->
  <g>
    <g id="Layer_1">
      <g>
        <path class="cls-1" d="M44.8,2.9c1.9,0,3,1.1,3,2.7s-.6,1.8-1.5,2.2c1.1.3,1.8,1.2,1.8,2.4s-1.2,2.8-3.1,2.8h-3.7V2.9h3.4ZM44.6,7.1c1,0,1.6-.6,1.6-1.4s-.6-1.4-1.6-1.4h-1.5v2.8h1.5ZM44.8,11.4c1,0,1.7-.6,1.7-1.4s-.6-1.5-1.6-1.5h-1.8v2.9h1.7Z"/>
        <path class="cls-1" d="M49.8,12.9V2.7h1.6v10.2h-1.6Z"/>
        <path class="cls-1" d="M60.1,9.4c0,2.1-1.5,3.6-3.6,3.6s-3.5-1.5-3.5-3.6,1.5-3.6,3.5-3.6,3.6,1.5,3.6,3.6ZM58.4,9.4c0-1.4-.9-2.2-1.9-2.2s-1.9.7-1.9,2.2.9,2.2,1.9,2.2,1.9-.8,1.9-2.2Z"/>
        <path class="cls-1" d="M62.7,9.4c0,1.4.9,2.1,1.9,2.1s1.6-.8,1.7-1.3l1.4.5c-.3,1.1-1.3,2.2-3.2,2.2s-3.5-1.6-3.5-3.6,1.5-3.6,3.5-3.6,2.9,1.2,3.1,2.2l-1.5.5c-.2-.6-.6-1.3-1.7-1.3s-1.9.8-1.9,2.1h0Z"/>
        <path class="cls-1" d="M72.8,8.9l2.9,3.9h-2l-2-2.8-.8.9v1.9h-1.6V2.7h1.6v6.1l2.6-2.8h2.2l-2.8,2.9h0Z"/>
        <path class="cls-1" d="M77.7,9.4c0,1.4.9,2.1,1.9,2.1s1.6-.8,1.7-1.3l1.4.5c-.3,1.1-1.3,2.2-3.2,2.2s-3.6-1.6-3.6-3.6,1.5-3.6,3.5-3.6,2.9,1.2,3.1,2.2l-1.5.5c-.2-.6-.6-1.3-1.7-1.3s-1.9.8-1.9,2.1h0Z"/>
        <path class="cls-1" d="M85.8,12.9h-1.6V2.7h1.6v4c.5-.6,1.2-.9,1.9-.9,1.7,0,2.5,1.2,2.5,2.7v4.3h-1.6v-4.1c0-.8-.4-1.5-1.4-1.5s-1.4.7-1.4,1.5v4h0Z"/>
        <path class="cls-1" d="M93.9,8.9l1.8-.3c.4,0,.5-.2.5-.5,0-.6-.4-1-1.3-1s-1.3.6-1.4,1.2l-1.5-.3c.1-1.2,1.2-2.2,2.9-2.2s2.9,1.2,2.9,2.6v3.4c0,.6,0,1,0,1.1h-1.5s0-.3,0-.9c-.3.5-1,1.1-2.1,1.1s-2.3-1-2.3-2.1.9-1.9,2.1-2.1h0ZM96.2,10v-.3l-1.8.3c-.5,0-.9.4-.9.9s.3.9,1,.9,1.7-.4,1.7-1.8h0Z"/>
        <path class="cls-1" d="M100.5,2.5c.6,0,1.1.5,1.1,1.1s-.5,1.1-1.1,1.1-1.1-.5-1.1-1.1.5-1.1,1.1-1.1ZM99.7,12.9v-6.8h1.6v6.8h-1.6Z"/>
        <path class="cls-1" d="M105.1,12.9h-1.6v-6.8h1.6v.9c.4-.8,1.3-1.1,2-1.1,1.7,0,2.5,1.2,2.5,2.7v4.3h-1.6v-4.1c0-.8-.4-1.5-1.4-1.5s-1.4.7-1.4,1.6v3.9Z"/>
        <path class="cls-1" d="M46.4,22.6c0-.6-.6-1.5-2-1.5s-1.7.7-1.7,1.4.4,1.1,1.2,1.3l1.4.3c1.8.4,2.7,1.5,2.7,2.9s-1.2,3-3.5,3-3.7-1.6-3.9-3.1l1.6-.5c0,1,.8,2,2.3,2s1.8-.6,1.8-1.4-.5-1.2-1.3-1.4l-1.4-.3c-1.5-.3-2.5-1.3-2.5-2.8s1.5-3,3.4-3,3.3,1.4,3.5,2.5l-1.5.5h0Z"/>
        <path class="cls-1" d="M55.6,27.8c-.4,1.2-1.5,2.2-3.1,2.2s-3.5-1.4-3.5-3.7,1.6-3.6,3.3-3.6,3.3,1.4,3.3,3.6,0,.5,0,.5h-5c0,1,.9,1.8,1.9,1.8s1.5-.5,1.7-1.2l1.4.4h0ZM54,25.6c0-.8-.6-1.5-1.7-1.5s-1.6.8-1.7,1.5h3.4Z"/>
        <path class="cls-1" d="M58.3,26.3c0,1.4.9,2.1,1.9,2.1s1.6-.8,1.7-1.3l1.4.5c-.3,1.1-1.3,2.2-3.2,2.2s-3.5-1.6-3.5-3.6,1.5-3.6,3.5-3.6,2.9,1.1,3.1,2.2l-1.5.5c-.2-.6-.6-1.3-1.7-1.3s-1.9.8-1.9,2.1h0Z"/>
        <path class="cls-1" d="M67.3,29.9c-1.6,0-2.6-1.2-2.6-2.7v-4.3h1.6v4c0,.9.4,1.6,1.4,1.6s1.4-.6,1.4-1.5v-4.1h1.6v5.6c0,.6,0,1,0,1.2h-1.6c0-.2,0-.5,0-.8-.3.6-1.1,1-1.9,1h0Z"/>
        <path class="cls-1" d="M76.9,24.5c-.2,0-.4,0-.5,0-1.3,0-1.8.7-1.8,2v3.3h-1.6v-6.9h1.6v1.1c.3-.8,1.1-1.2,2-1.2s.4,0,.4,0v1.7h0Z"/>
        <path class="cls-1" d="M79.1,19.4c.6,0,1.1.5,1.1,1.1s-.5,1.1-1.1,1.1-1.1-.5-1.1-1.1.5-1.1,1.1-1.1ZM78.2,29.8v-6.9h1.6v6.9h-1.6Z"/>
        <path class="cls-1" d="M84,22.9h1.4v1.5h-1.4v3.2c0,.6.3.9.9.9s.5,0,.6,0v1.4c0,0-.4.2-1,.2-1.3,0-2.1-.8-2.1-2v-3.5h-1.3v-1.5h.3c.7,0,1.1-.5,1.1-1.1v-1h1.5v2.1h0Z"/>
        <path class="cls-1" d="M87.6,32.5l1.7-3.6-2.9-6h1.8l2,4.3,1.8-4.3h1.7l-4.4,9.6h-1.7Z"/>
      </g>
      <path class="cls-2" d="M27.2,0H5.2C2.3,0,0,2.3,0,5.2v22c0,2.9,2.3,5.2,5.2,5.2h22c2.9,0,5.2-2.3,5.2-5.2V5.2c0-2.9-2.3-5.2-5.2-5.2ZM1.5,27.2V5.2c0-2,1.6-3.7,3.7-3.7h1.1l8.4,4.9-7.4,4.3c-.2.1-.4.4-.4.6v9.8c0,.1,0,.3.1.4h0c0,0,.1.2.2.2l6.8,3.9,8.8,5.2H5.2c-2,0-3.7-1.6-3.7-3.7ZM14.9,24.4l-6.5-3.8v-8l7.4,4.3c.1,0,.3.1.4.1s.3,0,.4-.1l7.4-4.3v8.1l-7.8,4.5-1.3-.7h0ZM16.2,15.3l-7-4,7-4,7,4-7,4ZM30.9,27.2c0,2-1.6,3.7-3.7,3.7h-1.3l-8.2-4.9,7.4-4.3c.2-.1.4-.4.4-.6v-9.8c0-.3-.1-.5-.4-.6l-8.5-4.9h0L9.3,1.5h18c2,0,3.7,1.6,3.7,3.7v22h0Z"/>
    </g>
  </g>
</svg>