<?xml version="1.0" encoding="UTF-8"?>
<svg id="Layer_1" data-name="Layer 1" xmlns="http://www.w3.org/2000/svg" viewBox="0 0 109.56 32.52">
  <defs>
    <style>
      .cls-1 {
        fill: #00b00c;
      }

      .cls-2 {
        fill: #444;
      }
    </style>
  </defs>
  <g>
    <path class="cls-2" d="m44.79,2.89c1.92,0,3.04,1.13,3.04,2.69,0,1.06-.62,1.84-1.48,2.15,1.06.28,1.79,1.2,1.79,2.38,0,1.6-1.24,2.76-3.1,2.76h-3.69V2.89h3.43Zm-.22,4.22c.98,0,1.58-.56,1.58-1.39s-.59-1.39-1.62-1.39h-1.49v2.79h1.53Zm.18,4.32c1.01,0,1.67-.55,1.67-1.43s-.58-1.46-1.62-1.46h-1.77v2.9h1.72Z"/>
    <path class="cls-2" d="m49.75,12.87V2.68h1.63v10.19h-1.63Z"/>
    <path class="cls-2" d="m60.06,9.43c0,2.11-1.5,3.65-3.56,3.65s-3.55-1.53-3.55-3.65,1.5-3.63,3.55-3.63,3.56,1.53,3.56,3.63Zm-1.65,0c0-1.42-.9-2.15-1.91-2.15s-1.91.73-1.91,2.15.91,2.18,1.91,2.18,1.91-.75,1.91-2.18Z"/>
    <path class="cls-2" d="m62.73,9.43c0,1.38.88,2.15,1.91,2.15s1.56-.75,1.72-1.27l1.43.52c-.32,1.07-1.35,2.24-3.15,2.24-2.01,0-3.55-1.56-3.55-3.65s1.53-3.63,3.5-3.63c1.84,0,2.86,1.15,3.14,2.25l-1.46.54c-.16-.61-.62-1.28-1.66-1.28s-1.89.75-1.89,2.12Z"/>
    <path class="cls-2" d="m72.84,8.91l2.87,3.95h-2l-2.01-2.8-.84.89v1.91h-1.62V2.68h1.62v6.11l2.63-2.77h2.17l-2.82,2.9Z"/>
    <path class="cls-2" d="m77.67,9.43c0,1.38.89,2.15,1.91,2.15s1.56-.75,1.72-1.27l1.44.52c-.32,1.07-1.35,2.24-3.15,2.24-2.01,0-3.55-1.56-3.55-3.65s1.53-3.63,3.5-3.63c1.84,0,2.86,1.15,3.14,2.25l-1.46.54c-.16-.61-.62-1.28-1.66-1.28s-1.89.75-1.89,2.12Z"/>
    <path class="cls-2" d="m85.81,12.87h-1.63V2.68h1.63v3.99c.46-.6,1.24-.86,1.95-.86,1.69,0,2.51,1.21,2.51,2.72v4.33h-1.63v-4.05c0-.84-.38-1.52-1.41-1.52-.9,0-1.39.67-1.42,1.55v4.02Z"/>
    <path class="cls-2" d="m93.9,8.94l1.76-.27c.39-.06.51-.25.51-.49,0-.58-.39-1.04-1.29-1.04s-1.34.55-1.41,1.24l-1.49-.34c.13-1.18,1.19-2.24,2.88-2.24,2.11,0,2.91,1.19,2.91,2.56v3.41c0,.62.07,1.03.08,1.1h-1.52s-.07-.32-.07-.87c-.32.52-1,1.09-2.11,1.09-1.43,0-2.32-.98-2.32-2.07,0-1.22.9-1.9,2.07-2.07Zm2.27,1.08v-.31l-1.79.27c-.51.08-.91.36-.91.93,0,.47.35.89,1,.89.91,0,1.7-.44,1.7-1.77Z"/>
    <path class="cls-2" d="m100.54,2.54c.59,0,1.07.48,1.07,1.07s-.48,1.06-1.07,1.06-1.05-.47-1.05-1.06.48-1.07,1.05-1.07Zm-.8,10.33v-6.85h1.62v6.85h-1.62Z"/>
    <path class="cls-2" d="m105.09,12.87h-1.63v-6.85h1.59v.91c.45-.79,1.27-1.11,2.02-1.11,1.68,0,2.48,1.21,2.48,2.72v4.33h-1.63v-4.05c0-.84-.38-1.52-1.41-1.52-.93,0-1.42.72-1.42,1.62v3.95Z"/>
    <path class="cls-2" d="m46.39,22.58c-.1-.62-.62-1.53-1.96-1.53-1.01,0-1.72.67-1.72,1.43,0,.63.39,1.11,1.17,1.28l1.44.3c1.76.35,2.7,1.46,2.7,2.87,0,1.55-1.25,3.03-3.53,3.03-2.53,0-3.7-1.63-3.86-3.07l1.58-.45c.1,1.04.84,2,2.28,2,1.19,0,1.81-.6,1.81-1.38,0-.65-.48-1.17-1.34-1.35l-1.41-.3c-1.52-.31-2.53-1.31-2.53-2.8,0-1.68,1.53-3.05,3.39-3.05,2.35,0,3.26,1.43,3.49,2.55l-1.52.48Z"/>
    <path class="cls-2" d="m55.6,27.79c-.36,1.2-1.45,2.17-3.1,2.17-1.86,0-3.5-1.35-3.5-3.67,0-2.17,1.6-3.6,3.33-3.6,2.11,0,3.35,1.39,3.35,3.56,0,.27-.03.49-.04.52h-5.01c.04,1.04.86,1.79,1.87,1.79s1.49-.52,1.72-1.19l1.38.44Zm-1.56-2.22c-.03-.8-.56-1.52-1.69-1.52-1.03,0-1.62.79-1.68,1.52h3.36Z"/>
    <path class="cls-2" d="m58.34,26.31c0,1.38.88,2.15,1.91,2.15s1.56-.75,1.72-1.27l1.43.52c-.32,1.07-1.35,2.24-3.15,2.24-2.01,0-3.55-1.56-3.55-3.65s1.53-3.63,3.5-3.63c1.84,0,2.86,1.15,3.14,2.25l-1.46.54c-.16-.61-.62-1.28-1.66-1.28s-1.89.75-1.89,2.12Z"/>
    <path class="cls-2" d="m67.28,29.94c-1.63,0-2.59-1.21-2.59-2.73v-4.32h1.63v4.02c0,.85.39,1.56,1.38,1.56s1.44-.63,1.44-1.53v-4.05h1.63v5.6c0,.56.04,1,.07,1.25h-1.56c-.03-.16-.05-.48-.05-.76-.34.62-1.14.96-1.94.96Z"/>
    <path class="cls-2" d="m76.88,24.51c-.18-.03-.36-.04-.53-.04-1.27,0-1.84.73-1.84,2.01v3.26h-1.63v-6.85h1.59v1.1c.32-.75,1.08-1.18,1.98-1.18.2,0,.36.03.44.04v1.66Z"/>
    <path class="cls-2" d="m79.05,19.42c.59,0,1.07.48,1.07,1.07s-.48,1.06-1.07,1.06-1.06-.47-1.06-1.06.48-1.07,1.06-1.07Zm-.8,10.33v-6.85h1.62v6.85h-1.62Z"/>
    <path class="cls-2" d="m84.04,22.89h1.42v1.45h-1.42v3.18c0,.6.27.86.87.86.22,0,.49-.04.56-.05v1.35c-.1.04-.41.16-1,.16-1.27,0-2.05-.76-2.05-2.04v-3.45h-1.27v-1.45h.35c.73,0,1.06-.46,1.06-1.07v-1.03h1.48v2.1Z"/>
    <path class="cls-2" d="m87.58,32.52l1.65-3.59-2.93-6.04h1.84l1.97,4.33,1.84-4.33h1.73l-4.36,9.63h-1.74Z"/>
  </g>
  <path class="cls-1" d="m27.23,0H5.19C2.33,0,0,2.33,0,5.19v22.04C0,30.1,2.33,32.43,5.19,32.43h22.04c2.86,0,5.19-2.33,5.19-5.19V5.19c0-2.86-2.33-5.19-5.19-5.19ZM1.51,27.23V5.19c0-2.03,1.65-3.68,3.68-3.68h1.07l8.45,4.88-7.37,4.26c-.23.14-.38.38-.38.65v9.82c0,.15.06.29.14.42h0s0,0,0,0c.06.09.13.17.23.23l6.81,3.93,8.81,5.21H5.19c-2.03,0-3.68-1.65-3.68-3.68Zm13.44-2.8l-6.48-3.83v-7.99l7.37,4.26c.12.07.25.1.38.1s.26-.03.38-.1l7.37-4.26v8.08l-7.75,4.48-1.27-.73Zm1.27-9.09l-7-4.04,7-4.04,7,4.04-7,4.04Zm14.71,11.89c0,2.03-1.65,3.68-3.68,3.68h-1.32l-8.23-4.87,7.41-4.28c.23-.14.38-.38.38-.65v-9.82c0-.27-.14-.52-.38-.65l-8.5-4.91s0,0,0,0L9.27,1.51h17.97c2.03,0,3.68,1.65,3.68,3.68v22.04Z"/>
</svg>