<svg width="178" height="51" viewBox="0 0 178 51" fill="none" xmlns="http://www.w3.org/2000/svg">
<path d="M7.42841 24.6692C6.84401 24.6426 6.34593 25.0875 6.31937 25.6719C6.2928 26.2564 6.73775 26.7544 7.32216 26.781C7.89992 26.8076 8.398 26.3626 8.4312 25.7848C8.46441 25.2004 8.01282 24.7024 7.42841 24.6692Z" fill="white"/>
<path d="M19.7077 25.5059C19.6147 27.3123 21.0027 28.8596 22.809 28.9592C22.8754 28.9592 22.9352 28.9592 23.0016 28.9592C24.8079 28.946 26.2623 27.4717 26.249 25.6653C26.2358 23.859 24.7614 22.4046 22.9551 22.4179C21.2284 22.4312 19.8073 23.7793 19.7077 25.5059Z" fill="white"/>
<path d="M7.42841 24.6692C6.84401 24.6426 6.34593 25.0875 6.31937 25.6719C6.2928 26.2564 6.73775 26.7544 7.32216 26.781C7.89992 26.8076 8.398 26.3626 8.4312 25.7848C8.46441 25.2004 8.01282 24.7024 7.42841 24.6692Z" fill="white"/>
<path d="M19.5017 6.51936C20.0263 6.26036 20.2388 5.62947 19.9798 5.10483C19.7142 4.57355 19.07 4.36768 18.552 4.63332C18.0274 4.89232 17.8149 5.52321 18.0739 6.04785C18.3395 6.57913 18.9837 6.785 19.5017 6.51936Z" fill="white"/>
<path d="M22.8421 12.3103C23.6457 11.9118 23.9777 10.9356 23.5792 10.1254V10.1121C23.1609 9.30194 22.1714 8.98317 21.3612 9.38827C20.5576 9.78673 20.2255 10.763 20.624 11.5732V11.5864C21.0424 12.3966 22.0319 12.7154 22.8421 12.3103Z" fill="white"/>
<path d="M11.5923 16.2883C12.2165 16.6934 13.0533 16.5207 13.4717 15.9031C13.8768 15.2855 13.7108 14.4553 13.0932 14.0436H13.0865C12.4623 13.6319 11.6255 13.8045 11.2071 14.4221C10.802 15.0398 10.968 15.8699 11.5857 16.2816H11.5989L11.5923 16.2883Z" fill="white"/>
<path d="M13.5979 24.0848C12.6947 24.0383 11.931 24.7356 11.8845 25.6321C11.838 26.5353 12.5353 27.299 13.4319 27.3455C14.3284 27.392 15.0921 26.7013 15.1452 25.8048C15.1917 24.9016 14.5011 24.1246 13.5979 24.0781V24.0848Z" fill="white"/>
<path d="M11.7716 35.069C11.1075 35.401 10.8418 36.2046 11.1672 36.8687C11.5059 37.5394 12.3161 37.8117 12.9869 37.473C13.651 37.141 13.9166 36.3374 13.5912 35.6733C13.2525 35.0026 12.4423 34.7303 11.7716 35.069Z" fill="white"/>
<path d="M18.1669 20.7045C19.0634 21.2889 20.2588 21.0432 20.8498 20.1533C21.4342 19.2701 21.1885 18.0813 20.3053 17.5036H20.292C19.3955 16.9125 18.2001 17.1582 17.609 18.0481C17.0246 18.9314 17.2703 20.1201 18.1536 20.7045H18.1669Z" fill="white"/>
<path d="M38.4552 12.1775C39.2122 12.6755 40.235 12.463 40.733 11.7059C41.2311 10.9555 41.0186 9.94608 40.2748 9.44801H40.2615C39.5044 8.94329 38.4817 9.1558 37.9837 9.91287C37.4856 10.6633 37.6981 11.6727 38.4485 12.1708H38.4618L38.4552 12.1775Z" fill="white"/>
<path d="M41.8353 6.41306C42.3268 6.73183 42.9842 6.59901 43.3096 6.10758C43.6284 5.62279 43.4956 4.96533 43.0108 4.64656H43.0042C42.5127 4.32115 41.8553 4.46061 41.5299 4.9454C41.2111 5.4302 41.3439 6.08765 41.8287 6.40642H41.8353V6.41306Z" fill="white"/>
<path d="M38.7141 22.3913C36.9077 22.285 35.3604 23.6664 35.2607 25.4727C35.1545 27.2791 36.5358 28.8264 38.3422 28.926C38.4086 28.926 38.4683 28.926 38.5281 28.926C40.2681 28.926 41.7091 27.5779 41.8154 25.838C41.8685 24.968 41.5697 24.1179 40.9853 23.4738C40.4009 22.823 39.584 22.4311 38.7141 22.3846V22.3913Z" fill="white"/>
<path d="M23.9247 20.4787C24.4892 21.5878 25.6248 22.2851 26.8666 22.2784C27.378 22.2784 27.8893 22.1589 28.3476 21.9265C29.9613 21.1163 30.6188 19.1572 29.8086 17.5368C29.2507 16.4211 28.1085 15.7171 26.86 15.7304C26.3486 15.7304 25.8373 15.8499 25.3791 16.0824C23.7653 16.8859 23.1078 18.8517 23.9114 20.4654V20.4787H23.9247Z" fill="white"/>
<path d="M49.7514 16.2882C50.4155 15.9562 50.6811 15.1526 50.3557 14.4885C50.017 13.8178 49.2002 13.5521 48.5361 13.8842C47.872 14.2162 47.6064 15.0198 47.9318 15.6839C48.2705 16.3546 49.0807 16.6269 49.7514 16.2882Z" fill="white"/>
<path d="M41.3905 17.3309C40.4408 17.8024 40.0556 18.9513 40.5271 19.9009V19.9142C41.0186 20.8639 42.1807 21.2424 43.137 20.7643C44.0867 20.2927 44.4719 19.1439 44.0004 18.1942V18.1809C43.5089 17.2312 42.3468 16.8527 41.3971 17.3309H41.3905Z" fill="white"/>
<path d="M30.6387 5.91501C31.3825 5.95486 32.0134 5.37709 32.0532 4.63994C32.0931 3.89615 31.5153 3.26526 30.7781 3.22541C30.041 3.18557 29.4101 3.75669 29.3703 4.49384C29.3304 5.23763 29.9015 5.87517 30.6453 5.91501H30.6387Z" fill="white"/>
<path d="M30.6254 14.3889C31.6879 14.442 32.5911 13.6252 32.6509 12.5626C32.704 11.5001 31.8871 10.5969 30.8246 10.5371C29.762 10.484 28.8589 11.2942 28.7991 12.3568C28.746 13.4193 29.5628 14.3291 30.6254 14.3889Z" fill="white"/>
<path d="M20.1326 34.0263C21.0823 33.5548 21.4675 32.4059 20.996 31.4563V31.443C20.5045 30.4933 19.3424 30.1148 18.3861 30.5929C17.4364 31.0645 17.0512 32.2133 17.5227 33.163V33.1763C18.0142 34.126 19.1763 34.5045 20.1326 34.0263Z" fill="white"/>
<path d="M31.8739 17.1914C30.8844 18.6989 31.2962 20.7178 32.8037 21.7139L32.8236 21.7272C34.3444 22.7167 36.3832 22.2983 37.3859 20.7842C38.3755 19.2767 37.9637 17.2578 36.4562 16.2617L36.4363 16.2484C34.9155 15.2589 32.8767 15.6773 31.8739 17.1914Z" fill="white"/>
<path d="M37.5984 30.8718C37.0406 29.7628 35.8983 29.0655 34.6564 29.0721C34.1451 29.0721 33.6337 29.1917 33.1755 29.4241C31.5617 30.2343 30.9043 32.1934 31.7145 33.8138C32.2723 34.9295 33.4146 35.6334 34.6631 35.6201C35.1744 35.6201 35.6858 35.5006 36.144 35.2682C37.7578 34.4646 38.4152 32.5055 37.6117 30.8918V30.8785L37.5984 30.8718Z" fill="white"/>
<path d="M43.3562 30.6461C42.4597 30.0617 41.2643 30.314 40.6732 31.1973C40.0888 32.0805 40.3345 33.2693 41.2178 33.8537H41.2311C42.1276 34.4447 43.323 34.199 43.914 33.3091C44.4985 32.4259 44.2527 31.2371 43.3695 30.6594L43.3562 30.6461Z" fill="white"/>
<path d="M49.6652 25.7318C49.7249 24.8219 49.0343 24.0449 48.1245 23.9852C47.2146 23.9254 46.4376 24.6161 46.3779 25.5259C46.3181 26.4357 47.0088 27.2127 47.9186 27.2725H47.9319C48.835 27.3256 49.612 26.6416 49.6652 25.7384V25.7318Z" fill="white"/>
<path d="M54.2209 24.5696C53.6365 24.543 53.1384 24.9879 53.1118 25.5723C53.0786 26.1567 53.5302 26.6548 54.1146 26.6814C54.699 26.7079 55.1905 26.263 55.2237 25.6852C55.2569 25.1008 54.8053 24.6028 54.2209 24.5696Z" fill="white"/>
<path d="M49.9308 35.0623C49.3065 34.6572 48.4697 34.8299 48.0514 35.4475C47.6463 36.0651 47.8123 36.8952 48.4299 37.307H48.4365C49.0608 37.7187 49.8976 37.5461 50.3159 36.9284C50.721 36.3108 50.555 35.4807 49.9374 35.069H49.9241L49.9308 35.0623Z" fill="white"/>
<path d="M19.6943 44.9441C19.2029 44.6253 18.5455 44.7581 18.22 45.2496C17.9013 45.7344 18.0341 46.3852 18.5189 46.7106H18.5255C19.017 47.036 19.6744 46.9032 19.9998 46.4117C20.3186 45.9269 20.1858 45.2761 19.701 44.9507H19.6943V44.9441Z" fill="white"/>
<path d="M42.028 44.8312C41.51 45.0902 41.2975 45.7211 41.5565 46.2457C41.8221 46.777 42.4663 46.9829 42.9843 46.7172C43.5023 46.4582 43.7214 45.8273 43.4624 45.3027C43.1968 44.7714 42.5526 44.5656 42.028 44.8312Z" fill="white"/>
<path d="M29.6492 34.1591C30.6387 32.6583 30.227 30.6394 28.7261 29.6433L28.6996 29.63C27.1788 28.6405 25.14 29.0589 24.1372 30.573C23.1477 32.0739 23.5594 34.0994 25.0603 35.0889L25.0802 35.1022C26.601 36.0917 28.6398 35.6733 29.6426 34.1591H29.6492Z" fill="white"/>
<path d="M23.0679 39.1664C22.3108 38.6684 21.2881 38.8809 20.7901 39.6379C20.292 40.3884 20.5045 41.3978 21.2549 41.8959H21.2682C22.0253 42.4006 23.048 42.1881 23.5461 41.431C24.0441 40.6806 23.8316 39.6712 23.0812 39.1731H23.0679V39.1664Z" fill="white"/>
<path d="M30.7449 45.4356C30.0011 45.3957 29.3702 45.9668 29.3303 46.7106C29.2905 47.4544 29.8616 48.0853 30.6054 48.1252C31.3426 48.165 31.9801 47.5939 32.0199 46.8567C32.0598 46.1129 31.4887 45.4754 30.7449 45.4356Z" fill="white"/>
<path d="M30.7582 36.9616C29.6956 36.9085 28.7924 37.7253 28.7327 38.7879C28.6795 39.8504 29.4964 40.7536 30.5589 40.8134C31.6215 40.8665 32.5247 40.0563 32.5844 38.9938C32.6376 37.9312 31.8274 37.0214 30.7582 36.9616Z" fill="white"/>
<path d="M38.6809 39.0402C37.8773 39.4387 37.5452 40.4149 37.9437 41.2251V41.2384C38.3621 42.0486 39.3516 42.3674 40.1618 41.9623C40.9654 41.5638 41.2974 40.5876 40.8989 39.7774V39.7641C40.4806 38.9539 39.4911 38.6351 38.6809 39.0402Z" fill="white"/>
<path d="M65.2714 26.3427H75.4786V28.5807H67.9211V32.4059H74.7281V34.6439H67.9211V40.4415H65.2714V26.3427Z" fill="white"/>
<path d="M76.1759 35.0358C76.1759 31.1508 77.9756 29.3843 81.5352 29.3843C85.0948 29.3843 86.8945 31.1508 86.8945 35.0358C86.8945 38.9207 85.0948 40.6872 81.5352 40.6872C77.9756 40.6872 76.1759 38.9207 76.1759 35.0358ZM84.331 35.1819V34.8963C84.331 32.552 83.5208 31.4031 81.5352 31.4031C79.5495 31.4031 78.7393 32.552 78.7393 34.8963V35.1819C78.7393 37.5261 79.523 38.675 81.5352 38.675C83.5208 38.675 84.331 37.5261 84.331 35.1819Z" fill="white"/>
<path d="M89.0528 36.9285V29.63H91.5365V36.4968C91.5365 38.0375 92.3002 38.5555 93.5421 38.5555C94.9101 38.5356 96.0059 37.4132 95.986 36.0452C95.986 36.0054 95.986 35.9655 95.986 35.919V29.63H98.4697V40.4415H96.4176L96.2118 39.0004H96.0657C95.2422 40.0962 93.9406 40.7271 92.5659 40.6873C90.474 40.6873 89.0461 39.6778 89.0461 36.9218L89.0528 36.9285Z" fill="white"/>
<path d="M101.365 29.63H103.417L103.623 31.0711H103.769C104.593 29.9753 105.894 29.3444 107.269 29.3843C109.341 29.3843 110.789 30.3937 110.789 33.1431V40.4415H108.305V33.5748C108.305 32.034 107.541 31.516 106.299 31.516C104.931 31.536 103.836 32.6583 103.856 34.0263C103.856 34.0662 103.856 34.106 103.856 34.1525V40.4415H101.372V29.63H101.365Z" fill="white"/>
<path d="M112.914 35.0158C112.914 31.1308 114.674 29.3843 117.098 29.3843C118.373 29.2714 119.621 29.8425 120.365 30.8851H120.491V25.579H122.975V40.4415H120.923L120.717 39.0004H120.591C119.854 40.1095 118.585 40.747 117.257 40.6872C114.587 40.6872 112.907 38.9606 112.907 35.0158H112.914ZM120.491 35.1818V34.9361C120.491 32.738 119.747 31.5027 118.008 31.5027C116.168 31.5027 115.484 32.5719 115.484 34.9162V35.1818C115.484 37.5062 116.148 38.5754 118.008 38.5754C119.767 38.5754 120.491 37.3601 120.491 35.1818Z" fill="white"/>
<path d="M125.06 37.6523C125.06 34.7104 127.896 33.8935 131.894 33.8935V32.9903C131.894 32.0672 131.562 31.3434 130.034 31.3434C128.507 31.3434 128.029 31.9809 128.029 32.5587V32.8442H125.631C125.611 32.6915 125.605 32.5454 125.611 32.3927C125.611 30.5199 127.391 29.3909 130.041 29.3909C132.983 29.3909 134.391 30.6461 134.391 32.8044V37.9644C134.364 38.3363 134.636 38.6551 135.008 38.6817C135.042 38.6817 135.081 38.6817 135.115 38.6817H135.779V40.3685C135.287 40.581 134.763 40.6872 134.225 40.674C133.275 40.747 132.405 40.136 132.153 39.2129H132.007C131.15 40.2357 129.862 40.7869 128.527 40.6939C127.278 40.6939 125.067 40.2821 125.067 37.6523H125.06ZM131.894 36.1315V35.6401C129.536 35.6401 127.61 35.9721 127.61 37.4066C127.61 38.2699 128.168 38.7215 129.264 38.7215C130.599 38.8411 131.774 37.8582 131.887 36.5233C131.9 36.3905 131.9 36.2577 131.887 36.1315H131.894Z" fill="white"/>
<path d="M137.525 37.9976V31.6422H136.204V29.63H137.572L138.03 26.6083H140.016V29.63H141.875V31.6422H140.016V37.7453C139.949 38.1836 140.248 38.602 140.693 38.6684C140.766 38.6817 140.833 38.6817 140.906 38.6684H141.875V40.3552C141.317 40.5611 140.733 40.674 140.135 40.6872C138.13 40.6872 137.525 39.3258 137.525 37.991V37.9976Z" fill="white"/>
<path d="M143.874 25.579H146.318V28.0029H143.874V25.579ZM143.874 29.63H146.358V40.4415H143.874V29.63Z" fill="white"/>
<path d="M148.556 35.0358C148.556 31.1508 150.356 29.3843 153.915 29.3843C157.475 29.3843 159.275 31.1508 159.275 35.0358C159.275 38.9207 157.475 40.6872 153.915 40.6872C150.356 40.6872 148.556 38.9207 148.556 35.0358ZM156.711 35.1819V34.8963C156.711 32.552 155.901 31.4031 153.915 31.4031C151.93 31.4031 151.119 32.552 151.119 34.8963V35.1819C151.119 37.5261 151.903 38.675 153.915 38.675C155.901 38.675 156.705 37.5261 156.705 35.1819H156.711Z" fill="white"/>
<path d="M161.486 29.63H163.538L163.744 31.0711H163.89C164.714 29.9753 166.015 29.3444 167.39 29.3843C169.462 29.3843 170.91 30.3937 170.91 33.1431V40.4415H168.426V33.5748C168.426 32.034 167.662 31.516 166.42 31.516C165.052 31.536 163.957 32.6583 163.976 34.0263C163.976 34.0662 163.976 34.106 163.976 34.1525V40.4415H161.493V29.63H161.486Z" fill="white"/>
<path d="M64.7069 14.628C64.7069 9.6738 67.2305 7.32953 71.5803 7.32953C75.12 7.32953 77.8494 9.09603 77.8494 12.7751H75.1399C75.1399 10.6766 73.6922 9.54762 71.6202 9.54762C68.7646 9.54762 67.4164 11.1946 67.4164 14.4221V14.8338C67.4164 18.1211 68.738 19.7083 71.6202 19.7083C73.8117 19.7083 75.2395 18.5794 75.2395 16.5207H77.8494C77.8494 20.1998 75.1598 21.9264 71.5803 21.9264C67.2371 21.9264 64.7069 19.7083 64.7069 14.628Z" fill="white"/>
<path d="M79.3835 18.8849C79.3835 15.9429 82.2192 15.1261 86.2105 15.1261V14.2229C86.2105 13.2998 85.8784 12.5759 84.351 12.5759C82.8236 12.5759 82.3454 13.2135 82.3454 13.7912V14.0768H79.9414C79.9214 13.924 79.9148 13.7779 79.9214 13.6252C79.9214 11.7524 81.7012 10.6235 84.351 10.6235C87.2929 10.6235 88.6942 11.8786 88.6942 14.0369V19.197C88.6676 19.5689 88.9399 19.8877 89.3118 19.9142C89.345 19.9142 89.3848 19.9142 89.418 19.9142H90.0821V21.601C89.5907 21.8135 89.0661 21.9198 88.5282 21.9065C87.5785 21.9796 86.7085 21.3686 86.4562 20.4455H86.3101C85.4534 21.4682 84.165 22.0194 82.8302 21.9264C81.5883 21.9264 79.3702 21.5147 79.3702 18.8849H79.3835ZM86.2105 17.3641V16.8726C83.8529 16.8726 81.927 17.2047 81.927 18.6391C81.927 19.5025 82.4849 19.9541 83.5806 19.9541C84.9155 20.0736 86.0909 19.0907 86.2038 17.7559C86.2171 17.6231 86.2171 17.4969 86.2038 17.3641H86.2105Z" fill="white"/>
<path d="M91.6959 10.8625H93.748L93.9738 12.5693H94.1199C94.5117 11.5399 95.1957 10.6168 96.5638 10.6168C96.9157 10.6168 97.2677 10.6766 97.5998 10.8028V13.1271H96.8161C95.116 13.1271 94.1863 14.0502 94.1863 16.0491V21.6807H91.7026V10.8625H91.6959Z" fill="white"/>
<path d="M98.6557 16.2484C98.6557 12.3634 100.416 10.6168 102.84 10.6168C104.115 10.5039 105.356 11.075 106.107 12.1177H106.233V6.81152H108.717V21.6741H106.665L106.459 20.233H106.333C105.596 21.342 104.327 21.9795 102.999 21.9198C100.323 21.9198 98.649 20.1931 98.649 16.2484H98.6557ZM106.233 16.4144V16.1687C106.233 13.9705 105.489 12.7353 103.749 12.7353C101.91 12.7353 101.226 13.8045 101.226 16.1488V16.4144C101.226 18.7387 101.89 19.8079 103.749 19.8079C105.509 19.8079 106.233 18.5993 106.233 16.4144Z" fill="white"/>
<path d="M110.802 18.8849C110.802 15.9429 113.638 15.1261 117.629 15.1261V14.2229C117.629 13.2998 117.297 12.5759 115.769 12.5759C114.242 12.5759 113.764 13.2135 113.764 13.7912V14.0768H111.36C111.34 13.924 111.333 13.7779 111.34 13.6252C111.34 11.7524 113.12 10.6235 115.769 10.6235C118.711 10.6235 120.113 11.8786 120.113 14.0369V19.197C120.086 19.5689 120.358 19.8877 120.73 19.9142C120.763 19.9142 120.803 19.9142 120.837 19.9142H121.501V21.601C121.009 21.8135 120.485 21.9198 119.947 21.9065C118.997 21.9796 118.127 21.3686 117.875 20.4455H117.729C116.872 21.4682 115.583 22.0194 114.249 21.9264C113.007 21.9264 110.789 21.5147 110.789 18.8849H110.802ZM117.629 17.3641V16.8726C115.271 16.8726 113.345 17.2047 113.345 18.6391C113.345 19.5025 113.903 19.9541 114.999 19.9541C116.334 20.0736 117.509 19.0907 117.622 17.7559C117.636 17.6231 117.636 17.4969 117.622 17.3641H117.629Z" fill="white"/>
<path d="M123.114 10.8625H125.16L125.366 12.3036H125.512C126.335 11.2079 127.637 10.577 129.012 10.6168C131.084 10.6168 132.531 11.6263 132.531 14.3756V21.6741H130.048V14.8073C130.048 13.2666 129.284 12.7486 128.042 12.7486C126.674 12.7685 125.578 13.8908 125.598 15.2589C125.598 15.2987 125.598 15.3386 125.598 15.3851V21.6741H123.114V10.8625Z" fill="white"/>
<path d="M134.69 16.2683C134.69 12.3833 136.489 10.6168 140.049 10.6168C143.609 10.6168 145.408 12.3833 145.408 16.2683C145.408 20.1533 143.609 21.9198 140.049 21.9198C136.489 21.9198 134.69 20.1533 134.69 16.2683ZM142.845 16.4144V16.1288C142.845 13.7846 142.041 12.6357 140.049 12.6357C138.057 12.6357 137.253 13.7846 137.253 16.1288V16.4144C137.253 18.7587 138.037 19.9076 140.049 19.9076C142.061 19.9076 142.845 18.7587 142.845 16.4144Z" fill="white"/>
</svg>
