<svg width="26" height="26" viewBox="0 0 26 26" fill="none" xmlns="http://www.w3.org/2000/svg">
<path d="M25.8418 12.6992C25.8418 19.6028 20.2454 25.1992 13.3418 25.1992C6.43822 25.1992 0.841797 19.6028 0.841797 12.6992C0.841797 5.79564 6.43822 0.199219 13.3418 0.199219C20.2454 0.199219 25.8418 5.79564 25.8418 12.6992ZM11.8959 19.3179L21.1701 10.0437C21.485 9.72875 21.485 9.21812 21.1701 8.9032L20.0296 7.76273C19.7147 7.44776 19.2041 7.44776 18.8891 7.76273L11.3257 15.3261L7.79447 11.7949C7.47955 11.48 6.96891 11.48 6.65394 11.7949L5.51347 12.9354C5.19855 13.2503 5.19855 13.761 5.51347 14.0759L10.7554 19.3178C11.0704 19.6328 11.581 19.6328 11.8959 19.3179Z" fill="#31AD34"/>
</svg>
