<?xml version="1.0" encoding="UTF-8"?>
<svg xmlns="http://www.w3.org/2000/svg" version="1.1" viewBox="0 0 26 26">
  <defs>
    <style>
      .cls-1 {
        fill: #4c00c9;
      }
    </style>
  </defs>
  <!-- Generator: Adobe Illustrator 28.7.1, SVG Export Plug-In . SVG Version: 1.2.0 Build 142)  -->
  <g>
    <g id="Layer_1">
      <path class="cls-1" d="M25.8,12.7c0,6.9-5.6,12.5-12.5,12.5S.8,19.6.8,12.7,6.4.2,13.3.2s12.5,5.6,12.5,12.5ZM11.9,19.3l9.3-9.3c.3-.3.3-.8,0-1.1l-1.1-1.1c-.3-.3-.8-.3-1.1,0l-7.6,7.6-3.5-3.5c-.3-.3-.8-.3-1.1,0l-1.1,1.1c-.3.3-.3.8,0,1.1l5.2,5.2c.3.3.8.3,1.1,0Z"/>
    </g>
  </g>
</svg>