<?xml version="1.0" encoding="UTF-8"?>
<svg xmlns="http://www.w3.org/2000/svg" xmlns:xlink="http://www.w3.org/1999/xlink" version="1.1" viewBox="0 0 50 51">
  <defs>
    <style>
      .cls-1 {
        fill: none;
      }

      .cls-2 {
        fill: #4c00c9;
      }

      .cls-3 {
        clip-path: url(#clippath);
      }
    </style>
    <clipPath id="clippath">
      <rect class="cls-1" y=".3" width="50" height="50"/>
    </clipPath>
  </defs>
  <!-- Generator: Adobe Illustrator 28.7.1, SVG Export Plug-In . SVG Version: 1.2.0 Build 142)  -->
  <g>
    <g id="Layer_1">
      <g id="Layer_1-2" data-name="Layer_1">
        <g id="Layer_1-2">
          <g class="cls-3">
            <path class="cls-2" d="M48.4,20.4l-5.5-.9c-.3-.9-.7-1.8-1.1-2.6l3.3-4.6c.5-.8.5-1.8-.2-2.4l-4.3-4.4c-.7-.6-1.7-.7-2.4-.2l-4.6,3.3c-.9-.4-1.7-.8-2.6-1.1l-.9-5.6c-.2-.9-1-1.6-1.9-1.6h-6.2c-.9,0-1.7.7-1.9,1.6l-.9,5.6c-.9.3-1.8.7-2.6,1.1l-4.6-3.3c-.8-.5-1.8-.4-2.4.2l-4.4,4.4c-.6.6-.7,1.7-.2,2.4l3.3,4.6c-.4.9-.8,1.7-1.1,2.6l-5.6.9c-.9.2-1.6,1-1.6,1.9v6.2c0,.9.7,1.7,1.6,1.9l5.6.9c.3.9.7,1.8,1.1,2.6l-3.3,4.6c-.5.8-.5,1.8.2,2.4l4.3,4.4c.6.6,1.7.7,2.4.2l4.6-3.3c.9.4,1.7.8,2.6,1.1l.9,5.5c.1.9.9,1.6,1.9,1.6h6.2c.9,0,1.7-.7,1.9-1.6l.9-5.5c.9-.3,1.8-.7,2.6-1.1l4.6,3.3c.8.5,1.8.5,2.4-.2l4.3-4.3c.7-.6.8-1.7.2-2.4l-3.3-4.6c.4-.8.8-1.7,1.1-2.6l5.5-.9c.9-.2,1.6-.9,1.6-1.9v-6.2c0-.9-.7-1.7-1.6-1.8h0v-.2h.1ZM25.1,33c-4.3,0-7.8-3.5-7.8-7.8s3.5-7.8,7.8-7.8,7.8,3.5,7.8,7.8-3.5,7.8-7.8,7.8Z"/>
          </g>
        </g>
      </g>
    </g>
  </g>
</svg>