<svg width="50" height="51" viewBox="0 0 50 51" fill="none" xmlns="http://www.w3.org/2000/svg">
<g clip-path="url(#clip0_5_174)">
<path d="M48.4333 20.356L42.8833 19.4393C42.5833 18.5393 42.2167 17.656 41.7833 16.806L45.05 12.2226C45.5833 11.4726 45.5 10.456 44.85 9.80597L40.5167 5.45597C39.8667 4.80597 38.85 4.72264 38.1 5.25597L33.5167 8.52264C32.6667 8.08931 31.7833 7.72264 30.8833 7.43931L29.9667 1.88931C29.7833 0.955973 29 0.289307 28.0833 0.289307H21.9167C21 0.289307 20.2167 0.955973 20.0667 1.85597L19.15 7.40597C18.25 7.70597 17.3667 8.07264 16.5167 8.48931L11.9333 5.22264C11.1833 4.68931 10.1667 4.77264 9.51667 5.42264L5.16667 9.77264C4.51667 10.4226 4.43333 11.4393 4.96667 12.1893L8.23333 16.7726C7.8 17.6226 7.43333 18.506 7.15 19.406L1.6 20.3226C0.666667 20.506 0 21.2893 0 22.206V28.3726C0 29.2893 0.666667 30.0726 1.56667 30.2226L7.11667 31.1393C7.41667 32.0393 7.78333 32.9226 8.2 33.7726L4.93333 38.356C4.4 39.106 4.48333 40.1226 5.13333 40.7726L9.48333 45.1226C10.1333 45.7726 11.15 45.856 11.9 45.3226L16.4833 42.056C17.3333 42.4893 18.2167 42.856 19.1167 43.156L20.0333 48.6893C20.1833 49.606 20.9667 50.256 21.8833 50.256H28.05C28.9667 50.256 29.75 49.5893 29.9 48.6893L30.8333 43.1393C31.7333 42.8393 32.6167 42.4726 33.4667 42.0393L38.05 45.306C38.8 45.8393 39.8167 45.756 40.4667 45.106L44.8167 40.7726C45.4667 40.1226 45.5667 39.106 45.0167 38.356L41.75 33.7726C42.1833 32.9226 42.55 32.0393 42.85 31.1393L48.3833 30.2226C49.3 30.0726 49.95 29.2893 49.95 28.3726V22.206C49.95 21.2893 49.2833 20.506 48.3833 20.356H48.4333ZM25.1333 32.9726C20.8333 32.9726 17.3333 29.4726 17.3333 25.1726C17.3333 20.8726 20.8333 17.3726 25.1333 17.3726C29.4333 17.3726 32.9333 20.8726 32.9333 25.1726C32.9333 29.4726 29.4333 32.9726 25.1333 32.9726Z" fill="#FFA200"/>
</g>
<defs>
<clipPath id="clip0_5_174">
<rect width="50" height="50" fill="white" transform="translate(0 0.289307)"/>
</clipPath>
</defs>
</svg>
