<?xml version="1.0" encoding="UTF-8"?>
<svg id="Layer_1" xmlns="http://www.w3.org/2000/svg" xmlns:xlink="http://www.w3.org/1999/xlink" viewBox="0 0 1265.32 860.17">
  <defs>
    <style>
      .cls-1 {
        fill: #253d65;
      }

      .cls-2 {
        fill: none;
      }

      .cls-3 {
        fill: url(#linear-gradient-8);
      }

      .cls-4 {
        fill: url(#linear-gradient-7);
      }

      .cls-5 {
        fill: url(#linear-gradient-5);
      }

      .cls-6 {
        fill: url(#linear-gradient-6);
      }

      .cls-7 {
        fill: url(#linear-gradient-9);
      }

      .cls-8 {
        fill: url(#linear-gradient-4);
      }

      .cls-9 {
        fill: url(#linear-gradient-3);
      }

      .cls-10 {
        fill: url(#linear-gradient-2);
      }

      .cls-11 {
        fill: #e2381b;
      }

      .cls-12 {
        fill: url(#linear-gradient);
      }

      .cls-13 {
        fill: #fff;
      }

      .cls-14 {
        fill: #69be64;
      }

      .cls-15 {
        fill: #bbcfc5;
      }

      .cls-16 {
        fill: #e2a51b;
      }

      .cls-17 {
        fill: #b5cfc3;
      }

      .cls-18 {
        fill: #31ad34;
      }

      .cls-19 {
        clip-path: url(#clippath);
      }

      .cls-20 {
        fill: #30c433;
      }
    </style>
    <linearGradient id="linear-gradient" x1="202.49" y1="420.41" x2="1103.96" y2="420.41" gradientUnits="userSpaceOnUse">
      <stop offset="0" stop-color="#ebf2eb"/>
      <stop offset="1" stop-color="#c7ded6"/>
    </linearGradient>
    <linearGradient id="linear-gradient-2" x1="1087.4" y1="-3784.85" x2="1123.16" y2="-3897.29" gradientTransform="translate(0 -3623.44) scale(1 -1)" gradientUnits="userSpaceOnUse">
      <stop offset="0" stop-color="#478f43"/>
      <stop offset="1" stop-color="#7cd85b"/>
    </linearGradient>
    <linearGradient id="linear-gradient-3" x1="1096.69" y1="-3853.93" x2="1193.43" y2="-3956.31" gradientTransform="translate(0 -3623.44) scale(1 -1)" gradientUnits="userSpaceOnUse">
      <stop offset="0" stop-color="#7dcf78"/>
      <stop offset="1" stop-color="#7cd85b"/>
    </linearGradient>
    <linearGradient id="linear-gradient-4" x1="1087.53" y1="-3664.06" x2="1123.29" y2="-3776.49" xlink:href="#linear-gradient-2"/>
    <linearGradient id="linear-gradient-5" x1="1096.81" y1="-3733.14" x2="1193.56" y2="-3835.52" xlink:href="#linear-gradient-3"/>
    <clipPath id="clippath">
      <circle class="cls-2" cx="982.64" cy="665.75" r="157.3"/>
    </clipPath>
    <linearGradient id="linear-gradient-6" x1="152.81" y1="-4230.59" x2="188.57" y2="-4343.03" xlink:href="#linear-gradient-2"/>
    <linearGradient id="linear-gradient-7" x1="162.09" y1="-4299.67" x2="258.84" y2="-4402.05" xlink:href="#linear-gradient-3"/>
    <linearGradient id="linear-gradient-8" x1="245.59" y1="-4276.72" x2="281.35" y2="-4389.15" xlink:href="#linear-gradient-2"/>
    <linearGradient id="linear-gradient-9" x1="254.87" y1="-4345.8" x2="351.62" y2="-4448.18" xlink:href="#linear-gradient-3"/>
  </defs>
  <rect class="cls-12" x="202.49" y="119.18" width="901.47" height="602.47" rx="22.52" ry="22.52"/>
  <circle class="cls-11" cx="233.24" cy="143.19" r="8.43"/>
  <circle class="cls-16" cx="259.28" cy="143.19" r="8.43"/>
  <circle class="cls-20" cx="284.07" cy="143.19" r="8.43"/>
  <g>
    <path class="cls-14" d="M1099.11,340.71l-70.01-40.68-.25-88.96,70.01,40.68.25,88.96Z"/>
    <path class="cls-10" d="M1098.86,251.76l-70.01-40.68,77.41-44.69,70.01,40.68-77.41,44.69Z"/>
    <path class="cls-9" d="M1176.27,207.06l.25,88.95-77.41,44.7-.25-88.96,77.41-44.69Z"/>
  </g>
  <g>
    <path class="cls-14" d="M1099.24,219.92l-70.01-40.68-.25-88.96,70.01,40.68.25,88.96Z"/>
    <path class="cls-8" d="M1098.99,130.97l-70.01-40.68,77.41-44.69,70.01,40.68-77.41,44.69Z"/>
    <path class="cls-5" d="M1176.4,86.27l.25,88.95-77.41,44.7-.25-88.96,77.41-44.69Z"/>
  </g>
  <path class="cls-15" d="M849.89,234.33H307.44c-2.75,0-4.98-2.23-4.98-4.98s2.23-4.98,4.98-4.98h542.45c2.75,0,4.98,2.23,4.98,4.98s-2.23,4.98-4.98,4.98Z"/>
  <path class="cls-15" d="M849.89,579.76H307.44c-2.75,0-4.98-2.23-4.98-4.98s2.23-4.98,4.98-4.98h542.45c2.75,0,4.98,2.23,4.98,4.98s-2.23,4.98-4.98,4.98Z"/>
  <path class="cls-15" d="M849.89,616.13H307.44c-2.75,0-4.98-2.23-4.98-4.98s2.23-4.98,4.98-4.98h542.45c2.75,0,4.98,2.23,4.98,4.98s-2.23,4.98-4.98,4.98Z"/>
  <path class="cls-15" d="M849.89,351.36H307.44c-2.75,0-4.98-2.23-4.98-4.98s2.23-4.98,4.98-4.98h542.45c2.75,0,4.98,2.23,4.98,4.98s-2.23,4.98-4.98,4.98Z"/>
  <path class="cls-15" d="M650.72,277.97h-343.29c-2.75,0-4.98-2.23-4.98-4.98s2.23-4.98,4.98-4.98h343.29c2.75,0,4.98,2.23,4.98,4.98s-2.23,4.98-4.98,4.98Z"/>
  <path class="cls-15" d="M557.04,428.22h-249.61c-2.75,0-4.98-2.23-4.98-4.98s2.23-4.98,4.98-4.98h249.61c2.75,0,4.98,2.23,4.98,4.98s-2.23,4.98-4.98,4.98Z"/>
  <path class="cls-15" d="M650.72,314.66h-343.29c-2.75,0-4.98-2.23-4.98-4.98s2.23-4.98,4.98-4.98h343.29c2.75,0,4.98,2.23,4.98,4.98s-2.23,4.98-4.98,4.98Z"/>
  <path class="cls-15" d="M468.16,388.05h-160.73c-2.75,0-4.98-2.23-4.98-4.98s2.23-4.98,4.98-4.98h160.73c2.75,0,4.98,2.23,4.98,4.98s-2.23,4.98-4.98,4.98Z"/>
  <path class="cls-15" d="M849.89,468.38H307.44c-2.75,0-4.98-2.23-4.98-4.98s2.23-4.98,4.98-4.98h542.45c2.75,0,4.98,2.23,4.98,4.98s-2.23,4.98-4.98,4.98Z"/>
  <path class="cls-15" d="M557.04,542.41h-249.61c-2.75,0-4.98-2.23-4.98-4.98s2.23-4.98,4.98-4.98h249.61c2.75,0,4.98,2.23,4.98,4.98s-2.23,4.98-4.98,4.98Z"/>
  <path class="cls-15" d="M468.16,505.07h-160.73c-2.75,0-4.98-2.23-4.98-4.98s2.23-4.98,4.98-4.98h160.73c2.75,0,4.98,2.23,4.98,4.98s-2.23,4.98-4.98,4.98Z"/>
  <g>
    <path class="cls-1" d="M1249.38,798.14l.02-.03-110.35-70.98c11.67-29.75,15-63.15,7.71-96.72-19.65-90.52-108.97-147.97-199.49-128.31-90.52,19.65-147.97,108.97-128.31,199.49,19.65,90.52,108.97,147.97,199.49,128.31,34.62-7.52,64.4-25.24,86.88-49.31l109.88,70.68.02-.03c14.54,8.52,33.34,4.13,42.53-10.18,9.2-14.3,5.4-33.23-8.38-42.92ZM1016.23,819.68c-20.75,4.5-41.76,4.81-62.44.91-19.98-3.77-38.82-11.28-56-22.33-17.18-11.05-31.83-25.08-43.54-41.7-12.13-17.2-20.56-36.45-25.06-57.2-4.5-20.75-4.81-41.76-.91-62.44,3.77-19.98,11.28-38.82,22.33-56,11.05-17.18,25.08-31.83,41.7-43.54,17.2-12.13,36.45-20.56,57.2-25.06,20.75-4.5,41.76-4.81,62.44-.91,19.98,3.77,38.82,11.28,56,22.33,17.18,11.05,31.83,25.08,43.54,41.7,12.13,17.2,20.56,36.45,25.06,57.2,4.5,20.75,4.81,41.76.91,62.44-3.77,19.98-11.28,38.82-22.33,56-11.05,17.18-25.08,31.83-41.7,43.54-17.2,12.13-36.45,20.56-57.2,25.06Z"/>
    <circle class="cls-13" cx="982.86" cy="666" r="157.3"/>
    <g class="cls-19">
      <g>
        <path class="cls-18" d="M599.77,452.78v2.22h3.92v3.5h-3.92v13.37h-4.05v-13.37h-2.95v-3.5h2.95v-2.32c0-3.78,2.43-6.06,5.89-6.06,1.01,0,1.84.21,2.11.35v3.43c-.24-.07-.69-.17-1.46-.17-1.07,0-2.49.49-2.49,2.56Z"/>
        <path class="cls-18" d="M613.01,472.36c-4.02,0-6.38-2.98-6.38-6.72v-10.64h4.02v9.91c0,2.08.97,3.85,3.4,3.85s3.53-1.56,3.53-3.78v-9.98h4.02v13.79c0,1.39.1,2.46.17,3.08h-3.85c-.07-.38-.14-1.18-.14-1.87-.83,1.52-2.81,2.36-4.78,2.36Z"/>
        <path class="cls-18" d="M630.82,471.88h-4.02v-16.87h3.92v2.25c1.11-1.94,3.12-2.74,4.99-2.74,4.12,0,6.1,2.98,6.1,6.69v10.67h-4.02v-9.98c0-2.08-.94-3.74-3.46-3.74-2.29,0-3.5,1.77-3.5,3.99v9.74Z"/>
        <path class="cls-18" d="M649.39,463.42c0,3.4,2.18,5.3,4.71,5.3s3.85-1.84,4.23-3.12l3.53,1.28c-.8,2.63-3.33,5.51-7.76,5.51-4.95,0-8.73-3.85-8.73-8.97s3.78-8.94,8.63-8.94c4.54,0,7.03,2.84,7.73,5.54l-3.6,1.32c-.38-1.49-1.52-3.15-4.09-3.15s-4.64,1.84-4.64,5.23Z"/>
        <path class="cls-18" d="M670.53,455h3.5v3.57h-3.5v7.83c0,1.49.66,2.11,2.15,2.11.55,0,1.21-.1,1.39-.14v3.33c-.24.1-1,.38-2.46.38-3.12,0-5.06-1.87-5.06-5.02v-8.49h-3.12v-3.57h.87c1.8,0,2.6-1.14,2.6-2.63v-2.53h3.64v5.16Z"/>
        <path class="cls-18" d="M680.13,446.44c1.46,0,2.63,1.18,2.63,2.63s-1.18,2.6-2.63,2.6-2.6-1.14-2.6-2.6,1.18-2.63,2.6-2.63ZM678.15,471.88v-16.87h3.98v16.87h-3.98Z"/>
        <path class="cls-18" d="M703.52,463.42c0,5.2-3.71,8.97-8.77,8.97s-8.73-3.78-8.73-8.97,3.71-8.94,8.73-8.94,8.77,3.78,8.77,8.94ZM699.46,463.42c0-3.5-2.22-5.3-4.71-5.3s-4.71,1.8-4.71,5.3,2.25,5.37,4.71,5.37,4.71-1.84,4.71-5.37Z"/>
        <path class="cls-18" d="M711.42,471.88h-4.02v-16.87h3.92v2.25c1.11-1.94,3.12-2.74,4.99-2.74,4.12,0,6.1,2.98,6.1,6.69v10.67h-4.02v-9.98c0-2.08-.94-3.74-3.47-3.74-2.29,0-3.5,1.77-3.5,3.99v9.74Z"/>
        <path class="cls-18" d="M756.08,468.79c0,1.52.14,2.81.17,3.08h-3.85c-.07-.38-.17-1.49-.17-2.18-.8,1.42-2.56,2.6-4.95,2.6-4.85,0-8.11-3.81-8.11-8.91s3.29-8.83,8.04-8.83c2.95,0,4.44,1.35,4.95,2.42v-10.19h3.92v22ZM747.73,468.76c2.63,0,4.47-2.18,4.47-5.41s-1.8-5.23-4.44-5.23-4.57,2.04-4.57,5.27,1.8,5.37,4.54,5.37Z"/>
        <path class="cls-18" d="M771.23,458.99c-.45-.07-.9-.1-1.32-.1-3.12,0-4.54,1.8-4.54,4.95v8.04h-4.02v-16.87h3.92v2.7c.8-1.84,2.67-2.91,4.89-2.91.49,0,.9.07,1.07.1v4.09Z"/>
        <path class="cls-18" d="M790.6,463.42c0,5.2-3.71,8.97-8.77,8.97s-8.73-3.78-8.73-8.97,3.71-8.94,8.73-8.94,8.77,3.78,8.77,8.94ZM786.54,463.42c0-3.5-2.22-5.3-4.71-5.3s-4.71,1.8-4.71,5.3,2.25,5.37,4.71,5.37,4.71-1.84,4.71-5.37Z"/>
        <path class="cls-18" d="M794.48,478.46v-23.46h3.88v2.29c.83-1.46,2.77-2.67,5.37-2.67,4.99,0,7.8,3.81,7.8,8.8s-3.08,8.87-7.93,8.87c-2.42,0-4.26-1.04-5.13-2.32v8.49h-3.98ZM802.97,458.19c-2.63,0-4.54,2.08-4.54,5.23s1.91,5.3,4.54,5.3,4.54-2.08,4.54-5.3-1.84-5.23-4.54-5.23Z"/>
        <path class="cls-18" d="M836.2,462.17h-3.05v9.7h-4.19v-24.57h9.42c4.75,0,7.69,3.29,7.69,7.45,0,3.5-2.11,6.17-5.54,7l5.54,10.12h-4.71l-5.16-9.7ZM837.62,458.5c2.56,0,4.23-1.49,4.23-3.74s-1.66-3.78-4.23-3.78h-4.47v7.52h4.47Z"/>
        <path class="cls-18" d="M852.14,446.44c1.46,0,2.63,1.18,2.63,2.63s-1.18,2.6-2.63,2.6-2.6-1.14-2.6-2.6,1.18-2.63,2.6-2.63ZM850.16,471.88v-16.87h3.98v16.87h-3.98Z"/>
        <path class="cls-18" d="M861.84,471.84c.28,2.08,1.91,3.64,4.23,3.64,3.19,0,4.78-1.63,4.78-5.06v-1.77c-.73,1.32-2.43,2.46-4.89,2.46-4.5,0-7.8-3.46-7.8-8.21s3.15-8.21,7.8-8.21c2.63,0,4.26,1.07,4.99,2.46v-2.15h3.88v15.28c0,4.5-2.32,8.7-8.66,8.7-4.47,0-7.59-2.77-8.04-6.17l3.71-.97ZM870.95,462.9c0-2.88-1.84-4.75-4.33-4.75s-4.4,1.87-4.4,4.75,1.77,4.78,4.4,4.78,4.33-1.87,4.33-4.78Z"/>
        <path class="cls-18" d="M883.78,471.88h-4.02v-25.09h4.02v9.84c1.14-1.49,3.05-2.11,4.82-2.11,4.16,0,6.17,2.98,6.17,6.69v10.67h-4.02v-9.98c0-2.08-.94-3.74-3.46-3.74-2.22,0-3.43,1.66-3.5,3.81v9.91Z"/>
        <path class="cls-18" d="M904.74,455h3.5v3.57h-3.5v7.83c0,1.49.66,2.11,2.15,2.11.55,0,1.21-.1,1.39-.14v3.33c-.24.1-1.01.38-2.46.38-3.12,0-5.06-1.87-5.06-5.02v-8.49h-3.12v-3.57h.87c1.8,0,2.6-1.14,2.6-2.63v-2.53h3.64v5.16Z"/>
        <path class="cls-18" d="M931.53,443.88l2.36,2.15c-3.6,3.95-5.93,8.59-5.93,14.76s2.32,10.85,5.93,14.79l-2.36,2.11c-3.88-3.88-6.96-9.15-6.96-16.91s3.08-13.03,6.96-16.91Z"/>
        <path class="cls-18" d="M940.43,462.21l4.33-.66c.97-.14,1.25-.62,1.25-1.21,0-1.42-.97-2.56-3.19-2.56s-3.29,1.35-3.47,3.05l-3.67-.83c.31-2.91,2.95-5.51,7.1-5.51,5.2,0,7.17,2.95,7.17,6.31v8.38c0,1.52.17,2.53.21,2.7h-3.74c-.03-.1-.17-.8-.17-2.15-.8,1.28-2.46,2.67-5.2,2.67-3.53,0-5.72-2.43-5.72-5.09,0-3.01,2.22-4.68,5.09-5.09ZM946.01,464.88v-.76l-4.4.66c-1.25.21-2.25.9-2.25,2.29,0,1.14.87,2.18,2.46,2.18,2.25,0,4.19-1.07,4.19-4.37Z"/>
        <path class="cls-18" d="M964.69,458.99c-.45-.07-.9-.1-1.32-.1-3.12,0-4.54,1.8-4.54,4.95v8.04h-4.02v-16.87h3.92v2.7c.8-1.84,2.67-2.91,4.89-2.91.49,0,.9.07,1.07.1v4.09Z"/>
        <path class="cls-18" d="M977.92,458.99c-.45-.07-.9-.1-1.32-.1-3.12,0-4.54,1.8-4.54,4.95v8.04h-4.02v-16.87h3.92v2.7c.8-1.84,2.67-2.91,4.89-2.91.49,0,.9.07,1.07.1v4.09Z"/>
        <path class="cls-18" d="M985.37,462.21l4.33-.66c.97-.14,1.25-.62,1.25-1.21,0-1.42-.97-2.56-3.19-2.56s-3.29,1.35-3.47,3.05l-3.67-.83c.31-2.91,2.95-5.51,7.1-5.51,5.2,0,7.17,2.95,7.17,6.31v8.38c0,1.52.17,2.53.21,2.7h-3.74c-.03-.1-.17-.8-.17-2.15-.8,1.28-2.46,2.67-5.2,2.67-3.53,0-5.72-2.43-5.72-5.09,0-3.01,2.22-4.68,5.09-5.09ZM990.95,464.88v-.76l-4.4.66c-1.25.21-2.25.9-2.25,2.29,0,1.14.87,2.18,2.46,2.18,2.25,0,4.19-1.07,4.19-4.37Z"/>
        <path class="cls-18" d="M1000.17,478.7l4.05-8.84-7.21-14.86h4.54l4.85,10.67,4.54-10.67h4.26l-10.74,23.7h-4.3Z"/>
        <path class="cls-18" d="M1017.11,466.71c1.84,0,3.15,1.46,3.15,3.67,0,4.85-3.29,6.9-5.65,7.21v-2.04c1.59-.35,3.05-1.94,3.08-3.74-.14.07-.38.17-.83.17-1.52,0-2.63-1.04-2.63-2.63,0-1.46,1.25-2.63,2.88-2.63Z"/>
        <path class="cls-18" d="M1042.34,471.88h-4.02v-16.87h3.92v2.25c1.11-1.94,3.12-2.74,4.99-2.74,4.12,0,6.1,2.98,6.1,6.69v10.67h-4.02v-9.98c0-2.08-.94-3.74-3.46-3.74-2.29,0-3.5,1.77-3.5,3.99v9.74Z"/>
        <path class="cls-18" d="M1057.66,459.99v-3.26h16.46v3.26h-16.46ZM1057.66,466.82v-3.29h16.46v3.29h-16.46Z"/>
        <path class="cls-18" d="M1082.4,471.88v-15.38h-5.44v-2.84c3.22-.07,5.44-1.87,5.92-4.23h3.6v22.45h-4.09Z"/>
        <path class="cls-18" d="M1091.61,477.7l-2.36-2.11c3.64-3.95,5.92-8.59,5.92-14.79s-2.29-10.81-5.92-14.76l2.36-2.15c3.92,3.88,6.97,9.15,6.97,16.91s-3.05,13.03-6.97,16.91Z"/>
        <path class="cls-18" d="M1115.01,458.95c1.97,0,3.64-.9,3.64-3.33v-4.85c0-4.44,2.39-6.58,6.48-6.58h.8v3.08h-.76c-2.08,0-3.12.97-3.12,3.36v5.75c0,2.25-1.32,3.81-3.53,4.3,2.22.52,3.53,2.08,3.53,4.33v5.75c0,2.39,1.04,3.33,3.12,3.33h.76v3.08h-.8c-4.09,0-6.48-2.15-6.48-6.58v-4.82c0-2.46-1.66-3.36-3.64-3.36v-3.47Z"/>
        <path class="cls-18" d="M1130.7,463.42c0,3.4,2.18,5.3,4.71,5.3s3.85-1.84,4.23-3.12l3.53,1.28c-.8,2.63-3.33,5.51-7.76,5.51-4.95,0-8.73-3.85-8.73-8.97s3.78-8.94,8.63-8.94c4.54,0,7.03,2.84,7.73,5.54l-3.6,1.32c-.38-1.49-1.52-3.15-4.09-3.15s-4.64,1.84-4.64,5.23Z"/>
        <path class="cls-18" d="M1162.75,463.42c0,5.2-3.71,8.97-8.77,8.97s-8.73-3.78-8.73-8.97,3.71-8.94,8.73-8.94,8.77,3.78,8.77,8.94ZM1158.7,463.42c0-3.5-2.22-5.3-4.71-5.3s-4.71,1.8-4.71,5.3,2.25,5.37,4.71,5.37,4.71-1.84,4.71-5.37Z"/>
        <path class="cls-18" d="M1170.65,471.88h-4.02v-16.87h3.92v2.25c1.11-1.94,3.12-2.74,4.99-2.74,4.12,0,6.1,2.98,6.1,6.69v10.67h-4.02v-9.98c0-2.08-.94-3.74-3.46-3.74-2.29,0-3.5,1.77-3.5,3.99v9.74Z"/>
        <path class="cls-18" d="M1188.53,466.33c.14,1.52,1.28,2.88,3.43,2.88,1.66,0,2.53-.9,2.53-1.94,0-.9-.62-1.59-1.97-1.87l-2.49-.55c-2.98-.66-4.54-2.6-4.54-4.92,0-2.95,2.7-5.44,6.2-5.44,4.71,0,6.24,3.05,6.51,4.71l-3.4.97c-.14-.97-.87-2.53-3.12-2.53-1.42,0-2.43.9-2.43,1.94,0,.9.66,1.56,1.7,1.77l2.56.52c3.19.69,4.85,2.63,4.85,5.13s-2.08,5.41-6.38,5.41c-4.89,0-6.76-3.19-6.96-5.09l3.5-.97Z"/>
        <path class="cls-18" d="M1207.45,455h3.5v3.57h-3.5v7.83c0,1.49.66,2.11,2.15,2.11.55,0,1.21-.1,1.39-.14v3.33c-.24.1-1,.38-2.46.38-3.12,0-5.06-1.87-5.06-5.02v-8.49h-3.12v-3.57h.87c1.8,0,2.6-1.14,2.6-2.63v-2.53h3.64v5.16Z"/>
        <path class="cls-18" d="M1228.21,471.88v-25.09h4.02v25.09h-4.02Z"/>
        <path class="cls-18" d="M1252.36,467.06c-.9,2.94-3.57,5.34-7.62,5.34-4.57,0-8.63-3.33-8.63-9.04,0-5.34,3.95-8.87,8.21-8.87,5.2,0,8.25,3.43,8.25,8.77,0,.66-.07,1.21-.1,1.28h-12.34c.1,2.56,2.11,4.4,4.61,4.4s3.67-1.28,4.23-2.94l3.4,1.07ZM1248.52,461.58c-.07-1.97-1.39-3.74-4.16-3.74-2.53,0-3.98,1.94-4.12,3.74h8.28Z"/>
        <path class="cls-18" d="M1260.44,471.88h-4.02v-16.87h3.92v2.25c1.11-1.94,3.12-2.74,4.99-2.74,4.12,0,6.1,2.98,6.1,6.69v10.67h-4.02v-9.98c0-2.08-.94-3.74-3.47-3.74-2.29,0-3.5,1.77-3.5,3.99v9.74Z"/>
        <path class="cls-18" d="M598.84,503.79l4.33-.66c.97-.14,1.25-.62,1.25-1.21,0-1.42-.97-2.56-3.19-2.56s-3.29,1.35-3.47,3.05l-3.67-.83c.31-2.91,2.95-5.51,7.1-5.51,5.2,0,7.17,2.95,7.17,6.31v8.38c0,1.52.17,2.53.21,2.7h-3.74c-.03-.1-.17-.8-.17-2.15-.8,1.28-2.46,2.67-5.2,2.67-3.53,0-5.72-2.43-5.72-5.09,0-3.01,2.22-4.68,5.09-5.09ZM604.42,506.46v-.76l-4.4.66c-1.25.21-2.25.9-2.25,2.29,0,1.14.87,2.18,2.46,2.18,2.25,0,4.19-1.07,4.19-4.37Z"/>
        <path class="cls-18" d="M623.09,500.57c-.45-.07-.9-.1-1.32-.1-3.12,0-4.54,1.8-4.54,4.95v8.04h-4.02v-16.87h3.92v2.7c.8-1.84,2.67-2.91,4.89-2.91.49,0,.9.07,1.07.1v4.09Z"/>
        <path class="cls-18" d="M636.33,500.57c-.45-.07-.9-.1-1.32-.1-3.12,0-4.54,1.8-4.54,4.95v8.04h-4.02v-16.87h3.92v2.7c.8-1.84,2.67-2.91,4.89-2.91.49,0,.9.07,1.07.1v4.09Z"/>
        <path class="cls-18" d="M643.78,503.79l4.33-.66c.97-.14,1.25-.62,1.25-1.21,0-1.42-.97-2.56-3.19-2.56s-3.29,1.35-3.47,3.05l-3.67-.83c.31-2.91,2.95-5.51,7.1-5.51,5.2,0,7.17,2.95,7.17,6.31v8.38c0,1.52.17,2.53.21,2.7h-3.74c-.03-.1-.17-.8-.17-2.15-.8,1.28-2.46,2.67-5.2,2.67-3.53,0-5.72-2.43-5.72-5.09,0-3.01,2.22-4.68,5.09-5.09ZM649.36,506.46v-.76l-4.4.66c-1.25.21-2.25.9-2.25,2.29,0,1.14.87,2.18,2.46,2.18,2.25,0,4.19-1.07,4.19-4.37Z"/>
        <path class="cls-18" d="M658.58,520.28l4.05-8.84-7.21-14.86h4.54l4.85,10.67,4.54-10.67h4.26l-10.74,23.7h-4.3Z"/>
        <path class="cls-18" d="M684.28,501.57v-3.26h16.46v3.26h-16.46ZM684.28,508.4v-3.29h16.46v3.29h-16.46Z"/>
        <path class="cls-18" d="M705,501.57v-3.26h16.46v3.26h-16.46ZM705,508.4v-3.29h16.46v3.29h-16.46Z"/>
        <path class="cls-18" d="M738.36,513.46h-4.02v-16.87h3.92v2.25c1.11-1.94,3.12-2.74,4.99-2.74,4.12,0,6.1,2.98,6.1,6.69v10.67h-4.02v-9.98c0-2.08-.94-3.74-3.46-3.74-2.29,0-3.5,1.77-3.5,3.98v9.74Z"/>
        <path class="cls-18" d="M760.19,513.94c-4.02,0-6.38-2.98-6.38-6.72v-10.64h4.02v9.91c0,2.08.97,3.85,3.4,3.85s3.53-1.56,3.53-3.78v-9.98h4.02v13.79c0,1.39.1,2.46.17,3.08h-3.85c-.07-.38-.14-1.18-.14-1.87-.83,1.52-2.81,2.36-4.78,2.36Z"/>
        <path class="cls-18" d="M773.98,513.46v-25.09h4.02v25.09h-4.02Z"/>
        <path class="cls-18" d="M783.2,513.46v-25.09h4.02v25.09h-4.02Z"/>
        <path class="cls-18" d="M804.75,506.18c-.03-.45-.07-.83-.07-1.32,0-2.08.8-3.78,2.81-5.23l1.59-1.14c1.14-.83,1.63-1.84,1.63-3.01,0-1.8-1.21-3.5-3.74-3.5s-3.92,1.97-3.92,3.95c0,.52.07,1.18.21,1.56l-3.92-.28c-.14-.48-.21-1.04-.21-1.59,0-3.47,2.6-7.24,7.83-7.24s7.9,3.4,7.9,6.93c0,2.74-1.46,4.68-3.47,6.1l-1.49,1.04c-1.14.8-1.73,1.94-1.73,3.29,0,.07,0,.24.04.45h-3.47ZM806.51,508.61c1.39,0,2.53,1.18,2.53,2.56s-1.14,2.53-2.53,2.53-2.53-1.14-2.53-2.53,1.11-2.56,2.53-2.56Z"/>
        <path class="cls-18" d="M827.75,494.16c1.46-2.18,3.81-3.67,7.17-3.67s5.68,1.49,7.14,3.67c1.52,2.29,2.01,5.09,2.01,8.07s-.49,5.79-2.01,8.07c-1.46,2.18-3.78,3.67-7.14,3.67s-5.72-1.49-7.17-3.67c-1.52-2.29-2.01-5.09-2.01-8.07s.49-5.79,2.01-8.07ZM831.46,508.64c.76,1,1.84,1.66,3.47,1.66s2.67-.66,3.46-1.66c1.07-1.39,1.56-3.57,1.56-6.41s-.49-5.02-1.56-6.41c-.8-1-1.84-1.66-3.46-1.66s-2.7.66-3.47,1.66c-1.11,1.39-1.59,3.57-1.59,6.41s.52,5.02,1.59,6.41Z"/>
        <path class="cls-18" d="M859.03,496.37c1.52,0,2.81,1.25,2.81,2.81s-1.28,2.77-2.81,2.77-2.81-1.25-2.81-2.77,1.25-2.81,2.81-2.81ZM859.07,508.09c1.52,0,2.81,1.25,2.81,2.81s-1.28,2.77-2.81,2.77-2.81-1.25-2.81-2.77,1.25-2.81,2.81-2.81Z"/>
        <path class="cls-18" d="M879.09,503.79l4.33-.66c.97-.14,1.25-.62,1.25-1.21,0-1.42-.97-2.56-3.19-2.56s-3.29,1.35-3.47,3.05l-3.67-.83c.31-2.91,2.95-5.51,7.1-5.51,5.2,0,7.17,2.95,7.17,6.31v8.38c0,1.52.17,2.53.21,2.7h-3.74c-.03-.1-.17-.8-.17-2.15-.8,1.28-2.46,2.67-5.2,2.67-3.53,0-5.72-2.43-5.72-5.09,0-3.01,2.22-4.68,5.09-5.09ZM884.67,506.46v-.76l-4.4.66c-1.25.21-2.25.9-2.25,2.29,0,1.14.87,2.18,2.46,2.18,2.25,0,4.19-1.07,4.19-4.37Z"/>
        <path class="cls-18" d="M903.34,500.57c-.45-.07-.9-.1-1.32-.1-3.12,0-4.54,1.8-4.54,4.95v8.04h-4.02v-16.87h3.92v2.7c.8-1.84,2.67-2.91,4.89-2.91.49,0,.9.07,1.07.1v4.09Z"/>
        <path class="cls-18" d="M916.58,500.57c-.45-.07-.9-.1-1.32-.1-3.12,0-4.54,1.8-4.54,4.95v8.04h-4.02v-16.87h3.92v2.7c.8-1.84,2.67-2.91,4.89-2.91.49,0,.9.07,1.07.1v4.09Z"/>
        <path class="cls-18" d="M924.03,503.79l4.33-.66c.97-.14,1.25-.62,1.25-1.21,0-1.42-.97-2.56-3.19-2.56s-3.29,1.35-3.47,3.05l-3.67-.83c.31-2.91,2.95-5.51,7.1-5.51,5.2,0,7.17,2.95,7.17,6.31v8.38c0,1.52.17,2.53.21,2.7h-3.74c-.03-.1-.17-.8-.17-2.15-.8,1.28-2.46,2.67-5.2,2.67-3.53,0-5.72-2.43-5.72-5.09,0-3.01,2.22-4.68,5.09-5.09ZM929.61,506.46v-.76l-4.4.66c-1.25.21-2.25.9-2.25,2.29,0,1.14.87,2.18,2.46,2.18,2.25,0,4.19-1.07,4.19-4.37Z"/>
        <path class="cls-18" d="M938.83,520.28l4.05-8.84-7.21-14.86h4.54l4.85,10.67,4.54-10.67h4.26l-10.74,23.7h-4.3Z"/>
        <path class="cls-18" d="M955.77,508.02c1.56,0,2.84,1.28,2.84,2.84s-1.28,2.81-2.84,2.81-2.81-1.25-2.81-2.81,1.25-2.84,2.81-2.84Z"/>
        <path class="cls-18" d="M971.67,513.46v-25.09h4.02v25.09h-4.02Z"/>
        <path class="cls-18" d="M995.82,508.64c-.9,2.94-3.57,5.34-7.62,5.34-4.57,0-8.63-3.33-8.63-9.04,0-5.34,3.95-8.87,8.21-8.87,5.2,0,8.25,3.43,8.25,8.77,0,.66-.07,1.21-.1,1.28h-12.33c.1,2.56,2.11,4.4,4.61,4.4s3.67-1.28,4.23-2.94l3.4,1.07ZM991.97,503.17c-.07-1.97-1.39-3.74-4.16-3.74-2.53,0-3.98,1.94-4.12,3.74h8.28Z"/>
        <path class="cls-18" d="M1003.89,513.46h-4.02v-16.87h3.92v2.25c1.11-1.94,3.12-2.74,4.99-2.74,4.12,0,6.1,2.98,6.1,6.69v10.67h-4.02v-9.98c0-2.08-.94-3.74-3.46-3.74-2.29,0-3.5,1.77-3.5,3.98v9.74Z"/>
        <path class="cls-18" d="M1022.26,513.42c.28,2.08,1.91,3.64,4.23,3.64,3.19,0,4.78-1.63,4.78-5.06v-1.77c-.73,1.32-2.43,2.46-4.89,2.46-4.5,0-7.8-3.46-7.8-8.21s3.15-8.21,7.8-8.21c2.63,0,4.26,1.07,4.99,2.46v-2.15h3.88v15.28c0,4.5-2.32,8.7-8.66,8.7-4.47,0-7.59-2.77-8.04-6.17l3.71-.97ZM1031.37,504.48c0-2.88-1.84-4.75-4.33-4.75s-4.4,1.87-4.4,4.75,1.77,4.78,4.4,4.78,4.33-1.87,4.33-4.78Z"/>
        <path class="cls-18" d="M1045.26,496.58h3.5v3.57h-3.5v7.83c0,1.49.66,2.11,2.15,2.11.55,0,1.21-.1,1.39-.14v3.33c-.24.1-1.01.38-2.46.38-3.12,0-5.06-1.87-5.06-5.02v-8.49h-3.12v-3.57h.87c1.8,0,2.6-1.14,2.6-2.63v-2.53h3.64v5.16Z"/>
        <path class="cls-18" d="M1056.42,513.46h-4.02v-25.09h4.02v9.84c1.14-1.49,3.05-2.11,4.82-2.11,4.16,0,6.17,2.98,6.17,6.69v10.67h-4.02v-9.98c0-2.08-.94-3.74-3.47-3.74-2.22,0-3.43,1.66-3.5,3.81v9.91Z"/>
        <path class="cls-18" d="M1076.31,513.46h-4.02v-16.87h3.92v2.25c1.11-1.94,3.12-2.74,4.99-2.74,4.12,0,6.1,2.98,6.1,6.69v10.67h-4.02v-9.98c0-2.08-.94-3.74-3.46-3.74-2.29,0-3.5,1.77-3.5,3.98v9.74Z"/>
        <path class="cls-18" d="M1099.9,501.57v-3.26h16.46v3.26h-16.46ZM1099.9,508.4v-3.29h16.46v3.29h-16.46Z"/>
        <path class="cls-18" d="M1129.24,513.46v-25.09h4.02v25.09h-4.02Z"/>
        <path class="cls-18" d="M1153.4,508.64c-.9,2.94-3.57,5.34-7.62,5.34-4.57,0-8.63-3.33-8.63-9.04,0-5.34,3.95-8.87,8.21-8.87,5.2,0,8.25,3.43,8.25,8.77,0,.66-.07,1.21-.1,1.28h-12.34c.1,2.56,2.11,4.4,4.61,4.4s3.67-1.28,4.23-2.94l3.4,1.07ZM1149.55,503.17c-.07-1.97-1.39-3.74-4.16-3.74-2.53,0-3.98,1.94-4.12,3.74h8.28Z"/>
        <path class="cls-18" d="M1161.47,513.46h-4.02v-16.87h3.92v2.25c1.11-1.94,3.12-2.74,4.99-2.74,4.12,0,6.1,2.98,6.1,6.69v10.67h-4.02v-9.98c0-2.08-.94-3.74-3.46-3.74-2.29,0-3.5,1.77-3.5,3.98v9.74Z"/>
        <path class="cls-18" d="M1179.83,513.42c.28,2.08,1.91,3.64,4.23,3.64,3.19,0,4.78-1.63,4.78-5.06v-1.77c-.73,1.32-2.43,2.46-4.89,2.46-4.5,0-7.8-3.46-7.8-8.21s3.15-8.21,7.8-8.21c2.63,0,4.26,1.07,4.99,2.46v-2.15h3.88v15.28c0,4.5-2.32,8.7-8.66,8.7-4.47,0-7.59-2.77-8.04-6.17l3.71-.97ZM1188.95,504.48c0-2.88-1.84-4.75-4.33-4.75s-4.4,1.87-4.4,4.75,1.77,4.78,4.4,4.78,4.33-1.87,4.33-4.78Z"/>
        <path class="cls-18" d="M1202.84,496.58h3.5v3.57h-3.5v7.83c0,1.49.66,2.11,2.15,2.11.55,0,1.21-.1,1.39-.14v3.33c-.24.1-1.01.38-2.46.38-3.12,0-5.06-1.87-5.06-5.02v-8.49h-3.12v-3.57h.87c1.8,0,2.6-1.14,2.6-2.63v-2.53h3.64v5.16Z"/>
        <path class="cls-18" d="M1214,513.46h-4.02v-25.09h4.02v9.84c1.14-1.49,3.05-2.11,4.82-2.11,4.16,0,6.17,2.98,6.17,6.69v10.67h-4.02v-9.98c0-2.08-.94-3.74-3.47-3.74-2.22,0-3.43,1.66-3.5,3.81v9.91Z"/>
        <path class="cls-18" d="M1235.36,505.11v-3.57h9.77v3.57h-9.77Z"/>
        <path class="cls-18" d="M1260.82,496.58h3.5v3.57h-3.5v7.83c0,1.49.66,2.11,2.15,2.11.55,0,1.21-.1,1.39-.14v3.33c-.24.1-1.01.38-2.46.38-3.12,0-5.06-1.87-5.06-5.02v-8.49h-3.12v-3.57h.87c1.8,0,2.6-1.14,2.6-2.63v-2.53h3.64v5.16Z"/>
        <path class="cls-18" d="M597.28,555c.28,2.08,1.91,3.64,4.23,3.64,3.19,0,4.78-1.63,4.78-5.06v-1.77c-.73,1.32-2.43,2.46-4.89,2.46-4.5,0-7.8-3.46-7.8-8.21s3.15-8.21,7.8-8.21c2.63,0,4.26,1.07,4.99,2.46v-2.15h3.88v15.28c0,4.5-2.32,8.7-8.66,8.7-4.47,0-7.59-2.77-8.04-6.17l3.71-.97ZM606.39,546.06c0-2.88-1.84-4.75-4.33-4.75s-4.4,1.87-4.4,4.75,1.77,4.78,4.4,4.78,4.33-1.87,4.33-4.78Z"/>
        <path class="cls-18" d="M630.13,550.22c-.9,2.94-3.57,5.34-7.62,5.34-4.57,0-8.63-3.33-8.63-9.04,0-5.34,3.95-8.87,8.21-8.87,5.2,0,8.25,3.43,8.25,8.77,0,.66-.07,1.21-.1,1.28h-12.34c.1,2.56,2.11,4.4,4.61,4.4s3.67-1.28,4.23-2.94l3.4,1.07ZM626.28,544.75c-.07-1.97-1.39-3.74-4.16-3.74-2.53,0-3.99,1.94-4.12,3.74h8.28Z"/>
        <path class="cls-18" d="M644.06,542.15c-.45-.07-.9-.1-1.32-.1-3.12,0-4.54,1.8-4.54,4.95v8.04h-4.02v-16.87h3.92v2.7c.8-1.84,2.67-2.91,4.89-2.91.49,0,.9.07,1.07.1v4.09Z"/>
        <path class="cls-18" d="M653.38,527.04l2.36,2.15c-3.6,3.95-5.92,8.59-5.92,14.76s2.32,10.85,5.92,14.79l-2.36,2.11c-3.88-3.88-6.96-9.15-6.96-16.91s3.08-13.03,6.96-16.91Z"/>
        <path class="cls-18" d="M662.35,555.04h-4.02v-16.87h3.92v2.25c1.11-1.94,3.12-2.74,4.99-2.74,4.12,0,6.1,2.98,6.1,6.69v10.67h-4.02v-9.98c0-2.08-.94-3.74-3.47-3.74-2.29,0-3.5,1.77-3.5,3.98v9.74Z"/>
        <path class="cls-18" d="M677.98,560.86l-2.36-2.11c3.64-3.95,5.92-8.59,5.92-14.79s-2.29-10.81-5.92-14.76l2.36-2.15c3.92,3.88,6.96,9.15,6.96,16.91s-3.05,13.03-6.96,16.91Z"/>
        <path class="cls-18" d="M707.19,542.15c-.45-.07-.9-.1-1.32-.1-3.12,0-4.54,1.8-4.54,4.95v8.04h-4.02v-16.87h3.92v2.7c.8-1.84,2.67-2.91,4.89-2.91.49,0,.9.07,1.07.1v4.09Z"/>
        <path class="cls-18" d="M725.31,550.22c-.9,2.94-3.57,5.34-7.62,5.34-4.57,0-8.63-3.33-8.63-9.04,0-5.34,3.95-8.87,8.21-8.87,5.2,0,8.25,3.43,8.25,8.77,0,.66-.07,1.21-.1,1.28h-12.33c.1,2.56,2.11,4.4,4.61,4.4s3.67-1.28,4.23-2.94l3.4,1.07ZM721.46,544.75c-.07-1.97-1.39-3.74-4.16-3.74-2.53,0-3.98,1.94-4.12,3.74h8.28Z"/>
        <path class="cls-18" d="M734.46,538.16h3.5v3.57h-3.5v7.83c0,1.49.66,2.11,2.15,2.11.55,0,1.21-.1,1.39-.14v3.33c-.24.1-1.01.38-2.46.38-3.12,0-5.06-1.87-5.06-5.02v-8.49h-3.12v-3.57h.87c1.8,0,2.6-1.14,2.6-2.63v-2.53h3.64v5.16Z"/>
        <path class="cls-18" d="M748.32,555.52c-4.02,0-6.38-2.98-6.38-6.72v-10.64h4.02v9.91c0,2.08.97,3.85,3.4,3.85s3.53-1.56,3.53-3.78v-9.98h4.02v13.79c0,1.39.1,2.46.17,3.08h-3.85c-.07-.38-.14-1.18-.14-1.87-.83,1.52-2.81,2.36-4.78,2.36Z"/>
        <path class="cls-18" d="M771.98,542.15c-.45-.07-.9-.1-1.32-.1-3.12,0-4.54,1.8-4.54,4.95v8.04h-4.02v-16.87h3.92v2.7c.8-1.84,2.67-2.91,4.89-2.91.49,0,.9.07,1.07.1v4.09Z"/>
        <path class="cls-18" d="M779.36,555.04h-4.02v-16.87h3.92v2.25c1.11-1.94,3.12-2.74,4.99-2.74,4.12,0,6.1,2.98,6.1,6.69v10.67h-4.02v-9.98c0-2.08-.94-3.74-3.47-3.74-2.29,0-3.5,1.77-3.5,3.98v9.74Z"/>
        <path class="cls-18" d="M803.34,555.04v-25.09h4.02v25.09h-4.02Z"/>
        <path class="cls-18" d="M827.49,550.22c-.9,2.94-3.57,5.34-7.62,5.34-4.57,0-8.63-3.33-8.63-9.04,0-5.34,3.95-8.87,8.21-8.87,5.2,0,8.25,3.43,8.25,8.77,0,.66-.07,1.21-.1,1.28h-12.33c.1,2.56,2.11,4.4,4.61,4.4s3.67-1.28,4.23-2.94l3.4,1.07ZM823.65,544.75c-.07-1.97-1.39-3.74-4.16-3.74-2.53,0-3.98,1.94-4.12,3.74h8.28Z"/>
        <path class="cls-18" d="M835.57,555.04h-4.02v-16.87h3.92v2.25c1.11-1.94,3.12-2.74,4.99-2.74,4.12,0,6.1,2.98,6.1,6.69v10.67h-4.02v-9.98c0-2.08-.94-3.74-3.46-3.74-2.29,0-3.5,1.77-3.5,3.98v9.74Z"/>
        <path class="cls-18" d="M853.93,555c.28,2.08,1.91,3.64,4.23,3.64,3.19,0,4.78-1.63,4.78-5.06v-1.77c-.73,1.32-2.43,2.46-4.89,2.46-4.5,0-7.8-3.46-7.8-8.21s3.15-8.21,7.8-8.21c2.63,0,4.26,1.07,4.99,2.46v-2.15h3.88v15.28c0,4.5-2.32,8.7-8.66,8.7-4.47,0-7.59-2.77-8.04-6.17l3.71-.97ZM863.04,546.06c0-2.88-1.84-4.75-4.33-4.75s-4.4,1.87-4.4,4.75,1.77,4.78,4.4,4.78,4.33-1.87,4.33-4.78Z"/>
        <path class="cls-18" d="M876.94,538.16h3.5v3.57h-3.5v7.83c0,1.49.66,2.11,2.15,2.11.55,0,1.21-.1,1.39-.14v3.33c-.24.1-1.01.38-2.46.38-3.12,0-5.06-1.87-5.06-5.02v-8.49h-3.12v-3.57h.87c1.8,0,2.6-1.14,2.6-2.63v-2.53h3.64v5.16Z"/>
        <path class="cls-18" d="M888.1,555.04h-4.02v-25.09h4.02v9.84c1.14-1.49,3.05-2.11,4.82-2.11,4.16,0,6.17,2.98,6.17,6.69v10.67h-4.02v-9.98c0-2.08-.94-3.74-3.47-3.74-2.22,0-3.43,1.66-3.5,3.81v9.91Z"/>
        <path class="cls-18" d="M916.23,547.76c-.03-.45-.07-.83-.07-1.32,0-2.08.8-3.78,2.81-5.23l1.59-1.14c1.14-.83,1.63-1.84,1.63-3.01,0-1.8-1.21-3.5-3.74-3.5s-3.92,1.97-3.92,3.95c0,.52.07,1.18.21,1.56l-3.92-.28c-.14-.48-.21-1.04-.21-1.59,0-3.47,2.6-7.24,7.83-7.24s7.9,3.4,7.9,6.93c0,2.74-1.46,4.68-3.47,6.1l-1.49,1.04c-1.14.8-1.73,1.94-1.73,3.29,0,.07,0,.24.04.45h-3.47ZM918,550.19c1.39,0,2.53,1.18,2.53,2.56s-1.14,2.53-2.53,2.53-2.53-1.14-2.53-2.53,1.11-2.56,2.53-2.56Z"/>
        <path class="cls-18" d="M940.21,549.49c.14,1.52,1.28,2.88,3.43,2.88,1.66,0,2.53-.9,2.53-1.94,0-.9-.62-1.59-1.97-1.87l-2.49-.55c-2.98-.66-4.54-2.6-4.54-4.92,0-2.95,2.7-5.44,6.2-5.44,4.71,0,6.24,3.05,6.51,4.71l-3.4.97c-.14-.97-.87-2.53-3.12-2.53-1.42,0-2.43.9-2.43,1.94,0,.9.66,1.56,1.7,1.77l2.56.52c3.19.69,4.85,2.63,4.85,5.13s-2.08,5.41-6.38,5.41c-4.89,0-6.76-3.19-6.96-5.09l3.5-.97Z"/>
        <path class="cls-18" d="M954.03,555.04v-25.09h4.02v25.09h-4.02Z"/>
        <path class="cls-18" d="M965.23,529.61c1.46,0,2.63,1.18,2.63,2.63s-1.18,2.6-2.63,2.6-2.6-1.14-2.6-2.6,1.18-2.63,2.6-2.63ZM963.25,555.04v-16.87h3.98v16.87h-3.98Z"/>
        <path class="cls-18" d="M975.14,546.58c0,3.4,2.18,5.3,4.71,5.3s3.85-1.84,4.23-3.12l3.53,1.28c-.8,2.63-3.33,5.51-7.76,5.51-4.95,0-8.73-3.85-8.73-8.97s3.78-8.94,8.63-8.94c4.54,0,7.03,2.84,7.73,5.54l-3.6,1.32c-.38-1.49-1.52-3.15-4.09-3.15s-4.64,1.84-4.64,5.23Z"/>
        <path class="cls-18" d="M1005.94,550.22c-.9,2.94-3.57,5.34-7.62,5.34-4.57,0-8.63-3.33-8.63-9.04,0-5.34,3.95-8.87,8.21-8.87,5.2,0,8.25,3.43,8.25,8.77,0,.66-.07,1.21-.1,1.28h-12.34c.1,2.56,2.11,4.4,4.61,4.4s3.67-1.28,4.23-2.94l3.4,1.07ZM1002.09,544.75c-.07-1.97-1.39-3.74-4.16-3.74-2.53,0-3.99,1.94-4.12,3.74h8.28Z"/>
        <path class="cls-18" d="M1016.02,527.04l2.36,2.15c-3.6,3.95-5.92,8.59-5.92,14.76s2.32,10.85,5.92,14.79l-2.36,2.11c-3.88-3.88-6.96-9.15-6.96-16.91s3.08-13.03,6.96-16.91Z"/>
        <path class="cls-18" d="M1024.93,545.37l4.33-.66c.97-.14,1.25-.62,1.25-1.21,0-1.42-.97-2.56-3.19-2.56s-3.29,1.35-3.46,3.05l-3.67-.83c.31-2.91,2.94-5.51,7.1-5.51,5.2,0,7.17,2.95,7.17,6.31v8.38c0,1.52.17,2.53.21,2.7h-3.74c-.03-.1-.17-.8-.17-2.15-.8,1.28-2.46,2.67-5.2,2.67-3.53,0-5.72-2.43-5.72-5.09,0-3.01,2.22-4.68,5.09-5.09ZM1030.51,548.04v-.76l-4.4.66c-1.25.21-2.25.9-2.25,2.29,0,1.14.87,2.18,2.46,2.18,2.25,0,4.19-1.07,4.19-4.37Z"/>
        <path class="cls-18" d="M1049.18,542.15c-.45-.07-.9-.1-1.32-.1-3.12,0-4.54,1.8-4.54,4.95v8.04h-4.02v-16.87h3.92v2.7c.8-1.84,2.67-2.91,4.89-2.91.49,0,.9.07,1.07.1v4.09Z"/>
        <path class="cls-18" d="M1062.42,542.15c-.45-.07-.9-.1-1.32-.1-3.12,0-4.54,1.8-4.54,4.95v8.04h-4.02v-16.87h3.92v2.7c.8-1.84,2.67-2.91,4.89-2.91.48,0,.9.07,1.07.1v4.09Z"/>
        <path class="cls-18" d="M1069.87,545.37l4.33-.66c.97-.14,1.25-.62,1.25-1.21,0-1.42-.97-2.56-3.19-2.56s-3.29,1.35-3.47,3.05l-3.67-.83c.31-2.91,2.95-5.51,7.1-5.51,5.2,0,7.17,2.95,7.17,6.31v8.38c0,1.52.17,2.53.21,2.7h-3.74c-.03-.1-.17-.8-.17-2.15-.8,1.28-2.46,2.67-5.2,2.67-3.53,0-5.72-2.43-5.72-5.09,0-3.01,2.22-4.68,5.09-5.09ZM1075.45,548.04v-.76l-4.4.66c-1.25.21-2.25.9-2.25,2.29,0,1.14.87,2.18,2.46,2.18,2.25,0,4.19-1.07,4.19-4.37Z"/>
        <path class="cls-18" d="M1084.67,561.86l4.05-8.84-7.21-14.86h4.54l4.85,10.67,4.54-10.67h4.26l-10.74,23.7h-4.3Z"/>
        <path class="cls-18" d="M1101.61,549.88c1.84,0,3.15,1.46,3.15,3.67,0,4.85-3.29,6.89-5.65,7.21v-2.04c1.59-.35,3.05-1.94,3.08-3.74-.14.07-.38.17-.83.17-1.52,0-2.63-1.04-2.63-2.63,0-1.46,1.25-2.63,2.88-2.63Z"/>
        <path class="cls-18" d="M1118.69,535.74c1.46-2.18,3.81-3.67,7.17-3.67s5.68,1.49,7.14,3.67c1.52,2.29,2.01,5.09,2.01,8.07s-.49,5.79-2.01,8.07c-1.46,2.18-3.78,3.67-7.14,3.67s-5.72-1.49-7.17-3.67c-1.52-2.29-2.01-5.09-2.01-8.07s.48-5.79,2.01-8.07ZM1122.4,550.22c.76,1,1.84,1.66,3.47,1.66s2.67-.66,3.46-1.66c1.07-1.39,1.56-3.57,1.56-6.41s-.49-5.02-1.56-6.41c-.8-1-1.84-1.66-3.46-1.66s-2.7.66-3.47,1.66c-1.11,1.39-1.59,3.57-1.59,6.41s.52,5.02,1.59,6.41Z"/>
        <path class="cls-18" d="M1140.31,549.88c1.84,0,3.15,1.46,3.15,3.67,0,4.85-3.29,6.89-5.65,7.21v-2.04c1.59-.35,3.05-1.94,3.08-3.74-.14.07-.38.17-.83.17-1.52,0-2.63-1.04-2.63-2.63,0-1.46,1.25-2.63,2.88-2.63Z"/>
        <path class="cls-18" d="M1160.44,555.04h-4.02v-16.87h3.92v2.25c1.11-1.94,3.12-2.74,4.99-2.74,4.12,0,6.1,2.98,6.1,6.69v10.67h-4.02v-9.98c0-2.08-.94-3.74-3.46-3.74-2.29,0-3.5,1.77-3.5,3.98v9.74Z"/>
        <path class="cls-18" d="M1183.03,543.33l14.62-7.35v3.85l-10.46,5.09,10.46,5.13v3.85l-14.62-7.31v-3.26Z"/>
        <path class="cls-18" d="M1210.48,535.74c1.46-2.18,3.81-3.67,7.17-3.67s5.68,1.49,7.14,3.67c1.52,2.29,2.01,5.09,2.01,8.07s-.49,5.79-2.01,8.07c-1.46,2.18-3.78,3.67-7.14,3.67s-5.72-1.49-7.17-3.67c-1.52-2.29-2.01-5.09-2.01-8.07s.48-5.79,2.01-8.07ZM1214.18,550.22c.76,1,1.84,1.66,3.47,1.66s2.67-.66,3.46-1.66c1.07-1.39,1.56-3.57,1.56-6.41s-.49-5.02-1.56-6.41c-.8-1-1.84-1.66-3.46-1.66s-2.7.66-3.47,1.66c-1.11,1.39-1.59,3.57-1.59,6.41s.52,5.02,1.59,6.41Z"/>
        <path class="cls-18" d="M1243.22,547.76c-.03-.45-.07-.83-.07-1.32,0-2.08.8-3.78,2.81-5.23l1.59-1.14c1.14-.83,1.63-1.84,1.63-3.01,0-1.8-1.21-3.5-3.74-3.5s-3.92,1.97-3.92,3.95c0,.52.07,1.18.21,1.56l-3.92-.28c-.14-.48-.21-1.04-.21-1.59,0-3.47,2.6-7.24,7.83-7.24s7.9,3.4,7.9,6.93c0,2.74-1.46,4.68-3.47,6.1l-1.49,1.04c-1.14.8-1.73,1.94-1.73,3.29,0,.07,0,.24.03.45h-3.47ZM1244.99,550.19c1.39,0,2.53,1.18,2.53,2.56s-1.14,2.53-2.53,2.53-2.53-1.14-2.53-2.53,1.11-2.56,2.53-2.56Z"/>
        <path class="cls-18" d="M1266.16,535.74c1.46-2.18,3.81-3.67,7.17-3.67s5.68,1.49,7.14,3.67c1.52,2.29,2.01,5.09,2.01,8.07s-.49,5.79-2.01,8.07c-1.46,2.18-3.78,3.67-7.14,3.67s-5.72-1.49-7.17-3.67c-1.52-2.29-2.01-5.09-2.01-8.07s.48-5.79,2.01-8.07ZM1269.87,550.22c.76,1,1.84,1.66,3.47,1.66s2.67-.66,3.46-1.66c1.07-1.39,1.56-3.57,1.56-6.41s-.49-5.02-1.56-6.41c-.8-1-1.84-1.66-3.46-1.66s-2.7.66-3.47,1.66c-1.11,1.39-1.59,3.57-1.59,6.41s.52,5.02,1.59,6.41Z"/>
        <path class="cls-18" d="M595.13,602.06v-33.12h7.42v3.12h-4.02v26.85h4.02v3.15h-7.42Z"/>
        <path class="cls-18" d="M602.89,602.06v-3.15h4.02v-26.85h-4.02v-3.12h7.42v33.12h-7.42Z"/>
        <path class="cls-18" d="M624.34,587.16c-1.97,0-3.64.9-3.64,3.36v4.82c0,4.44-2.39,6.58-6.48,6.58h-.8v-3.08h.76c2.08,0,3.12-.94,3.12-3.33v-5.75c0-2.25,1.32-3.81,3.53-4.33-2.22-.49-3.53-2.04-3.53-4.3v-5.75c0-2.39-1.04-3.36-3.12-3.36h-.76v-3.08h.8c4.09,0,6.48,2.15,6.48,6.58v4.85c0,2.43,1.66,3.33,3.64,3.33v3.47Z"/>
        <path class="cls-18" d="M633.49,577.53v2.22h3.92v3.5h-3.92v13.37h-4.05v-13.37h-2.95v-3.5h2.95v-2.32c0-3.78,2.43-6.06,5.89-6.06,1.01,0,1.84.21,2.11.35v3.43c-.24-.07-.69-.17-1.46-.17-1.07,0-2.49.49-2.49,2.56Z"/>
        <path class="cls-18" d="M646.72,597.1c-4.02,0-6.38-2.98-6.38-6.72v-10.64h4.02v9.91c0,2.08.97,3.85,3.4,3.85s3.53-1.56,3.53-3.78v-9.98h4.02v13.79c0,1.39.1,2.46.17,3.08h-3.85c-.07-.38-.14-1.18-.14-1.87-.83,1.52-2.81,2.36-4.78,2.36Z"/>
        <path class="cls-18" d="M664.53,596.62h-4.02v-16.87h3.92v2.25c1.11-1.94,3.12-2.74,4.99-2.74,4.12,0,6.1,2.98,6.1,6.69v10.67h-4.02v-9.98c0-2.08-.94-3.74-3.46-3.74-2.29,0-3.5,1.77-3.5,3.99v9.74Z"/>
        <path class="cls-18" d="M683.11,588.16c0,3.4,2.18,5.3,4.71,5.3s3.85-1.84,4.23-3.12l3.53,1.28c-.8,2.63-3.33,5.51-7.76,5.51-4.95,0-8.73-3.85-8.73-8.97s3.78-8.94,8.63-8.94c4.54,0,7.03,2.84,7.73,5.54l-3.6,1.32c-.38-1.49-1.52-3.15-4.09-3.15s-4.64,1.84-4.64,5.23Z"/>
        <path class="cls-18" d="M704.24,579.74h3.5v3.57h-3.5v7.83c0,1.49.66,2.11,2.15,2.11.55,0,1.21-.1,1.39-.14v3.33c-.24.1-1,.38-2.46.38-3.12,0-5.06-1.87-5.06-5.02v-8.49h-3.12v-3.57h.87c1.8,0,2.6-1.14,2.6-2.63v-2.53h3.64v5.16Z"/>
        <path class="cls-18" d="M713.84,571.19c1.46,0,2.63,1.18,2.63,2.63s-1.18,2.6-2.63,2.6-2.6-1.14-2.6-2.6,1.18-2.63,2.6-2.63ZM711.87,596.62v-16.87h3.98v16.87h-3.98Z"/>
        <path class="cls-18" d="M737.23,588.16c0,5.2-3.71,8.97-8.77,8.97s-8.73-3.78-8.73-8.97,3.71-8.94,8.73-8.94,8.77,3.78,8.77,8.94ZM733.18,588.16c0-3.5-2.22-5.3-4.71-5.3s-4.71,1.8-4.71,5.3,2.25,5.37,4.71,5.37,4.71-1.84,4.71-5.37Z"/>
        <path class="cls-18" d="M745.13,596.62h-4.02v-16.87h3.92v2.25c1.11-1.94,3.12-2.74,4.99-2.74,4.12,0,6.1,2.98,6.1,6.69v10.67h-4.02v-9.98c0-2.08-.94-3.74-3.47-3.74-2.29,0-3.5,1.77-3.5,3.99v9.74Z"/>
        <path class="cls-18" d="M791.3,588.16c0,3.4,2.18,5.3,4.71,5.3s3.85-1.84,4.23-3.12l3.53,1.28c-.8,2.63-3.33,5.51-7.76,5.51-4.95,0-8.73-3.85-8.73-8.97s3.78-8.94,8.63-8.94c4.54,0,7.03,2.84,7.73,5.54l-3.6,1.32c-.38-1.49-1.52-3.15-4.09-3.15s-4.64,1.84-4.64,5.23Z"/>
        <path class="cls-18" d="M811.3,586.95l4.33-.66c.97-.14,1.25-.62,1.25-1.21,0-1.42-.97-2.56-3.19-2.56s-3.29,1.35-3.46,3.05l-3.67-.83c.31-2.91,2.94-5.51,7.1-5.51,5.2,0,7.17,2.95,7.17,6.31v8.38c0,1.52.17,2.53.21,2.7h-3.74c-.03-.1-.17-.8-.17-2.15-.8,1.28-2.46,2.67-5.2,2.67-3.53,0-5.72-2.43-5.72-5.09,0-3.01,2.22-4.68,5.09-5.09ZM816.88,589.62v-.76l-4.4.66c-1.25.21-2.25.9-2.25,2.29,0,1.14.87,2.18,2.46,2.18,2.25,0,4.19-1.07,4.19-4.37Z"/>
        <path class="cls-18" d="M827.69,591.07c.14,1.52,1.28,2.88,3.43,2.88,1.66,0,2.53-.9,2.53-1.94,0-.9-.62-1.59-1.97-1.87l-2.49-.55c-2.98-.66-4.54-2.6-4.54-4.92,0-2.95,2.7-5.44,6.2-5.44,4.71,0,6.24,3.05,6.51,4.71l-3.4.97c-.14-.97-.87-2.53-3.12-2.53-1.42,0-2.43.9-2.43,1.94,0,.9.66,1.56,1.7,1.77l2.56.52c3.19.69,4.85,2.63,4.85,5.13s-2.08,5.41-6.38,5.41c-4.89,0-6.76-3.19-6.96-5.09l3.5-.97Z"/>
        <path class="cls-18" d="M846.61,579.74h3.5v3.57h-3.5v7.83c0,1.49.66,2.11,2.15,2.11.55,0,1.21-.1,1.39-.14v3.33c-.24.1-1,.38-2.46.38-3.12,0-5.06-1.87-5.06-5.02v-8.49h-3.12v-3.57h.87c1.8,0,2.6-1.14,2.6-2.63v-2.53h3.64v5.16Z"/>
        <path class="cls-18" d="M868.99,590.45h-10.39l-2.29,6.17h-4.4l9.56-24.57h4.82l9.56,24.57h-4.54l-2.32-6.17ZM860.05,586.61h7.48l-3.74-10.05-3.74,10.05Z"/>
        <path class="cls-18" d="M888.57,583.73c-.45-.07-.9-.1-1.32-.1-3.12,0-4.54,1.8-4.54,4.95v8.04h-4.02v-16.87h3.92v2.7c.8-1.84,2.67-2.91,4.89-2.91.49,0,.9.07,1.07.1v4.09Z"/>
        <path class="cls-18" d="M901.8,583.73c-.45-.07-.9-.1-1.32-.1-3.12,0-4.54,1.8-4.54,4.95v8.04h-4.02v-16.87h3.92v2.7c.8-1.84,2.67-2.91,4.89-2.91.49,0,.9.07,1.07.1v4.09Z"/>
        <path class="cls-18" d="M909.25,586.95l4.33-.66c.97-.14,1.25-.62,1.25-1.21,0-1.42-.97-2.56-3.19-2.56s-3.29,1.35-3.47,3.05l-3.67-.83c.31-2.91,2.95-5.51,7.1-5.51,5.2,0,7.17,2.95,7.17,6.31v8.38c0,1.52.17,2.53.21,2.7h-3.74c-.03-.1-.17-.8-.17-2.15-.8,1.28-2.46,2.67-5.2,2.67-3.53,0-5.72-2.43-5.72-5.09,0-3.01,2.22-4.68,5.09-5.09ZM914.83,589.62v-.76l-4.4.66c-1.25.21-2.25.9-2.25,2.29,0,1.14.87,2.18,2.46,2.18,2.25,0,4.19-1.07,4.19-4.37Z"/>
        <path class="cls-18" d="M924.05,603.44l4.05-8.84-7.21-14.86h4.54l4.85,10.67,4.54-10.67h4.26l-10.74,23.7h-4.3Z"/>
        <path class="cls-18" d="M948.06,568.62l2.36,2.15c-3.6,3.95-5.92,8.59-5.92,14.76s2.32,10.85,5.92,14.79l-2.36,2.11c-3.88-3.88-6.96-9.15-6.96-16.91s3.08-13.03,6.96-16.91Z"/>
        <path class="cls-18" d="M955.55,591.18c1.56,0,2.84,1.28,2.84,2.84s-1.28,2.81-2.84,2.81-2.81-1.25-2.81-2.81,1.25-2.84,2.81-2.84Z"/>
        <path class="cls-18" d="M965.8,591.18c1.56,0,2.84,1.28,2.84,2.84s-1.28,2.81-2.84,2.81-2.81-1.25-2.81-2.81,1.25-2.84,2.81-2.84Z"/>
        <path class="cls-18" d="M976.06,591.18c1.56,0,2.84,1.28,2.84,2.84s-1.28,2.81-2.84,2.81-2.81-1.25-2.81-2.81,1.25-2.84,2.81-2.84Z"/>
        <path class="cls-18" d="M987.74,586.95l4.33-.66c.97-.14,1.25-.62,1.25-1.21,0-1.42-.97-2.56-3.19-2.56s-3.29,1.35-3.47,3.05l-3.67-.83c.31-2.91,2.95-5.51,7.1-5.51,5.2,0,7.17,2.95,7.17,6.31v8.38c0,1.52.17,2.53.21,2.7h-3.74c-.03-.1-.17-.8-.17-2.15-.8,1.28-2.46,2.67-5.2,2.67-3.53,0-5.72-2.43-5.72-5.09,0-3.01,2.22-4.68,5.09-5.09ZM993.32,589.62v-.76l-4.4.66c-1.25.21-2.25.9-2.25,2.29,0,1.14.87,2.18,2.46,2.18,2.25,0,4.19-1.07,4.19-4.37Z"/>
        <path class="cls-18" d="M1011.99,583.73c-.45-.07-.9-.1-1.32-.1-3.12,0-4.54,1.8-4.54,4.95v8.04h-4.02v-16.87h3.92v2.7c.8-1.84,2.67-2.91,4.89-2.91.49,0,.9.07,1.07.1v4.09Z"/>
        <path class="cls-18" d="M1017.68,596.58c.28,2.08,1.91,3.64,4.23,3.64,3.19,0,4.78-1.63,4.78-5.06v-1.77c-.73,1.32-2.43,2.46-4.89,2.46-4.5,0-7.8-3.46-7.8-8.21s3.15-8.21,7.8-8.21c2.63,0,4.26,1.07,4.99,2.46v-2.15h3.88v15.28c0,4.5-2.32,8.7-8.66,8.7-4.47,0-7.59-2.77-8.04-6.17l3.71-.97ZM1026.79,587.65c0-2.88-1.84-4.75-4.33-4.75s-4.4,1.87-4.4,4.75,1.77,4.78,4.4,4.78,4.33-1.87,4.33-4.78Z"/>
        <path class="cls-18" d="M1037.6,591.07c.14,1.52,1.28,2.88,3.43,2.88,1.66,0,2.53-.9,2.53-1.94,0-.9-.62-1.59-1.97-1.87l-2.49-.55c-2.98-.66-4.54-2.6-4.54-4.92,0-2.95,2.7-5.44,6.2-5.44,4.71,0,6.24,3.05,6.51,4.71l-3.4.97c-.14-.97-.87-2.53-3.12-2.53-1.42,0-2.43.9-2.43,1.94,0,.9.66,1.56,1.7,1.77l2.56.52c3.19.69,4.85,2.63,4.85,5.13s-2.08,5.41-6.38,5.41c-4.89,0-6.76-3.19-6.96-5.09l3.5-.97Z"/>
        <path class="cls-18" d="M1050.91,602.44l-2.36-2.11c3.64-3.95,5.92-8.59,5.92-14.79s-2.29-10.81-5.92-14.76l2.36-2.15c3.92,3.88,6.96,9.15,6.96,16.91s-3.05,13.03-6.96,16.91Z"/>
        <path class="cls-18" d="M1088.69,583.69c1.97,0,3.64-.9,3.64-3.33v-4.85c0-4.44,2.39-6.58,6.48-6.58h.8v3.08h-.76c-2.08,0-3.12.97-3.12,3.36v5.75c0,2.25-1.32,3.81-3.53,4.3,2.22.52,3.53,2.08,3.53,4.33v5.75c0,2.39,1.04,3.33,3.12,3.33h.76v3.08h-.8c-4.09,0-6.48-2.15-6.48-6.58v-4.82c0-2.46-1.66-3.36-3.64-3.36v-3.47Z"/>
        <path class="cls-18" d="M1104.35,571.19c1.46,0,2.63,1.18,2.63,2.63s-1.18,2.6-2.63,2.6-2.6-1.14-2.6-2.6,1.18-2.63,2.6-2.63ZM1102.38,596.62v-16.87h3.99v16.87h-3.99Z"/>
        <path class="cls-18" d="M1116.55,577.53v2.22h3.92v3.5h-3.92v13.37h-4.05v-13.37h-2.95v-3.5h2.95v-2.32c0-3.78,2.43-6.06,5.89-6.06,1.01,0,1.84.21,2.11.35v3.43c-.24-.07-.69-.17-1.46-.17-1.07,0-2.49.49-2.49,2.56Z"/>
        <path class="cls-18" d="M1157.32,568.62l2.36,2.15c-3.6,3.95-5.93,8.59-5.93,14.76s2.32,10.85,5.93,14.79l-2.36,2.11c-3.88-3.88-6.96-9.15-6.96-16.91s3.08-13.03,6.96-16.91Z"/>
        <path class="cls-18" d="M1165.25,591.77c1.42,0,2.56,1.18,2.56,2.56s-1.14,2.53-2.56,2.53-2.49-1.14-2.49-2.53,1.11-2.56,2.49-2.56ZM1166.74,589.34h-2.91l-1.01-17.29h4.89l-.97,17.29Z"/>
        <path class="cls-18" d="M1177.31,586.95l4.33-.66c.97-.14,1.25-.62,1.25-1.21,0-1.42-.97-2.56-3.19-2.56s-3.29,1.35-3.47,3.05l-3.67-.83c.31-2.91,2.94-5.51,7.1-5.51,5.2,0,7.17,2.95,7.17,6.31v8.38c0,1.52.17,2.53.21,2.7h-3.74c-.04-.1-.17-.8-.17-2.15-.8,1.28-2.46,2.67-5.2,2.67-3.53,0-5.72-2.43-5.72-5.09,0-3.01,2.22-4.68,5.09-5.09ZM1182.89,589.62v-.76l-4.4.66c-1.25.21-2.25.9-2.25,2.29,0,1.14.87,2.18,2.46,2.18,2.25,0,4.19-1.07,4.19-4.37Z"/>
        <path class="cls-18" d="M1201.57,583.73c-.45-.07-.9-.1-1.32-.1-3.12,0-4.54,1.8-4.54,4.95v8.04h-4.02v-16.87h3.92v2.7c.8-1.84,2.67-2.91,4.89-2.91.49,0,.9.07,1.07.1v4.09Z"/>
        <path class="cls-18" d="M1207.25,596.58c.28,2.08,1.91,3.64,4.23,3.64,3.19,0,4.78-1.63,4.78-5.06v-1.77c-.73,1.32-2.43,2.46-4.89,2.46-4.5,0-7.8-3.46-7.8-8.21s3.15-8.21,7.8-8.21c2.63,0,4.26,1.07,4.99,2.46v-2.15h3.88v15.28c0,4.5-2.32,8.7-8.66,8.7-4.47,0-7.59-2.77-8.04-6.17l3.71-.97ZM1216.36,587.65c0-2.88-1.84-4.75-4.33-4.75s-4.4,1.87-4.4,4.75,1.77,4.78,4.4,4.78,4.33-1.87,4.33-4.78Z"/>
        <path class="cls-18" d="M1227.17,591.07c.14,1.52,1.28,2.88,3.43,2.88,1.66,0,2.53-.9,2.53-1.94,0-.9-.62-1.59-1.97-1.87l-2.49-.55c-2.98-.66-4.54-2.6-4.54-4.92,0-2.95,2.7-5.44,6.2-5.44,4.71,0,6.24,3.05,6.51,4.71l-3.4.97c-.14-.97-.87-2.53-3.12-2.53-1.42,0-2.43.9-2.43,1.94,0,.9.66,1.56,1.7,1.77l2.56.52c3.19.69,4.85,2.63,4.85,5.13s-2.08,5.41-6.38,5.41c-4.89,0-6.76-3.19-6.96-5.09l3.5-.97Z"/>
        <path class="cls-18" d="M1243.53,591.18c1.56,0,2.84,1.28,2.84,2.84s-1.28,2.81-2.84,2.81-2.81-1.25-2.81-2.81,1.25-2.84,2.81-2.84Z"/>
        <path class="cls-18" d="M1251.15,596.62v-25.09h4.02v25.09h-4.02Z"/>
        <path class="cls-18" d="M1275.3,591.8c-.9,2.94-3.57,5.34-7.62,5.34-4.57,0-8.63-3.33-8.63-9.04,0-5.34,3.95-8.87,8.21-8.87,5.2,0,8.25,3.43,8.25,8.77,0,.66-.07,1.21-.1,1.28h-12.34c.1,2.56,2.11,4.4,4.61,4.4s3.67-1.28,4.23-2.94l3.4,1.07ZM1271.45,586.33c-.07-1.97-1.39-3.74-4.16-3.74-2.53,0-3.98,1.94-4.12,3.74h8.28Z"/>
        <path class="cls-18" d="M593.74,625.28c1.97,0,3.64-.9,3.64-3.33v-4.85c0-4.44,2.39-6.58,6.48-6.58h.8v3.08h-.76c-2.08,0-3.12.97-3.12,3.36v5.75c0,2.25-1.32,3.81-3.53,4.3,2.22.52,3.53,2.08,3.53,4.33v5.75c0,2.39,1.04,3.33,3.12,3.33h.76v3.08h-.8c-4.09,0-6.48-2.15-6.48-6.58v-4.82c0-2.46-1.66-3.36-3.64-3.36v-3.47Z"/>
        <path class="cls-18" d="M617.31,625.31c-.45-.07-.9-.1-1.32-.1-3.12,0-4.54,1.8-4.54,4.95v8.04h-4.02v-16.87h3.92v2.7c.8-1.84,2.67-2.91,4.89-2.91.49,0,.9.07,1.07.1v4.09Z"/>
        <path class="cls-18" d="M635.43,633.38c-.9,2.94-3.57,5.34-7.62,5.34-4.57,0-8.63-3.33-8.63-9.04,0-5.34,3.95-8.87,8.21-8.87,5.2,0,8.25,3.43,8.25,8.77,0,.66-.07,1.21-.1,1.28h-12.34c.1,2.56,2.11,4.4,4.61,4.4s3.67-1.28,4.23-2.94l3.4,1.07ZM631.58,627.91c-.07-1.97-1.39-3.74-4.16-3.74-2.53,0-3.99,1.94-4.12,3.74h8.28Z"/>
        <path class="cls-18" d="M644.58,621.33h3.5v3.57h-3.5v7.83c0,1.49.66,2.11,2.15,2.11.55,0,1.21-.1,1.39-.14v3.33c-.24.1-1,.38-2.46.38-3.12,0-5.06-1.87-5.06-5.02v-8.49h-3.12v-3.57h.87c1.8,0,2.6-1.14,2.6-2.63v-2.53h3.64v5.16Z"/>
        <path class="cls-18" d="M658.44,638.69c-4.02,0-6.38-2.98-6.38-6.72v-10.64h4.02v9.91c0,2.08.97,3.85,3.4,3.85s3.53-1.56,3.53-3.78v-9.98h4.02v13.79c0,1.39.1,2.46.17,3.08h-3.85c-.07-.38-.14-1.18-.14-1.87-.83,1.52-2.81,2.36-4.78,2.36Z"/>
        <path class="cls-18" d="M682.1,625.31c-.45-.07-.9-.1-1.32-.1-3.12,0-4.54,1.8-4.54,4.95v8.04h-4.02v-16.87h3.92v2.7c.8-1.84,2.67-2.91,4.89-2.91.49,0,.9.07,1.07.1v4.09Z"/>
        <path class="cls-18" d="M689.48,638.2h-4.02v-16.87h3.92v2.25c1.11-1.94,3.12-2.74,4.99-2.74,4.12,0,6.1,2.98,6.1,6.69v10.67h-4.02v-9.98c0-2.08-.94-3.74-3.47-3.74-2.29,0-3.5,1.77-3.5,3.99v9.74Z"/>
        <path class="cls-18" d="M716.36,643.64v-33.12h7.42v3.12h-4.02v26.85h4.02v3.15h-7.42Z"/>
        <path class="cls-18" d="M724.12,643.64v-3.15h4.02v-26.85h-4.02v-3.12h7.42v33.12h-7.42Z"/>
        <path class="cls-18" d="M745.57,628.74c-1.97,0-3.64.9-3.64,3.36v4.82c0,4.44-2.39,6.58-6.48,6.58h-.8v-3.08h.76c2.08,0,3.12-.94,3.12-3.33v-5.75c0-2.25,1.32-3.81,3.53-4.33-2.22-.49-3.53-2.04-3.53-4.3v-5.75c0-2.39-1.04-3.36-3.12-3.36h-.76v-3.08h.8c4.09,0,6.48,2.15,6.48,6.58v4.85c0,2.43,1.66,3.33,3.64,3.33v3.47Z"/>
        <path class="cls-18" d="M752.43,629.75c0,3.4,2.18,5.3,4.71,5.3s3.85-1.84,4.23-3.12l3.53,1.28c-.8,2.63-3.33,5.51-7.76,5.51-4.95,0-8.73-3.85-8.73-8.97s3.78-8.94,8.63-8.94c4.54,0,7.03,2.84,7.73,5.54l-3.6,1.32c-.38-1.49-1.52-3.15-4.09-3.15s-4.64,1.84-4.64,5.23Z"/>
        <path class="cls-18" d="M784.48,629.75c0,5.2-3.71,8.97-8.77,8.97s-8.73-3.78-8.73-8.97,3.71-8.94,8.73-8.94,8.77,3.78,8.77,8.94ZM780.43,629.75c0-3.5-2.22-5.3-4.71-5.3s-4.71,1.8-4.71,5.3,2.25,5.37,4.71,5.37,4.71-1.84,4.71-5.37Z"/>
        <path class="cls-18" d="M792.38,638.2h-4.02v-16.87h3.92v2.25c1.11-1.94,3.12-2.74,4.99-2.74,4.12,0,6.1,2.98,6.1,6.69v10.67h-4.02v-9.98c0-2.08-.94-3.74-3.47-3.74-2.29,0-3.5,1.77-3.5,3.99v9.74Z"/>
        <path class="cls-18" d="M810.26,632.66c.14,1.52,1.28,2.88,3.43,2.88,1.66,0,2.53-.9,2.53-1.94,0-.9-.62-1.59-1.97-1.87l-2.49-.55c-2.98-.66-4.54-2.6-4.54-4.92,0-2.95,2.7-5.44,6.2-5.44,4.71,0,6.24,3.05,6.51,4.71l-3.4.97c-.14-.97-.87-2.53-3.12-2.53-1.42,0-2.43.9-2.43,1.94,0,.9.66,1.56,1.7,1.77l2.56.52c3.19.69,4.85,2.63,4.85,5.13s-2.08,5.41-6.38,5.41c-4.89,0-6.76-3.19-6.96-5.09l3.5-.97Z"/>
        <path class="cls-18" d="M829.18,621.33h3.5v3.57h-3.5v7.83c0,1.49.66,2.11,2.15,2.11.55,0,1.21-.1,1.39-.14v3.33c-.24.1-1,.38-2.46.38-3.12,0-5.06-1.87-5.06-5.02v-8.49h-3.12v-3.57h.87c1.8,0,2.6-1.14,2.6-2.63v-2.53h3.64v5.16Z"/>
        <path class="cls-18" d="M856.03,638.2h-4.02l-6.86-16.87h4.44l4.47,12.06,4.37-12.06h4.23l-6.62,16.87Z"/>
        <path class="cls-18" d="M869.54,628.53l4.33-.66c.97-.14,1.25-.62,1.25-1.21,0-1.42-.97-2.56-3.19-2.56s-3.29,1.35-3.46,3.05l-3.67-.83c.31-2.91,2.94-5.51,7.1-5.51,5.2,0,7.17,2.95,7.17,6.31v8.38c0,1.52.17,2.53.21,2.7h-3.74c-.03-.1-.17-.8-.17-2.15-.8,1.28-2.46,2.67-5.2,2.67-3.53,0-5.72-2.43-5.72-5.09,0-3.01,2.22-4.68,5.09-5.09ZM875.12,631.2v-.76l-4.4.66c-1.25.21-2.25.9-2.25,2.29,0,1.14.87,2.18,2.46,2.18,2.25,0,4.19-1.07,4.19-4.37Z"/>
        <path class="cls-18" d="M883.92,638.2v-25.09h4.02v25.09h-4.02Z"/>
        <path class="cls-18" d="M899.24,638.69c-4.02,0-6.38-2.98-6.38-6.72v-10.64h4.02v9.91c0,2.08.97,3.85,3.4,3.85s3.53-1.56,3.53-3.78v-9.98h4.02v13.79c0,1.39.1,2.46.17,3.08h-3.85c-.07-.38-.14-1.18-.14-1.87-.83,1.52-2.81,2.36-4.78,2.36Z"/>
        <path class="cls-18" d="M927.86,633.38c-.9,2.94-3.57,5.34-7.62,5.34-4.57,0-8.63-3.33-8.63-9.04,0-5.34,3.95-8.87,8.21-8.87,5.2,0,8.25,3.43,8.25,8.77,0,.66-.07,1.21-.1,1.28h-12.33c.1,2.56,2.11,4.4,4.61,4.4s3.67-1.28,4.23-2.94l3.4,1.07ZM924.01,627.91c-.07-1.97-1.39-3.74-4.16-3.74-2.53,0-3.98,1.94-4.12,3.74h8.28Z"/>
        <path class="cls-18" d="M942.12,626.32v-3.26h16.46v3.26h-16.46ZM942.12,633.14v-3.29h16.46v3.29h-16.46Z"/>
        <path class="cls-18" d="M978.01,628.53l4.33-.66c.97-.14,1.25-.62,1.25-1.21,0-1.42-.97-2.56-3.19-2.56s-3.29,1.35-3.46,3.05l-3.67-.83c.31-2.91,2.94-5.51,7.1-5.51,5.2,0,7.17,2.95,7.17,6.31v8.38c0,1.52.17,2.53.21,2.7h-3.74c-.03-.1-.17-.8-.17-2.15-.8,1.28-2.46,2.67-5.2,2.67-3.53,0-5.72-2.43-5.72-5.09,0-3.01,2.22-4.68,5.09-5.09ZM983.59,631.2v-.76l-4.4.66c-1.25.21-2.25.9-2.25,2.29,0,1.14.87,2.18,2.46,2.18,2.25,0,4.19-1.07,4.19-4.37Z"/>
        <path class="cls-18" d="M1002.27,625.31c-.45-.07-.9-.1-1.32-.1-3.12,0-4.54,1.8-4.54,4.95v8.04h-4.02v-16.87h3.92v2.7c.8-1.84,2.67-2.91,4.89-2.91.49,0,.9.07,1.07.1v4.09Z"/>
        <path class="cls-18" d="M1007.95,638.17c.28,2.08,1.91,3.64,4.23,3.64,3.19,0,4.78-1.63,4.78-5.06v-1.77c-.73,1.32-2.43,2.46-4.89,2.46-4.5,0-7.8-3.46-7.8-8.21s3.15-8.21,7.8-8.21c2.63,0,4.26,1.07,4.99,2.46v-2.15h3.88v15.28c0,4.5-2.32,8.7-8.66,8.7-4.47,0-7.59-2.77-8.04-6.17l3.71-.97ZM1017.06,629.23c0-2.88-1.84-4.75-4.33-4.75s-4.4,1.87-4.4,4.75,1.77,4.78,4.4,4.78,4.33-1.87,4.33-4.78Z"/>
        <path class="cls-18" d="M1027.87,632.66c.14,1.52,1.28,2.88,3.43,2.88,1.66,0,2.53-.9,2.53-1.94,0-.9-.62-1.59-1.97-1.87l-2.49-.55c-2.98-.66-4.54-2.6-4.54-4.92,0-2.95,2.7-5.44,6.2-5.44,4.71,0,6.24,3.05,6.51,4.71l-3.4.97c-.14-.97-.87-2.53-3.12-2.53-1.42,0-2.43.9-2.43,1.94,0,.9.66,1.56,1.7,1.77l2.56.52c3.19.69,4.85,2.63,4.85,5.13s-2.08,5.41-6.38,5.41c-4.89,0-6.76-3.19-6.96-5.09l3.5-.97Z"/>
        <path class="cls-18" d="M1042.05,643.64v-33.12h7.42v3.12h-4.02v26.85h4.02v3.15h-7.42Z"/>
        <path class="cls-18" d="M1053.1,618.9c1.46-2.18,3.81-3.67,7.17-3.67s5.68,1.49,7.14,3.67c1.52,2.29,2.01,5.09,2.01,8.07s-.48,5.79-2.01,8.07c-1.46,2.18-3.78,3.67-7.14,3.67s-5.72-1.49-7.17-3.67c-1.52-2.29-2.01-5.09-2.01-8.07s.49-5.79,2.01-8.07ZM1056.81,633.38c.76,1,1.84,1.66,3.46,1.66s2.67-.66,3.47-1.66c1.07-1.39,1.56-3.57,1.56-6.41s-.48-5.02-1.56-6.41c-.8-1-1.84-1.66-3.47-1.66s-2.7.66-3.46,1.66c-1.11,1.39-1.59,3.57-1.59,6.41s.52,5.02,1.59,6.41Z"/>
        <path class="cls-18" d="M1071.05,643.64v-3.15h4.02v-26.85h-4.02v-3.12h7.41v33.12h-7.41Z"/>
        <path class="cls-18" d="M1093.88,625.31c-.45-.07-.9-.1-1.32-.1-3.12,0-4.54,1.8-4.54,4.95v8.04h-4.02v-16.87h3.92v2.7c.8-1.84,2.67-2.91,4.89-2.91.49,0,.9.07,1.07.1v4.09Z"/>
        <path class="cls-18" d="M1112,633.38c-.9,2.94-3.57,5.34-7.62,5.34-4.57,0-8.63-3.33-8.63-9.04,0-5.34,3.95-8.87,8.21-8.87,5.2,0,8.25,3.43,8.25,8.77,0,.66-.07,1.21-.1,1.28h-12.34c.1,2.56,2.11,4.4,4.61,4.4s3.67-1.28,4.23-2.94l3.4,1.07ZM1108.16,627.91c-.07-1.97-1.39-3.74-4.16-3.74-2.53,0-3.98,1.94-4.12,3.74h8.28Z"/>
        <path class="cls-18" d="M1121.15,621.33h3.5v3.57h-3.5v7.83c0,1.49.66,2.11,2.15,2.11.55,0,1.21-.1,1.39-.14v3.33c-.24.1-1.01.38-2.46.38-3.12,0-5.06-1.87-5.06-5.02v-8.49h-3.12v-3.57h.87c1.8,0,2.6-1.14,2.6-2.63v-2.53h3.64v5.16Z"/>
        <path class="cls-18" d="M1135.01,638.69c-4.02,0-6.38-2.98-6.38-6.72v-10.64h4.02v9.91c0,2.08.97,3.85,3.4,3.85s3.53-1.56,3.53-3.78v-9.98h4.02v13.79c0,1.39.1,2.46.17,3.08h-3.85c-.07-.38-.14-1.18-.14-1.87-.83,1.52-2.81,2.36-4.78,2.36Z"/>
        <path class="cls-18" d="M1158.68,625.31c-.45-.07-.9-.1-1.32-.1-3.12,0-4.54,1.8-4.54,4.95v8.04h-4.02v-16.87h3.92v2.7c.8-1.84,2.67-2.91,4.89-2.91.49,0,.9.07,1.07.1v4.09Z"/>
        <path class="cls-18" d="M1166.06,638.2h-4.02v-16.87h3.92v2.25c1.11-1.94,3.12-2.74,4.99-2.74,4.12,0,6.1,2.98,6.1,6.69v10.67h-4.02v-9.98c0-2.08-.94-3.74-3.47-3.74-2.29,0-3.5,1.77-3.5,3.99v9.74Z"/>
        <path class="cls-18" d="M1207.42,632.03h-10.4l-2.29,6.17h-4.4l9.56-24.57h4.82l9.56,24.57h-4.54l-2.32-6.17ZM1198.48,628.19h7.48l-3.74-10.05-3.74,10.05Z"/>
        <path class="cls-18" d="M1227,625.31c-.45-.07-.9-.1-1.32-.1-3.12,0-4.54,1.8-4.54,4.95v8.04h-4.02v-16.87h3.92v2.7c.8-1.84,2.67-2.91,4.89-2.91.49,0,.9.07,1.07.1v4.09Z"/>
        <path class="cls-18" d="M1240.24,625.31c-.45-.07-.9-.1-1.32-.1-3.12,0-4.54,1.8-4.54,4.95v8.04h-4.02v-16.87h3.92v2.7c.8-1.84,2.67-2.91,4.89-2.91.49,0,.9.07,1.07.1v4.09Z"/>
        <path class="cls-18" d="M1247.68,628.53l4.33-.66c.97-.14,1.25-.62,1.25-1.21,0-1.42-.97-2.56-3.19-2.56s-3.29,1.35-3.47,3.05l-3.67-.83c.31-2.91,2.94-5.51,7.1-5.51,5.2,0,7.17,2.95,7.17,6.31v8.38c0,1.52.17,2.53.21,2.7h-3.74c-.04-.1-.17-.8-.17-2.15-.8,1.28-2.46,2.67-5.2,2.67-3.53,0-5.72-2.43-5.72-5.09,0-3.01,2.22-4.68,5.09-5.09ZM1253.26,631.2v-.76l-4.4.66c-1.25.21-2.25.9-2.25,2.29,0,1.14.87,2.18,2.46,2.18,2.25,0,4.19-1.07,4.19-4.37Z"/>
        <path class="cls-18" d="M1262.48,645.03l4.05-8.84-7.21-14.86h4.54l4.85,10.67,4.54-10.67h4.26l-10.74,23.7h-4.3Z"/>
        <path class="cls-18" d="M604.66,666.89c-.45-.07-.9-.1-1.32-.1-3.12,0-4.54,1.8-4.54,4.95v8.04h-4.02v-16.87h3.92v2.7c.8-1.84,2.67-2.91,4.89-2.91.49,0,.9.07,1.07.1v4.09Z"/>
        <path class="cls-18" d="M612.11,670.11l4.33-.66c.97-.14,1.25-.62,1.25-1.21,0-1.42-.97-2.56-3.19-2.56s-3.29,1.35-3.47,3.05l-3.67-.83c.31-2.91,2.95-5.51,7.1-5.51,5.2,0,7.17,2.95,7.17,6.31v8.38c0,1.52.17,2.53.21,2.7h-3.74c-.03-.1-.17-.8-.17-2.15-.8,1.28-2.46,2.67-5.2,2.67-3.53,0-5.72-2.43-5.72-5.09,0-3.01,2.22-4.68,5.09-5.09ZM617.69,672.78v-.76l-4.4.66c-1.25.21-2.25.9-2.25,2.29,0,1.14.87,2.18,2.46,2.18,2.25,0,4.19-1.07,4.19-4.37Z"/>
        <path class="cls-18" d="M626.9,686.61l4.05-8.84-7.21-14.86h4.54l4.85,10.67,4.54-10.67h4.26l-10.74,23.7h-4.3Z"/>
        <path class="cls-18" d="M658.48,651.79l2.36,2.15c-3.6,3.95-5.92,8.59-5.92,14.76s2.32,10.85,5.92,14.79l-2.36,2.11c-3.88-3.88-6.96-9.15-6.96-16.91s3.08-13.03,6.96-16.91Z"/>
        <path class="cls-18" d="M671.3,679.78h-4.02l-6.86-16.87h4.44l4.47,12.06,4.37-12.06h4.23l-6.62,16.87Z"/>
        <path class="cls-18" d="M684.82,670.11l4.33-.66c.97-.14,1.25-.62,1.25-1.21,0-1.42-.97-2.56-3.19-2.56s-3.29,1.35-3.46,3.05l-3.67-.83c.31-2.91,2.94-5.51,7.1-5.51,5.2,0,7.17,2.95,7.17,6.31v8.38c0,1.52.17,2.53.21,2.7h-3.74c-.03-.1-.17-.8-.17-2.15-.8,1.28-2.46,2.67-5.2,2.67-3.53,0-5.72-2.43-5.72-5.09,0-3.01,2.22-4.68,5.09-5.09ZM690.4,672.78v-.76l-4.4.66c-1.25.21-2.25.9-2.25,2.29,0,1.14.87,2.18,2.46,2.18,2.25,0,4.19-1.07,4.19-4.37Z"/>
        <path class="cls-18" d="M699.2,679.78v-25.09h4.02v25.09h-4.02Z"/>
        <path class="cls-18" d="M714.51,680.27c-4.02,0-6.38-2.98-6.38-6.72v-10.64h4.02v9.91c0,2.08.97,3.85,3.4,3.85s3.53-1.56,3.53-3.78v-9.98h4.02v13.79c0,1.39.1,2.46.17,3.08h-3.85c-.07-.38-.14-1.18-.14-1.87-.83,1.52-2.81,2.36-4.78,2.36Z"/>
        <path class="cls-18" d="M743.14,674.97c-.9,2.94-3.57,5.34-7.62,5.34-4.57,0-8.63-3.33-8.63-9.04,0-5.34,3.95-8.87,8.21-8.87,5.2,0,8.25,3.43,8.25,8.77,0,.66-.07,1.21-.1,1.28h-12.33c.1,2.56,2.11,4.4,4.61,4.4s3.67-1.28,4.23-2.94l3.4,1.07ZM739.29,669.49c-.07-1.97-1.39-3.74-4.16-3.74-2.53,0-3.98,1.94-4.12,3.74h8.28Z"/>
        <path class="cls-18" d="M746.36,685.6l-2.36-2.11c3.64-3.95,5.93-8.59,5.93-14.79s-2.29-10.81-5.93-14.76l2.36-2.15c3.92,3.88,6.96,9.15,6.96,16.91s-3.05,13.03-6.96,16.91Z"/>
        <path class="cls-18" d="M769.31,672.51c-.04-.45-.07-.83-.07-1.32,0-2.08.8-3.78,2.81-5.23l1.59-1.14c1.14-.83,1.63-1.84,1.63-3.01,0-1.8-1.21-3.5-3.74-3.5s-3.92,1.98-3.92,3.95c0,.52.07,1.18.21,1.56l-3.92-.28c-.14-.48-.21-1.04-.21-1.59,0-3.47,2.6-7.24,7.83-7.24s7.9,3.4,7.9,6.93c0,2.74-1.46,4.68-3.46,6.1l-1.49,1.04c-1.14.8-1.73,1.94-1.73,3.29,0,.07,0,.24.03.45h-3.46ZM771.08,674.93c1.39,0,2.53,1.18,2.53,2.56s-1.14,2.53-2.53,2.53-2.53-1.14-2.53-2.53,1.11-2.56,2.53-2.56Z"/>
        <path class="cls-18" d="M799.36,679.78h-4.02l-6.86-16.87h4.44l4.47,12.06,4.37-12.06h4.23l-6.62,16.87Z"/>
        <path class="cls-18" d="M812.88,670.11l4.33-.66c.97-.14,1.25-.62,1.25-1.21,0-1.42-.97-2.56-3.19-2.56s-3.29,1.35-3.46,3.05l-3.67-.83c.31-2.91,2.94-5.51,7.1-5.51,5.2,0,7.17,2.95,7.17,6.31v8.38c0,1.52.17,2.53.21,2.7h-3.74c-.03-.1-.17-.8-.17-2.15-.8,1.28-2.46,2.67-5.2,2.67-3.53,0-5.72-2.43-5.72-5.09,0-3.01,2.22-4.68,5.09-5.09ZM818.46,672.78v-.76l-4.4.66c-1.25.21-2.25.9-2.25,2.29,0,1.14.87,2.18,2.46,2.18,2.25,0,4.19-1.07,4.19-4.37Z"/>
        <path class="cls-18" d="M827.26,679.78v-25.09h4.02v25.09h-4.02Z"/>
        <path class="cls-18" d="M842.57,680.27c-4.02,0-6.38-2.98-6.38-6.72v-10.64h4.02v9.91c0,2.08.97,3.85,3.4,3.85s3.53-1.56,3.53-3.78v-9.98h4.02v13.79c0,1.39.1,2.46.17,3.08h-3.85c-.07-.38-.14-1.18-.14-1.87-.83,1.52-2.81,2.36-4.78,2.36Z"/>
        <path class="cls-18" d="M871.19,674.97c-.9,2.94-3.57,5.34-7.62,5.34-4.57,0-8.63-3.33-8.63-9.04,0-5.34,3.95-8.87,8.21-8.87,5.2,0,8.25,3.43,8.25,8.77,0,.66-.07,1.21-.1,1.28h-12.34c.1,2.56,2.11,4.4,4.61,4.4s3.67-1.28,4.23-2.94l3.4,1.07ZM867.35,669.49c-.07-1.97-1.39-3.74-4.16-3.74-2.53,0-3.99,1.94-4.12,3.74h8.28Z"/>
        <path class="cls-18" d="M885.45,662.7c1.52,0,2.81,1.25,2.81,2.81s-1.28,2.77-2.81,2.77-2.81-1.25-2.81-2.77,1.25-2.81,2.81-2.81ZM885.48,674.41c1.52,0,2.81,1.25,2.81,2.81s-1.28,2.77-2.81,2.77-2.81-1.25-2.81-2.77,1.25-2.81,2.81-2.81Z"/>
        <path class="cls-18" d="M901.19,685.22v-33.12h7.42v3.12h-4.02v26.85h4.02v3.15h-7.42Z"/>
        <path class="cls-18" d="M919.76,679.78h-4.02l-6.86-16.87h4.44l4.47,12.06,4.37-12.06h4.23l-6.62,16.87Z"/>
        <path class="cls-18" d="M933.28,670.11l4.33-.66c.97-.14,1.25-.62,1.25-1.21,0-1.42-.97-2.56-3.19-2.56s-3.29,1.35-3.46,3.05l-3.67-.83c.31-2.91,2.94-5.51,7.1-5.51,5.2,0,7.17,2.95,7.17,6.31v8.38c0,1.52.17,2.53.21,2.7h-3.74c-.03-.1-.17-.8-.17-2.15-.8,1.28-2.46,2.67-5.2,2.67-3.53,0-5.72-2.43-5.72-5.09,0-3.01,2.22-4.68,5.09-5.09ZM938.86,672.78v-.76l-4.4.66c-1.25.21-2.25.9-2.25,2.29,0,1.14.87,2.18,2.46,2.18,2.25,0,4.19-1.07,4.19-4.37Z"/>
        <path class="cls-18" d="M947.66,679.78v-25.09h4.02v25.09h-4.02Z"/>
        <path class="cls-18" d="M962.97,680.27c-4.02,0-6.38-2.98-6.38-6.72v-10.64h4.02v9.91c0,2.08.97,3.85,3.4,3.85s3.53-1.56,3.53-3.78v-9.98h4.02v13.79c0,1.39.1,2.46.17,3.08h-3.85c-.07-.38-.14-1.18-.14-1.87-.83,1.52-2.81,2.36-4.78,2.36Z"/>
        <path class="cls-18" d="M991.59,674.97c-.9,2.94-3.57,5.34-7.62,5.34-4.57,0-8.63-3.33-8.63-9.04,0-5.34,3.95-8.87,8.21-8.87,5.2,0,8.25,3.43,8.25,8.77,0,.66-.07,1.21-.1,1.28h-12.33c.1,2.56,2.11,4.4,4.61,4.4s3.67-1.28,4.23-2.94l3.4,1.07ZM987.75,669.49c-.07-1.97-1.39-3.74-4.16-3.74-2.53,0-3.98,1.94-4.12,3.74h8.28Z"/>
        <path class="cls-18" d="M992.77,685.22v-3.15h4.02v-26.85h-4.02v-3.12h7.42v33.12h-7.42Z"/>
        <path class="cls-18" d="M1014.22,670.32c-1.97,0-3.64.9-3.64,3.36v4.82c0,4.44-2.39,6.58-6.48,6.58h-.8v-3.08h.76c2.08,0,3.12-.94,3.12-3.33v-5.75c0-2.25,1.32-3.81,3.53-4.33-2.22-.49-3.53-2.04-3.53-4.3v-5.75c0-2.39-1.04-3.36-3.12-3.36h-.76v-3.08h.8c4.09,0,6.48,2.15,6.48,6.58v4.85c0,2.43,1.66,3.33,3.64,3.33v3.47Z"/>
        <path class="cls-18" d="M1023.37,660.69v2.22h3.92v3.5h-3.92v13.37h-4.05v-13.37h-2.95v-3.5h2.95v-2.32c0-3.78,2.43-6.06,5.89-6.06,1.01,0,1.84.21,2.11.35v3.43c-.24-.07-.69-.17-1.46-.17-1.07,0-2.49.49-2.49,2.56Z"/>
        <path class="cls-18" d="M1036.6,680.27c-4.02,0-6.38-2.98-6.38-6.72v-10.64h4.02v9.91c0,2.08.97,3.85,3.4,3.85s3.53-1.56,3.53-3.78v-9.98h4.02v13.79c0,1.39.1,2.46.17,3.08h-3.85c-.07-.38-.14-1.18-.14-1.87-.83,1.52-2.81,2.36-4.78,2.36Z"/>
        <path class="cls-18" d="M1054.42,679.78h-4.02v-16.87h3.91v2.25c1.11-1.94,3.12-2.74,4.99-2.74,4.12,0,6.1,2.98,6.1,6.69v10.67h-4.02v-9.98c0-2.08-.94-3.74-3.46-3.74-2.29,0-3.5,1.77-3.5,3.99v9.74Z"/>
        <path class="cls-18" d="M1072.99,671.33c0,3.4,2.18,5.3,4.71,5.3s3.85-1.84,4.23-3.12l3.53,1.28c-.8,2.63-3.33,5.51-7.76,5.51-4.95,0-8.73-3.85-8.73-8.97s3.78-8.94,8.63-8.94c4.54,0,7.03,2.84,7.73,5.54l-3.6,1.32c-.38-1.49-1.52-3.15-4.09-3.15s-4.64,1.84-4.64,5.23Z"/>
        <path class="cls-18" d="M1094.13,662.91h3.5v3.57h-3.5v7.83c0,1.49.66,2.11,2.15,2.11.55,0,1.21-.1,1.39-.14v3.33c-.24.1-1.01.38-2.46.38-3.12,0-5.06-1.87-5.06-5.02v-8.49h-3.12v-3.57h.87c1.8,0,2.6-1.14,2.6-2.63v-2.53h3.64v5.16Z"/>
        <path class="cls-18" d="M1103.72,654.35c1.46,0,2.63,1.18,2.63,2.63s-1.18,2.6-2.63,2.6-2.6-1.14-2.6-2.6,1.18-2.63,2.6-2.63ZM1101.75,679.78v-16.87h3.99v16.87h-3.99Z"/>
        <path class="cls-18" d="M1127.11,671.33c0,5.2-3.71,8.97-8.77,8.97s-8.73-3.78-8.73-8.97,3.71-8.94,8.73-8.94,8.77,3.78,8.77,8.94ZM1123.06,671.33c0-3.5-2.22-5.3-4.71-5.3s-4.71,1.8-4.71,5.3,2.25,5.37,4.71,5.37,4.71-1.84,4.71-5.37Z"/>
        <path class="cls-18" d="M1135.01,679.78h-4.02v-16.87h3.92v2.25c1.11-1.94,3.12-2.74,4.99-2.74,4.12,0,6.1,2.98,6.1,6.69v10.67h-4.02v-9.98c0-2.08-.94-3.74-3.46-3.74-2.29,0-3.5,1.77-3.5,3.99v9.74Z"/>
        <path class="cls-18" d="M1161.15,671.33c0,3.4,2.18,5.3,4.71,5.3s3.85-1.84,4.23-3.12l3.53,1.28c-.8,2.63-3.33,5.51-7.76,5.51-4.95,0-8.73-3.85-8.73-8.97s3.78-8.94,8.63-8.94c4.54,0,7.03,2.84,7.73,5.54l-3.6,1.32c-.38-1.49-1.52-3.15-4.09-3.15s-4.64,1.84-4.64,5.23Z"/>
        <path class="cls-18" d="M1181.21,679.78h-4.02v-25.09h4.02v9.84c1.14-1.49,3.05-2.11,4.82-2.11,4.16,0,6.17,2.98,6.17,6.69v10.67h-4.02v-9.98c0-2.08-.94-3.74-3.47-3.74-2.22,0-3.43,1.66-3.5,3.81v9.91Z"/>
        <path class="cls-18" d="M1203.04,680.27c-4.02,0-6.38-2.98-6.38-6.72v-10.64h4.02v9.91c0,2.08.97,3.85,3.4,3.85s3.53-1.56,3.53-3.78v-9.98h4.02v13.79c0,1.39.1,2.46.17,3.08h-3.85c-.07-.38-.14-1.18-.14-1.87-.83,1.52-2.81,2.36-4.78,2.36Z"/>
        <path class="cls-18" d="M1220.86,679.78h-4.02v-16.87h3.92v2.25c1.11-1.94,3.12-2.74,4.99-2.74,4.12,0,6.1,2.98,6.1,6.69v10.67h-4.02v-9.98c0-2.08-.94-3.74-3.46-3.74-2.29,0-3.5,1.77-3.5,3.99v9.74Z"/>
        <path class="cls-18" d="M1245.6,670.05l7.07,9.74h-4.92l-4.95-6.9-2.08,2.18v4.71h-3.99v-25.09h3.99v15.04l6.48-6.83h5.34l-6.93,7.14Z"/>
        <path class="cls-18" d="M1269.17,651.79l2.36,2.15c-3.6,3.95-5.93,8.59-5.93,14.76s2.32,10.85,5.93,14.79l-2.36,2.11c-3.88-3.88-6.96-9.15-6.96-16.91s3.08-13.03,6.96-16.91Z"/>
        <path class="cls-18" d="M596.79,715.82c.14,1.52,1.28,2.88,3.43,2.88,1.66,0,2.53-.9,2.53-1.94,0-.9-.62-1.59-1.97-1.87l-2.49-.55c-2.98-.66-4.54-2.6-4.54-4.92,0-2.95,2.7-5.44,6.2-5.44,4.71,0,6.24,3.05,6.51,4.71l-3.4.97c-.14-.97-.87-2.53-3.12-2.53-1.42,0-2.43.9-2.43,1.94,0,.9.66,1.56,1.7,1.77l2.56.52c3.19.69,4.85,2.63,4.85,5.13s-2.08,5.41-6.38,5.41c-4.89,0-6.76-3.19-6.96-5.09l3.5-.97Z"/>
        <path class="cls-18" d="M612.59,695.93c1.46,0,2.63,1.18,2.63,2.63s-1.18,2.6-2.63,2.6-2.6-1.14-2.6-2.6,1.18-2.63,2.6-2.63ZM610.62,721.36v-16.87h3.98v16.87h-3.98Z"/>
        <path class="cls-18" d="M618.52,721.36v-3.5l8.56-9.84h-8.38v-3.53h13.44v3.4l-8.66,9.94h8.84v3.53h-13.79Z"/>
        <path class="cls-18" d="M651.09,716.55c-.9,2.94-3.57,5.34-7.62,5.34-4.57,0-8.63-3.33-8.63-9.04,0-5.34,3.95-8.87,8.21-8.87,5.2,0,8.25,3.43,8.25,8.77,0,.66-.07,1.21-.1,1.28h-12.33c.1,2.56,2.11,4.4,4.61,4.4s3.67-1.28,4.23-2.94l3.4,1.07ZM647.24,711.07c-.07-1.97-1.39-3.74-4.16-3.74-2.53,0-3.98,1.94-4.12,3.74h8.28Z"/>
        <path class="cls-18" d="M677.51,709.48v-3.26h16.46v3.26h-16.46ZM677.51,716.3v-3.29h16.46v3.29h-16.46Z"/>
        <path class="cls-18" d="M725.3,721.36v-15.38h-5.44v-2.84c3.22-.07,5.44-1.87,5.92-4.23h3.6v22.45h-4.09Z"/>
        <path class="cls-18" d="M734.52,727.18l-2.36-2.11c3.64-3.95,5.92-8.59,5.92-14.79s-2.29-10.81-5.92-14.76l2.36-2.15c3.92,3.88,6.96,9.15,6.96,16.91s-3.05,13.03-6.96,16.91Z"/>
        <path class="cls-18" d="M767.52,708.44c1.97,0,3.64-.9,3.64-3.33v-4.85c0-4.44,2.39-6.58,6.48-6.58h.8v3.08h-.76c-2.08,0-3.12.97-3.12,3.36v5.75c0,2.25-1.32,3.81-3.53,4.3,2.22.52,3.53,2.08,3.53,4.33v5.75c0,2.39,1.04,3.33,3.12,3.33h.76v3.08h-.8c-4.09,0-6.48-2.15-6.48-6.58v-4.82c0-2.46-1.66-3.36-3.64-3.36v-3.47Z"/>
        <path class="cls-18" d="M782.97,715.82c.14,1.52,1.28,2.88,3.43,2.88,1.66,0,2.53-.9,2.53-1.94,0-.9-.62-1.59-1.97-1.87l-2.49-.55c-2.98-.66-4.54-2.6-4.54-4.92,0-2.95,2.7-5.44,6.2-5.44,4.71,0,6.24,3.05,6.51,4.71l-3.4.97c-.14-.97-.87-2.53-3.12-2.53-1.42,0-2.43.9-2.43,1.94,0,.9.66,1.56,1.7,1.77l2.56.52c3.19.69,4.85,2.63,4.85,5.13s-2.08,5.41-6.38,5.41c-4.89,0-6.76-3.19-6.96-5.09l3.5-.97Z"/>
        <path class="cls-18" d="M798.77,695.93c1.46,0,2.63,1.18,2.63,2.63s-1.18,2.6-2.63,2.6-2.6-1.14-2.6-2.6,1.18-2.63,2.6-2.63ZM796.8,721.36v-16.87h3.98v16.87h-3.98Z"/>
        <path class="cls-18" d="M804.7,721.36v-3.5l8.56-9.84h-8.38v-3.53h13.44v3.4l-8.66,9.94h8.84v3.53h-13.79Z"/>
        <path class="cls-18" d="M837.27,716.55c-.9,2.94-3.57,5.34-7.62,5.34-4.57,0-8.63-3.33-8.63-9.04,0-5.34,3.95-8.87,8.21-8.87,5.2,0,8.25,3.43,8.25,8.77,0,.66-.07,1.21-.1,1.28h-12.34c.1,2.56,2.11,4.4,4.61,4.4s3.67-1.28,4.23-2.94l3.4,1.07ZM833.42,711.07c-.07-1.97-1.39-3.74-4.16-3.74-2.53,0-3.99,1.94-4.12,3.74h8.28Z"/>
        <path class="cls-18" d="M863.69,709.48v-3.26h16.46v3.26h-16.46ZM863.69,716.3v-3.29h16.46v3.29h-16.46Z"/>
        <path class="cls-18" d="M930.92,721.36v-18.09l-7.66,18.09h-3.6l-7.59-18.02v18.02h-4.05v-24.57h5.54l7.97,18.75,7.87-18.75h5.65v24.57h-4.12Z"/>
        <path class="cls-18" d="M944.54,711.7l4.33-.66c.97-.14,1.25-.62,1.25-1.21,0-1.42-.97-2.56-3.19-2.56s-3.29,1.35-3.47,3.05l-3.67-.83c.31-2.91,2.95-5.51,7.1-5.51,5.2,0,7.17,2.95,7.17,6.31v8.38c0,1.52.17,2.53.21,2.7h-3.74c-.03-.1-.17-.8-.17-2.15-.8,1.28-2.46,2.67-5.2,2.67-3.53,0-5.72-2.43-5.72-5.09,0-3.01,2.22-4.68,5.09-5.09ZM950.12,714.36v-.76l-4.4.66c-1.25.21-2.25.9-2.25,2.29,0,1.14.87,2.18,2.46,2.18,2.25,0,4.19-1.07,4.19-4.37Z"/>
        <path class="cls-18" d="M963.94,704.49h3.5v3.57h-3.5v7.83c0,1.49.66,2.11,2.15,2.11.55,0,1.21-.1,1.39-.14v3.33c-.24.1-1.01.38-2.46.38-3.12,0-5.06-1.87-5.06-5.02v-8.49h-3.12v-3.57h.87c1.8,0,2.6-1.14,2.6-2.63v-2.53h3.64v5.16Z"/>
        <path class="cls-18" d="M975.1,721.36h-4.02v-25.09h4.02v9.84c1.14-1.49,3.05-2.11,4.82-2.11,4.16,0,6.17,2.98,6.17,6.69v10.67h-4.02v-9.98c0-2.08-.94-3.74-3.46-3.74-2.22,0-3.43,1.66-3.5,3.81v9.91Z"/>
        <path class="cls-18" d="M993.5,715.92c1.56,0,2.84,1.28,2.84,2.84s-1.28,2.81-2.84,2.81-2.81-1.25-2.81-2.81,1.25-2.84,2.81-2.84Z"/>
        <path class="cls-18" d="M1001.23,721.36v-16.87h3.85v2.15c.97-1.73,3.08-2.63,4.99-2.63,2.22,0,4.16,1.01,5.06,2.98,1.32-2.22,3.29-2.98,5.47-2.98,3.05,0,5.96,1.94,5.96,6.41v10.95h-3.88v-10.29c0-1.97-1-3.47-3.26-3.47-2.11,0-3.5,1.66-3.5,3.74v10.01h-3.95v-10.29c0-1.94-.97-3.47-3.26-3.47-2.15,0-3.5,1.59-3.5,3.74v10.01h-3.98Z"/>
        <path class="cls-18" d="M1035.53,711.7l4.33-.66c.97-.14,1.25-.62,1.25-1.21,0-1.42-.97-2.56-3.19-2.56s-3.29,1.35-3.46,3.05l-3.67-.83c.31-2.91,2.94-5.51,7.1-5.51,5.2,0,7.17,2.95,7.17,6.31v8.38c0,1.52.17,2.53.21,2.7h-3.74c-.03-.1-.17-.8-.17-2.15-.8,1.28-2.46,2.67-5.2,2.67-3.53,0-5.72-2.43-5.72-5.09,0-3.01,2.22-4.68,5.09-5.09ZM1041.11,714.36v-.76l-4.4.66c-1.25.21-2.25.9-2.25,2.29,0,1.14.87,2.18,2.46,2.18,2.25,0,4.19-1.07,4.19-4.37Z"/>
        <path class="cls-18" d="M1053.83,712.84l-6.03-8.35h4.78c.31.52,3.4,4.92,3.71,5.41l3.67-5.41h4.57l-5.93,8.28,6.13,8.59h-4.71l-3.92-5.65c-.35.52-3.5,5.13-3.81,5.65h-4.61l6.13-8.52Z"/>
        <path class="cls-18" d="M1096.53,693.37l2.36,2.15c-3.6,3.95-5.93,8.59-5.93,14.76s2.32,10.85,5.93,14.79l-2.36,2.11c-3.88-3.88-6.96-9.15-6.96-16.91s3.08-13.03,6.96-16.91Z"/>
        <path class="cls-18" d="M1106.34,704.49h3.5v3.57h-3.5v7.83c0,1.49.66,2.11,2.15,2.11.55,0,1.21-.1,1.39-.14v3.33c-.24.1-1.01.38-2.46.38-3.12,0-5.06-1.87-5.06-5.02v-8.49h-3.12v-3.57h.87c1.8,0,2.6-1.14,2.6-2.63v-2.53h3.64v5.16Z"/>
        <path class="cls-18" d="M1129.97,712.91c0,5.2-3.71,8.97-8.77,8.97s-8.73-3.78-8.73-8.97,3.71-8.94,8.73-8.94,8.77,3.78,8.77,8.94ZM1125.91,712.91c0-3.5-2.22-5.3-4.71-5.3s-4.71,1.8-4.71,5.3,2.25,5.37,4.71,5.37,4.71-1.84,4.71-5.37Z"/>
        <path class="cls-18" d="M1134.2,721.36v-24.57h4.23v24.57h-4.23Z"/>
        <path class="cls-18" d="M1147.99,721.36h-4.02v-16.87h3.92v2.25c1.11-1.94,3.12-2.74,4.99-2.74,4.12,0,6.1,2.98,6.1,6.69v10.67h-4.02v-9.98c0-2.08-.94-3.74-3.47-3.74-2.29,0-3.5,1.77-3.5,3.98v9.74Z"/>
        <path class="cls-18" d="M1168.95,704.49h3.5v3.57h-3.5v7.83c0,1.49.66,2.11,2.15,2.11.55,0,1.21-.1,1.39-.14v3.33c-.24.1-1.01.38-2.46.38-3.12,0-5.06-1.87-5.06-5.02v-8.49h-3.12v-3.57h.87c1.8,0,2.6-1.14,2.6-2.63v-2.53h3.64v5.16Z"/>
        <path class="cls-18" d="M1191.33,716.55c-.9,2.94-3.57,5.34-7.62,5.34-4.57,0-8.63-3.33-8.63-9.04,0-5.34,3.95-8.87,8.21-8.87,5.2,0,8.25,3.43,8.25,8.77,0,.66-.07,1.21-.1,1.28h-12.34c.1,2.56,2.11,4.4,4.61,4.4s3.67-1.28,4.23-2.94l3.4,1.07ZM1187.49,711.07c-.07-1.97-1.39-3.74-4.16-3.74-2.53,0-3.98,1.94-4.12,3.74h8.28Z"/>
        <path class="cls-18" d="M1197.88,721.33c.28,2.08,1.91,3.64,4.23,3.64,3.19,0,4.78-1.63,4.78-5.06v-1.77c-.73,1.32-2.43,2.46-4.89,2.46-4.5,0-7.8-3.46-7.8-8.21s3.15-8.21,7.8-8.21c2.63,0,4.26,1.07,4.99,2.46v-2.15h3.88v15.28c0,4.5-2.32,8.7-8.66,8.7-4.47,0-7.59-2.77-8.04-6.17l3.71-.97ZM1207,712.39c0-2.88-1.84-4.75-4.33-4.75s-4.4,1.87-4.4,4.75,1.77,4.78,4.4,4.78,4.33-1.87,4.33-4.78Z"/>
        <path class="cls-18" d="M1230.73,716.55c-.9,2.94-3.57,5.34-7.62,5.34-4.57,0-8.63-3.33-8.63-9.04,0-5.34,3.95-8.87,8.21-8.87,5.2,0,8.25,3.43,8.25,8.77,0,.66-.07,1.21-.1,1.28h-12.34c.1,2.56,2.11,4.4,4.61,4.4s3.67-1.28,4.23-2.94l3.4,1.07ZM1226.88,711.07c-.07-1.97-1.39-3.74-4.16-3.74-2.53,0-3.98,1.94-4.12,3.74h8.28Z"/>
        <path class="cls-18" d="M1244.66,708.47c-.45-.07-.9-.1-1.32-.1-3.12,0-4.54,1.8-4.54,4.95v8.04h-4.02v-16.87h3.92v2.7c.8-1.84,2.67-2.91,4.89-2.91.49,0,.9.07,1.07.1v4.09Z"/>
        <path class="cls-18" d="M595.75,743.64c1.46-2.18,3.81-3.67,7.17-3.67s5.68,1.49,7.14,3.67c1.52,2.29,2.01,5.09,2.01,8.07s-.49,5.79-2.01,8.07c-1.46,2.18-3.78,3.67-7.14,3.67s-5.72-1.49-7.17-3.67c-1.52-2.29-2.01-5.09-2.01-8.07s.49-5.79,2.01-8.07ZM599.46,758.13c.76,1,1.84,1.66,3.47,1.66s2.67-.66,3.46-1.66c1.07-1.39,1.56-3.57,1.56-6.41s-.49-5.02-1.56-6.41c-.8-1-1.84-1.66-3.46-1.66s-2.7.66-3.47,1.66c-1.11,1.39-1.59,3.57-1.59,6.41s.52,5.02,1.59,6.41Z"/>
        <path class="cls-18" d="M615.3,768.77l-2.36-2.11c3.64-3.95,5.92-8.59,5.92-14.79s-2.29-10.81-5.92-14.76l2.36-2.15c3.92,3.88,6.96,9.15,6.96,16.91s-3.05,13.03-6.96,16.91Z"/>
        <path class="cls-18" d="M629.23,754.49c0,3.4,2.18,5.3,4.71,5.3s3.85-1.84,4.23-3.12l3.53,1.28c-.8,2.63-3.33,5.51-7.76,5.51-4.95,0-8.73-3.85-8.73-8.97s3.78-8.94,8.63-8.94c4.54,0,7.03,2.84,7.73,5.54l-3.6,1.32c-.38-1.49-1.52-3.15-4.09-3.15s-4.64,1.84-4.64,5.23Z"/>
        <path class="cls-18" d="M661.28,754.49c0,5.2-3.71,8.97-8.77,8.97s-8.73-3.78-8.73-8.97,3.71-8.94,8.73-8.94,8.77,3.78,8.77,8.94ZM657.22,754.49c0-3.5-2.22-5.3-4.71-5.3s-4.71,1.8-4.71,5.3,2.25,5.37,4.71,5.37,4.71-1.84,4.71-5.37Z"/>
        <path class="cls-18" d="M669.18,762.94h-4.02v-16.87h3.92v2.25c1.11-1.94,3.12-2.74,4.99-2.74,4.12,0,6.1,2.98,6.1,6.69v10.67h-4.02v-9.98c0-2.08-.94-3.74-3.46-3.74-2.29,0-3.5,1.77-3.5,3.98v9.74Z"/>
        <path class="cls-18" d="M687.06,757.4c.14,1.52,1.28,2.88,3.43,2.88,1.66,0,2.53-.9,2.53-1.94,0-.9-.62-1.59-1.97-1.87l-2.49-.55c-2.98-.66-4.54-2.6-4.54-4.92,0-2.95,2.7-5.44,6.2-5.44,4.71,0,6.24,3.05,6.51,4.71l-3.4.97c-.14-.97-.87-2.53-3.12-2.53-1.42,0-2.43.9-2.43,1.94,0,.9.66,1.56,1.7,1.77l2.56.52c3.19.69,4.85,2.63,4.85,5.13s-2.08,5.41-6.38,5.41c-4.89,0-6.76-3.19-6.96-5.09l3.5-.97Z"/>
        <path class="cls-18" d="M705.98,746.07h3.5v3.57h-3.5v7.83c0,1.49.66,2.11,2.15,2.11.55,0,1.21-.1,1.39-.14v3.33c-.24.1-1.01.38-2.46.38-3.12,0-5.06-1.87-5.06-5.02v-8.49h-3.12v-3.57h.87c1.8,0,2.6-1.14,2.6-2.63v-2.53h3.64v5.16Z"/>
        <path class="cls-18" d="M722.12,762.94v-25.09h4.02v25.09h-4.02Z"/>
        <path class="cls-18" d="M746.27,758.13c-.9,2.94-3.57,5.34-7.62,5.34-4.57,0-8.63-3.33-8.63-9.04,0-5.34,3.95-8.87,8.21-8.87,5.2,0,8.25,3.43,8.25,8.77,0,.66-.07,1.21-.1,1.28h-12.33c.1,2.56,2.11,4.4,4.61,4.4s3.67-1.28,4.23-2.94l3.4,1.07ZM742.43,752.65c-.07-1.97-1.39-3.74-4.16-3.74-2.53,0-3.98,1.94-4.12,3.74h8.28Z"/>
        <path class="cls-18" d="M754.35,762.94h-4.02v-16.87h3.92v2.25c1.11-1.94,3.12-2.74,4.99-2.74,4.12,0,6.1,2.98,6.1,6.69v10.67h-4.02v-9.98c0-2.08-.94-3.74-3.46-3.74-2.29,0-3.5,1.77-3.5,3.98v9.74Z"/>
        <path class="cls-18" d="M772.71,762.91c.28,2.08,1.91,3.64,4.23,3.64,3.19,0,4.78-1.63,4.78-5.06v-1.77c-.73,1.32-2.43,2.46-4.89,2.46-4.5,0-7.8-3.46-7.8-8.21s3.15-8.21,7.8-8.21c2.63,0,4.26,1.07,4.99,2.46v-2.15h3.88v15.28c0,4.5-2.32,8.7-8.66,8.7-4.47,0-7.59-2.77-8.04-6.17l3.71-.97ZM781.83,753.97c0-2.88-1.84-4.75-4.33-4.75s-4.4,1.87-4.4,4.75,1.77,4.78,4.4,4.78,4.33-1.87,4.33-4.78Z"/>
        <path class="cls-18" d="M795.72,746.07h3.5v3.57h-3.5v7.83c0,1.49.66,2.11,2.15,2.11.55,0,1.21-.1,1.39-.14v3.33c-.24.1-1.01.38-2.46.38-3.12,0-5.06-1.87-5.06-5.02v-8.49h-3.12v-3.57h.87c1.8,0,2.6-1.14,2.6-2.63v-2.53h3.64v5.16Z"/>
        <path class="cls-18" d="M806.88,762.94h-4.02v-25.09h4.02v9.84c1.14-1.49,3.05-2.11,4.82-2.11,4.16,0,6.17,2.98,6.17,6.69v10.67h-4.02v-9.98c0-2.08-.94-3.74-3.47-3.74-2.22,0-3.43,1.66-3.5,3.81v9.91Z"/>
        <path class="cls-18" d="M830.89,751.06v-3.26h16.46v3.26h-16.46ZM830.89,757.89v-3.29h16.46v3.29h-16.46Z"/>
        <path class="cls-18" d="M864.71,753.28l4.33-.66c.97-.14,1.25-.62,1.25-1.21,0-1.42-.97-2.56-3.19-2.56s-3.29,1.35-3.46,3.05l-3.67-.83c.31-2.91,2.94-5.51,7.1-5.51,5.2,0,7.17,2.95,7.17,6.31v8.38c0,1.52.17,2.53.21,2.7h-3.74c-.03-.1-.17-.8-.17-2.15-.8,1.28-2.46,2.67-5.2,2.67-3.53,0-5.72-2.43-5.72-5.09,0-3.01,2.22-4.68,5.09-5.09ZM870.29,755.95v-.76l-4.4.66c-1.25.21-2.25.9-2.25,2.29,0,1.14.87,2.18,2.46,2.18,2.25,0,4.19-1.07,4.19-4.37Z"/>
        <path class="cls-18" d="M888.96,750.05c-.45-.07-.9-.1-1.32-.1-3.12,0-4.54,1.8-4.54,4.95v8.04h-4.02v-16.87h3.92v2.7c.8-1.84,2.67-2.91,4.89-2.91.49,0,.9.07,1.07.1v4.09Z"/>
        <path class="cls-18" d="M902.2,750.05c-.45-.07-.9-.1-1.32-.1-3.12,0-4.54,1.8-4.54,4.95v8.04h-4.02v-16.87h3.92v2.7c.8-1.84,2.67-2.91,4.89-2.91.49,0,.9.07,1.07.1v4.09Z"/>
        <path class="cls-18" d="M909.65,753.28l4.33-.66c.97-.14,1.25-.62,1.25-1.21,0-1.42-.97-2.56-3.19-2.56s-3.29,1.35-3.47,3.05l-3.67-.83c.31-2.91,2.95-5.51,7.1-5.51,5.2,0,7.17,2.95,7.17,6.31v8.38c0,1.52.17,2.53.21,2.7h-3.74c-.03-.1-.17-.8-.17-2.15-.8,1.28-2.46,2.67-5.2,2.67-3.53,0-5.72-2.43-5.72-5.09,0-3.01,2.22-4.68,5.09-5.09ZM915.23,755.95v-.76l-4.4.66c-1.25.21-2.25.9-2.25,2.29,0,1.14.87,2.18,2.46,2.18,2.25,0,4.19-1.07,4.19-4.37Z"/>
        <path class="cls-18" d="M924.45,769.77l4.05-8.84-7.21-14.86h4.54l4.85,10.67,4.54-10.67h4.26l-10.74,23.7h-4.3Z"/>
        <path class="cls-18" d="M950.57,751.06v-3.26h16.46v3.26h-16.46ZM950.57,757.89v-3.29h16.46v3.29h-16.46Z"/>
        <path class="cls-18" d="M971.29,751.06v-3.26h16.46v3.26h-16.46ZM971.29,757.89v-3.29h16.46v3.29h-16.46Z"/>
        <path class="cls-18" d="M1005.08,762.94h-4.02v-16.87h3.92v2.25c1.11-1.94,3.12-2.74,4.99-2.74,4.12,0,6.1,2.98,6.1,6.69v10.67h-4.02v-9.98c0-2.08-.94-3.74-3.46-3.74-2.29,0-3.5,1.77-3.5,3.98v9.74Z"/>
        <path class="cls-18" d="M1026.91,763.43c-4.02,0-6.38-2.98-6.38-6.72v-10.64h4.02v9.91c0,2.08.97,3.85,3.4,3.85s3.53-1.56,3.53-3.78v-9.98h4.02v13.79c0,1.39.1,2.46.17,3.08h-3.85c-.07-.38-.14-1.18-.14-1.87-.83,1.52-2.81,2.36-4.78,2.36Z"/>
        <path class="cls-18" d="M1040.7,762.94v-25.09h4.02v25.09h-4.02Z"/>
        <path class="cls-18" d="M1049.92,762.94v-25.09h4.02v25.09h-4.02Z"/>
        <path class="cls-18" d="M1071.88,755.67c-.03-.45-.07-.83-.07-1.32,0-2.08.8-3.78,2.81-5.23l1.59-1.14c1.14-.83,1.63-1.84,1.63-3.01,0-1.8-1.21-3.5-3.74-3.5s-3.92,1.97-3.92,3.95c0,.52.07,1.18.21,1.56l-3.92-.28c-.14-.48-.21-1.04-.21-1.59,0-3.47,2.6-7.24,7.83-7.24s7.9,3.4,7.9,6.93c0,2.74-1.46,4.68-3.47,6.1l-1.49,1.04c-1.14.8-1.73,1.94-1.73,3.29,0,.07,0,.24.03.45h-3.47ZM1073.65,758.09c1.39,0,2.53,1.18,2.53,2.56s-1.14,2.53-2.53,2.53-2.53-1.14-2.53-2.53,1.11-2.56,2.53-2.56Z"/>
        <path class="cls-18" d="M1095.31,743.64c1.46-2.18,3.81-3.67,7.17-3.67s5.68,1.49,7.14,3.67c1.52,2.29,2.01,5.09,2.01,8.07s-.49,5.79-2.01,8.07c-1.46,2.18-3.78,3.67-7.14,3.67s-5.72-1.49-7.17-3.67c-1.52-2.29-2.01-5.09-2.01-8.07s.48-5.79,2.01-8.07ZM1099.01,758.13c.76,1,1.84,1.66,3.47,1.66s2.67-.66,3.46-1.66c1.07-1.39,1.56-3.57,1.56-6.41s-.49-5.02-1.56-6.41c-.8-1-1.84-1.66-3.46-1.66s-2.7.66-3.47,1.66c-1.11,1.39-1.59,3.57-1.59,6.41s.52,5.02,1.59,6.41Z"/>
        <path class="cls-18" d="M1127.01,745.86c1.52,0,2.81,1.25,2.81,2.81s-1.28,2.77-2.81,2.77-2.81-1.25-2.81-2.77,1.25-2.81,2.81-2.81ZM1127.05,757.57c1.52,0,2.81,1.25,2.81,2.81s-1.28,2.77-2.81,2.77-2.81-1.25-2.81-2.77,1.25-2.81,2.81-2.81Z"/>
        <path class="cls-18" d="M1147.49,753.28l4.33-.66c.97-.14,1.25-.62,1.25-1.21,0-1.42-.97-2.56-3.19-2.56s-3.29,1.35-3.47,3.05l-3.67-.83c.31-2.91,2.95-5.51,7.1-5.51,5.2,0,7.17,2.95,7.17,6.31v8.38c0,1.52.17,2.53.21,2.7h-3.74c-.03-.1-.17-.8-.17-2.15-.8,1.28-2.46,2.67-5.2,2.67-3.53,0-5.72-2.43-5.72-5.09,0-3.01,2.22-4.68,5.09-5.09ZM1153.07,755.95v-.76l-4.4.66c-1.25.21-2.25.9-2.25,2.29,0,1.14.87,2.18,2.46,2.18,2.25,0,4.19-1.07,4.19-4.37Z"/>
        <path class="cls-18" d="M1171.74,750.05c-.45-.07-.9-.1-1.32-.1-3.12,0-4.54,1.8-4.54,4.95v8.04h-4.02v-16.87h3.92v2.7c.8-1.84,2.67-2.91,4.89-2.91.49,0,.9.07,1.07.1v4.09Z"/>
        <path class="cls-18" d="M1184.98,750.05c-.45-.07-.9-.1-1.32-.1-3.12,0-4.54,1.8-4.54,4.95v8.04h-4.02v-16.87h3.92v2.7c.8-1.84,2.67-2.91,4.89-2.91.49,0,.9.07,1.07.1v4.09Z"/>
        <path class="cls-18" d="M1192.43,753.28l4.33-.66c.97-.14,1.25-.62,1.25-1.21,0-1.42-.97-2.56-3.19-2.56s-3.29,1.35-3.47,3.05l-3.67-.83c.31-2.91,2.95-5.51,7.1-5.51,5.2,0,7.17,2.95,7.17,6.31v8.38c0,1.52.17,2.53.21,2.7h-3.74c-.03-.1-.17-.8-.17-2.15-.8,1.28-2.46,2.67-5.2,2.67-3.53,0-5.72-2.43-5.72-5.09,0-3.01,2.22-4.68,5.09-5.09ZM1198.01,755.95v-.76l-4.4.66c-1.25.21-2.25.9-2.25,2.29,0,1.14.87,2.18,2.46,2.18,2.25,0,4.19-1.07,4.19-4.37Z"/>
        <path class="cls-18" d="M1207.23,769.77l4.05-8.84-7.21-14.86h4.54l4.85,10.67,4.54-10.67h4.26l-10.74,23.7h-4.3Z"/>
        <path class="cls-18" d="M1224.17,757.5c1.56,0,2.84,1.28,2.84,2.84s-1.28,2.81-2.84,2.81-2.81-1.25-2.81-2.81,1.25-2.84,2.81-2.84Z"/>
        <path class="cls-18" d="M1240.49,762.94v-25.09h4.02v25.09h-4.02Z"/>
        <path class="cls-18" d="M1264.64,758.13c-.9,2.94-3.57,5.34-7.62,5.34-4.57,0-8.63-3.33-8.63-9.04,0-5.34,3.95-8.87,8.21-8.87,5.2,0,8.25,3.43,8.25,8.77,0,.66-.07,1.21-.1,1.28h-12.34c.1,2.56,2.11,4.4,4.61,4.4s3.67-1.28,4.23-2.94l3.4,1.07ZM1260.79,752.65c-.07-1.97-1.39-3.74-4.16-3.74-2.53,0-3.98,1.94-4.12,3.74h8.28Z"/>
        <path class="cls-18" d="M600.81,776.53l2.36,2.15c-3.6,3.95-5.93,8.59-5.93,14.76s2.32,10.85,5.93,14.79l-2.36,2.11c-3.88-3.88-6.96-9.15-6.96-16.91s3.08-13.03,6.96-16.91Z"/>
        <path class="cls-18" d="M608.75,799.67c1.42,0,2.56,1.18,2.56,2.56s-1.14,2.53-2.56,2.53-2.49-1.14-2.49-2.53,1.11-2.56,2.49-2.56ZM610.24,797.25h-2.91l-1-17.29h4.89l-.97,17.29Z"/>
        <path class="cls-18" d="M616.99,804.53v-25.09h4.02v25.09h-4.02Z"/>
        <path class="cls-18" d="M641.15,799.71c-.9,2.94-3.57,5.34-7.62,5.34-4.57,0-8.63-3.33-8.63-9.04,0-5.34,3.95-8.87,8.21-8.87,5.2,0,8.25,3.43,8.25,8.77,0,.66-.07,1.21-.1,1.28h-12.33c.1,2.56,2.11,4.4,4.61,4.4s3.67-1.28,4.23-2.94l3.4,1.07ZM637.3,794.23c-.07-1.97-1.39-3.74-4.16-3.74-2.53,0-3.98,1.94-4.12,3.74h8.28Z"/>
        <path class="cls-18" d="M649.22,804.53h-4.02v-16.87h3.92v2.25c1.11-1.94,3.12-2.74,4.99-2.74,4.12,0,6.1,2.98,6.1,6.69v10.67h-4.02v-9.98c0-2.08-.94-3.74-3.46-3.74-2.29,0-3.5,1.77-3.5,3.99v9.74Z"/>
        <path class="cls-18" d="M667.58,804.49c.28,2.08,1.91,3.64,4.23,3.64,3.19,0,4.78-1.63,4.78-5.06v-1.77c-.73,1.32-2.43,2.46-4.89,2.46-4.5,0-7.8-3.46-7.8-8.21s3.15-8.21,7.8-8.21c2.63,0,4.26,1.07,4.99,2.46v-2.15h3.88v15.28c0,4.5-2.32,8.7-8.66,8.7-4.47,0-7.59-2.77-8.04-6.17l3.71-.97ZM676.7,795.55c0-2.88-1.84-4.75-4.33-4.75s-4.4,1.87-4.4,4.75,1.77,4.78,4.4,4.78,4.33-1.87,4.33-4.78Z"/>
        <path class="cls-18" d="M690.59,787.65h3.5v3.57h-3.5v7.83c0,1.49.66,2.11,2.15,2.11.55,0,1.21-.1,1.39-.14v3.33c-.24.1-1.01.38-2.46.38-3.12,0-5.06-1.87-5.06-5.02v-8.49h-3.12v-3.57h.87c1.8,0,2.6-1.14,2.6-2.63v-2.53h3.64v5.16Z"/>
        <path class="cls-18" d="M701.75,804.53h-4.02v-25.09h4.02v9.84c1.14-1.49,3.05-2.11,4.82-2.11,4.16,0,6.17,2.98,6.17,6.69v10.67h-4.02v-9.98c0-2.08-.94-3.74-3.46-3.74-2.22,0-3.43,1.66-3.5,3.81v9.91Z"/>
        <path class="cls-18" d="M725.92,809.83v-32.99h3.4v32.99h-3.4Z"/>
        <path class="cls-18" d="M735.21,809.83v-32.99h3.4v32.99h-3.4Z"/>
        <path class="cls-18" d="M754.12,798.98c.14,1.52,1.28,2.88,3.43,2.88,1.66,0,2.53-.9,2.53-1.94,0-.9-.62-1.59-1.97-1.87l-2.49-.55c-2.98-.66-4.54-2.6-4.54-4.92,0-2.95,2.7-5.44,6.2-5.44,4.71,0,6.24,3.05,6.51,4.71l-3.4.97c-.14-.97-.87-2.53-3.12-2.53-1.42,0-2.43.9-2.43,1.94,0,.9.66,1.56,1.7,1.77l2.56.52c3.19.69,4.85,2.63,4.85,5.13s-2.08,5.41-6.38,5.41c-4.89,0-6.76-3.19-6.96-5.09l3.5-.97Z"/>
        <path class="cls-18" d="M769.92,779.09c1.46,0,2.63,1.18,2.63,2.63s-1.18,2.6-2.63,2.6-2.6-1.14-2.6-2.6,1.18-2.63,2.6-2.63ZM767.94,804.53v-16.87h3.98v16.87h-3.98Z"/>
        <path class="cls-18" d="M775.84,804.53v-3.5l8.56-9.84h-8.38v-3.53h13.44v3.4l-8.66,9.94h8.84v3.53h-13.79Z"/>
        <path class="cls-18" d="M808.41,799.71c-.9,2.94-3.57,5.34-7.62,5.34-4.57,0-8.63-3.33-8.63-9.04,0-5.34,3.95-8.87,8.21-8.87,5.2,0,8.25,3.43,8.25,8.77,0,.66-.07,1.21-.1,1.28h-12.33c.1,2.56,2.11,4.4,4.61,4.4s3.67-1.28,4.23-2.94l3.4,1.07ZM804.57,794.23c-.07-1.97-1.39-3.74-4.16-3.74-2.53,0-3.98,1.94-4.12,3.74h8.28Z"/>
        <path class="cls-18" d="M819.04,792.81l14.62-7.35v3.85l-10.46,5.09,10.46,5.13v3.85l-14.62-7.31v-3.26Z"/>
        <path class="cls-18" d="M849.17,804.53v-15.38h-5.44v-2.84c3.22-.07,5.44-1.87,5.93-4.23h3.6v22.45h-4.09Z"/>
        <path class="cls-18" d="M858.39,810.35l-2.36-2.11c3.64-3.95,5.92-8.59,5.92-14.79s-2.29-10.81-5.92-14.76l2.36-2.15c3.92,3.88,6.96,9.15,6.96,16.91s-3.05,13.03-6.96,16.91Z"/>
        <path class="cls-18" d="M876.54,791.6c1.97,0,3.64-.9,3.64-3.33v-4.85c0-4.44,2.39-6.58,6.48-6.58h.8v3.08h-.76c-2.08,0-3.12.97-3.12,3.36v5.75c0,2.25-1.32,3.81-3.53,4.3,2.22.52,3.53,2.08,3.53,4.33v5.75c0,2.39,1.04,3.33,3.12,3.33h.76v3.08h-.8c-4.09,0-6.48-2.15-6.48-6.58v-4.82c0-2.46-1.66-3.36-3.64-3.36v-3.47Z"/>
        <path class="cls-18" d="M900.1,791.64c-.45-.07-.9-.1-1.32-.1-3.12,0-4.54,1.8-4.54,4.95v8.04h-4.02v-16.87h3.92v2.7c.8-1.84,2.67-2.91,4.89-2.91.49,0,.9.07,1.07.1v4.09Z"/>
        <path class="cls-18" d="M918.22,799.71c-.9,2.94-3.57,5.34-7.62,5.34-4.57,0-8.63-3.33-8.63-9.04,0-5.34,3.95-8.87,8.21-8.87,5.2,0,8.25,3.43,8.25,8.77,0,.66-.07,1.21-.1,1.28h-12.33c.1,2.56,2.11,4.4,4.61,4.4s3.67-1.28,4.23-2.94l3.4,1.07ZM914.37,794.23c-.07-1.97-1.39-3.74-4.16-3.74-2.53,0-3.98,1.94-4.12,3.74h8.28Z"/>
        <path class="cls-18" d="M927.37,787.65h3.5v3.57h-3.5v7.83c0,1.49.66,2.11,2.15,2.11.55,0,1.21-.1,1.39-.14v3.33c-.24.1-1.01.38-2.46.38-3.12,0-5.06-1.87-5.06-5.02v-8.49h-3.12v-3.57h.87c1.8,0,2.6-1.14,2.6-2.63v-2.53h3.64v5.16Z"/>
        <path class="cls-18" d="M941.23,805.01c-4.02,0-6.38-2.98-6.38-6.72v-10.64h4.02v9.91c0,2.08.97,3.85,3.4,3.85s3.53-1.56,3.53-3.78v-9.98h4.02v13.79c0,1.39.1,2.46.17,3.08h-3.85c-.07-.38-.14-1.18-.14-1.87-.83,1.52-2.81,2.36-4.78,2.36Z"/>
        <path class="cls-18" d="M964.89,791.64c-.45-.07-.9-.1-1.32-.1-3.12,0-4.54,1.8-4.54,4.95v8.04h-4.02v-16.87h3.92v2.7c.8-1.84,2.67-2.91,4.89-2.91.49,0,.9.07,1.07.1v4.09Z"/>
        <path class="cls-18" d="M972.27,804.53h-4.02v-16.87h3.92v2.25c1.11-1.94,3.12-2.74,4.99-2.74,4.12,0,6.1,2.98,6.1,6.69v10.67h-4.02v-9.98c0-2.08-.94-3.74-3.46-3.74-2.29,0-3.5,1.77-3.5,3.99v9.74Z"/>
        <path class="cls-18" d="M996.45,809.97v-33.12h7.42v3.12h-4.02v26.85h4.02v3.15h-7.42Z"/>
        <path class="cls-18" d="M1004.21,809.97v-3.15h4.02v-26.85h-4.02v-3.12h7.42v33.12h-7.42Z"/>
        <path class="cls-18" d="M1025.66,795.07c-1.97,0-3.64.9-3.64,3.36v4.82c0,4.44-2.39,6.58-6.48,6.58h-.8v-3.08h.76c2.08,0,3.12-.94,3.12-3.33v-5.75c0-2.25,1.32-3.81,3.53-4.33-2.22-.49-3.53-2.04-3.53-4.3v-5.75c0-2.39-1.04-3.36-3.12-3.36h-.76v-3.08h.8c4.09,0,6.48,2.15,6.48,6.58v4.85c0,2.43,1.66,3.33,3.64,3.33v3.47Z"/>
        <path class="cls-18" d="M1029.82,804.53v-25.09h4.02v25.09h-4.02Z"/>
        <path class="cls-18" d="M1053.97,799.71c-.9,2.94-3.57,5.34-7.62,5.34-4.57,0-8.63-3.33-8.63-9.04,0-5.34,3.95-8.87,8.21-8.87,5.2,0,8.25,3.43,8.25,8.77,0,.66-.07,1.21-.1,1.28h-12.33c.1,2.56,2.11,4.4,4.61,4.4s3.67-1.28,4.23-2.94l3.4,1.07ZM1050.12,794.23c-.07-1.97-1.39-3.74-4.16-3.74-2.53,0-3.98,1.94-4.12,3.74h8.28Z"/>
        <path class="cls-18" d="M1063.11,787.65h3.5v3.57h-3.5v7.83c0,1.49.66,2.11,2.15,2.11.55,0,1.21-.1,1.39-.14v3.33c-.24.1-1,.38-2.46.38-3.12,0-5.06-1.87-5.06-5.02v-8.49h-3.12v-3.57h.87c1.8,0,2.6-1.14,2.6-2.63v-2.53h3.64v5.16Z"/>
        <path class="cls-18" d="M1080.6,779.09c1.46,0,2.63,1.18,2.63,2.63s-1.18,2.6-2.63,2.6-2.6-1.14-2.6-2.6,1.18-2.63,2.6-2.63ZM1078.62,804.53v-16.87h3.99v16.87h-3.99Z"/>
        <path class="cls-18" d="M1091.83,804.53h-4.02v-16.87h3.92v2.25c1.11-1.94,3.12-2.74,4.99-2.74,4.12,0,6.1,2.98,6.1,6.69v10.67h-4.02v-9.98c0-2.08-.94-3.74-3.46-3.74-2.29,0-3.5,1.77-3.5,3.99v9.74Z"/>
        <path class="cls-18" d="M1123.29,801.44c0,1.52.14,2.81.17,3.08h-3.85c-.07-.38-.17-1.49-.17-2.18-.8,1.42-2.56,2.6-4.95,2.6-4.85,0-8.11-3.81-8.11-8.91s3.29-8.83,8.04-8.83c2.94,0,4.44,1.35,4.95,2.42v-10.19h3.92v22ZM1114.94,801.41c2.63,0,4.47-2.18,4.47-5.41s-1.8-5.23-4.44-5.23-4.57,2.04-4.57,5.27,1.8,5.37,4.54,5.37Z"/>
        <path class="cls-18" d="M1143.49,799.71c-.9,2.94-3.57,5.34-7.62,5.34-4.57,0-8.63-3.33-8.63-9.04,0-5.34,3.95-8.87,8.21-8.87,5.2,0,8.25,3.43,8.25,8.77,0,.66-.07,1.21-.1,1.28h-12.34c.1,2.56,2.11,4.4,4.61,4.4s3.67-1.28,4.23-2.94l3.4,1.07ZM1139.64,794.23c-.07-1.97-1.39-3.74-4.16-3.74-2.53,0-3.98,1.94-4.12,3.74h8.28Z"/>
        <path class="cls-18" d="M1151.22,796l-6.03-8.35h4.78c.31.52,3.4,4.92,3.71,5.41l3.67-5.41h4.57l-5.92,8.28,6.13,8.59h-4.71l-3.92-5.65c-.35.52-3.5,5.13-3.81,5.65h-4.61l6.13-8.52Z"/>
        <path class="cls-18" d="M1172.59,792.64v-3.26h16.46v3.26h-16.46ZM1172.59,799.47v-3.29h16.46v3.29h-16.46Z"/>
        <path class="cls-18" d="M1202.69,785.23c1.46-2.18,3.81-3.67,7.17-3.67s5.68,1.49,7.14,3.67c1.52,2.29,2.01,5.09,2.01,8.07s-.49,5.79-2.01,8.07c-1.46,2.18-3.78,3.67-7.14,3.67s-5.72-1.49-7.17-3.67c-1.52-2.29-2.01-5.09-2.01-8.07s.48-5.79,2.01-8.07ZM1206.39,799.71c.76,1,1.84,1.66,3.47,1.66s2.67-.66,3.46-1.66c1.07-1.39,1.56-3.57,1.56-6.41s-.49-5.02-1.56-6.41c-.8-1-1.84-1.66-3.46-1.66s-2.7.66-3.47,1.66c-1.11,1.39-1.59,3.57-1.59,6.41s.52,5.02,1.59,6.41Z"/>
        <path class="cls-18" d="M1223.16,804.53v-25.09h4.02v25.09h-4.02Z"/>
        <path class="cls-18" d="M1247.31,799.71c-.9,2.94-3.57,5.34-7.62,5.34-4.57,0-8.63-3.33-8.63-9.04,0-5.34,3.95-8.87,8.21-8.87,5.2,0,8.25,3.43,8.25,8.77,0,.66-.07,1.21-.1,1.28h-12.34c.1,2.56,2.11,4.4,4.61,4.4s3.67-1.28,4.23-2.94l3.4,1.07ZM1243.47,794.23c-.07-1.97-1.39-3.74-4.16-3.74-2.53,0-3.98,1.94-4.12,3.74h8.28Z"/>
        <path class="cls-18" d="M1256.46,787.65h3.5v3.57h-3.5v7.83c0,1.49.66,2.11,2.15,2.11.55,0,1.21-.1,1.39-.14v3.33c-.24.1-1,.38-2.46.38-3.12,0-5.06-1.87-5.06-5.02v-8.49h-3.12v-3.57h.87c1.8,0,2.6-1.14,2.6-2.63v-2.53h3.64v5.16Z"/>
        <path class="cls-18" d="M610.38,843.02c0,1.52.14,2.81.17,3.08h-3.85c-.07-.38-.17-1.49-.17-2.18-.8,1.42-2.56,2.6-4.95,2.6-4.85,0-8.11-3.81-8.11-8.91s3.29-8.83,8.04-8.83c2.94,0,4.44,1.35,4.95,2.42v-10.19h3.92v22ZM602.03,842.99c2.63,0,4.47-2.18,4.47-5.41s-1.8-5.23-4.44-5.23-4.57,2.04-4.57,5.27,1.8,5.37,4.54,5.37Z"/>
        <path class="cls-18" d="M630.58,841.29c-.9,2.94-3.57,5.34-7.62,5.34-4.57,0-8.63-3.33-8.63-9.04,0-5.34,3.95-8.87,8.21-8.87,5.2,0,8.25,3.43,8.25,8.77,0,.66-.07,1.21-.1,1.28h-12.33c.1,2.56,2.11,4.4,4.61,4.4s3.67-1.28,4.23-2.94l3.4,1.07ZM626.73,835.82c-.07-1.97-1.39-3.74-4.16-3.74-2.53,0-3.98,1.94-4.12,3.74h8.28Z"/>
        <path class="cls-18" d="M638.3,837.58l-6.03-8.35h4.78c.31.52,3.4,4.92,3.71,5.41l3.67-5.41h4.57l-5.93,8.28,6.13,8.59h-4.71l-3.92-5.65c-.35.52-3.5,5.13-3.81,5.65h-4.61l6.13-8.52Z"/>
        <path class="cls-18" d="M662.43,834.22v-3.26h16.46v3.26h-16.46ZM662.43,841.05v-3.29h16.46v3.29h-16.46Z"/>
        <path class="cls-18" d="M695.29,826.81c1.46-2.18,3.81-3.67,7.17-3.67s5.68,1.49,7.14,3.67c1.52,2.29,2.01,5.09,2.01,8.07s-.49,5.79-2.01,8.07c-1.46,2.18-3.78,3.67-7.14,3.67s-5.72-1.49-7.17-3.67c-1.52-2.29-2.01-5.09-2.01-8.07s.49-5.79,2.01-8.07ZM699,841.29c.76,1,1.84,1.66,3.47,1.66s2.67-.66,3.46-1.66c1.07-1.39,1.56-3.57,1.56-6.41s-.49-5.02-1.56-6.41c-.8-1-1.84-1.66-3.46-1.66s-2.7.66-3.47,1.66c-1.11,1.39-1.59,3.57-1.59,6.41s.52,5.02,1.59,6.41Z"/>
        <path class="cls-18" d="M718.47,837.65c0,3.4,2.18,5.3,4.71,5.3s3.85-1.84,4.23-3.12l3.53,1.28c-.8,2.63-3.33,5.51-7.76,5.51-4.95,0-8.73-3.85-8.73-8.97s3.78-8.94,8.63-8.94c4.54,0,7.03,2.84,7.73,5.54l-3.6,1.32c-.38-1.49-1.52-3.15-4.09-3.15s-4.64,1.84-4.64,5.23Z"/>
        <path class="cls-18" d="M750.53,837.65c0,5.2-3.71,8.97-8.77,8.97s-8.73-3.78-8.73-8.97,3.71-8.94,8.73-8.94,8.77,3.78,8.77,8.94ZM746.47,837.65c0-3.5-2.22-5.3-4.71-5.3s-4.71,1.8-4.71,5.3,2.25,5.37,4.71,5.37,4.71-1.84,4.71-5.37Z"/>
        <path class="cls-18" d="M758.43,846.11h-4.02v-16.87h3.92v2.25c1.11-1.94,3.12-2.74,4.99-2.74,4.12,0,6.1,2.98,6.1,6.69v10.67h-4.02v-9.98c0-2.08-.94-3.74-3.46-3.74-2.29,0-3.5,1.77-3.5,3.99v9.74Z"/>
        <path class="cls-18" d="M776.31,840.56c.14,1.52,1.28,2.88,3.43,2.88,1.66,0,2.53-.9,2.53-1.94,0-.9-.62-1.59-1.97-1.87l-2.49-.55c-2.98-.66-4.54-2.6-4.54-4.92,0-2.95,2.7-5.44,6.2-5.44,4.71,0,6.24,3.05,6.51,4.71l-3.4.97c-.14-.97-.87-2.53-3.12-2.53-1.42,0-2.43.9-2.43,1.94,0,.9.66,1.56,1.7,1.77l2.56.52c3.19.69,4.85,2.63,4.85,5.13s-2.08,5.41-6.38,5.41c-4.89,0-6.76-3.19-6.96-5.09l3.5-.97Z"/>
        <path class="cls-18" d="M795.23,829.23h3.5v3.57h-3.5v7.83c0,1.49.66,2.11,2.15,2.11.55,0,1.21-.1,1.39-.14v3.33c-.24.1-1.01.38-2.46.38-3.12,0-5.06-1.87-5.06-5.02v-8.49h-3.12v-3.57h.87c1.8,0,2.6-1.14,2.6-2.63v-2.53h3.64v5.16Z"/>
        <path class="cls-18" d="M823.37,833.22c-.45-.07-.9-.1-1.32-.1-3.12,0-4.54,1.8-4.54,4.95v8.04h-4.02v-16.87h3.92v2.7c.8-1.84,2.67-2.91,4.89-2.91.49,0,.9.07,1.07.1v4.09Z"/>
        <path class="cls-18" d="M841.5,841.29c-.9,2.94-3.57,5.34-7.62,5.34-4.57,0-8.63-3.33-8.63-9.04,0-5.34,3.95-8.87,8.21-8.87,5.2,0,8.25,3.43,8.25,8.77,0,.66-.07,1.21-.1,1.28h-12.34c.1,2.56,2.11,4.4,4.61,4.4s3.67-1.28,4.23-2.94l3.4,1.07ZM837.65,835.82c-.07-1.97-1.39-3.74-4.16-3.74-2.53,0-3.99,1.94-4.12,3.74h8.28Z"/>
        <path class="cls-18" d="M847.56,840.56c.14,1.52,1.28,2.88,3.43,2.88,1.66,0,2.53-.9,2.53-1.94,0-.9-.62-1.59-1.97-1.87l-2.49-.55c-2.98-.66-4.54-2.6-4.54-4.92,0-2.95,2.7-5.44,6.2-5.44,4.71,0,6.24,3.05,6.51,4.71l-3.4.97c-.14-.97-.87-2.53-3.12-2.53-1.42,0-2.43.9-2.43,1.94,0,.9.66,1.56,1.7,1.77l2.56.52c3.19.69,4.85,2.63,4.85,5.13s-2.08,5.41-6.38,5.41c-4.89,0-6.76-3.19-6.96-5.09l3.5-.97Z"/>
        <path class="cls-18" d="M867.41,846.59c-4.02,0-6.38-2.98-6.38-6.72v-10.64h4.02v9.91c0,2.08.97,3.85,3.4,3.85s3.53-1.56,3.53-3.78v-9.98h4.02v13.79c0,1.39.1,2.46.17,3.08h-3.85c-.07-.38-.14-1.18-.14-1.87-.83,1.52-2.81,2.36-4.78,2.36Z"/>
        <path class="cls-18" d="M881.21,846.11v-25.09h4.02v25.09h-4.02Z"/>
        <path class="cls-18" d="M895.52,829.23h3.5v3.57h-3.5v7.83c0,1.49.66,2.11,2.15,2.11.55,0,1.21-.1,1.39-.14v3.33c-.24.1-1,.38-2.46.38-3.12,0-5.06-1.87-5.06-5.02v-8.49h-3.12v-3.57h.87c1.8,0,2.6-1.14,2.6-2.63v-2.53h3.64v5.16Z"/>
        <path class="cls-18" d="M913.34,834.22v-3.26h16.46v3.26h-16.46ZM913.34,841.05v-3.29h16.46v3.29h-16.46Z"/>
        <path class="cls-18" d="M949.25,846.11h-4.02v-16.87h3.92v2.25c1.11-1.94,3.12-2.74,4.99-2.74,4.12,0,6.1,2.98,6.1,6.69v10.67h-4.02v-9.98c0-2.08-.94-3.74-3.46-3.74-2.29,0-3.5,1.77-3.5,3.99v9.74Z"/>
        <path class="cls-18" d="M980.05,841.29c-.9,2.94-3.57,5.34-7.62,5.34-4.57,0-8.63-3.33-8.63-9.04,0-5.34,3.95-8.87,8.21-8.87,5.2,0,8.25,3.43,8.25,8.77,0,.66-.07,1.21-.1,1.28h-12.34c.1,2.56,2.11,4.4,4.61,4.4s3.67-1.28,4.23-2.94l3.4,1.07ZM976.21,835.82c-.07-1.97-1.39-3.74-4.16-3.74-2.53,0-3.99,1.94-4.12,3.74h8.28Z"/>
        <path class="cls-18" d="M997.59,829.23l3.98,11.68,3.36-11.68h4.09l-5.4,16.87h-4.02l-4.19-12.13-4.09,12.13h-4.12l-5.47-16.87h4.3l3.43,11.68,3.98-11.68h4.16Z"/>
        <path class="cls-18" d="M1027.78,827.02v2.22h3.92v3.5h-3.92v13.37h-4.05v-13.37h-2.94v-3.5h2.94v-2.32c0-3.78,2.43-6.06,5.89-6.06,1,0,1.84.21,2.11.35v3.43c-.24-.07-.69-.17-1.46-.17-1.07,0-2.49.49-2.49,2.56Z"/>
        <path class="cls-18" d="M1041.02,846.59c-4.02,0-6.38-2.98-6.38-6.72v-10.64h4.02v9.91c0,2.08.97,3.85,3.4,3.85s3.53-1.56,3.53-3.78v-9.98h4.02v13.79c0,1.39.1,2.46.17,3.08h-3.85c-.07-.38-.14-1.18-.14-1.87-.83,1.52-2.81,2.36-4.78,2.36Z"/>
        <path class="cls-18" d="M1058.83,846.11h-4.02v-16.87h3.92v2.25c1.11-1.94,3.12-2.74,4.99-2.74,4.12,0,6.1,2.98,6.1,6.69v10.67h-4.02v-9.98c0-2.08-.94-3.74-3.47-3.74-2.29,0-3.5,1.77-3.5,3.99v9.74Z"/>
        <path class="cls-18" d="M1077.4,837.65c0,3.4,2.18,5.3,4.71,5.3s3.85-1.84,4.23-3.12l3.53,1.28c-.8,2.63-3.33,5.51-7.76,5.51-4.95,0-8.73-3.85-8.73-8.97s3.78-8.94,8.63-8.94c4.54,0,7.03,2.84,7.73,5.54l-3.6,1.32c-.38-1.49-1.52-3.15-4.09-3.15s-4.64,1.84-4.64,5.23Z"/>
        <path class="cls-18" d="M1098.54,829.23h3.5v3.57h-3.5v7.83c0,1.49.66,2.11,2.15,2.11.55,0,1.21-.1,1.39-.14v3.33c-.24.1-1,.38-2.46.38-3.12,0-5.06-1.87-5.06-5.02v-8.49h-3.12v-3.57h.87c1.8,0,2.6-1.14,2.6-2.63v-2.53h3.64v5.16Z"/>
        <path class="cls-18" d="M1108.13,820.67c1.46,0,2.63,1.18,2.63,2.63s-1.18,2.6-2.63,2.6-2.6-1.14-2.6-2.6,1.18-2.63,2.6-2.63ZM1106.16,846.11v-16.87h3.99v16.87h-3.99Z"/>
        <path class="cls-18" d="M1131.52,837.65c0,5.2-3.71,8.97-8.77,8.97s-8.73-3.78-8.73-8.97,3.71-8.94,8.73-8.94,8.77,3.78,8.77,8.94ZM1127.47,837.65c0-3.5-2.22-5.3-4.71-5.3s-4.71,1.8-4.71,5.3,2.25,5.37,4.71,5.37,4.71-1.84,4.71-5.37Z"/>
        <path class="cls-18" d="M1139.42,846.11h-4.02v-16.87h3.92v2.25c1.11-1.94,3.12-2.74,4.99-2.74,4.12,0,6.1,2.98,6.1,6.69v10.67h-4.02v-9.98c0-2.08-.94-3.74-3.47-3.74-2.29,0-3.5,1.77-3.5,3.99v9.74Z"/>
        <path class="cls-18" d="M1168.71,837.65c0,3.4,2.18,5.3,4.71,5.3s3.85-1.84,4.23-3.12l3.53,1.28c-.8,2.63-3.33,5.51-7.76,5.51-4.95,0-8.73-3.85-8.73-8.97s3.78-8.94,8.63-8.94c4.54,0,7.03,2.84,7.73,5.54l-3.6,1.32c-.38-1.49-1.52-3.15-4.09-3.15s-4.64,1.84-4.64,5.23Z"/>
        <path class="cls-18" d="M1188.78,846.11h-4.02v-25.09h4.02v9.84c1.14-1.49,3.05-2.11,4.82-2.11,4.16,0,6.17,2.98,6.17,6.69v10.67h-4.02v-9.98c0-2.08-.94-3.74-3.47-3.74-2.22,0-3.43,1.66-3.5,3.81v9.91Z"/>
        <path class="cls-18" d="M1210.61,846.59c-4.02,0-6.38-2.98-6.38-6.72v-10.64h4.02v9.91c0,2.08.97,3.85,3.4,3.85s3.53-1.56,3.53-3.78v-9.98h4.02v13.79c0,1.39.1,2.46.17,3.08h-3.85c-.07-.38-.14-1.18-.14-1.87-.83,1.52-2.81,2.36-4.78,2.36Z"/>
        <path class="cls-18" d="M1228.42,846.11h-4.02v-16.87h3.92v2.25c1.11-1.94,3.12-2.74,4.99-2.74,4.12,0,6.1,2.98,6.1,6.69v10.67h-4.02v-9.98c0-2.08-.94-3.74-3.46-3.74-2.29,0-3.5,1.77-3.5,3.99v9.74Z"/>
        <path class="cls-18" d="M1253.16,836.37l7.07,9.74h-4.92l-4.95-6.9-2.08,2.18v4.71h-3.99v-25.09h3.99v15.04l6.48-6.83h5.34l-6.93,7.14Z"/>
        <path class="cls-18" d="M1269.17,818.11l2.36,2.15c-3.6,3.95-5.93,8.59-5.93,14.76s2.32,10.85,5.93,14.79l-2.36,2.11c-3.88-3.88-6.96-9.15-6.96-16.91s3.08-13.03,6.96-16.91Z"/>
        <path class="cls-18" d="M742.12,893.51l-2.36-2.11c3.64-3.95,5.93-8.59,5.93-14.79s-2.29-10.81-5.93-14.76l2.36-2.15c3.92,3.88,6.96,9.15,6.96,16.91s-3.05,13.03-6.96,16.91Z"/>
        <path class="cls-18" d="M778.92,874.76c1.97,0,3.64-.9,3.64-3.33v-4.85c0-4.44,2.39-6.58,6.48-6.58h.8v3.08h-.76c-2.08,0-3.12.97-3.12,3.36v5.75c0,2.25-1.32,3.81-3.53,4.3,2.22.52,3.53,2.08,3.53,4.33v5.75c0,2.39,1.04,3.33,3.12,3.33h.76v3.08h-.8c-4.09,0-6.48-2.15-6.48-6.58v-4.82c0-2.46-1.66-3.36-3.64-3.36v-3.47Z"/>
        <path class="cls-18" d="M1119.34,859.69l2.36,2.15c-3.6,3.95-5.93,8.59-5.93,14.76s2.32,10.85,5.93,14.79l-2.36,2.11c-3.88-3.88-6.96-9.15-6.96-16.91s3.08-13.03,6.96-16.91Z"/>
      </g>
    </g>
  </g>
  <path class="cls-17" d="M660.96,79.37c-25.41,0-44.76-21.5-51.89-30.75-1.76-2.26-2.74-5.09-2.75-7.98,0-2.88.95-5.72,2.71-8.01,7.05-9.23,26.24-30.73,51.93-30.73s44.74,21.48,51.87,30.72c1.77,2.28,2.75,5.13,2.75,8.02,0,2.9-.98,5.75-2.76,8.03-7.13,9.22-26.47,30.69-51.86,30.69ZM660.96,9.38c-22.36,0-39.62,19.44-46,27.8-.76.99-1.17,2.21-1.17,3.44,0,1.24.42,2.45,1.18,3.42,6.47,8.39,23.89,27.86,45.99,27.86s39.5-19.44,45.96-27.8c.77-.99,1.19-2.21,1.19-3.46,0-1.24-.42-2.46-1.18-3.44h0c-6.46-8.38-23.87-27.83-45.96-27.83ZM660.96,63.47c-4.53,0-8.92-1.33-12.68-3.85-3.77-2.52-6.67-6.06-8.4-10.24-1.73-4.18-2.18-8.74-1.3-13.19.88-4.44,3.05-8.48,6.25-11.68,3.2-3.2,7.25-5.36,11.69-6.25,4.44-.88,9-.43,13.19,1.3,4.19,1.74,7.73,4.64,10.24,8.41,2.52,3.76,3.85,8.15,3.85,12.68,0,6.1-2.37,11.83-6.68,16.14-4.31,4.31-10.04,6.68-16.14,6.68ZM660.97,25.29c-1,0-2.01.1-3,.3-2.99.6-5.71,2.05-7.87,4.2s-3.61,4.87-4.2,7.86c-.59,2.99-.29,6.06.87,8.87,1.17,2.82,3.12,5.2,5.66,6.89,2.53,1.69,5.48,2.59,8.53,2.59,4.1,0,7.96-1.6,10.86-4.5,2.9-2.9,4.5-6.76,4.5-10.86,0-3.05-.89-6-2.59-8.53-1.69-2.54-4.08-4.49-6.89-5.66-1.88-.78-3.87-1.17-5.87-1.17Z"/>
  <path class="cls-17" d="M58.33,421.8c-25.41,0-44.75-21.5-51.89-30.75-1.76-2.27-2.74-5.1-2.75-7.98,0-2.88.95-5.73,2.71-8.01,7.05-9.23,26.23-30.73,51.93-30.73s44.73,21.47,51.87,30.71c1.78,2.28,2.75,5.14,2.75,8.03,0,2.89-.98,5.74-2.76,8.02-7.13,9.22-26.47,30.7-51.86,30.7ZM58.33,351.81c-22.36,0-39.62,19.44-46,27.8-.76.99-1.17,2.21-1.17,3.44,0,1.24.42,2.45,1.18,3.43,6.47,8.38,23.89,27.85,45.99,27.85s39.5-19.44,45.96-27.81c.77-.99,1.19-2.21,1.19-3.45,0-1.24-.42-2.46-1.18-3.44h0c-6.46-8.38-23.87-27.83-45.97-27.83ZM58.33,405.9c-4.53,0-8.91-1.33-12.68-3.85-3.76-2.52-6.67-6.06-8.4-10.24-1.73-4.19-2.18-8.75-1.3-13.19s3.04-8.48,6.25-11.69c3.2-3.2,7.25-5.36,11.69-6.24,4.44-.88,9-.43,13.19,1.3,4.18,1.73,7.72,4.64,10.24,8.4,2.52,3.77,3.85,8.15,3.85,12.68,0,6.1-2.37,11.83-6.68,16.14-4.31,4.31-10.05,6.68-16.14,6.68ZM58.35,367.71c-1,0-2.01.1-3.01.3-2.99.6-5.71,2.05-7.86,4.2-2.15,2.16-3.61,4.88-4.2,7.87-.59,2.99-.29,6.05.87,8.87,1.17,2.81,3.12,5.2,5.66,6.89,2.53,1.69,5.48,2.59,8.53,2.59,4.1,0,7.96-1.6,10.86-4.5,2.9-2.9,4.5-6.76,4.5-10.86,0-3.05-.89-6-2.59-8.53-1.69-2.53-4.08-4.49-6.89-5.65-1.88-.78-3.86-1.17-5.87-1.17Z"/>
  <g>
    <path class="cls-14" d="M164.52,786.45l-70.01-40.68-.25-88.96,70.01,40.68.25,88.96Z"/>
    <path class="cls-6" d="M164.26,697.5l-70.01-40.68,77.41-44.69,70.01,40.68-77.41,44.69Z"/>
    <path class="cls-4" d="M241.68,652.8l.25,88.95-77.41,44.7-.25-88.96,77.41-44.69Z"/>
  </g>
  <g>
    <path class="cls-14" d="M257.3,832.58l-70.01-40.68-.25-88.96,70.01,40.68.25,88.96Z"/>
    <path class="cls-3" d="M257.04,743.62l-70.01-40.68,77.41-44.69,70.01,40.68-77.41,44.69Z"/>
    <path class="cls-7" d="M334.46,698.93l.25,88.95-77.41,44.7-.25-88.96,77.41-44.69Z"/>
  </g>
  <path class="cls-17" d="M474.1,119.22v-1.75s9.94-.07,9.94-.07v1.75s-9.94.07-9.94.07ZM474.02,107.51l-.07-9.96,9.96-.07.07,9.96-9.96.07ZM473.87,87.6l-.07-9.95,9.96-.07.07,9.95-9.96.07ZM473.73,67.69l-.07-9.96,9.96-.07.07,9.96-9.96.07ZM473.58,47.78l-.09-12.11h7.87s2.12,0,2.12,0l.05,12.05-9.96.07ZM580.92,45.62h-9.96v-9.96h9.96v9.96ZM561.01,45.62h-9.96v-9.96h9.96v9.96ZM541.1,45.62h-9.96v-9.96h9.96v9.96ZM521.19,45.62h-9.96v-9.96h9.96v9.96ZM501.27,45.62h-9.96v-9.96h9.96v9.96Z"/>
  <path class="cls-17" d="M202.49,388.05h-2.52v-9.96h2.52v9.96ZM190.02,388.05h-9.96v-9.96h9.96v9.96ZM170.11,388.05h-9.96v-9.96h9.96v9.96ZM150.2,388.05h-9.96v-9.96h9.96v9.96ZM130.29,388.05h-9.96v-9.96h9.96v9.96Z"/>
</svg>