<svg width="85" height="17" viewBox="0 0 85 17" fill="none" xmlns="http://www.w3.org/2000/svg">
<path d="M0.538771 16.1362C0.404078 16.1362 0.242447 16.0823 0.161631 15.9746C0.0538771 15.8668 0 15.7321 0 15.5974V0.781218C0 0.646525 0.0538771 0.484894 0.134693 0.37714C0.242447 0.269386 0.404078 0.215508 0.538771 0.215508H10.3983C10.5599 0.215508 10.6946 0.269386 10.8024 0.37714C10.9101 0.484894 10.964 0.619587 10.964 0.781218V2.39753C10.964 2.55916 10.9101 2.69386 10.8024 2.80161C10.6946 2.88242 10.533 2.9363 10.3983 2.9363H3.09793V7.24647H9.94033C10.2367 7.24647 10.506 7.48892 10.506 7.78524V7.81218V9.42849C10.506 9.59012 10.4522 9.72482 10.3444 9.83257C10.2367 9.94033 10.075 9.96726 9.94033 9.96726H3.09793V15.5974C3.09793 15.7591 3.04406 15.8937 2.9363 16.0015C2.82855 16.0823 2.66692 16.1362 2.53222 16.1362H0.538771ZM28.1508 16.1362C28.0161 16.1362 27.8545 16.0823 27.7736 15.9746C27.6659 15.8668 27.612 15.7321 27.612 15.5974V10.4522L22.2243 0.942849C22.1704 0.862034 22.1435 0.781218 22.1435 0.700402C22.1435 0.56571 22.1974 0.457955 22.3051 0.350201C22.3859 0.269385 22.4937 0.215508 22.6284 0.215508H24.6488C24.7835 0.215508 24.9451 0.269385 25.0529 0.350201C25.1606 0.431017 25.2684 0.538771 25.3222 0.646525L29.2014 7.27341L33.0267 0.646525C33.1614 0.37714 33.4307 0.215508 33.7271 0.215508H35.7205C35.9899 0.215508 36.1785 0.404078 36.2054 0.673464V0.700402C36.2054 0.781218 36.1785 0.862034 36.1246 0.942849L30.7638 10.4252V15.5705C30.7369 15.8668 30.4944 16.1093 30.1981 16.0823L28.1508 16.1362ZM48.8127 16.1362C48.5433 16.1093 48.3008 15.8937 48.3008 15.6244V0.808157C48.3008 0.673464 48.3278 0.511832 48.4086 0.404078C48.5163 0.296324 48.678 0.242447 48.8127 0.242447H58.8069C58.9685 0.242447 59.1032 0.296324 59.2109 0.404078C59.3187 0.511832 59.3726 0.646525 59.3726 0.808157V2.31672C59.3726 2.47835 59.3187 2.61304 59.2109 2.72079C59.1032 2.82855 58.9416 2.85549 58.8069 2.85549H51.3179V6.86933H58.295C58.4567 6.86933 58.5914 6.92321 58.6991 7.03096C58.8069 7.13872 58.8607 7.27341 58.8607 7.4081V8.80891C58.8607 8.97054 58.8069 9.10523 58.6991 9.21299C58.5914 9.32074 58.4297 9.34768 58.295 9.34768H51.3179V13.5232H58.9954C59.1571 13.5232 59.2918 13.577 59.3995 13.6848C59.5073 13.7925 59.5611 13.9272 59.5611 14.0889V15.5974C59.5611 15.7591 59.5073 15.8937 59.3995 16.0015C59.2918 16.0823 59.1301 16.1362 58.9954 16.1362H48.8127ZM78.1488 16.3517C76.1014 16.3517 74.4851 15.8399 73.3268 14.7893C72.1684 13.7387 71.5757 12.2032 71.5219 10.1289C71.5219 9.69788 71.5219 9.05135 71.5219 8.18932C71.5219 7.32729 71.5219 6.68076 71.5219 6.24974C71.5757 4.22935 72.1953 2.69386 73.3806 1.61631C74.5659 0.538771 76.1553 0 78.1488 0C80.1422 0 81.7316 0.511833 82.9169 1.61631C84.1022 2.69386 84.7487 4.22935 84.8026 6.24974C84.8026 7.13872 84.8564 7.78524 84.8564 8.18932C84.8564 8.5934 84.8564 9.23992 84.8026 10.1289C84.7217 12.2032 84.1022 13.7387 82.9707 14.7893C81.8393 15.8399 80.223 16.3517 78.1488 16.3517ZM78.1488 13.7387C79.0377 13.7925 79.9267 13.4423 80.5732 12.8228C81.2467 12.0415 81.5969 11.0448 81.543 9.9942C81.5699 9.07829 81.5969 8.4587 81.5969 8.16238C81.5969 7.83912 81.5969 7.19259 81.543 6.33056C81.5699 5.30689 81.2467 4.31017 80.5732 3.52895C79.1994 2.28978 77.0981 2.28978 75.7243 3.52895C75.0508 4.31017 74.7006 5.30689 74.7545 6.33056C74.7545 6.76158 74.7275 7.38116 74.7275 8.16238C74.7275 8.9436 74.7276 9.53625 74.7545 9.9942C74.7276 11.0179 75.0508 12.0146 75.6973 12.8228C76.3708 13.4693 77.2598 13.7925 78.1488 13.7387Z" fill="white"/>
</svg>
