<?xml version="1.0" encoding="UTF-8"?>
<svg xmlns="http://www.w3.org/2000/svg" xmlns:xlink="http://www.w3.org/1999/xlink" version="1.1" viewBox="0 0 344 233.2">
  <defs>
    <style>
      .cls-1 {
        fill: none;
      }

      .cls-2 {
        fill: #4c00c9;
      }

      .cls-3 {
        fill: url(#linear-gradient-5);
      }

      .cls-4 {
        fill: url(#linear-gradient-4);
      }

      .cls-5 {
        fill: url(#linear-gradient-3);
      }

      .cls-6 {
        fill: url(#linear-gradient-2);
      }

      .cls-7 {
        fill: #eba200;
      }

      .cls-8 {
        fill: #6a30d8;
      }

      .cls-9 {
        fill: #5523b7;
      }

      .cls-10 {
        fill: url(#linear-gradient);
      }

      .cls-11 {
        fill: #ababed;
      }

      .cls-12 {
        fill: #fff;
      }

      .cls-13 {
        fill: #00c800;
      }

      .cls-14 {
        fill: #f51a00;
      }

      .cls-15 {
        clip-path: url(#clippath);
      }
    </style>
    <linearGradient id="linear-gradient" x1="54.3" y1="121.7" x2="300.6" y2="121.7" gradientTransform="translate(0 236) scale(1 -1)" gradientUnits="userSpaceOnUse">
      <stop offset="0" stop-color="#e1e1f9"/>
      <stop offset="1" stop-color="#b7bbea"/>
    </linearGradient>
    <clipPath id="clippath">
      <circle class="cls-1" cx="267.4" cy="181.3" r="43"/>
    </clipPath>
    <linearGradient id="linear-gradient-2" x1="40.7" y1="828.6" x2="50.5" y2="859.3" gradientTransform="translate(0 -663.3)" gradientUnits="userSpaceOnUse">
      <stop offset="0" stop-color="#4c00c9"/>
      <stop offset="1" stop-color="#7c51e5"/>
    </linearGradient>
    <linearGradient id="linear-gradient-3" x1="66" y1="841.2" x2="75.8" y2="871.9" xlink:href="#linear-gradient-2"/>
    <linearGradient id="linear-gradient-4" x1="296" y1="706.4" x2="305.8" y2="737.1" xlink:href="#linear-gradient-2"/>
    <linearGradient id="linear-gradient-5" x1="296" y1="670.4" x2="305.8" y2="701.1" xlink:href="#linear-gradient-2"/>
  </defs>
  <!-- Generator: Adobe Illustrator 28.7.1, SVG Export Plug-In . SVG Version: 1.2.0 Build 142)  -->
  <g>
    <g id="Layer_1">
      <rect class="cls-10" x="54.3" y="32" width="246.3" height="164.6" rx="6.2" ry="6.2"/>
      <circle class="cls-14" cx="62.7" cy="38.6" r="2.3"/>
      <circle class="cls-7" cx="69.8" cy="38.6" r="2.3"/>
      <circle class="cls-13" cx="76.6" cy="38.6" r="2.3"/>
      <path class="cls-11" d="M231.2,63.5H83c-.8,0-1.4-.6-1.4-1.4s.6-1.4,1.4-1.4h148.2c.8,0,1.4.6,1.4,1.4s-.6,1.4-1.4,1.4Z"/>
      <path class="cls-11" d="M231.2,157.9H83c-.8,0-1.4-.6-1.4-1.4s.6-1.4,1.4-1.4h148.2c.8,0,1.4.6,1.4,1.4s-.6,1.4-1.4,1.4Z"/>
      <path class="cls-11" d="M231.2,167.8H83c-.8,0-1.4-.6-1.4-1.4s.6-1.4,1.4-1.4h148.2c.8,0,1.4.6,1.4,1.4s-.6,1.4-1.4,1.4Z"/>
      <path class="cls-11" d="M231.2,95.5H83c-.8,0-1.4-.6-1.4-1.4s.6-1.4,1.4-1.4h148.2c.8,0,1.4.6,1.4,1.4s-.6,1.4-1.4,1.4Z"/>
      <path class="cls-11" d="M176.8,75.4h-93.8c-.8,0-1.4-.6-1.4-1.4s.6-1.4,1.4-1.4h93.8c.8,0,1.4.6,1.4,1.4s-.6,1.4-1.4,1.4Z"/>
      <path class="cls-11" d="M151.2,116.5h-68.2c-.8,0-1.4-.6-1.4-1.4s.6-1.4,1.4-1.4h68.2c.8,0,1.4.6,1.4,1.4s-.6,1.4-1.4,1.4Z"/>
      <path class="cls-11" d="M176.8,85.4h-93.8c-.8,0-1.4-.6-1.4-1.4s.6-1.4,1.4-1.4h93.8c.8,0,1.4.6,1.4,1.4s-.6,1.4-1.4,1.4Z"/>
      <path class="cls-11" d="M126.9,105.5h-43.9c-.8,0-1.4-.6-1.4-1.4s.6-1.4,1.4-1.4h43.9c.8,0,1.4.6,1.4,1.4s-.6,1.4-1.4,1.4Z"/>
      <path class="cls-11" d="M231.2,127.4H83c-.8,0-1.4-.6-1.4-1.4s.6-1.4,1.4-1.4h148.2c.8,0,1.4.6,1.4,1.4s-.6,1.4-1.4,1.4Z"/>
      <path class="cls-11" d="M151.2,147.7h-68.2c-.8,0-1.4-.6-1.4-1.4s.6-1.4,1.4-1.4h68.2c.8,0,1.4.6,1.4,1.4s-.6,1.4-1.4,1.4Z"/>
      <path class="cls-11" d="M126.9,137.5h-43.9c-.8,0-1.4-.6-1.4-1.4s.6-1.4,1.4-1.4h43.9c.8,0,1.4.6,1.4,1.4s-.6,1.4-1.4,1.4Z"/>
      <path class="cls-2" d="M340.3,217.5h0l-30.1-19.4c3.2-8.1,4.1-17.3,2.1-26.4-5.4-24.7-29.8-40.4-54.5-35.1-24.7,5.4-40.4,29.8-35.1,54.5,5.4,24.7,29.8,40.4,54.5,35.1,9.5-2.1,17.6-6.9,23.7-13.5l30,19.3h0c4,2.3,9.1,1.1,11.6-2.8,2.5-3.9,1.5-9.1-2.3-11.7h0ZM276.6,223.4c-5.7,1.2-11.4,1.3-17.1.2-5.5-1-10.6-3.1-15.3-6.1s-8.7-6.9-11.9-11.4c-3.3-4.7-5.6-10-6.8-15.6-1.2-5.7-1.3-11.4-.2-17.1,1-5.5,3.1-10.6,6.1-15.3s6.9-8.7,11.4-11.9c4.7-3.3,10-5.6,15.6-6.8,5.7-1.2,11.4-1.3,17.1-.2,5.5,1,10.6,3.1,15.3,6.1,4.7,3,8.7,6.9,11.9,11.4,3.3,4.7,5.6,10,6.8,15.6s1.3,11.4.2,17.1c-1,5.5-3.1,10.6-6.1,15.3s-6.9,8.7-11.4,11.9c-4.7,3.3-10,5.6-15.6,6.8h0Z"/>
      <circle class="cls-12" cx="267.5" cy="181.4" r="43"/>
      <g class="cls-15">
        <g>
          <path class="cls-2" d="M162.8,123.2v.6h1.1v1h-1.1v3.7h-1.1v-3.7h-.8v-1h.8v-.6c0-1,.7-1.7,1.6-1.7s.5,0,.6,0v.9h-.4c-.2,0-.7,0-.7.7h0Z"/>
          <path class="cls-2" d="M166.5,128.5c-1.1,0-1.7-.8-1.7-1.8v-2.9h1.1v2.7c0,.6.3,1.1.9,1.1s1-.4,1-1v-2.7h1.1v4.6h-1.1v-.5c-.2.4-.8.6-1.3.6h0Z"/>
          <path class="cls-2" d="M171.3,128.4h-1.1v-4.6h1.1v.6c.3-.5.9-.7,1.4-.7,1.1,0,1.7.8,1.7,1.8v2.9h-1.1v-2.7c0-.6-.3-1-.9-1s-1,.5-1,1.1v2.7h0Z"/>
          <path class="cls-2" d="M176.4,126.1c0,.9.6,1.4,1.3,1.4s1.1-.5,1.2-.9l1,.4c-.2.7-.9,1.5-2.1,1.5s-2.4-1.1-2.4-2.5,1-2.4,2.4-2.4,1.9.8,2.1,1.5l-1,.4c-.1-.4-.4-.9-1.1-.9s-1.3.5-1.3,1.4h0Z"/>
          <path class="cls-2" d="M182.2,123.8h1v1h-1v2.1c0,.4.2.6.6.6s.3,0,.4,0v.9s-.3.1-.7.1c-.9,0-1.4-.5-1.4-1.4v-2.3h-.9v-1h.2c.5,0,.7-.3.7-.7v-.7h1v1.4h0Z"/>
          <path class="cls-2" d="M184.8,121.4c.4,0,.7.3.7.7s-.3.7-.7.7-.7-.3-.7-.7.3-.7.7-.7ZM184.3,128.4v-4.6h1.1v4.6h-1.1Z"/>
          <path class="cls-2" d="M191.2,126.1c0,1.4-1,2.5-2.4,2.5s-2.4-1-2.4-2.5,1-2.4,2.4-2.4,2.4,1,2.4,2.4ZM190.1,126.1c0-1-.6-1.4-1.3-1.4s-1.3.5-1.3,1.4.6,1.5,1.3,1.5,1.3-.5,1.3-1.5Z"/>
          <path class="cls-2" d="M193.3,128.4h-1.1v-4.6h1.1v.6c.3-.5.9-.7,1.4-.7,1.1,0,1.7.8,1.7,1.8v2.9h-1.1v-2.7c0-.6-.3-1-.9-1s-1,.5-1,1.1v2.7h0Z"/>
          <path class="cls-2" d="M205.5,127.5v.8h-1.1v-.6c-.2.4-.7.7-1.4.7-1.3,0-2.2-1-2.2-2.4s.9-2.4,2.2-2.4,1.2.4,1.4.7v-2.8h1.1v6ZM203.3,127.5c.7,0,1.2-.6,1.2-1.5s-.5-1.4-1.2-1.4-1.2.6-1.2,1.4.5,1.5,1.2,1.5Z"/>
          <path class="cls-2" d="M209.7,124.9h-.4c-.9,0-1.2.5-1.2,1.4v2.2h-1.1v-4.6h1.1v.7c.2-.5.7-.8,1.3-.8s.2,0,.3,0v1.1h0Z"/>
          <path class="cls-2" d="M215,126.1c0,1.4-1,2.5-2.4,2.5s-2.4-1-2.4-2.5,1-2.4,2.4-2.4,2.4,1,2.4,2.4ZM213.9,126.1c0-1-.6-1.4-1.3-1.4s-1.3.5-1.3,1.4.6,1.5,1.3,1.5,1.3-.5,1.3-1.5Z"/>
          <path class="cls-2" d="M216,130.2v-6.4h1.1v.6c.2-.4.8-.7,1.5-.7,1.4,0,2.1,1,2.1,2.4s-.8,2.4-2.2,2.4-1.2-.3-1.4-.6v2.3h-1.1ZM218.3,124.6c-.7,0-1.2.6-1.2,1.4s.5,1.4,1.2,1.4,1.2-.6,1.2-1.4-.5-1.4-1.2-1.4Z"/>
          <path class="cls-2" d="M227.4,125.7h-.8v2.7h-1.1v-6.7h2.6c1.3,0,2.1.9,2.1,2s-.6,1.7-1.5,1.9l1.5,2.8h-1.3l-1.4-2.7h-.1ZM227.8,124.7c.7,0,1.2-.4,1.2-1s-.5-1-1.2-1h-1.2v2.1h1.2Z"/>
          <path class="cls-2" d="M231.8,121.4c.4,0,.7.3.7.7s-.3.7-.7.7-.7-.3-.7-.7.3-.7.7-.7ZM231.2,128.4v-4.6h1.1v4.6h-1.1Z"/>
          <path class="cls-2" d="M234.4,128.4c0,.6.5,1,1.2,1s1.3-.4,1.3-1.4v-.5c-.2.4-.7.7-1.3.7-1.2,0-2.1-.9-2.1-2.2s.9-2.2,2.1-2.2,1.2.3,1.4.7v-.6h1.1v4.2c0,1.2-.6,2.4-2.4,2.4s-2.1-.8-2.2-1.7l1-.3h-.1ZM236.9,125.9c0-.8-.5-1.3-1.2-1.3s-1.2.5-1.2,1.3.5,1.3,1.2,1.3,1.2-.5,1.2-1.3Z"/>
          <path class="cls-2" d="M240.4,128.4h-1.1v-6.9h1.1v2.7c.3-.4.8-.6,1.3-.6,1.1,0,1.7.8,1.7,1.8v2.9h-1.1v-2.7c0-.6-.3-1-.9-1s-.9.5-1,1v2.7h0Z"/>
          <path class="cls-2" d="M246.1,123.8h1v1h-1v2.1c0,.4.2.6.6.6s.3,0,.4,0v.9s-.3.1-.7.1c-.9,0-1.4-.5-1.4-1.4v-2.3h-.9v-1h.2c.5,0,.7-.3.7-.7v-.7h1v1.4h0Z"/>
          <path class="cls-2" d="M253.5,120.7l.6.6c-1,1.1-1.6,2.3-1.6,4s.6,3,1.6,4l-.6.6c-1.1-1.1-1.9-2.5-1.9-4.6s.8-3.6,1.9-4.6Z"/>
          <path class="cls-2" d="M255.9,125.7l1.2-.2c.3,0,.3-.2.3-.3,0-.4-.3-.7-.9-.7s-.9.4-.9.8l-1-.2c0-.8.8-1.5,1.9-1.5s2,.8,2,1.7v3h-1v-.6c-.2.4-.7.7-1.4.7s-1.6-.7-1.6-1.4.6-1.3,1.4-1.4h0ZM257.4,126.5v-.2l-1.2.2c-.3,0-.6.2-.6.6s.2.6.7.6,1.1-.3,1.1-1.2Z"/>
          <path class="cls-2" d="M262.5,124.9h-.4c-.9,0-1.2.5-1.2,1.4v2.2h-1.1v-4.6h1.1v.7c.2-.5.7-.8,1.3-.8s.2,0,.3,0v1.1h0Z"/>
          <path class="cls-2" d="M266.1,124.9h-.4c-.9,0-1.2.5-1.2,1.4v2.2h-1.1v-4.6h1.1v.7c.2-.5.7-.8,1.3-.8s.2,0,.3,0v1.1h0Z"/>
          <path class="cls-2" d="M268.2,125.7l1.2-.2c.3,0,.3-.2.3-.3,0-.4-.3-.7-.9-.7s-.9.4-.9.8l-1-.2c0-.8.8-1.5,1.9-1.5s2,.8,2,1.7v3h-1v-.6c-.2.4-.7.7-1.4.7s-1.6-.7-1.6-1.4.6-1.3,1.4-1.4h0ZM269.7,126.5v-.2l-1.2.2c-.3,0-.6.2-.6.6s.2.6.7.6,1.1-.3,1.1-1.2Z"/>
          <path class="cls-2" d="M272.2,130.3l1.1-2.4-2-4.1h1.2l1.3,2.9,1.2-2.9h1.2l-2.9,6.5h-1.2,0Z"/>
          <path class="cls-2" d="M276.8,127c.5,0,.9.4.9,1,0,1.3-.9,1.9-1.5,2v-.6c.4,0,.8-.5.8-1h-.2c-.4,0-.7-.3-.7-.7s.3-.7.8-.7h0Z"/>
          <path class="cls-2" d="M283.7,128.4h-1.1v-4.6h1.1v.6c.3-.5.9-.7,1.4-.7,1.1,0,1.7.8,1.7,1.8v2.9h-1.1v-2.7c0-.6-.3-1-.9-1s-1,.5-1,1.1v2.7h-.1Z"/>
          <path class="cls-2" d="M287.9,125.1v-.9h4.5v.9h-4.5ZM287.9,127v-.9h4.5v.9h-4.5Z"/>
          <path class="cls-2" d="M294.7,128.4v-4.2h-1.5v-.8c.9,0,1.5-.5,1.6-1.2h1v6.1h-1.1Z"/>
          <path class="cls-2" d="M297.2,130l-.6-.6c1-1.1,1.6-2.3,1.6-4s-.6-3-1.6-4l.6-.6c1.1,1.1,1.9,2.5,1.9,4.6s-.8,3.6-1.9,4.6Z"/>
          <path class="cls-2" d="M303.6,124.9c.5,0,1-.2,1-.9v-1.3c0-1.2.7-1.8,1.8-1.8h.2v.8h-.2c-.6,0-.9.3-.9.9v1.6c0,.6-.4,1-1,1.2.6,0,1,.6,1,1.2v1.6c0,.7.3.9.9.9h.2v.8h-.2c-1.1,0-1.8-.6-1.8-1.8v-1.3c0-.7-.5-.9-1-.9v-.9h0Z"/>
          <path class="cls-2" d="M307.9,126.1c0,.9.6,1.4,1.3,1.4s1.1-.5,1.2-.9l1,.4c-.2.7-.9,1.5-2.1,1.5s-2.4-1.1-2.4-2.5,1-2.4,2.4-2.4,1.9.8,2.1,1.5l-1,.4c-.1-.4-.4-.9-1.1-.9s-1.3.5-1.3,1.4h-.1Z"/>
          <path class="cls-2" d="M316.6,126.1c0,1.4-1,2.5-2.4,2.5s-2.4-1-2.4-2.5,1-2.4,2.4-2.4,2.4,1,2.4,2.4ZM315.5,126.1c0-1-.6-1.4-1.3-1.4s-1.3.5-1.3,1.4.6,1.5,1.3,1.5,1.3-.5,1.3-1.5Z"/>
          <path class="cls-2" d="M318.8,128.4h-1.1v-4.6h1.1v.6c.3-.5.9-.7,1.4-.7,1.1,0,1.7.8,1.7,1.8v2.9h-1.1v-2.7c0-.6-.3-1-.9-1s-1,.5-1,1.1v2.7h-.1Z"/>
          <path class="cls-2" d="M323.7,126.9c0,.4.4.8.9.8s.7-.2.7-.5-.2-.4-.5-.5l-.7-.2c-.8-.2-1.2-.7-1.2-1.3s.7-1.5,1.7-1.5,1.7.8,1.8,1.3l-.9.3c0-.3-.2-.7-.9-.7s-.7.2-.7.5.2.4.5.5h.7c.9.3,1.3.9,1.3,1.5s-.6,1.5-1.7,1.5-1.8-.9-1.9-1.4l1-.3h0Z"/>
          <path class="cls-2" d="M328.8,123.8h1v1h-1v2.1c0,.4.2.6.6.6h.4v.9s-.3.1-.7.1c-.9,0-1.4-.5-1.4-1.4v-2.3h-.9v-1h.2c.5,0,.7-.3.7-.7v-.7h1v1.4h0Z"/>
          <path class="cls-2" d="M334.5,128.4v-6.9h1.1v6.9h-1.1Z"/>
          <path class="cls-2" d="M341.1,127.1c-.2.8-1,1.5-2.1,1.5s-2.4-.9-2.4-2.5,1.1-2.4,2.2-2.4,2.3.9,2.3,2.4,0,.3,0,.4h-3.4c0,.7.6,1.2,1.3,1.2s1-.4,1.2-.8l.9.3h0ZM340.1,125.6c0-.5-.4-1-1.1-1s-1.1.5-1.1,1h2.3,0Z"/>
          <path class="cls-2" d="M343.3,128.4h-1.1v-4.6h1.1v.6c.3-.5.9-.7,1.4-.7,1.1,0,1.7.8,1.7,1.8v2.9h-1.1v-2.7c0-.6-.3-1-.9-1s-1,.5-1,1.1v2.7h-.1Z"/>
          <path class="cls-2" d="M348.3,128.4c0,.6.5,1,1.2,1s1.3-.4,1.3-1.4v-.5c-.2.4-.7.7-1.3.7-1.2,0-2.1-.9-2.1-2.2s.9-2.2,2.1-2.2,1.2.3,1.4.7v-.6h1.1v4.2c0,1.2-.6,2.4-2.4,2.4s-2.1-.8-2.2-1.7l1-.3h-.1ZM350.8,125.9c0-.8-.5-1.3-1.2-1.3s-1.2.5-1.2,1.3.5,1.3,1.2,1.3,1.2-.5,1.2-1.3Z"/>
          <path class="cls-2" d="M354.6,123.8h1v1h-1v2.1c0,.4.2.6.6.6h.4v.9s-.3.1-.7.1c-.9,0-1.4-.5-1.4-1.4v-2.3h-.9v-1h.2c.5,0,.7-.3.7-.7v-.7h1v1.4h0Z"/>
          <path class="cls-2" d="M357.7,128.4h-1.1v-6.9h1.1v2.7c.3-.4.8-.6,1.3-.6,1.1,0,1.7.8,1.7,1.8v2.9h-1.1v-2.7c0-.6-.3-1-.9-1s-.9.5-1,1v2.7h0Z"/>
          <path class="cls-2" d="M365.5,125.1v-.9h4.5v.9h-4.5ZM365.5,127v-.9h4.5v.9h-4.5Z"/>
          <path class="cls-2" d="M162.6,137.1l1.2-.2c.3,0,.3-.2.3-.3,0-.4-.3-.7-.9-.7s-.9.4-.9.8l-1-.2c0-.8.8-1.5,1.9-1.5s2,.8,2,1.7v3h-1v-.6c-.2.4-.7.7-1.4.7s-1.6-.7-1.6-1.4.6-1.3,1.4-1.4h0ZM164.1,137.8v-.2l-1.2.2c-.3,0-.6.2-.6.6s.2.6.7.6,1.1-.3,1.1-1.2h0Z"/>
          <path class="cls-2" d="M169.2,136.2h-.4c-.9,0-1.2.5-1.2,1.4v2.2h-1.1v-4.6h1.1v.7c.2-.5.7-.8,1.3-.8s.2,0,.3,0v1.1h0Z"/>
          <path class="cls-2" d="M172.8,136.2h-.4c-.9,0-1.2.5-1.2,1.4v2.2h-1.1v-4.6h1.1v.7c.2-.5.7-.8,1.3-.8s.2,0,.3,0v1.1h0Z"/>
          <path class="cls-2" d="M174.9,137.1l1.2-.2c.3,0,.3-.2.3-.3,0-.4-.3-.7-.9-.7s-.9.4-.9.8l-1-.2c0-.8.8-1.5,1.9-1.5s2,.8,2,1.7v3h-1v-.6c-.2.4-.7.7-1.4.7s-1.6-.7-1.6-1.4.6-1.3,1.4-1.4h0ZM176.4,137.8v-.2l-1.2.2c-.3,0-.6.2-.6.6s.2.6.7.6,1.1-.3,1.1-1.2h0Z"/>
          <path class="cls-2" d="M178.9,141.6l1.1-2.4-2-4.1h1.2l1.3,2.9,1.2-2.9h1.2l-2.9,6.5h-1.2,0Z"/>
          <path class="cls-2" d="M185.9,136.5v-.9h4.5v.9h-4.5ZM185.9,138.4v-.9h4.5v.9h-4.5Z"/>
          <path class="cls-2" d="M191.6,136.5v-.9h4.5v.9h-4.5ZM191.6,138.4v-.9h4.5v.9h-4.5Z"/>
          <path class="cls-2" d="M200.7,139.7h-1.1v-4.6h1.1v.6c.3-.5.9-.7,1.4-.7,1.1,0,1.7.8,1.7,1.8v2.9h-1.1v-2.7c0-.6-.3-1-.9-1s-1,.5-1,1.1v2.7h0Z"/>
          <path class="cls-2" d="M206.7,139.9c-1.1,0-1.7-.8-1.7-1.8v-2.9h1.1v2.7c0,.6.3,1.1.9,1.1s1-.4,1-1v-2.7h1.1v4.6h-1.1v-.5c-.2.4-.8.6-1.3.6h0Z"/>
          <path class="cls-2" d="M210.4,139.7v-6.9h1.1v6.9h-1.1Z"/>
          <path class="cls-2" d="M212.9,139.7v-6.9h1.1v6.9h-1.1Z"/>
          <path class="cls-2" d="M218.8,137.8v-.4c0-.6.2-1,.8-1.4l.4-.3c.3-.2.4-.5.4-.8,0-.5-.3-1-1-1s-1.1.5-1.1,1.1,0,.3,0,.4h-1.1v-.5c0-.9.7-2,2.1-2s2.2.9,2.2,1.9-.4,1.3-.9,1.7l-.4.3c-.3.2-.5.5-.5.9s0,0,0,.1h-.9ZM219.3,138.4c.4,0,.7.3.7.7s-.3.7-.7.7-.7-.3-.7-.7.3-.7.7-.7Z"/>
          <path class="cls-2" d="M225.1,134.5c.4-.6,1-1,2-1s1.6.4,1.9,1c.4.6.5,1.4.5,2.2s-.1,1.6-.5,2.2c-.4.6-1,1-1.9,1s-1.6-.4-2-1-.5-1.4-.5-2.2.1-1.6.5-2.2ZM226.1,138.4c.2.3.5.5.9.5s.7-.2.9-.5c.3-.4.4-1,.4-1.8s-.1-1.4-.4-1.8c-.2-.3-.5-.5-.9-.5s-.7.2-.9.5c-.3.4-.4,1-.4,1.8s.1,1.4.4,1.8Z"/>
          <path class="cls-2" d="M233.7,135.1c.4,0,.8.3.8.8s-.4.8-.8.8-.8-.3-.8-.8.3-.8.8-.8ZM233.7,138.3c.4,0,.8.3.8.8s-.4.8-.8.8-.8-.3-.8-.8.3-.8.8-.8Z"/>
          <path class="cls-2" d="M239.1,137.1l1.2-.2c.3,0,.3-.2.3-.3,0-.4-.3-.7-.9-.7s-.9.4-.9.8l-1-.2c0-.8.8-1.5,1.9-1.5s2,.8,2,1.7v3h-1v-.6c-.2.4-.7.7-1.4.7s-1.6-.7-1.6-1.4.6-1.3,1.4-1.4h0ZM240.7,137.8v-.2l-1.2.2c-.3,0-.6.2-.6.6s.2.6.7.6,1.1-.3,1.1-1.2h0Z"/>
          <path class="cls-2" d="M245.8,136.2h-.4c-.9,0-1.2.5-1.2,1.4v2.2h-1.1v-4.6h1.1v.7c.2-.5.7-.8,1.3-.8s.2,0,.3,0v1.1h0Z"/>
          <path class="cls-2" d="M249.4,136.2h-.4c-.9,0-1.2.5-1.2,1.4v2.2h-1.1v-4.6h1.1v.7c.2-.5.7-.8,1.3-.8s.2,0,.3,0v1.1h0Z"/>
          <path class="cls-2" d="M251.4,137.1l1.2-.2c.3,0,.3-.2.3-.3,0-.4-.3-.7-.9-.7s-.9.4-.9.8l-1-.2c0-.8.8-1.5,1.9-1.5s2,.8,2,1.7v3h-1v-.6c-.2.4-.7.7-1.4.7s-1.6-.7-1.6-1.4.6-1.3,1.4-1.4h0ZM252.9,137.8v-.2l-1.2.2c-.3,0-.6.2-.6.6s.2.6.7.6,1.1-.3,1.1-1.2h0Z"/>
          <path class="cls-2" d="M255.5,141.6l1.1-2.4-2-4.1h1.2l1.3,2.9,1.2-2.9h1.2l-2.9,6.5h-1.2,0Z"/>
          <path class="cls-2" d="M260.1,138.3c.4,0,.8.4.8.8s-.4.8-.8.8-.8-.3-.8-.8.3-.8.8-.8Z"/>
          <path class="cls-2" d="M264.4,139.7v-6.9h1.1v6.9h-1.1Z"/>
          <path class="cls-2" d="M271,138.4c-.2.8-1,1.5-2.1,1.5s-2.4-.9-2.4-2.5,1.1-2.4,2.2-2.4,2.3.9,2.3,2.4,0,.3,0,.4h-3.4c0,.7.6,1.2,1.3,1.2s1-.4,1.2-.8l.9.3h0ZM270,136.9c0-.5-.4-1-1.1-1s-1.1.5-1.1,1h2.3,0Z"/>
          <path class="cls-2" d="M273.2,139.7h-1.1v-4.6h1.1v.6c.3-.5.9-.7,1.4-.7,1.1,0,1.7.8,1.7,1.8v2.9h-1.1v-2.7c0-.6-.3-1-.9-1s-1,.5-1,1.1v2.7h-.1Z"/>
          <path class="cls-2" d="M278.3,139.7c0,.6.5,1,1.2,1s1.3-.4,1.3-1.4v-.5c-.2.4-.7.7-1.3.7-1.2,0-2.1-.9-2.1-2.2s.9-2.2,2.1-2.2,1.2.3,1.4.7v-.6h1.1v4.2c0,1.2-.6,2.4-2.4,2.4s-2.1-.8-2.2-1.7l1-.3h-.1ZM280.7,137.3c0-.8-.5-1.3-1.2-1.3s-1.2.5-1.2,1.3.5,1.3,1.2,1.3,1.2-.5,1.2-1.3Z"/>
          <path class="cls-2" d="M284.5,135.1h1v1h-1v2.1c0,.4.2.6.6.6h.4v.9s-.3.1-.7.1c-.9,0-1.4-.5-1.4-1.4v-2.3h-.9v-1h.2c.5,0,.7-.3.7-.7v-.7h1v1.4h0Z"/>
          <path class="cls-2" d="M287.6,139.7h-1.1v-6.9h1.1v2.7c.3-.4.8-.6,1.3-.6,1.1,0,1.7.8,1.7,1.8v2.9h-1.1v-2.7c0-.6-.3-1-.9-1s-.9.5-1,1v2.7h0Z"/>
          <path class="cls-2" d="M293,139.7h-1.1v-4.6h1.1v.6c.3-.5.9-.7,1.4-.7,1.1,0,1.7.8,1.7,1.8v2.9h-1.1v-2.7c0-.6-.3-1-.9-1s-1,.5-1,1.1v2.7h-.1Z"/>
          <path class="cls-2" d="M299.5,136.5v-.9h4.5v.9h-4.5ZM299.5,138.4v-.9h4.5v.9h-4.5Z"/>
          <path class="cls-2" d="M307.5,139.7v-6.9h1.1v6.9h-1.1Z"/>
          <path class="cls-2" d="M314.1,138.4c-.2.8-1,1.5-2.1,1.5s-2.4-.9-2.4-2.5,1.1-2.4,2.2-2.4,2.3.9,2.3,2.4,0,.3,0,.4h-3.4c0,.7.6,1.2,1.3,1.2s1-.4,1.2-.8l.9.3h0ZM313,136.9c0-.5-.4-1-1.1-1s-1.1.5-1.1,1h2.3,0Z"/>
          <path class="cls-2" d="M316.3,139.7h-1.1v-4.6h1.1v.6c.3-.5.9-.7,1.4-.7,1.1,0,1.7.8,1.7,1.8v2.9h-1.1v-2.7c0-.6-.3-1-.9-1s-1,.5-1,1.1v2.7h-.1Z"/>
          <path class="cls-2" d="M321.3,139.7c0,.6.5,1,1.2,1s1.3-.4,1.3-1.4v-.5c-.2.4-.7.7-1.3.7-1.2,0-2.1-.9-2.1-2.2s.9-2.2,2.1-2.2,1.2.3,1.4.7v-.6h1.1v4.2c0,1.2-.6,2.4-2.4,2.4s-2.1-.8-2.2-1.7l1-.3h-.1ZM323.8,137.3c0-.8-.5-1.3-1.2-1.3s-1.2.5-1.2,1.3.5,1.3,1.2,1.3,1.2-.5,1.2-1.3Z"/>
          <path class="cls-2" d="M327.6,135.1h1v1h-1v2.1c0,.4.2.6.6.6h.4v.9s-.3.1-.7.1c-.9,0-1.4-.5-1.4-1.4v-2.3h-.9v-1h.2c.5,0,.7-.3.7-.7v-.7h1v1.4h0Z"/>
          <path class="cls-2" d="M330.6,139.7h-1.1v-6.9h1.1v2.7c.3-.4.8-.6,1.3-.6,1.1,0,1.7.8,1.7,1.8v2.9h-1.1v-2.7c0-.6-.3-1-.9-1s-.9.5-1,1v2.7h0Z"/>
          <path class="cls-2" d="M336.5,137.5v-1h2.7v1h-2.7Z"/>
          <path class="cls-2" d="M343.4,135.1h1v1h-1v2.1c0,.4.2.6.6.6h.4v.9s-.3.1-.7.1c-.9,0-1.4-.5-1.4-1.4v-2.3h-.9v-1h.2c.5,0,.7-.3.7-.7v-.7h1v1.4h0Z"/>
          <path class="cls-2" d="M349.9,137.4c0,1.4-1,2.5-2.4,2.5s-2.4-1-2.4-2.5,1-2.4,2.4-2.4,2.4,1,2.4,2.4ZM348.8,137.4c0-1-.6-1.4-1.3-1.4s-1.3.5-1.3,1.4.6,1.5,1.3,1.5,1.3-.5,1.3-1.5Z"/>
          <path class="cls-2" d="M351,139.7v-6.7h1.2v6.7h-1.2Z"/>
          <path class="cls-2" d="M354.8,139.7h-1.1v-4.6h1.1v.6c.3-.5.9-.7,1.4-.7,1.1,0,1.7.8,1.7,1.8v2.9h-1.1v-2.7c0-.6-.3-1-.9-1s-1,.5-1,1.1v2.7h-.1Z"/>
          <path class="cls-2" d="M360.5,135.1h1v1h-1v2.1c0,.4.2.6.6.6h.4v.9s-.3.1-.7.1c-.9,0-1.4-.5-1.4-1.4v-2.3h-.9v-1h.2c.5,0,.7-.3.7-.7v-.7h1v1.4h0Z"/>
          <path class="cls-2" d="M366.6,138.4c-.2.8-1,1.5-2.1,1.5s-2.4-.9-2.4-2.5,1.1-2.4,2.2-2.4,2.3.9,2.3,2.4,0,.3,0,.4h-3.4c0,.7.6,1.2,1.3,1.2s1-.4,1.2-.8l.9.3h0ZM365.6,136.9c0-.5-.4-1-1.1-1s-1.1.5-1.1,1h2.3,0Z"/>
          <path class="cls-2" d="M367.5,137.5v-1h2.7v1h-2.7Z"/>
          <path class="cls-2" d="M162.2,151.1c0,.6.5,1,1.2,1s1.3-.4,1.3-1.4v-.5c-.2.4-.7.7-1.3.7-1.2,0-2.1-.9-2.1-2.2s.9-2.2,2.1-2.2,1.2.3,1.4.7v-.6h1.1v4.2c0,1.2-.6,2.4-2.4,2.4s-2.1-.8-2.2-1.7l1-.3h-.1ZM164.6,148.7c0-.8-.5-1.3-1.2-1.3s-1.2.5-1.2,1.3.5,1.3,1.2,1.3,1.2-.5,1.2-1.3Z"/>
          <path class="cls-2" d="M171.1,149.8c-.2.8-1,1.5-2.1,1.5s-2.4-.9-2.4-2.5,1.1-2.4,2.2-2.4,2.3.9,2.3,2.4,0,.3,0,.4h-3.4c0,.7.6,1.2,1.3,1.2s1-.4,1.2-.8l.9.3h0ZM170.1,148.3c0-.5-.4-1-1.1-1s-1.1.5-1.1,1h2.3,0Z"/>
          <path class="cls-2" d="M174.9,147.6h-.4c-.9,0-1.2.5-1.2,1.4v2.2h-1.1v-4.6h1.1v.7c.2-.5.7-.8,1.3-.8s.2,0,.3,0v1.1h0Z"/>
          <path class="cls-2" d="M177.5,143.5l.6.6c-1,1.1-1.6,2.3-1.6,4s.6,3,1.6,4l-.6.6c-1.1-1.1-1.9-2.5-1.9-4.6s.8-3.6,1.9-4.6Z"/>
          <path class="cls-2" d="M179.9,151.1h-1.1v-4.6h1.1v.6c.3-.5.9-.7,1.4-.7,1.1,0,1.7.8,1.7,1.8v2.9h-1.1v-2.7c0-.6-.3-1-.9-1s-1,.5-1,1.1v2.7h0Z"/>
          <path class="cls-2" d="M184.2,152.7l-.6-.6c1-1.1,1.6-2.3,1.6-4s-.6-3-1.6-4l.6-.6c1.1,1.1,1.9,2.5,1.9,4.6s-.8,3.6-1.9,4.6Z"/>
          <path class="cls-2" d="M192.2,147.6h-.4c-.9,0-1.2.5-1.2,1.4v2.2h-1.1v-4.6h1.1v.7c.2-.5.7-.8,1.3-.8s.2,0,.3,0v1.1h0Z"/>
          <path class="cls-2" d="M197.1,149.8c-.2.8-1,1.5-2.1,1.5s-2.4-.9-2.4-2.5,1.1-2.4,2.2-2.4,2.3.9,2.3,2.4,0,.3,0,.4h-3.4c0,.7.6,1.2,1.3,1.2s1-.4,1.2-.8l.9.3h0ZM196.1,148.3c0-.5-.4-1-1.1-1s-1.1.5-1.1,1h2.3,0Z"/>
          <path class="cls-2" d="M199.6,146.5h1v1h-1v2.1c0,.4.2.6.6.6s.3,0,.4,0v.9s-.3.1-.7.1c-.9,0-1.4-.5-1.4-1.4v-2.3h-.9v-1h.2c.5,0,.7-.3.7-.7v-.7h1v1.4h0Z"/>
          <path class="cls-2" d="M203.4,151.2c-1.1,0-1.7-.8-1.7-1.8v-2.9h1.1v2.7c0,.6.3,1.1.9,1.1s1-.4,1-1v-2.7h1.1v4.6h-1.1v-.5c-.2.4-.8.6-1.3.6h0Z"/>
          <path class="cls-2" d="M209.9,147.6h-.4c-.9,0-1.2.5-1.2,1.4v2.2h-1.1v-4.6h1.1v.7c.2-.5.7-.8,1.3-.8s.2,0,.3,0v1.1h0Z"/>
          <path class="cls-2" d="M211.9,151.1h-1.1v-4.6h1.1v.6c.3-.5.9-.7,1.4-.7,1.1,0,1.7.8,1.7,1.8v2.9h-1.1v-2.7c0-.6-.3-1-.9-1s-1,.5-1,1.1v2.7h0Z"/>
          <path class="cls-2" d="M218.4,151.1v-6.9h1.1v6.9h-1.1Z"/>
          <path class="cls-2" d="M225,149.8c-.2.8-1,1.5-2.1,1.5s-2.4-.9-2.4-2.5,1.1-2.4,2.2-2.4,2.3.9,2.3,2.4,0,.3,0,.4h-3.4c0,.7.6,1.2,1.3,1.2s1-.4,1.2-.8l.9.3h0ZM224,148.3c0-.5-.4-1-1.1-1s-1.1.5-1.1,1h2.3,0Z"/>
          <path class="cls-2" d="M227.3,151.1h-1.1v-4.6h1.1v.6c.3-.5.9-.7,1.4-.7,1.1,0,1.7.8,1.7,1.8v2.9h-1.1v-2.7c0-.6-.3-1-.9-1s-1,.5-1,1.1v2.7h0Z"/>
          <path class="cls-2" d="M232.3,151.1c0,.6.5,1,1.2,1s1.3-.4,1.3-1.4v-.5c-.2.4-.7.7-1.3.7-1.2,0-2.1-.9-2.1-2.2s.9-2.2,2.1-2.2,1.2.3,1.4.7v-.6h1.1v4.2c0,1.2-.6,2.4-2.4,2.4s-2.1-.8-2.2-1.7l1-.3h-.1ZM234.8,148.7c0-.8-.5-1.3-1.2-1.3s-1.2.5-1.2,1.3.5,1.3,1.2,1.3,1.2-.5,1.2-1.3Z"/>
          <path class="cls-2" d="M238.6,146.5h1v1h-1v2.1c0,.4.2.6.6.6s.3,0,.4,0v.9s-.3.1-.7.1c-.9,0-1.4-.5-1.4-1.4v-2.3h-.9v-1h.2c.5,0,.7-.3.7-.7v-.7h1v1.4h0Z"/>
          <path class="cls-2" d="M241.6,151.1h-1.1v-6.9h1.1v2.7c.3-.4.8-.6,1.3-.6,1.1,0,1.7.8,1.7,1.8v2.9h-1.1v-2.7c0-.6-.3-1-.9-1s-.9.5-1,1v2.7h0Z"/>
          <path class="cls-2" d="M249.3,149.1v-.4c0-.6.2-1,.8-1.4l.4-.3c.3-.2.4-.5.4-.8,0-.5-.3-1-1-1s-1.1.5-1.1,1.1,0,.3,0,.4h-1.1v-.5c0-.9.7-2,2.1-2s2.2.9,2.2,1.9-.4,1.3-.9,1.7l-.4.3c-.3.2-.5.5-.5.9s0,0,0,.1h-.9ZM249.8,149.8c.4,0,.7.3.7.7s-.3.7-.7.7-.7-.3-.7-.7.3-.7.7-.7Z"/>
          <path class="cls-2" d="M255.8,149.6c0,.4.4.8.9.8s.7-.2.7-.5-.2-.4-.5-.5l-.7-.2c-.8-.2-1.2-.7-1.2-1.3s.7-1.5,1.7-1.5,1.7.8,1.8,1.3l-.9.3c0-.3-.2-.7-.9-.7s-.7.2-.7.5.2.4.5.5h.7c.9.3,1.3.9,1.3,1.5s-.6,1.5-1.7,1.5-1.8-.9-1.9-1.4l1-.3h0Z"/>
          <path class="cls-2" d="M259.6,151.1v-6.9h1.1v6.9h-1.1Z"/>
          <path class="cls-2" d="M262.7,144.2c.4,0,.7.3.7.7s-.3.7-.7.7-.7-.3-.7-.7.3-.7.7-.7ZM262.1,151.1v-4.6h1.1v4.6h-1.1Z"/>
          <path class="cls-2" d="M265.4,148.8c0,.9.6,1.4,1.3,1.4s1.1-.5,1.2-.9l1,.4c-.2.7-.9,1.5-2.1,1.5s-2.4-1.1-2.4-2.5,1-2.4,2.4-2.4,1.9.8,2.1,1.5l-1,.4c-.1-.4-.4-.9-1.1-.9s-1.3.5-1.3,1.4h-.1Z"/>
          <path class="cls-2" d="M273.8,149.8c-.2.8-1,1.5-2.1,1.5s-2.4-.9-2.4-2.5,1.1-2.4,2.2-2.4,2.3.9,2.3,2.4,0,.3,0,.4h-3.4c0,.7.6,1.2,1.3,1.2s1-.4,1.2-.8l.9.3h0ZM272.7,148.3c0-.5-.4-1-1.1-1s-1.1.5-1.1,1h2.3,0Z"/>
          <path class="cls-2" d="M276.6,143.5l.6.6c-1,1.1-1.6,2.3-1.6,4s.6,3,1.6,4l-.6.6c-1.1-1.1-1.9-2.5-1.9-4.6s.8-3.6,1.9-4.6Z"/>
          <path class="cls-2" d="M279,148.5l1.2-.2c.3,0,.3-.2.3-.3,0-.4-.3-.7-.9-.7s-.9.4-.9.8l-1-.2c0-.8.8-1.5,1.9-1.5s2,.8,2,1.7v3h-1v-.6c-.2.4-.7.7-1.4.7s-1.6-.7-1.6-1.4.6-1.3,1.4-1.4h0ZM280.5,149.2v-.2l-1.2.2c-.3,0-.6.2-.6.6s.2.6.7.6,1.1-.3,1.1-1.2h0Z"/>
          <path class="cls-2" d="M285.6,147.6h-.4c-.9,0-1.2.5-1.2,1.4v2.2h-1.1v-4.6h1.1v.7c.2-.5.7-.8,1.3-.8s.2,0,.3,0v1.1h0Z"/>
          <path class="cls-2" d="M289.2,147.6h-.4c-.9,0-1.2.5-1.2,1.4v2.2h-1.1v-4.6h1.1v.7c.2-.5.7-.8,1.3-.8s.2,0,.3,0v1.1h0Z"/>
          <path class="cls-2" d="M291.3,148.5l1.2-.2c.3,0,.3-.2.3-.3,0-.4-.3-.7-.9-.7s-.9.4-.9.8l-1-.2c0-.8.8-1.5,1.9-1.5s2,.8,2,1.7v3h-1v-.6c-.2.4-.7.7-1.4.7s-1.6-.7-1.6-1.4.6-1.3,1.4-1.4h0ZM292.8,149.2v-.2l-1.2.2c-.3,0-.6.2-.6.6s.2.6.7.6,1.1-.3,1.1-1.2h0Z"/>
          <path class="cls-2" d="M295.3,153l1.1-2.4-2-4.1h1.2l1.3,2.9,1.2-2.9h1.2l-2.9,6.5h-1.2,0Z"/>
          <path class="cls-2" d="M299.9,149.7c.5,0,.9.4.9,1,0,1.3-.9,1.9-1.5,2v-.6c.4,0,.8-.5.8-1h-.2c-.4,0-.7-.3-.7-.7s.3-.7.8-.7h0Z"/>
          <path class="cls-2" d="M304.6,145.8c.4-.6,1-1,2-1s1.6.4,1.9,1c.4.6.5,1.4.5,2.2s-.1,1.6-.5,2.2c-.4.6-1,1-1.9,1s-1.6-.4-2-1-.5-1.4-.5-2.2.1-1.6.5-2.2ZM305.6,149.8c.2.3.5.5.9.5s.7-.2.9-.5c.3-.4.4-1,.4-1.8s-.1-1.4-.4-1.8c-.2-.3-.5-.5-.9-.5s-.7.2-.9.5c-.3.4-.4,1-.4,1.8s.1,1.4.4,1.8Z"/>
          <path class="cls-2" d="M310.5,149.7c.5,0,.9.4.9,1,0,1.3-.9,1.9-1.5,2v-.6c.4,0,.8-.5.8-1h-.2c-.4,0-.7-.3-.7-.7s.3-.7.8-.7h0Z"/>
          <path class="cls-2" d="M316,151.1h-1.1v-4.6h1.1v.6c.3-.5.9-.7,1.4-.7,1.1,0,1.7.8,1.7,1.8v2.9h-1.1v-2.7c0-.6-.3-1-.9-1s-1,.5-1,1.1v2.7h-.1Z"/>
          <path class="cls-2" d="M322.2,147.9l4-2v1.1l-2.9,1.4,2.9,1.4v1.1l-4-2v-.9h0Z"/>
          <path class="cls-2" d="M329.7,145.8c.4-.6,1-1,2-1s1.6.4,1.9,1c.4.6.5,1.4.5,2.2s-.1,1.6-.5,2.2c-.4.6-1,1-1.9,1s-1.6-.4-2-1-.5-1.4-.5-2.2.1-1.6.5-2.2ZM330.7,149.8c.2.3.5.5.9.5s.7-.2.9-.5c.3-.4.4-1,.4-1.8s-.1-1.4-.4-1.8c-.2-.3-.5-.5-.9-.5s-.7.2-.9.5c-.3.4-.4,1-.4,1.8s.1,1.4.4,1.8Z"/>
          <path class="cls-2" d="M338.6,149.1v-.4c0-.6.2-1,.8-1.4l.4-.3c.3-.2.4-.5.4-.8,0-.5-.3-1-1-1s-1.1.5-1.1,1.1,0,.3,0,.4h-1.1v-.5c0-.9.7-2,2.1-2s2.2.9,2.2,1.9-.4,1.3-.9,1.7l-.4.3c-.3.2-.5.5-.5.9s0,0,0,.1h-.9ZM339.1,149.8c.4,0,.7.3.7.7s-.3.7-.7.7-.7-.3-.7-.7.3-.7.7-.7Z"/>
          <path class="cls-2" d="M344.9,145.8c.4-.6,1-1,2-1s1.6.4,1.9,1c.4.6.5,1.4.5,2.2s-.1,1.6-.5,2.2c-.4.6-1,1-1.9,1s-1.6-.4-2-1-.5-1.4-.5-2.2.1-1.6.5-2.2ZM345.9,149.8c.2.3.5.5.9.5s.7-.2.9-.5c.3-.4.4-1,.4-1.8s-.1-1.4-.4-1.8c-.2-.3-.5-.5-.9-.5s-.7.2-.9.5c-.3.4-.4,1-.4,1.8s.1,1.4.4,1.8Z"/>
          <path class="cls-2" d="M353.4,146.4c.4,0,.8.3.8.8s-.4.8-.8.8-.8-.3-.8-.8.3-.8.8-.8ZM353.4,149.6c.4,0,.8.3.8.8s-.4.8-.8.8-.8-.3-.8-.8.3-.8.8-.8Z"/>
          <path class="cls-2" d="M358.9,151.1h-1.1v-4.6h1.1v.6c.3-.5.9-.7,1.4-.7,1.1,0,1.7.8,1.7,1.8v2.9h-1.1v-2.7c0-.6-.3-1-.9-1s-1,.5-1,1.1v2.7h-.1Z"/>
          <path class="cls-2" d="M363.1,152.7l-.6-.6c1-1.1,1.6-2.3,1.6-4s-.6-3-1.6-4l.6-.6c1.1,1.1,1.9,2.5,1.9,4.6s-.8,3.6-1.9,4.6Z"/>
          <path class="cls-2" d="M369.1,146.4c.4,0,.8.3.8.8s-.4.8-.8.8-.8-.3-.8-.8.3-.8.8-.8ZM369.1,149.6c.4,0,.8.3.8.8s-.4.8-.8.8-.8-.3-.8-.8.3-.8.8-.8Z"/>
          <path class="cls-2" d="M161.6,163.9v-9h2v.9h-1.1v7.3h1.1v.9h-2Z"/>
          <path class="cls-2" d="M163.7,163.9v-.9h1.1v-7.3h-1.1v-.9h2v9h-2Z"/>
          <path class="cls-2" d="M169.5,159.9c-.5,0-1,.2-1,.9v1.3c0,1.2-.7,1.8-1.8,1.8h-.2v-.8h.2c.6,0,.9-.3.9-.9v-1.6c0-.6.4-1,1-1.2-.6-.1-1-.6-1-1.2v-1.6c0-.7-.3-.9-.9-.9h-.2v-.8h.2c1.1,0,1.8.6,1.8,1.8v1.3c0,.7.5.9,1,.9v.9h0Z"/>
          <path class="cls-2" d="M172,157.2v.6h1.1v1h-1.1v3.7h-1.1v-3.7h-.8v-1h.8v-.6c0-1,.7-1.7,1.6-1.7s.5,0,.6,0v.9h-.4c-.2,0-.7.1-.7.7h0Z"/>
          <path class="cls-2" d="M175.7,162.6c-1.1,0-1.7-.8-1.7-1.8v-2.9h1.1v2.7c0,.6.3,1.1.9,1.1s1-.4,1-1v-2.7h1.1v4.6h-1.1v-.5c-.2.4-.8.6-1.3.6h0Z"/>
          <path class="cls-2" d="M180.5,162.5h-1.1v-4.6h1.1v.6c.3-.5.9-.7,1.4-.7,1.1,0,1.7.8,1.7,1.8v2.9h-1.1v-2.7c0-.6-.3-1-.9-1s-1,.5-1,1.1v2.7h0Z"/>
          <path class="cls-2" d="M185.6,160.2c0,.9.6,1.4,1.3,1.4s1.1-.5,1.2-.9l1,.4c-.2.7-.9,1.5-2.1,1.5s-2.4-1.1-2.4-2.5,1-2.4,2.4-2.4,1.9.8,2.1,1.5l-1,.4c-.1-.4-.4-.9-1.1-.9s-1.3.5-1.3,1.4h0Z"/>
          <path class="cls-2" d="M191.4,157.9h1v1h-1v2.1c0,.4.2.6.6.6s.3,0,.4,0v.9s-.3.1-.7.1c-.9,0-1.4-.5-1.4-1.4v-2.3h-.9v-1h.2c.5,0,.7-.3.7-.7v-.7h1v1.4h0Z"/>
          <path class="cls-2" d="M194,155.5c.4,0,.7.3.7.7s-.3.7-.7.7-.7-.3-.7-.7.3-.7.7-.7ZM193.5,162.5v-4.6h1.1v4.6h-1.1Z"/>
          <path class="cls-2" d="M200.4,160.2c0,1.4-1,2.5-2.4,2.5s-2.4-1-2.4-2.5,1-2.4,2.4-2.4,2.4,1,2.4,2.4ZM199.3,160.2c0-1-.6-1.4-1.3-1.4s-1.3.5-1.3,1.4.6,1.5,1.3,1.5,1.3-.5,1.3-1.5Z"/>
          <path class="cls-2" d="M202.5,162.5h-1.1v-4.6h1.1v.6c.3-.5.9-.7,1.4-.7,1.1,0,1.7.8,1.7,1.8v2.9h-1.1v-2.7c0-.6-.3-1-.9-1s-1,.5-1,1.1v2.7h0Z"/>
          <path class="cls-2" d="M215.2,160.2c0,.9.6,1.4,1.3,1.4s1.1-.5,1.2-.9l1,.4c-.2.7-.9,1.5-2.1,1.5s-2.4-1.1-2.4-2.5,1-2.4,2.4-2.4,1.9.8,2.1,1.5l-1,.4c-.1-.4-.4-.9-1.1-.9s-1.3.5-1.3,1.4h0Z"/>
          <path class="cls-2" d="M220.6,159.8l1.2-.2c.3,0,.3-.2.3-.3,0-.4-.3-.7-.9-.7s-.9.4-.9.8l-1-.2c0-.8.8-1.5,1.9-1.5s2,.8,2,1.7v3h-1v-.6c-.2.4-.7.7-1.4.7s-1.6-.7-1.6-1.4.6-1.3,1.4-1.4h0ZM222.1,160.6v-.2l-1.2.2c-.3,0-.6.2-.6.6s.2.6.7.6,1.1-.3,1.1-1.2h0Z"/>
          <path class="cls-2" d="M225.1,160.9c0,.4.4.8.9.8s.7-.2.7-.5-.2-.4-.5-.5l-.7-.2c-.8-.2-1.2-.7-1.2-1.3s.7-1.5,1.7-1.5,1.7.8,1.8,1.3l-.9.3c0-.3-.2-.7-.9-.7s-.7.2-.7.5.2.4.5.5h.7c.9.3,1.3.9,1.3,1.5s-.6,1.5-1.7,1.5-1.8-.9-1.9-1.4l1-.3h-.1Z"/>
          <path class="cls-2" d="M230.3,157.9h1v1h-1v2.1c0,.4.2.6.6.6s.3,0,.4,0v.9s-.3.1-.7.1c-.9,0-1.4-.5-1.4-1.4v-2.3h-.9v-1h.2c.5,0,.7-.3.7-.7v-.7h1v1.4h0Z"/>
          <path class="cls-2" d="M236.4,160.8h-2.8l-.6,1.7h-1.2l2.6-6.7h1.3l2.6,6.7h-1.2l-.6-1.7h-.1ZM233.9,159.7h2l-1-2.7-1,2.7Z"/>
          <path class="cls-2" d="M241.7,158.9h-.4c-.9,0-1.2.5-1.2,1.4v2.2h-1.1v-4.6h1.1v.7c.2-.5.7-.8,1.3-.8s.2,0,.3,0v1.1h0Z"/>
          <path class="cls-2" d="M245.3,158.9h-.4c-.9,0-1.2.5-1.2,1.4v2.2h-1.1v-4.6h1.1v.7c.2-.5.7-.8,1.3-.8s.2,0,.3,0v1.1h0Z"/>
          <path class="cls-2" d="M247.4,159.8l1.2-.2c.3,0,.3-.2.3-.3,0-.4-.3-.7-.9-.7s-.9.4-.9.8l-1-.2c0-.8.8-1.5,1.9-1.5s2,.8,2,1.7v3h-1v-.6c-.2.4-.7.7-1.4.7s-1.6-.7-1.6-1.4.6-1.3,1.4-1.4h0ZM248.9,160.6v-.2l-1.2.2c-.3,0-.6.2-.6.6s.2.6.7.6,1.1-.3,1.1-1.2h0Z"/>
          <path class="cls-2" d="M251.4,164.3l1.1-2.4-2-4.1h1.2l1.3,2.9,1.2-2.9h1.2l-2.9,6.5h-1.2,0Z"/>
          <path class="cls-2" d="M258,154.8l.6.6c-1,1.1-1.6,2.3-1.6,4s.6,3,1.6,4l-.6.6c-1.1-1.1-1.9-2.5-1.9-4.6s.8-3.6,1.9-4.6Z"/>
          <path class="cls-2" d="M260,161c.4,0,.8.4.8.8s-.4.8-.8.8-.8-.3-.8-.8.3-.8.8-.8Z"/>
          <path class="cls-2" d="M262.8,161c.4,0,.8.4.8.8s-.4.8-.8.8-.8-.3-.8-.8.3-.8.8-.8Z"/>
          <path class="cls-2" d="M265.6,161c.4,0,.8.4.8.8s-.4.8-.8.8-.8-.3-.8-.8.3-.8.8-.8Z"/>
          <path class="cls-2" d="M268.8,159.8l1.2-.2c.3,0,.3-.2.3-.3,0-.4-.3-.7-.9-.7s-.9.4-.9.8l-1-.2c0-.8.8-1.5,1.9-1.5s2,.8,2,1.7v3h-1v-.6c-.2.4-.7.7-1.4.7s-1.6-.7-1.6-1.4.6-1.3,1.4-1.4h0ZM270.3,160.6v-.2l-1.2.2c-.3,0-.6.2-.6.6s.2.6.7.6,1.1-.3,1.1-1.2h0Z"/>
          <path class="cls-2" d="M275.5,158.9h-.4c-.9,0-1.2.5-1.2,1.4v2.2h-1.1v-4.6h1.1v.7c.2-.5.7-.8,1.3-.8s.2,0,.3,0v1.1h0Z"/>
          <path class="cls-2" d="M277,162.5c0,.6.5,1,1.2,1s1.3-.4,1.3-1.4v-.5c-.2.4-.7.7-1.3.7-1.2,0-2.1-.9-2.1-2.2s.9-2.2,2.1-2.2,1.2.3,1.4.7v-.6h1.1v4.2c0,1.2-.6,2.4-2.4,2.4s-2.1-.8-2.2-1.7l1-.3h-.1ZM279.5,160c0-.8-.5-1.3-1.2-1.3s-1.2.5-1.2,1.3.5,1.3,1.2,1.3,1.2-.5,1.2-1.3Z"/>
          <path class="cls-2" d="M282.4,160.9c0,.4.4.8.9.8s.7-.2.7-.5-.2-.4-.5-.5l-.7-.2c-.8-.2-1.2-.7-1.2-1.3s.7-1.5,1.7-1.5,1.7.8,1.8,1.3l-.9.3c0-.3-.2-.7-.9-.7s-.7.2-.7.5.2.4.5.5h.7c.9.3,1.3.9,1.3,1.5s-.6,1.5-1.7,1.5-1.8-.9-1.9-1.4l1-.3h0Z"/>
          <path class="cls-2" d="M286.1,164.1l-.6-.6c1-1.1,1.6-2.3,1.6-4s-.6-3-1.6-4l.6-.6c1.1,1.1,1.9,2.5,1.9,4.6s-.8,3.6-1.9,4.6Z"/>
          <path class="cls-2" d="M296.4,158.9c.5,0,1-.2,1-.9v-1.3c0-1.2.7-1.8,1.8-1.8h.2v.8h-.2c-.6,0-.9.3-.9.9v1.6c0,.6-.4,1-1,1.2.6.1,1,.6,1,1.2v1.6c0,.7.3.9.9.9h.2v.8h-.2c-1.1,0-1.8-.6-1.8-1.8v-1.3c0-.7-.5-.9-1-.9v-.9h0Z"/>
          <path class="cls-2" d="M300.7,155.5c.4,0,.7.3.7.7s-.3.7-.7.7-.7-.3-.7-.7.3-.7.7-.7ZM300.1,162.5v-4.6h1.1v4.6h-1.1Z"/>
          <path class="cls-2" d="M304,157.2v.6h1.1v1h-1.1v3.7h-1.1v-3.7h-.8v-1h.8v-.6c0-1,.7-1.7,1.6-1.7s.5,0,.6,0v.9h-.4c-.2,0-.7.1-.7.7h0Z"/>
          <path class="cls-2" d="M315.2,154.8l.6.6c-1,1.1-1.6,2.3-1.6,4s.6,3,1.6,4l-.6.6c-1.1-1.1-1.9-2.5-1.9-4.6s.8-3.6,1.9-4.6Z"/>
          <path class="cls-2" d="M317.3,161.1c.4,0,.7.3.7.7s-.3.7-.7.7-.7-.3-.7-.7.3-.7.7-.7ZM317.7,160.5h-.8l-.3-4.7h1.3l-.3,4.7h0Z"/>
          <path class="cls-2" d="M320.6,159.8l1.2-.2c.3,0,.3-.2.3-.3,0-.4-.3-.7-.9-.7s-.9.4-.9.8l-1-.2c0-.8.8-1.5,1.9-1.5s2,.8,2,1.7v3h-1v-.6c-.2.4-.7.7-1.4.7s-1.6-.7-1.6-1.4.6-1.3,1.4-1.4h0ZM322.1,160.6v-.2l-1.2.2c-.3,0-.6.2-.6.6s.2.6.7.6,1.1-.3,1.1-1.2h0Z"/>
          <path class="cls-2" d="M327.2,158.9h-.4c-.9,0-1.2.5-1.2,1.4v2.2h-1.1v-4.6h1.1v.7c.2-.5.7-.8,1.3-.8s.2,0,.3,0v1.1h0Z"/>
          <path class="cls-2" d="M328.8,162.5c0,.6.5,1,1.2,1s1.3-.4,1.3-1.4v-.5c-.2.4-.7.7-1.3.7-1.2,0-2.1-.9-2.1-2.2s.9-2.2,2.1-2.2,1.2.3,1.4.7v-.6h1.1v4.2c0,1.2-.6,2.4-2.4,2.4s-2.1-.8-2.2-1.7l1-.3h-.1ZM331.3,160c0-.8-.5-1.3-1.2-1.3s-1.2.5-1.2,1.3.5,1.3,1.2,1.3,1.2-.5,1.2-1.3Z"/>
          <path class="cls-2" d="M334.2,160.9c0,.4.4.8.9.8s.7-.2.7-.5-.2-.4-.5-.5l-.7-.2c-.8-.2-1.2-.7-1.2-1.3s.7-1.5,1.7-1.5,1.7.8,1.8,1.3l-.9.3c0-.3-.2-.7-.9-.7s-.7.2-.7.5.2.4.5.5h.7c.9.3,1.3.9,1.3,1.5s-.6,1.5-1.7,1.5-1.8-.9-1.9-1.4l1-.3h0Z"/>
          <path class="cls-2" d="M338.7,161c.4,0,.8.4.8.8s-.4.8-.8.8-.8-.3-.8-.8.3-.8.8-.8Z"/>
          <path class="cls-2" d="M340.8,162.5v-6.9h1.1v6.9h-1.1Z"/>
          <path class="cls-2" d="M347.4,161.1c-.2.8-1,1.5-2.1,1.5s-2.4-.9-2.4-2.5,1.1-2.4,2.2-2.4,2.3.9,2.3,2.4,0,.3,0,.4h-3.4c0,.7.6,1.2,1.3,1.2s1-.4,1.2-.8l.9.3h0ZM346.3,159.7c0-.5-.4-1-1.1-1s-1.1.5-1.1,1h2.3,0Z"/>
          <path class="cls-2" d="M349.6,162.5h-1.1v-4.6h1.1v.6c.3-.5.9-.7,1.4-.7,1.1,0,1.7.8,1.7,1.8v2.9h-1.1v-2.7c0-.6-.3-1-.9-1s-1,.5-1,1.1v2.7h-.1Z"/>
          <path class="cls-2" d="M354.6,162.5c0,.6.5,1,1.2,1s1.3-.4,1.3-1.4v-.5c-.2.4-.7.7-1.3.7-1.2,0-2.1-.9-2.1-2.2s.9-2.2,2.1-2.2,1.2.3,1.4.7v-.6h1.1v4.2c0,1.2-.6,2.4-2.4,2.4s-2.1-.8-2.2-1.7l1-.3h-.1ZM357.1,160c0-.8-.5-1.3-1.2-1.3s-1.2.5-1.2,1.3.5,1.3,1.2,1.3,1.2-.5,1.2-1.3Z"/>
          <path class="cls-2" d="M360.9,157.9h1v1h-1v2.1c0,.4.2.6.6.6h.4v.9s-.3.1-.7.1c-.9,0-1.4-.5-1.4-1.4v-2.3h-.9v-1h.2c.5,0,.7-.3.7-.7v-.7h1v1.4h0Z"/>
          <path class="cls-2" d="M363.9,162.5h-1.1v-6.9h1.1v2.7c.3-.4.8-.6,1.3-.6,1.1,0,1.7.8,1.7,1.8v2.9h-1.1v-2.7c0-.6-.3-1-.9-1s-.9.5-1,1v2.7h0Z"/>
          <path class="cls-2" d="M368.2,164.1l-.6-.6c1-1.1,1.6-2.3,1.6-4s-.6-3-1.6-4l.6-.6c1.1,1.1,1.9,2.5,1.9,4.6s-.8,3.6-1.9,4.6Z"/>
          <path class="cls-2" d="M161.2,170.3c.5,0,1-.2,1-.9v-1.3c0-1.2.7-1.8,1.8-1.8h.2v.8h-.2c-.6,0-.9.3-.9.9v1.6c0,.6-.4,1-1,1.2.6.1,1,.6,1,1.2v1.6c0,.7.3.9.9.9h.2v.8h-.2c-1.1,0-1.8-.6-1.8-1.8v-1.3c0-.7-.5-.9-1-.9v-.9h0Z"/>
          <path class="cls-2" d="M167.6,170.3h-.4c-.9,0-1.2.5-1.2,1.4v2.2h-1.1v-4.6h1.1v.7c.2-.5.7-.8,1.3-.8s.2,0,.3,0v1.1h0Z"/>
          <path class="cls-2" d="M172.6,172.5c-.2.8-1,1.5-2.1,1.5s-2.4-.9-2.4-2.5,1.1-2.4,2.2-2.4,2.3.9,2.3,2.4,0,.3,0,.4h-3.4c0,.7.6,1.2,1.3,1.2s1-.4,1.2-.8l.9.3h0ZM171.5,171c0-.5-.4-1-1.1-1s-1.1.5-1.1,1h2.3,0Z"/>
          <path class="cls-2" d="M175.1,169.2h1v1h-1v2.1c0,.4.2.6.6.6s.3,0,.4,0v.9s-.3.1-.7.1c-.9,0-1.4-.5-1.4-1.4v-2.3h-.9v-1h.2c.5,0,.7-.3.7-.7v-.7h1v1.4h0Z"/>
          <path class="cls-2" d="M178.9,174c-1.1,0-1.7-.8-1.7-1.8v-2.9h1.1v2.7c0,.6.3,1.1.9,1.1s1-.4,1-1v-2.7h1.1v4.6h-1.1v-.5c-.2.4-.8.6-1.3.6h0Z"/>
          <path class="cls-2" d="M185.3,170.3h-.4c-.9,0-1.2.5-1.2,1.4v2.2h-1.1v-4.6h1.1v.7c.2-.5.7-.8,1.3-.8s.2,0,.3,0v1.1h0Z"/>
          <path class="cls-2" d="M187.3,173.8h-1.1v-4.6h1.1v.6c.3-.5.9-.7,1.4-.7,1.1,0,1.7.8,1.7,1.8v2.9h-1.1v-2.7c0-.6-.3-1-.9-1s-1,.5-1,1.1v2.7h0Z"/>
          <path class="cls-2" d="M194.7,175.3v-9h2v.9h-1.1v7.3h1.1v.9h-2Z"/>
          <path class="cls-2" d="M196.8,175.3v-.9h1.1v-7.3h-1.1v-.9h2v9h-2Z"/>
          <path class="cls-2" d="M202.7,171.2c-.5,0-1,.2-1,.9v1.3c0,1.2-.7,1.8-1.8,1.8h-.2v-.8h.2c.6,0,.9-.3.9-.9v-1.6c0-.6.4-1,1-1.2-.6-.1-1-.6-1-1.2v-1.6c0-.7-.3-.9-.9-.9h-.2v-.8h.2c1.1,0,1.8.6,1.8,1.8v1.3c0,.7.5.9,1,.9v.9h0Z"/>
          <path class="cls-2" d="M204.5,171.5c0,.9.6,1.4,1.3,1.4s1.1-.5,1.2-.9l1,.4c-.2.7-.9,1.5-2.1,1.5s-2.4-1.1-2.4-2.5,1-2.4,2.4-2.4,1.9.8,2.1,1.5l-1,.4c-.1-.4-.4-.9-1.1-.9s-1.3.5-1.3,1.4h0Z"/>
          <path class="cls-2" d="M213.3,171.5c0,1.4-1,2.5-2.4,2.5s-2.4-1-2.4-2.5,1-2.4,2.4-2.4,2.4,1,2.4,2.4ZM212.2,171.5c0-1-.6-1.4-1.3-1.4s-1.3.5-1.3,1.4.6,1.5,1.3,1.5,1.3-.5,1.3-1.5Z"/>
          <path class="cls-2" d="M215.5,173.8h-1.1v-4.6h1.1v.6c.3-.5.9-.7,1.4-.7,1.1,0,1.7.8,1.7,1.8v2.9h-1.1v-2.7c0-.6-.3-1-.9-1s-1,.5-1,1.1v2.7h0Z"/>
          <path class="cls-2" d="M220.3,172.3c0,.4.4.8.9.8s.7-.2.7-.5-.2-.4-.5-.5l-.7-.2c-.8-.2-1.2-.7-1.2-1.3s.7-1.5,1.7-1.5,1.7.8,1.8,1.3l-.9.3c0-.3-.2-.7-.9-.7s-.7.2-.7.5.2.4.5.5h.7c.9.3,1.3.9,1.3,1.5s-.6,1.5-1.7,1.5-1.8-.9-1.9-1.4l1-.3h-.1Z"/>
          <path class="cls-2" d="M225.5,169.2h1v1h-1v2.1c0,.4.2.6.6.6s.3,0,.4,0v.9s-.3.1-.7.1c-.9,0-1.4-.5-1.4-1.4v-2.3h-.9v-1h.2c.5,0,.7-.3.7-.7v-.7h1v1.4h0Z"/>
          <path class="cls-2" d="M232.8,173.8h-1.1l-1.9-4.6h1.2l1.2,3.3,1.2-3.3h1.2l-1.8,4.6h0Z"/>
          <path class="cls-2" d="M236.5,171.2l1.2-.2c.3,0,.3-.2.3-.3,0-.4-.3-.7-.9-.7s-.9.4-.9.8l-1-.2c0-.8.8-1.5,1.9-1.5s2,.8,2,1.7v3h-1v-.6c-.2.4-.7.7-1.4.7s-1.6-.7-1.6-1.4.6-1.3,1.4-1.4h0ZM238.1,171.9v-.2l-1.2.2c-.3,0-.6.2-.6.6s.2.6.7.6,1.1-.3,1.1-1.2h0Z"/>
          <path class="cls-2" d="M240.5,173.8v-6.9h1.1v6.9h-1.1Z"/>
          <path class="cls-2" d="M244.6,174c-1.1,0-1.7-.8-1.7-1.8v-2.9h1.1v2.7c0,.6.3,1.1.9,1.1s1-.4,1-1v-2.7h1.1v4.6h-1.1v-.5c-.2.4-.8.6-1.3.6h0Z"/>
          <path class="cls-2" d="M252.5,172.5c-.2.8-1,1.5-2.1,1.5s-2.4-.9-2.4-2.5,1.1-2.4,2.2-2.4,2.3.9,2.3,2.4,0,.3,0,.4h-3.4c0,.7.6,1.2,1.3,1.2s1-.4,1.2-.8l.9.3h0ZM251.4,171c0-.5-.4-1-1.1-1s-1.1.5-1.1,1h2.3,0Z"/>
          <path class="cls-2" d="M256.4,170.6v-.9h4.5v.9h-4.5ZM256.4,172.4v-.9h4.5v.9h-4.5Z"/>
          <path class="cls-2" d="M266.2,171.2l1.2-.2c.3,0,.3-.2.3-.3,0-.4-.3-.7-.9-.7s-.9.4-.9.8l-1-.2c0-.8.8-1.5,1.9-1.5s2,.8,2,1.7v3h-1v-.6c-.2.4-.7.7-1.4.7s-1.6-.7-1.6-1.4.6-1.3,1.4-1.4h0ZM267.7,171.9v-.2l-1.2.2c-.3,0-.6.2-.6.6s.2.6.7.6,1.1-.3,1.1-1.2h0Z"/>
          <path class="cls-2" d="M272.8,170.3h-.4c-.9,0-1.2.5-1.2,1.4v2.2h-1.1v-4.6h1.1v.7c.2-.5.7-.8,1.3-.8s.2,0,.3,0v1.1h0Z"/>
          <path class="cls-2" d="M274.3,173.8c0,.6.5,1,1.2,1s1.3-.4,1.3-1.4v-.5c-.2.4-.7.7-1.3.7-1.2,0-2.1-.9-2.1-2.2s.9-2.2,2.1-2.2,1.2.3,1.4.7v-.6h1.1v4.2c0,1.2-.6,2.4-2.4,2.4s-2.1-.8-2.2-1.7l1-.3h-.1ZM276.8,171.4c0-.8-.5-1.3-1.2-1.3s-1.2.5-1.2,1.3.5,1.3,1.2,1.3,1.2-.5,1.2-1.3Z"/>
          <path class="cls-2" d="M279.8,172.3c0,.4.4.8.9.8s.7-.2.7-.5-.2-.4-.5-.5l-.7-.2c-.8-.2-1.2-.7-1.2-1.3s.7-1.5,1.7-1.5,1.7.8,1.8,1.3l-.9.3c0-.3-.2-.7-.9-.7s-.7.2-.7.5.2.4.5.5h.7c.9.3,1.3.9,1.3,1.5s-.6,1.5-1.7,1.5-1.8-.9-1.9-1.4l1-.3h0Z"/>
          <path class="cls-2" d="M283.7,175.3v-9h2v.9h-1.1v7.3h1.1v.9h-2Z"/>
          <path class="cls-2" d="M286.7,168.6c.4-.6,1-1,2-1s1.6.4,1.9,1c.4.6.5,1.4.5,2.2s-.1,1.6-.5,2.2c-.4.6-1,1-1.9,1s-1.6-.4-2-1-.5-1.4-.5-2.2.1-1.6.5-2.2ZM287.7,172.5c.2.3.5.5.9.5s.7-.2.9-.5c.3-.4.4-1,.4-1.8s-.1-1.4-.4-1.8c-.2-.3-.5-.5-.9-.5s-.7.2-.9.5c-.3.4-.4,1-.4,1.8s.1,1.4.4,1.8Z"/>
          <path class="cls-2" d="M291.6,175.3v-.9h1.1v-7.3h-1.1v-.9h2v9h-2Z"/>
          <path class="cls-2" d="M297.8,170.3h-.4c-.9,0-1.2.5-1.2,1.4v2.2h-1.1v-4.6h1.1v.7c.2-.5.7-.8,1.3-.8s.2,0,.3,0v1.1h0Z"/>
          <path class="cls-2" d="M302.8,172.5c-.2.8-1,1.5-2.1,1.5s-2.4-.9-2.4-2.5,1.1-2.4,2.2-2.4,2.3.9,2.3,2.4,0,.3,0,.4h-3.4c0,.7.6,1.2,1.3,1.2s1-.4,1.2-.8l.9.3h0ZM301.7,171c0-.5-.4-1-1.1-1s-1.1.5-1.1,1h2.3,0Z"/>
          <path class="cls-2" d="M305.3,169.2h1v1h-1v2.1c0,.4.2.6.6.6h.4v.9s-.3.1-.7.1c-.9,0-1.4-.5-1.4-1.4v-2.3h-.9v-1h.2c.5,0,.7-.3.7-.7v-.7h1v1.4h0Z"/>
          <path class="cls-2" d="M309.1,174c-1.1,0-1.7-.8-1.7-1.8v-2.9h1.1v2.7c0,.6.3,1.1.9,1.1s1-.4,1-1v-2.7h1.1v4.6h-1.1v-.5c-.2.4-.8.6-1.3.6h0Z"/>
          <path class="cls-2" d="M315.5,170.3h-.4c-.9,0-1.2.5-1.2,1.4v2.2h-1.1v-4.6h1.1v.7c.2-.5.7-.8,1.3-.8s.2,0,.3,0v1.1h0Z"/>
          <path class="cls-2" d="M317.5,173.8h-1.1v-4.6h1.1v.6c.3-.5.9-.7,1.4-.7,1.1,0,1.7.8,1.7,1.8v2.9h-1.1v-2.7c0-.6-.3-1-.9-1s-1,.5-1,1.1v2.7h-.1Z"/>
          <path class="cls-2" d="M328.8,172.1h-2.8l-.6,1.7h-1.2l2.6-6.7h1.3l2.6,6.7h-1.2l-.6-1.7h0ZM326.4,171.1h2l-1-2.7-1,2.7Z"/>
          <path class="cls-2" d="M334.2,170.3h-.4c-.9,0-1.2.5-1.2,1.4v2.2h-1.1v-4.6h1.1v.7c.2-.5.7-.8,1.3-.8s.2,0,.3,0v1.1h0Z"/>
          <path class="cls-2" d="M337.8,170.3h-.4c-.9,0-1.2.5-1.2,1.4v2.2h-1.1v-4.6h1.1v.7c.2-.5.7-.8,1.3-.8s.2,0,.3,0v1.1h0Z"/>
          <path class="cls-2" d="M339.8,171.2l1.2-.2c.3,0,.3-.2.3-.3,0-.4-.3-.7-.9-.7s-.9.4-.9.8l-1-.2c0-.8.8-1.5,1.9-1.5s2,.8,2,1.7v3h-1v-.6c-.2.4-.7.7-1.4.7s-1.6-.7-1.6-1.4.6-1.3,1.4-1.4h0ZM341.4,171.9v-.2l-1.2.2c-.3,0-.6.2-.6.6s.2.6.7.6,1.1-.3,1.1-1.2h0Z"/>
          <path class="cls-2" d="M343.9,175.7l1.1-2.4-2-4.1h1.2l1.3,2.9,1.2-2.9h1.2l-2.9,6.5h-1.2,0Z"/>
          <path class="cls-2" d="M348.5,172.3c.4,0,.8.4.8.8s-.4.8-.8.8-.8-.3-.8-.8.3-.8.8-.8Z"/>
          <path class="cls-2" d="M351.2,166.9c.4,0,.7.3.7.7s-.3.7-.7.7-.7-.3-.7-.7.3-.7.7-.7ZM350.6,173.8v-4.6h1.1v4.6h-1.1Z"/>
          <path class="cls-2" d="M353.7,172.3c0,.4.4.8.9.8s.7-.2.7-.5-.2-.4-.5-.5l-.7-.2c-.8-.2-1.2-.7-1.2-1.3s.7-1.5,1.7-1.5,1.7.8,1.8,1.3l-.9.3c0-.3-.2-.7-.9-.7s-.7.2-.7.5.2.4.5.5h.7c.9.3,1.3.9,1.3,1.5s-.6,1.5-1.7,1.5-1.8-.9-1.9-1.4l1-.3h0Z"/>
          <path class="cls-2" d="M361.5,172.1h-2.8l-.6,1.7h-1.2l2.6-6.7h1.3l2.6,6.7h-1.2l-.6-1.7h0ZM359.1,171.1h2l-1-2.7-1,2.7Z"/>
          <path class="cls-2" d="M366.9,170.3h-.4c-.9,0-1.2.5-1.2,1.4v2.2h-1.1v-4.6h1.1v.7c.2-.5.7-.8,1.3-.8s.2,0,.3,0v1.1h0Z"/>
          <path class="cls-2" d="M367.5,171.5v-1h2.7v1h-2.7Z"/>
          <path class="cls-2" d="M164.2,181.7h-.4c-.9,0-1.2.5-1.2,1.4v2.2h-1.1v-4.6h1.1v.7c.2-.5.7-.8,1.3-.8s.2,0,.3,0v1.1h0Z"/>
          <path class="cls-2" d="M166.2,182.5l1.2-.2c.3,0,.3-.2.3-.3,0-.4-.3-.7-.9-.7s-.9.4-.9.8l-1-.2c0-.8.8-1.5,1.9-1.5s2,.8,2,1.7v3h-1v-.6c-.2.4-.7.7-1.4.7s-1.6-.7-1.6-1.4.6-1.3,1.4-1.4h0ZM167.7,183.3v-.2l-1.2.2c-.3,0-.6.2-.6.6s.2.6.7.6,1.1-.3,1.1-1.2h0Z"/>
          <path class="cls-2" d="M170.3,187l1.1-2.4-2-4.1h1.2l1.3,2.9,1.2-2.9h1.2l-2.9,6.5h-1.2,0Z"/>
          <path class="cls-2" d="M178.9,177.5l.6.6c-1,1.1-1.6,2.3-1.6,4s.6,3,1.6,4l-.6.6c-1.1-1.1-1.9-2.5-1.9-4.6s.8-3.6,1.9-4.6Z"/>
          <path class="cls-2" d="M182.4,185.2h-1.1l-1.9-4.6h1.2l1.2,3.3,1.2-3.3h1.2l-1.8,4.6h0Z"/>
          <path class="cls-2" d="M186.1,182.5l1.2-.2c.3,0,.3-.2.3-.3,0-.4-.3-.7-.9-.7s-.9.4-.9.8l-1-.2c0-.8.8-1.5,1.9-1.5s2,.8,2,1.7v3h-1v-.6c-.2.4-.7.7-1.4.7s-1.6-.7-1.6-1.4.6-1.3,1.4-1.4h0ZM187.6,183.3v-.2l-1.2.2c-.3,0-.6.2-.6.6s.2.6.7.6,1.1-.3,1.1-1.2h0Z"/>
          <path class="cls-2" d="M190,185.2v-6.9h1.1v6.9h-1.1Z"/>
          <path class="cls-2" d="M194.2,185.3c-1.1,0-1.7-.8-1.7-1.8v-2.9h1.1v2.7c0,.6.3,1.1.9,1.1s1-.4,1-1v-2.7h1.1v4.6h-1.1v-.5c-.2.4-.8.6-1.3.6h0Z"/>
          <path class="cls-2" d="M202,183.9c-.2.8-1,1.5-2.1,1.5s-2.4-.9-2.4-2.5,1.1-2.4,2.2-2.4,2.3.9,2.3,2.4,0,.3,0,.4h-3.4c0,.7.6,1.2,1.3,1.2s1-.4,1.2-.8l.9.3h0ZM201,182.4c0-.5-.4-1-1.1-1s-1.1.5-1.1,1h2.3,0Z"/>
          <path class="cls-2" d="M202.9,186.8l-.6-.6c1-1.1,1.6-2.3,1.6-4s-.6-3-1.6-4l.6-.6c1.1,1.1,1.9,2.5,1.9,4.6s-.8,3.6-1.9,4.6Z"/>
          <path class="cls-2" d="M209.2,183.2v-.4c0-.6.2-1,.8-1.4l.4-.3c.3-.2.4-.5.4-.8,0-.5-.3-1-1-1s-1.1.5-1.1,1.1,0,.3,0,.4h-1.1v-.5c0-.9.7-2,2.1-2s2.2.9,2.2,1.9-.4,1.3-.9,1.7l-.4.3c-.3.2-.5.5-.5.9s0,0,0,.1h-.9ZM209.6,183.9c.4,0,.7.3.7.7s-.3.7-.7.7-.7-.3-.7-.7.3-.7.7-.7Z"/>
          <path class="cls-2" d="M217.4,185.2h-1.1l-1.9-4.6h1.2l1.2,3.3,1.2-3.3h1.2l-1.8,4.6h0Z"/>
          <path class="cls-2" d="M221.1,182.5l1.2-.2c.3,0,.3-.2.3-.3,0-.4-.3-.7-.9-.7s-.9.4-.9.8l-1-.2c0-.8.8-1.5,1.9-1.5s2,.8,2,1.7v3h-1v-.6c-.2.4-.7.7-1.4.7s-1.6-.7-1.6-1.4.6-1.3,1.4-1.4h0ZM222.6,183.3v-.2l-1.2.2c-.3,0-.6.2-.6.6s.2.6.7.6,1.1-.3,1.1-1.2h0Z"/>
          <path class="cls-2" d="M225,185.2v-6.9h1.1v6.9h-1.1Z"/>
          <path class="cls-2" d="M229.2,185.3c-1.1,0-1.7-.8-1.7-1.8v-2.9h1.1v2.7c0,.6.3,1.1.9,1.1s1-.4,1-1v-2.7h1.1v4.6h-1.1v-.5c-.2.4-.8.6-1.3.6h0Z"/>
          <path class="cls-2" d="M237,183.9c-.2.8-1,1.5-2.1,1.5s-2.4-.9-2.4-2.5,1.1-2.4,2.2-2.4,2.3.9,2.3,2.4,0,.3,0,.4h-3.4c0,.7.6,1.2,1.3,1.2s1-.4,1.2-.8l.9.3h0ZM235.9,182.4c0-.5-.4-1-1.1-1s-1.1.5-1.1,1h2.3,0Z"/>
          <path class="cls-2" d="M240.9,180.5c.4,0,.8.3.8.8s-.4.8-.8.8-.8-.3-.8-.8.3-.8.8-.8ZM240.9,183.7c.4,0,.8.3.8.8s-.4.8-.8.8-.8-.3-.8-.8.3-.8.8-.8Z"/>
          <path class="cls-2" d="M245.2,186.7v-9h2v.9h-1.1v7.3h1.1v.9h-2Z"/>
          <path class="cls-2" d="M250.3,185.2h-1.1l-1.9-4.6h1.2l1.2,3.3,1.2-3.3h1.2l-1.8,4.6h0Z"/>
          <path class="cls-2" d="M253.9,182.5l1.2-.2c.3,0,.3-.2.3-.3,0-.4-.3-.7-.9-.7s-.9.4-.9.8l-1-.2c0-.8.8-1.5,1.9-1.5s2,.8,2,1.7v3h-1v-.6c-.2.4-.7.7-1.4.7s-1.6-.7-1.6-1.4.6-1.3,1.4-1.4h0ZM255.5,183.3v-.2l-1.2.2c-.3,0-.6.2-.6.6s.2.6.7.6,1.1-.3,1.1-1.2h0Z"/>
          <path class="cls-2" d="M257.9,185.2v-6.9h1.1v6.9h-1.1Z"/>
          <path class="cls-2" d="M262.1,185.3c-1.1,0-1.7-.8-1.7-1.8v-2.9h1.1v2.7c0,.6.3,1.1.9,1.1s1-.4,1-1v-2.7h1.1v4.6h-1.1v-.5c-.2.4-.8.6-1.3.6h0Z"/>
          <path class="cls-2" d="M269.9,183.9c-.2.8-1,1.5-2.1,1.5s-2.4-.9-2.4-2.5,1.1-2.4,2.2-2.4,2.3.9,2.3,2.4,0,.3,0,.4h-3.4c0,.7.6,1.2,1.3,1.2s1-.4,1.2-.8l.9.3h0ZM268.8,182.4c0-.5-.4-1-1.1-1s-1.1.5-1.1,1h2.3,0Z"/>
          <path class="cls-2" d="M270.2,186.7v-.9h1.1v-7.3h-1.1v-.9h2v9h-2Z"/>
          <path class="cls-2" d="M276.1,182.6c-.5,0-1,.2-1,.9v1.3c0,1.2-.7,1.8-1.8,1.8h-.2v-.8h.2c.6,0,.9-.3.9-.9v-1.6c0-.6.4-1,1-1.2-.6-.1-1-.6-1-1.2v-1.6c0-.7-.3-.9-.9-.9h-.2v-.8h.2c1.1,0,1.8.6,1.8,1.8v1.3c0,.7.5.9,1,.9v.9h0Z"/>
          <path class="cls-2" d="M278.6,180v.6h1.1v1h-1.1v3.7h-1.1v-3.7h-.8v-1h.8v-.6c0-1,.7-1.7,1.6-1.7s.5,0,.6,0v.9h-.4c-.2,0-.7.1-.7.7h0Z"/>
          <path class="cls-2" d="M282.2,185.3c-1.1,0-1.7-.8-1.7-1.8v-2.9h1.1v2.7c0,.6.3,1.1.9,1.1s1-.4,1-1v-2.7h1.1v4.6h-1.1v-.5c-.2.4-.8.6-1.3.6h0Z"/>
          <path class="cls-2" d="M287,185.2h-1.1v-4.6h1.1v.6c.3-.5.9-.7,1.4-.7,1.1,0,1.7.8,1.7,1.8v2.9h-1.1v-2.7c0-.6-.3-1-.9-1s-1,.5-1,1.1v2.7h-.1Z"/>
          <path class="cls-2" d="M292.1,182.9c0,.9.6,1.4,1.3,1.4s1.1-.5,1.2-.9l1,.4c-.2.7-.9,1.5-2.1,1.5s-2.4-1.1-2.4-2.5,1-2.4,2.4-2.4,1.9.8,2.1,1.5l-1,.4c-.1-.4-.4-.9-1.1-.9s-1.3.5-1.3,1.4h-.1Z"/>
          <path class="cls-2" d="M297.9,180.6h1v1h-1v2.1c0,.4.2.6.6.6h.4v.9s-.3.1-.7.1c-.9,0-1.4-.5-1.4-1.4v-2.3h-.9v-1h.2c.5,0,.7-.3.7-.7v-.7h1v1.4h0Z"/>
          <path class="cls-2" d="M300.5,178.2c.4,0,.7.3.7.7s-.3.7-.7.7-.7-.3-.7-.7.3-.7.7-.7ZM300,185.2v-4.6h1.1v4.6h-1.1Z"/>
          <path class="cls-2" d="M306.9,182.9c0,1.4-1,2.5-2.4,2.5s-2.4-1-2.4-2.5,1-2.4,2.4-2.4,2.4,1,2.4,2.4ZM305.8,182.9c0-1-.6-1.4-1.3-1.4s-1.3.5-1.3,1.4.6,1.5,1.3,1.5,1.3-.5,1.3-1.5Z"/>
          <path class="cls-2" d="M309.1,185.2h-1.1v-4.6h1.1v.6c.3-.5.9-.7,1.4-.7,1.1,0,1.7.8,1.7,1.8v2.9h-1.1v-2.7c0-.6-.3-1-.9-1s-1,.5-1,1.1v2.7h-.1Z"/>
          <path class="cls-2" d="M316.2,182.9c0,.9.6,1.4,1.3,1.4s1.1-.5,1.2-.9l1,.4c-.2.7-.9,1.5-2.1,1.5s-2.4-1.1-2.4-2.5,1-2.4,2.4-2.4,1.9.8,2.1,1.5l-1,.4c-.1-.4-.4-.9-1.1-.9s-1.3.5-1.3,1.4h-.1Z"/>
          <path class="cls-2" d="M321.7,185.2h-1.1v-6.9h1.1v2.7c.3-.4.8-.6,1.3-.6,1.1,0,1.7.8,1.7,1.8v2.9h-1.1v-2.7c0-.6-.3-1-.9-1s-.9.5-1,1v2.7h0Z"/>
          <path class="cls-2" d="M327.6,185.3c-1.1,0-1.7-.8-1.7-1.8v-2.9h1.1v2.7c0,.6.3,1.1.9,1.1s1-.4,1-1v-2.7h1.1v4.6h-1.1v-.5c-.2.4-.8.6-1.3.6h0Z"/>
          <path class="cls-2" d="M332.5,185.2h-1.1v-4.6h1.1v.6c.3-.5.9-.7,1.4-.7,1.1,0,1.7.8,1.7,1.8v2.9h-1.1v-2.7c0-.6-.3-1-.9-1s-1,.5-1,1.1v2.7h-.1Z"/>
          <path class="cls-2" d="M339.3,182.5l1.9,2.7h-1.3l-1.4-1.9-.6.6v1.3h-1.1v-6.9h1.1v4.1l1.8-1.9h1.5l-1.9,1.9h0Z"/>
          <path class="cls-2" d="M345.7,177.5l.6.6c-1,1.1-1.6,2.3-1.6,4s.6,3,1.6,4l-.6.6c-1.1-1.1-1.9-2.5-1.9-4.6s.8-3.6,1.9-4.6Z"/>
          <path class="cls-2" d="M348.1,182.5l1.2-.2c.3,0,.3-.2.3-.3,0-.4-.3-.7-.9-.7s-.9.4-.9.8l-1-.2c0-.8.8-1.5,1.9-1.5s2,.8,2,1.7v3h-1v-.6c-.2.4-.7.7-1.4.7s-1.6-.7-1.6-1.4.6-1.3,1.4-1.4h0ZM349.7,183.3v-.2l-1.2.2c-.3,0-.6.2-.6.6s.2.6.7.6,1.1-.3,1.1-1.2h0Z"/>
          <path class="cls-2" d="M354.8,181.7h-.4c-.9,0-1.2.5-1.2,1.4v2.2h-1.1v-4.6h1.1v.7c.2-.5.7-.8,1.3-.8s.2,0,.3,0v1.1h0Z"/>
          <path class="cls-2" d="M358.4,181.7h-.4c-.9,0-1.2.5-1.2,1.4v2.2h-1.1v-4.6h1.1v.7c.2-.5.7-.8,1.3-.8s.2,0,.3,0v1.1h0Z"/>
          <path class="cls-2" d="M360.4,182.5l1.2-.2c.3,0,.3-.2.3-.3,0-.4-.3-.7-.9-.7s-.9.4-.9.8l-1-.2c0-.8.8-1.5,1.9-1.5s2,.8,2,1.7v3h-1v-.6c-.2.4-.7.7-1.4.7s-1.6-.7-1.6-1.4.6-1.3,1.4-1.4h0ZM361.9,183.3v-.2l-1.2.2c-.3,0-.6.2-.6.6s.2.6.7.6,1.1-.3,1.1-1.2h0Z"/>
          <path class="cls-2" d="M364.5,187l1.1-2.4-2-4.1h1.2l1.3,2.9,1.2-2.9h1.2l-2.9,6.5h-1.2,0Z"/>
          <path class="cls-2" d="M369.1,183.8c.5,0,.9.4.9,1,0,1.3-.9,1.9-1.5,2v-.6c.4,0,.8-.5.8-1h-.2c-.4,0-.7-.3-.7-.7s.3-.7.8-.7h0Z"/>
          <path class="cls-2" d="M162,195c0,.4.4.8.9.8s.7-.2.7-.5-.2-.4-.5-.5l-.7-.2c-.8-.2-1.2-.7-1.2-1.3s.7-1.5,1.7-1.5,1.7.8,1.8,1.3l-.9.3c0-.3-.2-.7-.9-.7s-.7.2-.7.5.2.4.5.5h.7c.9.3,1.3.9,1.3,1.5s-.6,1.5-1.7,1.5-1.8-.9-1.9-1.4l1-.3h-.1Z"/>
          <path class="cls-2" d="M166.3,189.6c.4,0,.7.3.7.7s-.3.7-.7.7-.7-.3-.7-.7.3-.7.7-.7ZM165.8,196.5v-4.6h1.1v4.6h-1.1Z"/>
          <path class="cls-2" d="M168,196.5v-1l2.3-2.7h-2.3v-1h3.7v.9l-2.4,2.7h2.4v1h-3.8.1Z"/>
          <path class="cls-2" d="M176.9,195.2c-.2.8-1,1.5-2.1,1.5s-2.4-.9-2.4-2.5,1.1-2.4,2.2-2.4,2.3.9,2.3,2.4,0,.3,0,.4h-3.4c0,.7.6,1.2,1.3,1.2s1-.4,1.2-.8l.9.3h0ZM175.8,193.7c0-.5-.4-1-1.1-1s-1.1.5-1.1,1h2.3,0Z"/>
          <path class="cls-2" d="M184.1,193.3v-.9h4.5v.9h-4.5ZM184.1,195.2v-.9h4.5v.9h-4.5Z"/>
          <path class="cls-2" d="M197.1,196.5v-4.2h-1.5v-.8c.9,0,1.5-.5,1.6-1.2h1v6.1h-1.1Z"/>
          <path class="cls-2" d="M199.6,198.1l-.6-.6c1-1.1,1.6-2.3,1.6-4s-.6-3-1.6-4l.6-.6c1.1,1.1,1.9,2.5,1.9,4.6s-.8,3.6-1.9,4.6Z"/>
          <path class="cls-2" d="M208.7,193c.5,0,1-.2,1-.9v-1.3c0-1.2.7-1.8,1.8-1.8h.2v.8h-.2c-.6,0-.9.3-.9.9v1.6c0,.6-.4,1-1,1.2.6.1,1,.6,1,1.2v1.6c0,.7.3.9.9.9h.2v.8h-.2c-1.1,0-1.8-.6-1.8-1.8v-1.3c0-.7-.5-.9-1-.9v-.9h0Z"/>
          <path class="cls-2" d="M212.9,195c0,.4.4.8.9.8s.7-.2.7-.5-.2-.4-.5-.5l-.7-.2c-.8-.2-1.2-.7-1.2-1.3s.7-1.5,1.7-1.5,1.7.8,1.8,1.3l-.9.3c0-.3-.2-.7-.9-.7s-.7.2-.7.5.2.4.5.5h.7c.9.3,1.3.9,1.3,1.5s-.6,1.5-1.7,1.5-1.8-.9-1.9-1.4l1-.3h-.1Z"/>
          <path class="cls-2" d="M217.2,189.6c.4,0,.7.3.7.7s-.3.7-.7.7-.7-.3-.7-.7.3-.7.7-.7ZM216.7,196.5v-4.6h1.1v4.6h-1.1Z"/>
          <path class="cls-2" d="M218.8,196.5v-1l2.3-2.7h-2.3v-1h3.7v.9l-2.4,2.7h2.4v1h-3.8.1Z"/>
          <path class="cls-2" d="M227.7,195.2c-.2.8-1,1.5-2.1,1.5s-2.4-.9-2.4-2.5,1.1-2.4,2.2-2.4,2.3.9,2.3,2.4,0,.3,0,.4h-3.4c0,.7.6,1.2,1.3,1.2s1-.4,1.2-.8l.9.3h0ZM226.7,193.7c0-.5-.4-1-1.1-1s-1.1.5-1.1,1h2.3,0Z"/>
          <path class="cls-2" d="M234.9,193.3v-.9h4.5v.9h-4.5ZM234.9,195.2v-.9h4.5v.9h-4.5Z"/>
          <path class="cls-2" d="M253.3,196.5v-4.9l-2.1,4.9h-1l-2.1-4.9v4.9h-1.1v-6.7h1.5l2.2,5.1,2.1-5.1h1.5v6.7h-1.1.1Z"/>
          <path class="cls-2" d="M257,193.9l1.2-.2c.3,0,.3-.2.3-.3,0-.4-.3-.7-.9-.7s-.9.4-.9.8l-1-.2c0-.8.8-1.5,1.9-1.5s2,.8,2,1.7v3h-1v-.6c-.2.4-.7.7-1.4.7s-1.6-.7-1.6-1.4.6-1.3,1.4-1.4h0ZM258.5,194.6v-.2l-1.2.2c-.3,0-.6.2-.6.6s.2.6.7.6,1.1-.3,1.1-1.2h0Z"/>
          <path class="cls-2" d="M262.3,191.9h1v1h-1v2.1c0,.4.2.6.6.6h.4v.9s-.3.1-.7.1c-.9,0-1.4-.5-1.4-1.4v-2.3h-.9v-1h.2c.5,0,.7-.3.7-.7v-.7h1v1.4h0Z"/>
          <path class="cls-2" d="M265.4,196.5h-1.1v-6.9h1.1v2.7c.3-.4.8-.6,1.3-.6,1.1,0,1.7.8,1.7,1.8v2.9h-1.1v-2.7c0-.6-.3-1-.9-1s-.9.5-1,1v2.7h0Z"/>
          <path class="cls-2" d="M270.4,195.1c.4,0,.8.4.8.8s-.4.8-.8.8-.8-.3-.8-.8.3-.8.8-.8Z"/>
          <path class="cls-2" d="M272.5,196.5v-4.6h1.1v.6c.3-.5.8-.7,1.4-.7s1.1.3,1.4.8c.4-.6.9-.8,1.5-.8s1.6.5,1.6,1.8v3h-1.1v-2.8c0-.5-.3-.9-.9-.9s-1,.5-1,1v2.7h-1.1v-2.8c0-.5-.3-.9-.9-.9s-1,.4-1,1v2.7h-1.1.1Z"/>
          <path class="cls-2" d="M281.9,193.9l1.2-.2c.3,0,.3-.2.3-.3,0-.4-.3-.7-.9-.7s-.9.4-.9.8l-1-.2c0-.8.8-1.5,1.9-1.5s2,.8,2,1.7v3h-1v-.6c-.2.4-.7.7-1.4.7s-1.6-.7-1.6-1.4.6-1.3,1.4-1.4h0ZM283.4,194.6v-.2l-1.2.2c-.3,0-.6.2-.6.6s.2.6.7.6,1.1-.3,1.1-1.2h0Z"/>
          <path class="cls-2" d="M286.9,194.2l-1.6-2.3h1.3c0,.1.9,1.3,1,1.5l1-1.5h1.2l-1.6,2.3,1.7,2.3h-1.3l-1.1-1.5c0,.1-1,1.4-1,1.5h-1.3l1.7-2.3h0Z"/>
          <path class="cls-2" d="M298.5,188.9l.6.6c-1,1.1-1.6,2.3-1.6,4s.6,3,1.6,4l-.6.6c-1.1-1.1-1.9-2.5-1.9-4.6s.8-3.6,1.9-4.6Z"/>
          <path class="cls-2" d="M301.2,191.9h1v1h-1v2.1c0,.4.2.6.6.6h.4v.9s-.3.1-.7.1c-.9,0-1.4-.5-1.4-1.4v-2.3h-.9v-1h.2c.5,0,.7-.3.7-.7v-.7h1v1.4h0Z"/>
          <path class="cls-2" d="M307.7,194.2c0,1.4-1,2.5-2.4,2.5s-2.4-1-2.4-2.5,1-2.4,2.4-2.4,2.4,1,2.4,2.4ZM306.6,194.2c0-1-.6-1.4-1.3-1.4s-1.3.5-1.3,1.4.6,1.5,1.3,1.5,1.3-.5,1.3-1.5Z"/>
          <path class="cls-2" d="M308.8,196.5v-6.7h1.2v6.7h-1.2Z"/>
          <path class="cls-2" d="M312.6,196.5h-1.1v-4.6h1.1v.6c.3-.5.9-.7,1.4-.7,1.1,0,1.7.8,1.7,1.8v2.9h-1.1v-2.7c0-.6-.3-1-.9-1s-1,.5-1,1.1v2.7h-.1Z"/>
          <path class="cls-2" d="M318.3,191.9h1v1h-1v2.1c0,.4.2.6.6.6h.4v.9s-.3.1-.7.1c-.9,0-1.4-.5-1.4-1.4v-2.3h-.9v-1h.2c.5,0,.7-.3.7-.7v-.7h1v1.4h0Z"/>
          <path class="cls-2" d="M324.4,195.2c-.2.8-1,1.5-2.1,1.5s-2.4-.9-2.4-2.5,1.1-2.4,2.2-2.4,2.3.9,2.3,2.4,0,.3,0,.4h-3.4c0,.7.6,1.2,1.3,1.2s1-.4,1.2-.8l.9.3h0ZM323.4,193.7c0-.5-.4-1-1.1-1s-1.1.5-1.1,1h2.3,0Z"/>
          <path class="cls-2" d="M326.2,196.5c0,.6.5,1,1.2,1s1.3-.4,1.3-1.4v-.5c-.2.4-.7.7-1.3.7-1.2,0-2.1-.9-2.1-2.2s.9-2.2,2.1-2.2,1.2.3,1.4.7v-.6h1.1v4.2c0,1.2-.6,2.4-2.4,2.4s-2.1-.8-2.2-1.7l1-.3h-.1ZM328.7,194.1c0-.8-.5-1.3-1.2-1.3s-1.2.5-1.2,1.3.5,1.3,1.2,1.3,1.2-.5,1.2-1.3Z"/>
          <path class="cls-2" d="M335.2,195.2c-.2.8-1,1.5-2.1,1.5s-2.4-.9-2.4-2.5,1.1-2.4,2.2-2.4,2.3.9,2.3,2.4,0,.3,0,.4h-3.4c0,.7.6,1.2,1.3,1.2s1-.4,1.2-.8l.9.3h0ZM334.2,193.7c0-.5-.4-1-1.1-1s-1.1.5-1.1,1h2.3,0Z"/>
          <path class="cls-2" d="M339,193h-.4c-.9,0-1.2.5-1.2,1.4v2.2h-1.1v-4.6h1.1v.7c.2-.5.7-.8,1.3-.8s.2,0,.3,0v1.1h0Z"/>
          <path class="cls-2" d="M347.8,188.9l.6.6c-1,1.1-1.6,2.3-1.6,4s.6,3,1.6,4l-.6.6c-1.1-1.1-1.9-2.5-1.9-4.6s.8-3.6,1.9-4.6Z"/>
          <path class="cls-2" d="M349.6,195c0,.4.4.8.9.8s.7-.2.7-.5-.2-.4-.5-.5l-.7-.2c-.8-.2-1.2-.7-1.2-1.3s.7-1.5,1.7-1.5,1.7.8,1.8,1.3l-.9.3c0-.3-.2-.7-.9-.7s-.7.2-.7.5.2.4.5.5h.7c.9.3,1.3.9,1.3,1.5s-.6,1.5-1.7,1.5-1.8-.9-1.9-1.4l1-.3h0Z"/>
          <path class="cls-2" d="M353.9,189.6c.4,0,.7.3.7.7s-.3.7-.7.7-.7-.3-.7-.7.3-.7.7-.7ZM353.4,196.5v-4.6h1.1v4.6h-1.1Z"/>
          <path class="cls-2" d="M355.6,196.5v-1l2.3-2.7h-2.3v-1h3.7v.9l-2.4,2.7h2.4v1h-3.8,0Z"/>
          <path class="cls-2" d="M364.4,195.2c-.2.8-1,1.5-2.1,1.5s-2.4-.9-2.4-2.5,1.1-2.4,2.2-2.4,2.3.9,2.3,2.4,0,.3,0,.4h-3.4c0,.7.6,1.2,1.3,1.2s1-.4,1.2-.8l.9.3h0ZM363.4,193.7c0-.5-.4-1-1.1-1s-1.1.5-1.1,1h2.3,0Z"/>
          <path class="cls-2" d="M365.3,198.1l-.6-.6c1-1.1,1.6-2.3,1.6-4s-.6-3-1.6-4l.6-.6c1.1,1.1,1.9,2.5,1.9,4.6s-.8,3.6-1.9,4.6Z"/>
          <path class="cls-2" d="M369.1,195.1c.5,0,.9.4.9,1,0,1.3-.9,1.9-1.5,2v-.6c.4,0,.8-.5.8-1h-.2c-.4,0-.7-.3-.7-.7s.3-.7.8-.7h0Z"/>
          <path class="cls-2" d="M161.7,202.6c.4-.6,1-1,2-1s1.6.4,1.9,1c.4.6.5,1.4.5,2.2s-.1,1.6-.5,2.2c-.4.6-1,1-1.9,1s-1.6-.4-2-1-.5-1.4-.5-2.2.1-1.6.5-2.2ZM162.8,206.6c.2.3.5.5.9.5s.7-.2.9-.5c.3-.4.4-1,.4-1.8s-.1-1.4-.4-1.8c-.2-.3-.5-.5-.9-.5s-.7.2-.9.5c-.3.4-.4,1-.4,1.8s.1,1.4.4,1.8Z"/>
          <path class="cls-2" d="M167.1,209.5l-.6-.6c1-1.1,1.6-2.3,1.6-4s-.6-3-1.6-4l.6-.6c1.1,1.1,1.9,2.5,1.9,4.6s-.8,3.6-1.9,4.6Z"/>
          <path class="cls-2" d="M170.9,205.6c0,.9.6,1.4,1.3,1.4s1.1-.5,1.2-.9l1,.4c-.2.7-.9,1.5-2.1,1.5s-2.4-1.1-2.4-2.5,1-2.4,2.4-2.4,1.9.8,2.1,1.5l-1,.4c-.1-.4-.4-.9-1.1-.9s-1.3.5-1.3,1.4h0Z"/>
          <path class="cls-2" d="M179.6,205.6c0,1.4-1,2.5-2.4,2.5s-2.4-1-2.4-2.5,1-2.4,2.4-2.4,2.4,1,2.4,2.4ZM178.5,205.6c0-1-.6-1.4-1.3-1.4s-1.3.5-1.3,1.4.6,1.5,1.3,1.5,1.3-.5,1.3-1.5Z"/>
          <path class="cls-2" d="M181.8,207.9h-1.1v-4.6h1.1v.6c.3-.5.9-.7,1.4-.7,1.1,0,1.7.8,1.7,1.8v2.9h-1.1v-2.7c0-.6-.3-1-.9-1s-1,.5-1,1.1v2.7h0Z"/>
          <path class="cls-2" d="M186.7,206.4c0,.4.4.8.9.8s.7-.2.7-.5-.2-.4-.5-.5l-.7-.2c-.8-.2-1.2-.7-1.2-1.3s.7-1.5,1.7-1.5,1.7.8,1.8,1.3l-.9.3c0-.3-.2-.7-.9-.7s-.7.2-.7.5.2.4.5.5h.7c.9.3,1.3.9,1.3,1.5s-.6,1.5-1.7,1.5-1.8-.9-1.9-1.4l1-.3h-.1Z"/>
          <path class="cls-2" d="M191.9,203.3h1v1h-1v2.1c0,.4.2.6.6.6s.3,0,.4,0v.9s-.3.1-.7.1c-.9,0-1.4-.5-1.4-1.4v-2.3h-.9v-1h.2c.5,0,.7-.3.7-.7v-.7h1v1.4h0Z"/>
          <path class="cls-2" d="M196.3,207.9v-6.9h1.1v6.9h-1.1Z"/>
          <path class="cls-2" d="M202.9,206.6c-.2.8-1,1.5-2.1,1.5s-2.4-.9-2.4-2.5,1.1-2.4,2.2-2.4,2.3.9,2.3,2.4,0,.3,0,.4h-3.4c0,.7.6,1.2,1.3,1.2s1-.4,1.2-.8l.9.3h0ZM201.8,205.1c0-.5-.4-1-1.1-1s-1.1.5-1.1,1h2.3,0Z"/>
          <path class="cls-2" d="M205.1,207.9h-1.1v-4.6h1.1v.6c.3-.5.9-.7,1.4-.7,1.1,0,1.7.8,1.7,1.8v2.9h-1.1v-2.7c0-.6-.3-1-.9-1s-1,.5-1,1.1v2.7h0Z"/>
          <path class="cls-2" d="M210.1,207.9c0,.6.5,1,1.2,1s1.3-.4,1.3-1.4v-.5c-.2.4-.7.7-1.3.7-1.2,0-2.1-.9-2.1-2.2s.9-2.2,2.1-2.2,1.2.3,1.4.7v-.6h1.1v4.2c0,1.2-.6,2.4-2.4,2.4s-2.1-.8-2.2-1.7l1-.3h-.1ZM212.6,205.4c0-.8-.5-1.3-1.2-1.3s-1.2.5-1.2,1.3.5,1.3,1.2,1.3,1.2-.5,1.2-1.3Z"/>
          <path class="cls-2" d="M216.4,203.3h1v1h-1v2.1c0,.4.2.6.6.6s.3,0,.4,0v.9s-.3.1-.7.1c-.9,0-1.4-.5-1.4-1.4v-2.3h-.9v-1h.2c.5,0,.7-.3.7-.7v-.7h1v1.4h0Z"/>
          <path class="cls-2" d="M219.4,207.9h-1.1v-6.9h1.1v2.7c.3-.4.8-.6,1.3-.6,1.1,0,1.7.8,1.7,1.8v2.9h-1.1v-2.7c0-.6-.3-1-.9-1s-.9.5-1,1v2.7h0Z"/>
          <path class="cls-2" d="M226,204.7v-.9h4.5v.9h-4.5ZM226,206.5v-.9h4.5v.9h-4.5Z"/>
          <path class="cls-2" d="M235.2,205.3l1.2-.2c.3,0,.3-.2.3-.3,0-.4-.3-.7-.9-.7s-.9.4-.9.8l-1-.2c0-.8.8-1.5,1.9-1.5s2,.8,2,1.7v3h-1v-.6c-.2.4-.7.7-1.4.7s-1.6-.7-1.6-1.4.6-1.3,1.4-1.4h0ZM236.7,206v-.2l-1.2.2c-.3,0-.6.2-.6.6s.2.6.7.6,1.1-.3,1.1-1.2h0Z"/>
          <path class="cls-2" d="M241.8,204.4h-.4c-.9,0-1.2.5-1.2,1.4v2.2h-1.1v-4.6h1.1v.7c.2-.5.7-.8,1.3-.8s.2,0,.3,0v1.1h0Z"/>
          <path class="cls-2" d="M245.5,204.4h-.4c-.9,0-1.2.5-1.2,1.4v2.2h-1.1v-4.6h1.1v.7c.2-.5.7-.8,1.3-.8s.2,0,.3,0v1.1h0Z"/>
          <path class="cls-2" d="M247.5,205.3l1.2-.2c.3,0,.3-.2.3-.3,0-.4-.3-.7-.9-.7s-.9.4-.9.8l-1-.2c0-.8.8-1.5,1.9-1.5s2,.8,2,1.7v3h-1v-.6c-.2.4-.7.7-1.4.7s-1.6-.7-1.6-1.4.6-1.3,1.4-1.4h0ZM249,206v-.2l-1.2.2c-.3,0-.6.2-.6.6s.2.6.7.6,1.1-.3,1.1-1.2h0Z"/>
          <path class="cls-2" d="M251.5,209.8l1.1-2.4-2-4.1h1.2l1.3,2.9,1.2-2.9h1.2l-2.9,6.5h-1.2,0Z"/>
          <path class="cls-2" d="M258.7,204.7v-.9h4.5v.9h-4.5ZM258.7,206.5v-.9h4.5v.9h-4.5Z"/>
          <path class="cls-2" d="M264.3,204.7v-.9h4.5v.9h-4.5ZM264.3,206.5v-.9h4.5v.9h-4.5Z"/>
          <path class="cls-2" d="M273.6,207.9h-1.1v-4.6h1.1v.6c.3-.5.9-.7,1.4-.7,1.1,0,1.7.8,1.7,1.8v2.9h-1.1v-2.7c0-.6-.3-1-.9-1s-1,.5-1,1.1v2.7h-.1Z"/>
          <path class="cls-2" d="M279.5,208c-1.1,0-1.7-.8-1.7-1.8v-2.9h1.1v2.7c0,.6.3,1.1.9,1.1s1-.4,1-1v-2.7h1.1v4.6h-1.1v-.5c-.2.4-.8.6-1.3.6h0Z"/>
          <path class="cls-2" d="M283.3,207.9v-6.9h1.1v6.9h-1.1Z"/>
          <path class="cls-2" d="M285.8,207.9v-6.9h1.1v6.9h-1.1Z"/>
          <path class="cls-2" d="M291.8,205.9v-.4c0-.6.2-1,.8-1.4l.4-.3c.3-.2.4-.5.4-.8,0-.5-.3-1-1-1s-1.1.5-1.1,1.1,0,.3,0,.4h-1.1v-.5c0-.9.7-2,2.1-2s2.2.9,2.2,1.9-.4,1.3-.9,1.7l-.4.3c-.3.2-.5.5-.5.9s0,0,0,.1h-.9ZM292.3,206.6c.4,0,.7.3.7.7s-.3.7-.7.7-.7-.3-.7-.7.3-.7.7-.7Z"/>
          <path class="cls-2" d="M298.2,202.6c.4-.6,1-1,2-1s1.6.4,1.9,1c.4.6.5,1.4.5,2.2s-.1,1.6-.5,2.2c-.4.6-1,1-1.9,1s-1.6-.4-2-1-.5-1.4-.5-2.2.1-1.6.5-2.2ZM299.2,206.6c.2.3.5.5.9.5s.7-.2.9-.5c.3-.4.4-1,.4-1.8s-.1-1.4-.4-1.8c-.2-.3-.5-.5-.9-.5s-.7.2-.9.5c-.3.4-.4,1-.4,1.8s.1,1.4.4,1.8Z"/>
          <path class="cls-2" d="M306.9,203.2c.4,0,.8.3.8.8s-.4.8-.8.8-.8-.3-.8-.8.3-.8.8-.8ZM306.9,206.4c.4,0,.8.3.8.8s-.4.8-.8.8-.8-.3-.8-.8.3-.8.8-.8Z"/>
          <path class="cls-2" d="M312.5,205.3l1.2-.2c.3,0,.3-.2.3-.3,0-.4-.3-.7-.9-.7s-.9.4-.9.8l-1-.2c0-.8.8-1.5,1.9-1.5s2,.8,2,1.7v3h-1v-.6c-.2.4-.7.7-1.4.7s-1.6-.7-1.6-1.4.6-1.3,1.4-1.4h0ZM314,206v-.2l-1.2.2c-.3,0-.6.2-.6.6s.2.6.7.6,1.1-.3,1.1-1.2h0Z"/>
          <path class="cls-2" d="M319.1,204.4h-.4c-.9,0-1.2.5-1.2,1.4v2.2h-1.1v-4.6h1.1v.7c.2-.5.7-.8,1.3-.8s.2,0,.3,0v1.1h0Z"/>
          <path class="cls-2" d="M322.7,204.4h-.4c-.9,0-1.2.5-1.2,1.4v2.2h-1.1v-4.6h1.1v.7c.2-.5.7-.8,1.3-.8s.2,0,.3,0v1.1h0Z"/>
          <path class="cls-2" d="M324.7,205.3l1.2-.2c.3,0,.3-.2.3-.3,0-.4-.3-.7-.9-.7s-.9.4-.9.8l-1-.2c0-.8.8-1.5,1.9-1.5s2,.8,2,1.7v3h-1v-.6c-.2.4-.7.7-1.4.7s-1.6-.7-1.6-1.4.6-1.3,1.4-1.4h0ZM326.3,206v-.2l-1.2.2c-.3,0-.6.2-.6.6s.2.6.7.6,1.1-.3,1.1-1.2h0Z"/>
          <path class="cls-2" d="M328.8,209.8l1.1-2.4-2-4.1h1.2l1.3,2.9,1.2-2.9h1.2l-2.9,6.5h-1.2,0Z"/>
          <path class="cls-2" d="M333.4,206.4c.4,0,.8.4.8.8s-.4.8-.8.8-.8-.3-.8-.8.3-.8.8-.8Z"/>
          <path class="cls-2" d="M337.9,207.9v-6.9h1.1v6.9h-1.1Z"/>
          <path class="cls-2" d="M344.5,206.6c-.2.8-1,1.5-2.1,1.5s-2.4-.9-2.4-2.5,1.1-2.4,2.2-2.4,2.3.9,2.3,2.4,0,.3,0,.4h-3.4c0,.7.6,1.2,1.3,1.2s1-.4,1.2-.8l.9.3h0ZM343.4,205.1c0-.5-.4-1-1.1-1s-1.1.5-1.1,1h2.3,0Z"/>
          <path class="cls-2" d="M346.7,207.9h-1.1v-4.6h1.1v.6c.3-.5.9-.7,1.4-.7,1.1,0,1.7.8,1.7,1.8v2.9h-1.1v-2.7c0-.6-.3-1-.9-1s-1,.5-1,1.1v2.7h-.1Z"/>
          <path class="cls-2" d="M351.7,207.9c0,.6.5,1,1.2,1s1.3-.4,1.3-1.4v-.5c-.2.4-.7.7-1.3.7-1.2,0-2.1-.9-2.1-2.2s.9-2.2,2.1-2.2,1.2.3,1.4.7v-.6h1.1v4.2c0,1.2-.6,2.4-2.4,2.4s-2.1-.8-2.2-1.7l1-.3h-.1ZM354.2,205.4c0-.8-.5-1.3-1.2-1.3s-1.2.5-1.2,1.3.5,1.3,1.2,1.3,1.2-.5,1.2-1.3Z"/>
          <path class="cls-2" d="M358,203.3h1v1h-1v2.1c0,.4.2.6.6.6h.4v.9s-.3.1-.7.1c-.9,0-1.4-.5-1.4-1.4v-2.3h-.9v-1h.2c.5,0,.7-.3.7-.7v-.7h1v1.4h0Z"/>
          <path class="cls-2" d="M361,207.9h-1.1v-6.9h1.1v2.7c.3-.4.8-.6,1.3-.6,1.1,0,1.7.8,1.7,1.8v2.9h-1.1v-2.7c0-.6-.3-1-.9-1s-.9.5-1,1v2.7h0Z"/>
          <path class="cls-2" d="M365.9,201c.4,0,.7.3.7.7s-.3.7-.7.7-.7-.3-.7-.7.3-.7.7-.7ZM365.4,207.9v-4.6h1.1v4.6h-1.1Z"/>
          <path class="cls-2" d="M369.2,202.7v.6h1.1v1h-1.1v3.7h-1.1v-3.7h-.8v-1h.8v-.6c0-1,.7-1.7,1.6-1.7s.5,0,.6,0v.9h-.4c-.2,0-.7.1-.7.7h0Z"/>
          <path class="cls-2" d="M163.1,211.6l.6.6c-1,1.1-1.6,2.3-1.6,4s.6,3,1.6,4l-.6.6c-1.1-1.1-1.9-2.5-1.9-4.6s.8-3.6,1.9-4.6Z"/>
          <path class="cls-2" d="M165.3,217.9c.4,0,.7.3.7.7s-.3.7-.7.7-.7-.3-.7-.7.3-.7.7-.7ZM165.7,217.3h-.8l-.3-4.7h1.3l-.3,4.7h.1Z"/>
          <path class="cls-2" d="M167.5,219.3v-6.9h1.1v6.9h-1.1Z"/>
          <path class="cls-2" d="M174.1,217.9c-.2.8-1,1.5-2.1,1.5s-2.4-.9-2.4-2.5,1.1-2.4,2.2-2.4,2.3.9,2.3,2.4,0,.3,0,.4h-3.4c0,.7.6,1.2,1.3,1.2s1-.4,1.2-.8l.9.3h0ZM173.1,216.4c0-.5-.4-1-1.1-1s-1.1.5-1.1,1h2.3,0Z"/>
          <path class="cls-2" d="M176.3,219.3h-1.1v-4.6h1.1v.6c.3-.5.9-.7,1.4-.7,1.1,0,1.7.8,1.7,1.8v2.9h-1.1v-2.7c0-.6-.3-1-.9-1s-1,.5-1,1.1v2.7h0Z"/>
          <path class="cls-2" d="M181.4,219.3c0,.6.5,1,1.2,1s1.3-.4,1.3-1.4v-.5c-.2.4-.7.7-1.3.7-1.2,0-2.1-.9-2.1-2.2s.9-2.2,2.1-2.2,1.2.3,1.4.7v-.6h1.1v4.2c0,1.2-.6,2.4-2.4,2.4s-2.1-.8-2.2-1.7l1-.3h-.1ZM183.9,216.8c0-.8-.5-1.3-1.2-1.3s-1.2.5-1.2,1.3.5,1.3,1.2,1.3,1.2-.5,1.2-1.3Z"/>
          <path class="cls-2" d="M187.6,214.7h1v1h-1v2.1c0,.4.2.6.6.6s.3,0,.4,0v.9s-.3.1-.7.1c-.9,0-1.4-.5-1.4-1.4v-2.3h-.9v-1h.2c.5,0,.7-.3.7-.7v-.7h1v1.4h0Z"/>
          <path class="cls-2" d="M190.7,219.3h-1.1v-6.9h1.1v2.7c.3-.4.8-.6,1.3-.6,1.1,0,1.7.8,1.7,1.8v2.9h-1.1v-2.7c0-.6-.3-1-.9-1s-.9.5-1,1v2.7h0Z"/>
          <path class="cls-2" d="M197.3,220.7v-9h.9v9h-.9Z"/>
          <path class="cls-2" d="M199.8,220.7v-9h.9v9h-.9Z"/>
          <path class="cls-2" d="M205,217.7c0,.4.4.8.9.8s.7-.2.7-.5-.2-.4-.5-.5l-.7-.2c-.8-.2-1.2-.7-1.2-1.3s.7-1.5,1.7-1.5,1.7.8,1.8,1.3l-.9.3c0-.3-.2-.7-.9-.7s-.7.2-.7.5.2.4.5.5h.7c.9.3,1.3.9,1.3,1.5s-.6,1.5-1.7,1.5-1.8-.9-1.9-1.4l1-.3h-.1Z"/>
          <path class="cls-2" d="M209.3,212.3c.4,0,.7.3.7.7s-.3.7-.7.7-.7-.3-.7-.7.3-.7.7-.7ZM208.8,219.3v-4.6h1.1v4.6h-1.1Z"/>
          <path class="cls-2" d="M210.9,219.3v-1l2.3-2.7h-2.3v-1h3.7v.9l-2.4,2.7h2.4v1h-3.8.1Z"/>
          <path class="cls-2" d="M219.8,217.9c-.2.8-1,1.5-2.1,1.5s-2.4-.9-2.4-2.5,1.1-2.4,2.2-2.4,2.3.9,2.3,2.4,0,.3,0,.4h-3.4c0,.7.6,1.2,1.3,1.2s1-.4,1.2-.8l.9.3h0ZM218.8,216.4c0-.5-.4-1-1.1-1s-1.1.5-1.1,1h2.3,0Z"/>
          <path class="cls-2" d="M222.7,216.1l4-2v1.1l-2.9,1.4,2.9,1.4v1.1l-4-2v-.9h0Z"/>
          <path class="cls-2" d="M231,219.3v-4.2h-1.5v-.8c.9,0,1.5-.5,1.6-1.2h1v6.1h-1.1Z"/>
          <path class="cls-2" d="M233.5,220.9l-.6-.6c1-1.1,1.6-2.3,1.6-4s-.6-3-1.6-4l.6-.6c1.1,1.1,1.9,2.5,1.9,4.6s-.8,3.6-1.9,4.6Z"/>
          <path class="cls-2" d="M238.4,215.7c.5,0,1-.2,1-.9v-1.3c0-1.2.7-1.8,1.8-1.8h.2v.8h-.2c-.6,0-.9.3-.9.9v1.6c0,.6-.4,1-1,1.2.6.1,1,.6,1,1.2v1.6c0,.7.3.9.9.9h.2v.8h-.2c-1.1,0-1.8-.6-1.8-1.8v-1.3c0-.7-.5-.9-1-.9v-.9h0Z"/>
          <path class="cls-2" d="M244.9,215.7h-.4c-.9,0-1.2.5-1.2,1.4v2.2h-1.1v-4.6h1.1v.7c.2-.5.7-.8,1.3-.8s.2,0,.3,0v1.1h0Z"/>
          <path class="cls-2" d="M249.8,217.9c-.2.8-1,1.5-2.1,1.5s-2.4-.9-2.4-2.5,1.1-2.4,2.2-2.4,2.3.9,2.3,2.4,0,.3,0,.4h-3.4c0,.7.6,1.2,1.3,1.2s1-.4,1.2-.8l.9.3h0ZM248.8,216.4c0-.5-.4-1-1.1-1s-1.1.5-1.1,1h2.3,0Z"/>
          <path class="cls-2" d="M252.3,214.7h1v1h-1v2.1c0,.4.2.6.6.6s.3,0,.4,0v.9s-.3.1-.7.1c-.9,0-1.4-.5-1.4-1.4v-2.3h-.9v-1h.2c.5,0,.7-.3.7-.7v-.7h1v1.4h0Z"/>
          <path class="cls-2" d="M256.1,219.4c-1.1,0-1.7-.8-1.7-1.8v-2.9h1.1v2.7c0,.6.3,1.1.9,1.1s1-.4,1-1v-2.7h1.1v4.6h-1.1v-.5c-.2.4-.8.6-1.3.6h0Z"/>
          <path class="cls-2" d="M262.6,215.7h-.4c-.9,0-1.2.5-1.2,1.4v2.2h-1.1v-4.6h1.1v.7c.2-.5.7-.8,1.3-.8s.2,0,.3,0v1.1h0Z"/>
          <path class="cls-2" d="M264.6,219.3h-1.1v-4.6h1.1v.6c.3-.5.9-.7,1.4-.7,1.1,0,1.7.8,1.7,1.8v2.9h-1.1v-2.7c0-.6-.3-1-.9-1s-1,.5-1,1.1v2.7h-.1Z"/>
          <path class="cls-2" d="M271.2,220.7v-9h2v.9h-1.1v7.3h1.1v.9h-2Z"/>
          <path class="cls-2" d="M273.3,220.7v-.9h1.1v-7.3h-1.1v-.9h2v9h-2Z"/>
          <path class="cls-2" d="M279.2,216.7c-.5,0-1,.2-1,.9v1.3c0,1.2-.7,1.8-1.8,1.8h-.2v-.8h.2c.6,0,.9-.3.9-.9v-1.6c0-.6.4-1,1-1.2-.6-.1-1-.6-1-1.2v-1.6c0-.7-.3-.9-.9-.9h-.2v-.8h.2c1.1,0,1.8.6,1.8,1.8v1.3c0,.7.5.9,1,.9v.9h0Z"/>
          <path class="cls-2" d="M280.3,219.3v-6.9h1.1v6.9h-1.1Z"/>
          <path class="cls-2" d="M286.9,217.9c-.2.8-1,1.5-2.1,1.5s-2.4-.9-2.4-2.5,1.1-2.4,2.2-2.4,2.3.9,2.3,2.4,0,.3,0,.4h-3.4c0,.7.6,1.2,1.3,1.2s1-.4,1.2-.8l.9.3h0ZM285.9,216.4c0-.5-.4-1-1.1-1s-1.1.5-1.1,1h2.3,0Z"/>
          <path class="cls-2" d="M289.4,214.7h1v1h-1v2.1c0,.4.2.6.6.6h.4v.9s-.3.1-.7.1c-.9,0-1.4-.5-1.4-1.4v-2.3h-.9v-1h.2c.5,0,.7-.3.7-.7v-.7h1v1.4h0Z"/>
          <path class="cls-2" d="M294.2,212.3c.4,0,.7.3.7.7s-.3.7-.7.7-.7-.3-.7-.7.3-.7.7-.7ZM293.7,219.3v-4.6h1.1v4.6h-1.1Z"/>
          <path class="cls-2" d="M297.3,219.3h-1.1v-4.6h1.1v.6c.3-.5.9-.7,1.4-.7,1.1,0,1.7.8,1.7,1.8v2.9h-1.1v-2.7c0-.6-.3-1-.9-1s-1,.5-1,1.1v2.7h-.1Z"/>
          <path class="cls-2" d="M305.9,218.4v.8h-1.1v-.6c-.2.4-.7.7-1.4.7-1.3,0-2.2-1-2.2-2.4s.9-2.4,2.2-2.4,1.2.4,1.4.7v-2.8h1.1v6ZM303.6,218.4c.7,0,1.2-.6,1.2-1.5s-.5-1.4-1.2-1.4-1.2.6-1.2,1.4.5,1.5,1.2,1.5Z"/>
          <path class="cls-2" d="M311.4,217.9c-.2.8-1,1.5-2.1,1.5s-2.4-.9-2.4-2.5,1.1-2.4,2.2-2.4,2.3.9,2.3,2.4,0,.3,0,.4h-3.4c0,.7.6,1.2,1.3,1.2s1-.4,1.2-.8l.9.3h0ZM310.3,216.4c0-.5-.4-1-1.1-1s-1.1.5-1.1,1h2.3,0Z"/>
          <path class="cls-2" d="M313.5,216.9l-1.6-2.3h1.3c0,.1.9,1.3,1,1.5l1-1.5h1.2l-1.6,2.3,1.7,2.3h-1.3l-1.1-1.5c0,.1-1,1.4-1,1.5h-1.3l1.7-2.3h0Z"/>
          <path class="cls-2" d="M319.3,216v-.9h4.5v.9h-4.5ZM319.3,217.9v-.9h4.5v.9h-4.5Z"/>
          <path class="cls-2" d="M327.5,214c.4-.6,1-1,2-1s1.6.4,1.9,1c.4.6.5,1.4.5,2.2s-.1,1.6-.5,2.2c-.4.6-1,1-1.9,1s-1.6-.4-2-1-.5-1.4-.5-2.2.1-1.6.5-2.2ZM328.6,217.9c.2.3.5.5.9.5s.7-.2.9-.5c.3-.4.4-1,.4-1.8s-.1-1.4-.4-1.8c-.2-.3-.5-.5-.9-.5s-.7.2-.9.5c-.3.4-.4,1-.4,1.8s.1,1.4.4,1.8Z"/>
          <path class="cls-2" d="M333.1,219.3v-6.9h1.1v6.9h-1.1Z"/>
          <path class="cls-2" d="M339.7,217.9c-.2.8-1,1.5-2.1,1.5s-2.4-.9-2.4-2.5,1.1-2.4,2.2-2.4,2.3.9,2.3,2.4,0,.3,0,.4h-3.4c0,.7.6,1.2,1.3,1.2s1-.4,1.2-.8l.9.3h0ZM338.7,216.4c0-.5-.4-1-1.1-1s-1.1.5-1.1,1h2.3,0Z"/>
          <path class="cls-2" d="M342.2,214.7h1v1h-1v2.1c0,.4.2.6.6.6h.4v.9s-.3.1-.7.1c-.9,0-1.4-.5-1.4-1.4v-2.3h-.9v-1h.2c.5,0,.7-.3.7-.7v-.7h1v1.4h0Z"/>
          <path class="cls-2" d="M349.2,215.7h-.4c-.9,0-1.2.5-1.2,1.4v2.2h-1.1v-4.6h1.1v.7c.2-.5.7-.8,1.3-.8s.2,0,.3,0v1.1h0Z"/>
          <path class="cls-2" d="M354.1,217.9c-.2.8-1,1.5-2.1,1.5s-2.4-.9-2.4-2.5,1.1-2.4,2.2-2.4,2.3.9,2.3,2.4,0,.3,0,.4h-3.4c0,.7.6,1.2,1.3,1.2s1-.4,1.2-.8l.9.3h0ZM353.1,216.4c0-.5-.4-1-1.1-1s-1.1.5-1.1,1h2.3,0Z"/>
          <path class="cls-2" d="M355.8,217.7c0,.4.4.8.9.8s.7-.2.7-.5-.2-.4-.5-.5l-.7-.2c-.8-.2-1.2-.7-1.2-1.3s.7-1.5,1.7-1.5,1.7.8,1.8,1.3l-.9.3c0-.3-.2-.7-.9-.7s-.7.2-.7.5.2.4.5.5h.7c.9.3,1.3.9,1.3,1.5s-.6,1.5-1.7,1.5-1.8-.9-1.9-1.4l1-.3h0Z"/>
          <path class="cls-2" d="M359.6,219.3v-6.7h1.2v6.7h-1.2Z"/>
          <path class="cls-2" d="M363.4,219.3h-1.1v-4.6h1.1v.6c.3-.5.9-.7,1.4-.7,1.1,0,1.7.8,1.7,1.8v2.9h-1.1v-2.7c0-.6-.3-1-.9-1s-1,.5-1,1.1v2.7h-.1Z"/>
          <path class="cls-2" d="M367.5,217v-1h2.7v1h-2.7Z"/>
          <path class="cls-2" d="M165.7,229.8v.8h-1.1v-.6c-.2.4-.7.7-1.4.7-1.3,0-2.2-1-2.2-2.4s.9-2.4,2.2-2.4,1.2.4,1.4.7v-2.8h1.1v6ZM163.5,229.8c.7,0,1.2-.6,1.2-1.5s-.5-1.4-1.2-1.4-1.2.6-1.2,1.4.5,1.5,1.2,1.5Z"/>
          <path class="cls-2" d="M171.3,229.3c-.2.8-1,1.5-2.1,1.5s-2.4-.9-2.4-2.5,1.1-2.4,2.2-2.4,2.3.9,2.3,2.4,0,.3,0,.4h-3.4c0,.7.6,1.2,1.3,1.2s1-.4,1.2-.8l.9.3h0ZM170.2,227.8c0-.5-.4-1-1.1-1s-1.1.5-1.1,1h2.3,0Z"/>
          <path class="cls-2" d="M173.4,228.3l-1.6-2.3h1.3c0,.1.9,1.3,1,1.5l1-1.5h1.2l-1.6,2.3,1.7,2.3h-1.3l-1.1-1.5c0,.1-1,1.4-1,1.5h-1.3l1.7-2.3h0Z"/>
          <path class="cls-2" d="M180,227.4v-.9h4.5v.9h-4.5ZM180,229.2v-.9h4.5v.9h-4.5Z"/>
          <path class="cls-2" d="M188.9,225.3c.4-.6,1-1,2-1s1.6.4,1.9,1c.4.6.5,1.4.5,2.2s-.1,1.6-.5,2.2c-.4.6-1,1-1.9,1s-1.6-.4-2-1-.5-1.4-.5-2.2.1-1.6.5-2.2ZM189.9,229.3c.2.3.5.5.9.5s.7-.2.9-.5c.3-.4.4-1,.4-1.8s-.1-1.4-.4-1.8c-.2-.3-.5-.5-.9-.5s-.7.2-.9.5c-.3.4-.4,1-.4,1.8s.1,1.4.4,1.8Z"/>
          <path class="cls-2" d="M195.3,228.3c0,.9.6,1.4,1.3,1.4s1.1-.5,1.2-.9l1,.4c-.2.7-.9,1.5-2.1,1.5s-2.4-1.1-2.4-2.5,1-2.4,2.4-2.4,1.9.8,2.1,1.5l-1,.4c-.1-.4-.4-.9-1.1-.9s-1.3.5-1.3,1.4h0Z"/>
          <path class="cls-2" d="M204,228.3c0,1.4-1,2.5-2.4,2.5s-2.4-1-2.4-2.5,1-2.4,2.4-2.4,2.4,1,2.4,2.4ZM202.9,228.3c0-1-.6-1.4-1.3-1.4s-1.3.5-1.3,1.4.6,1.5,1.3,1.5,1.3-.5,1.3-1.5Z"/>
          <path class="cls-2" d="M206.2,230.6h-1.1v-4.6h1.1v.6c.3-.5.9-.7,1.4-.7,1.1,0,1.7.8,1.7,1.8v2.9h-1.1v-2.7c0-.6-.3-1-.9-1s-1,.5-1,1.1v2.7h0Z"/>
          <path class="cls-2" d="M211.1,229.1c0,.4.4.8.9.8s.7-.2.7-.5-.2-.4-.5-.5l-.7-.2c-.8-.2-1.2-.7-1.2-1.3s.7-1.5,1.7-1.5,1.7.8,1.8,1.3l-.9.3c0-.3-.2-.7-.9-.7s-.7.2-.7.5.2.4.5.5h.7c.9.3,1.3.9,1.3,1.5s-.6,1.5-1.7,1.5-1.8-.9-1.9-1.4l1-.3h-.1Z"/>
          <path class="cls-2" d="M216.2,226h1v1h-1v2.1c0,.4.2.6.6.6s.3,0,.4,0v.9s-.3.1-.7.1c-.9,0-1.4-.5-1.4-1.4v-2.3h-.9v-1h.2c.5,0,.7-.3.7-.7v-.7h1v1.4h0Z"/>
          <path class="cls-2" d="M223.9,227.1h-.4c-.9,0-1.2.5-1.2,1.4v2.2h-1.1v-4.6h1.1v.7c.2-.5.7-.8,1.3-.8s.2,0,.3,0v1.1h0Z"/>
          <path class="cls-2" d="M228.9,229.3c-.2.8-1,1.5-2.1,1.5s-2.4-.9-2.4-2.5,1.1-2.4,2.2-2.4,2.3.9,2.3,2.4,0,.3,0,.4h-3.4c0,.7.6,1.2,1.3,1.2s1-.4,1.2-.8l.9.3h0ZM227.8,227.8c0-.5-.4-1-1.1-1s-1.1.5-1.1,1h2.3,0Z"/>
          <path class="cls-2" d="M230.5,229.1c0,.4.4.8.9.8s.7-.2.7-.5-.2-.4-.5-.5l-.7-.2c-.8-.2-1.2-.7-1.2-1.3s.7-1.5,1.7-1.5,1.7.8,1.8,1.3l-.9.3c0-.3-.2-.7-.9-.7s-.7.2-.7.5.2.4.5.5h.7c.9.3,1.3.9,1.3,1.5s-.6,1.5-1.7,1.5-1.8-.9-1.9-1.4l1-.3h-.1Z"/>
          <path class="cls-2" d="M236,230.8c-1.1,0-1.7-.8-1.7-1.8v-2.9h1.1v2.7c0,.6.3,1.1.9,1.1s1-.4,1-1v-2.7h1.1v4.6h-1.1v-.5c-.2.4-.8.6-1.3.6h0Z"/>
          <path class="cls-2" d="M239.7,230.6v-6.9h1.1v6.9h-1.1Z"/>
          <path class="cls-2" d="M243.6,226h1v1h-1v2.1c0,.4.2.6.6.6s.3,0,.4,0v.9s-.3.1-.7.1c-.9,0-1.4-.5-1.4-1.4v-2.3h-.9v-1h.2c.5,0,.7-.3.7-.7v-.7h1v1.4h0Z"/>
          <path class="cls-2" d="M248.5,227.4v-.9h4.5v.9h-4.5ZM248.5,229.2v-.9h4.5v.9h-4.5Z"/>
          <path class="cls-2" d="M258.3,230.6h-1.1v-4.6h1.1v.6c.3-.5.9-.7,1.4-.7,1.1,0,1.7.8,1.7,1.8v2.9h-1.1v-2.7c0-.6-.3-1-.9-1s-1,.5-1,1.1v2.7h-.1Z"/>
          <path class="cls-2" d="M266.7,229.3c-.2.8-1,1.5-2.1,1.5s-2.4-.9-2.4-2.5,1.1-2.4,2.2-2.4,2.3.9,2.3,2.4,0,.3,0,.4h-3.4c0,.7.6,1.2,1.3,1.2s1-.4,1.2-.8l.9.3h0ZM265.7,227.8c0-.5-.4-1-1.1-1s-1.1.5-1.1,1h2.3,0Z"/>
          <path class="cls-2" d="M271.5,226l1.1,3.2.9-3.2h1.1l-1.5,4.6h-1.1l-1.1-3.3-1.1,3.3h-1.1l-1.5-4.6h1.2l.9,3.2,1.1-3.2h1.1Z"/>
          <path class="cls-2" d="M279.8,225.4v.6h1.1v1h-1.1v3.7h-1.1v-3.7h-.8v-1h.8v-.6c0-1,.7-1.7,1.6-1.7s.5,0,.6,0v.9h-.4c-.2,0-.7.1-.7.7h0Z"/>
          <path class="cls-2" d="M283.4,230.8c-1.1,0-1.7-.8-1.7-1.8v-2.9h1.1v2.7c0,.6.3,1.1.9,1.1s1-.4,1-1v-2.7h1.1v4.6h-1.1v-.5c-.2.4-.8.6-1.3.6h0Z"/>
          <path class="cls-2" d="M288.2,230.6h-1.1v-4.6h1.1v.6c.3-.5.9-.7,1.4-.7,1.1,0,1.7.8,1.7,1.8v2.9h-1.1v-2.7c0-.6-.3-1-.9-1s-1,.5-1,1.1v2.7h-.1Z"/>
          <path class="cls-2" d="M293.3,228.3c0,.9.6,1.4,1.3,1.4s1.1-.5,1.2-.9l1,.4c-.2.7-.9,1.5-2.1,1.5s-2.4-1.1-2.4-2.5,1-2.4,2.4-2.4,1.9.8,2.1,1.5l-1,.4c-.1-.4-.4-.9-1.1-.9s-1.3.5-1.3,1.4h-.1Z"/>
          <path class="cls-2" d="M299.1,226h1v1h-1v2.1c0,.4.2.6.6.6h.4v.9s-.3.1-.7.1c-.9,0-1.4-.5-1.4-1.4v-2.3h-.9v-1h.2c.5,0,.7-.3.7-.7v-.7h1v1.4h0Z"/>
          <path class="cls-2" d="M301.7,223.7c.4,0,.7.3.7.7s-.3.7-.7.7-.7-.3-.7-.7.3-.7.7-.7ZM301.2,230.6v-4.6h1.1v4.6h-1.1Z"/>
          <path class="cls-2" d="M308.1,228.3c0,1.4-1,2.5-2.4,2.5s-2.4-1-2.4-2.5,1-2.4,2.4-2.4,2.4,1,2.4,2.4ZM307,228.3c0-1-.6-1.4-1.3-1.4s-1.3.5-1.3,1.4.6,1.5,1.3,1.5,1.3-.5,1.3-1.5Z"/>
          <path class="cls-2" d="M310.3,230.6h-1.1v-4.6h1.1v.6c.3-.5.9-.7,1.4-.7,1.1,0,1.7.8,1.7,1.8v2.9h-1.1v-2.7c0-.6-.3-1-.9-1s-1,.5-1,1.1v2.7h-.1Z"/>
          <path class="cls-2" d="M318.3,228.3c0,.9.6,1.4,1.3,1.4s1.1-.5,1.2-.9l1,.4c-.2.7-.9,1.5-2.1,1.5s-2.4-1.1-2.4-2.5,1-2.4,2.4-2.4,1.9.8,2.1,1.5l-1,.4c-.1-.4-.4-.9-1.1-.9s-1.3.5-1.3,1.4h-.1Z"/>
          <path class="cls-2" d="M323.7,230.6h-1.1v-6.9h1.1v2.7c.3-.4.8-.6,1.3-.6,1.1,0,1.7.8,1.7,1.8v2.9h-1.1v-2.7c0-.6-.3-1-.9-1s-.9.5-1,1v2.7h0Z"/>
          <path class="cls-2" d="M329.7,230.8c-1.1,0-1.7-.8-1.7-1.8v-2.9h1.1v2.7c0,.6.3,1.1.9,1.1s1-.4,1-1v-2.7h1.1v4.6h-1.1v-.5c-.2.4-.8.6-1.3.6h0Z"/>
          <path class="cls-2" d="M334.6,230.6h-1.1v-4.6h1.1v.6c.3-.5.9-.7,1.4-.7,1.1,0,1.7.8,1.7,1.8v2.9h-1.1v-2.7c0-.6-.3-1-.9-1s-1,.5-1,1.1v2.7h-.1Z"/>
          <path class="cls-2" d="M341.3,228l1.9,2.7h-1.3l-1.4-1.9-.6.6v1.3h-1.1v-6.9h1.1v4.1l1.8-1.9h1.5l-1.9,1.9h0Z"/>
          <path class="cls-2" d="M345.7,223l.6.6c-1,1.1-1.6,2.3-1.6,4s.6,3,1.6,4l-.6.6c-1.1-1.1-1.9-2.5-1.9-4.6s.8-3.6,1.9-4.6Z"/>
          <path class="cls-2" d="M348.1,228l1.2-.2c.3,0,.3-.2.3-.3,0-.4-.3-.7-.9-.7s-.9.4-.9.8l-1-.2c0-.8.8-1.5,1.9-1.5s2,.8,2,1.7v3h-1v-.6c-.2.4-.7.7-1.4.7s-1.6-.7-1.6-1.4.6-1.3,1.4-1.4h0ZM349.7,228.7v-.2l-1.2.2c-.3,0-.6.2-.6.6s.2.6.7.6,1.1-.3,1.1-1.2h0Z"/>
          <path class="cls-2" d="M354.8,227.1h-.4c-.9,0-1.2.5-1.2,1.4v2.2h-1.1v-4.6h1.1v.7c.2-.5.7-.8,1.3-.8s.2,0,.3,0v1.1h0Z"/>
          <path class="cls-2" d="M358.4,227.1h-.4c-.9,0-1.2.5-1.2,1.4v2.2h-1.1v-4.6h1.1v.7c.2-.5.7-.8,1.3-.8s.2,0,.3,0v1.1h0Z"/>
          <path class="cls-2" d="M360.4,228l1.2-.2c.3,0,.3-.2.3-.3,0-.4-.3-.7-.9-.7s-.9.4-.9.8l-1-.2c0-.8.8-1.5,1.9-1.5s2,.8,2,1.7v3h-1v-.6c-.2.4-.7.7-1.4.7s-1.6-.7-1.6-1.4.6-1.3,1.4-1.4h0ZM361.9,228.7v-.2l-1.2.2c-.3,0-.6.2-.6.6s.2.6.7.6,1.1-.3,1.1-1.2h0Z"/>
          <path class="cls-2" d="M364.5,232.5l1.1-2.4-2-4.1h1.2l1.3,2.9,1.2-2.9h1.2l-2.9,6.5h-1.2,0Z"/>
          <path class="cls-2" d="M369.1,229.2c.5,0,.9.4.9,1,0,1.3-.9,1.9-1.5,2v-.6c.4,0,.8-.5.8-1h-.2c-.4,0-.7-.3-.7-.7s.3-.7.8-.7h0Z"/>
          <path class="cls-2" d="M162,240.5c0,.4.4.8.9.8s.7-.2.7-.5-.2-.4-.5-.5l-.7-.2c-.8-.2-1.2-.7-1.2-1.3s.7-1.5,1.7-1.5,1.7.8,1.8,1.3l-.9.3c0-.3-.2-.7-.9-.7s-.7.2-.7.5.2.4.5.5h.7c.9.3,1.3.9,1.3,1.5s-.6,1.5-1.7,1.5-1.8-.9-1.9-1.4l1-.3h-.1Z"/>
          <path class="cls-2" d="M166.3,235c.4,0,.7.3.7.7s-.3.7-.7.7-.7-.3-.7-.7.3-.7.7-.7ZM165.8,242v-4.6h1.1v4.6h-1.1Z"/>
          <path class="cls-2" d="M168,242v-1l2.3-2.7h-2.3v-1h3.7v.9l-2.4,2.7h2.4v1h-3.8.1Z"/>
          <path class="cls-2" d="M176.9,240.7c-.2.8-1,1.5-2.1,1.5s-2.4-.9-2.4-2.5,1.1-2.4,2.2-2.4,2.3.9,2.3,2.4,0,.3,0,.4h-3.4c0,.7.6,1.2,1.3,1.2s1-.4,1.2-.8l.9.3h0ZM175.8,239.2c0-.5-.4-1-1.1-1s-1.1.5-1.1,1h2.3,0Z"/>
          <path class="cls-2" d="M185.1,238.7v-.9h4.5v.9h-4.5ZM185.1,240.6v-.9h4.5v.9h-4.5Z"/>
          <path class="cls-2" d="M199.2,242v-4.2h-1.5v-.8c.9,0,1.5-.5,1.6-1.2h1v6.1h-1.1Z"/>
          <path class="cls-2" d="M201.7,243.6l-.6-.6c1-1.1,1.6-2.3,1.6-4s-.6-3-1.6-4l.6-.6c1.1,1.1,1.9,2.5,1.9,4.6s-.8,3.6-1.9,4.6Z"/>
          <path class="cls-2" d="M211.8,238.4c.5,0,1-.2,1-.9v-1.3c0-1.2.7-1.8,1.8-1.8h.2v.8h-.2c-.6,0-.9.3-.9.9v1.6c0,.6-.4,1-1,1.2.6.1,1,.6,1,1.2v1.6c0,.7.3.9.9.9h.2v.8h-.2c-1.1,0-1.8-.6-1.8-1.8v-1.3c0-.7-.5-.9-1-.9v-.9h0Z"/>
          <path class="cls-2" d="M216,240.5c0,.4.4.8.9.8s.7-.2.7-.5-.2-.4-.5-.5l-.7-.2c-.8-.2-1.2-.7-1.2-1.3s.7-1.5,1.7-1.5,1.7.8,1.8,1.3l-.9.3c0-.3-.2-.7-.9-.7s-.7.2-.7.5.2.4.5.5h.7c.9.3,1.3.9,1.3,1.5s-.6,1.5-1.7,1.5-1.8-.9-1.9-1.4l1-.3h-.1Z"/>
          <path class="cls-2" d="M220.3,235c.4,0,.7.3.7.7s-.3.7-.7.7-.7-.3-.7-.7.3-.7.7-.7ZM219.8,242v-4.6h1.1v4.6h-1.1Z"/>
          <path class="cls-2" d="M221.9,242v-1l2.3-2.7h-2.3v-1h3.7v.9l-2.4,2.7h2.4v1h-3.8.1Z"/>
          <path class="cls-2" d="M230.8,240.7c-.2.8-1,1.5-2.1,1.5s-2.4-.9-2.4-2.5,1.1-2.4,2.2-2.4,2.3.9,2.3,2.4,0,.3,0,.4h-3.4c0,.7.6,1.2,1.3,1.2s1-.4,1.2-.8l.9.3h0ZM229.8,239.2c0-.5-.4-1-1.1-1s-1.1.5-1.1,1h2.3,0Z"/>
          <path class="cls-2" d="M239.1,238.7v-.9h4.5v.9h-4.5ZM239.1,240.6v-.9h4.5v.9h-4.5Z"/>
          <path class="cls-2" d="M258.5,242v-4.9l-2.1,4.9h-1l-2.1-4.9v4.9h-1.1v-6.7h1.5l2.2,5.1,2.1-5.1h1.5v6.7h-1.1.1Z"/>
          <path class="cls-2" d="M262.2,239.3l1.2-.2c.3,0,.3-.2.3-.3,0-.4-.3-.7-.9-.7s-.9.4-.9.8l-1-.2c0-.8.8-1.5,1.9-1.5s2,.8,2,1.7v3h-1v-.6c-.2.4-.7.7-1.4.7s-1.6-.7-1.6-1.4.6-1.3,1.4-1.4h0ZM263.7,240.1v-.2l-1.2.2c-.3,0-.6.2-.6.6s.2.6.7.6,1.1-.3,1.1-1.2h0Z"/>
          <path class="cls-2" d="M267.5,237.4h1v1h-1v2.1c0,.4.2.6.6.6h.4v.9s-.3.1-.7.1c-.9,0-1.4-.5-1.4-1.4v-2.3h-.9v-1h.2c.5,0,.7-.3.7-.7v-.7h1v1.4h0Z"/>
          <path class="cls-2" d="M270.6,242h-1.1v-6.9h1.1v2.7c.3-.4.8-.6,1.3-.6,1.1,0,1.7.8,1.7,1.8v2.9h-1.1v-2.7c0-.6-.3-1-.9-1s-.9.5-1,1v2.7h0Z"/>
          <path class="cls-2" d="M275.6,240.5c.4,0,.8.4.8.8s-.4.8-.8.8-.8-.3-.8-.8.3-.8.8-.8Z"/>
          <path class="cls-2" d="M277.7,242v-4.6h1.1v.6c.3-.5.8-.7,1.4-.7s1.1.3,1.4.8c.4-.6.9-.8,1.5-.8s1.6.5,1.6,1.8v3h-1.1v-2.8c0-.5-.3-.9-.9-.9s-1,.5-1,1v2.7h-1.1v-2.8c0-.5-.3-.9-.9-.9s-1,.4-1,1v2.7h-1.1.1Z"/>
          <path class="cls-2" d="M287.1,239.3l1.2-.2c.3,0,.3-.2.3-.3,0-.4-.3-.7-.9-.7s-.9.4-.9.8l-1-.2c0-.8.8-1.5,1.9-1.5s2,.8,2,1.7v3h-1v-.6c-.2.4-.7.7-1.4.7s-1.6-.7-1.6-1.4.6-1.3,1.4-1.4h0ZM288.6,240.1v-.2l-1.2.2c-.3,0-.6.2-.6.6s.2.6.7.6,1.1-.3,1.1-1.2h0Z"/>
          <path class="cls-2" d="M292.1,239.7l-1.6-2.3h1.3c0,.1.9,1.3,1,1.5l1-1.5h1.2l-1.6,2.3,1.7,2.3h-1.3l-1.1-1.5c0,.1-1,1.4-1,1.5h-1.3l1.7-2.3h0Z"/>
          <path class="cls-2" d="M304.8,234.3l.6.6c-1,1.1-1.6,2.3-1.6,4s.6,3,1.6,4l-.6.6c-1.1-1.1-1.9-2.5-1.9-4.6s.8-3.6,1.9-4.6Z"/>
          <path class="cls-2" d="M307.5,237.4h1v1h-1v2.1c0,.4.2.6.6.6h.4v.9s-.3.1-.7.1c-.9,0-1.4-.5-1.4-1.4v-2.3h-.9v-1h.2c.5,0,.7-.3.7-.7v-.7h1v1.4h0Z"/>
          <path class="cls-2" d="M313.9,239.7c0,1.4-1,2.5-2.4,2.5s-2.4-1-2.4-2.5,1-2.4,2.4-2.4,2.4,1,2.4,2.4ZM312.8,239.7c0-1-.6-1.4-1.3-1.4s-1.3.5-1.3,1.4.6,1.5,1.3,1.5,1.3-.5,1.3-1.5Z"/>
          <path class="cls-2" d="M315.1,242v-6.7h1.2v6.7h-1.2Z"/>
          <path class="cls-2" d="M318.8,242h-1.1v-4.6h1.1v.6c.3-.5.9-.7,1.4-.7,1.1,0,1.7.8,1.7,1.8v2.9h-1.1v-2.7c0-.6-.3-1-.9-1s-1,.5-1,1.1v2.7h-.1Z"/>
          <path class="cls-2" d="M324.6,237.4h1v1h-1v2.1c0,.4.2.6.6.6h.4v.9s-.3.1-.7.1c-.9,0-1.4-.5-1.4-1.4v-2.3h-.9v-1h.2c.5,0,.7-.3.7-.7v-.7h1v1.4h0Z"/>
          <path class="cls-2" d="M330.7,240.7c-.2.8-1,1.5-2.1,1.5s-2.4-.9-2.4-2.5,1.1-2.4,2.2-2.4,2.3.9,2.3,2.4,0,.3,0,.4h-3.4c0,.7.6,1.2,1.3,1.2s1-.4,1.2-.8l.9.3h0ZM329.6,239.2c0-.5-.4-1-1.1-1s-1.1.5-1.1,1h2.3,0Z"/>
          <path class="cls-2" d="M332.5,242c0,.6.5,1,1.2,1s1.3-.4,1.3-1.4v-.5c-.2.4-.7.7-1.3.7-1.2,0-2.1-.9-2.1-2.2s.9-2.2,2.1-2.2,1.2.3,1.4.7v-.6h1.1v4.2c0,1.2-.6,2.4-2.4,2.4s-2.1-.8-2.2-1.7l1-.3h-.1ZM335,239.5c0-.8-.5-1.3-1.2-1.3s-1.2.5-1.2,1.3.5,1.3,1.2,1.3,1.2-.5,1.2-1.3Z"/>
          <path class="cls-2" d="M341.4,240.7c-.2.8-1,1.5-2.1,1.5s-2.4-.9-2.4-2.5,1.1-2.4,2.2-2.4,2.3.9,2.3,2.4,0,.3,0,.4h-3.4c0,.7.6,1.2,1.3,1.2s1-.4,1.2-.8l.9.3h0ZM340.4,239.2c0-.5-.4-1-1.1-1s-1.1.5-1.1,1h2.3,0Z"/>
          <path class="cls-2" d="M345.2,238.5h-.4c-.9,0-1.2.5-1.2,1.4v2.2h-1.1v-4.6h1.1v.7c.2-.5.7-.8,1.3-.8s.2,0,.3,0v1.1h0Z"/>
          <path class="cls-2" d="M347.8,234.3l.6.6c-1,1.1-1.6,2.3-1.6,4s.6,3,1.6,4l-.6.6c-1.1-1.1-1.9-2.5-1.9-4.6s.8-3.6,1.9-4.6Z"/>
          <path class="cls-2" d="M349.6,240.5c0,.4.4.8.9.8s.7-.2.7-.5-.2-.4-.5-.5l-.7-.2c-.8-.2-1.2-.7-1.2-1.3s.7-1.5,1.7-1.5,1.7.8,1.8,1.3l-.9.3c0-.3-.2-.7-.9-.7s-.7.2-.7.5.2.4.5.5h.7c.9.3,1.3.9,1.3,1.5s-.6,1.5-1.7,1.5-1.8-.9-1.9-1.4l1-.3h0Z"/>
          <path class="cls-2" d="M353.9,235c.4,0,.7.3.7.7s-.3.7-.7.7-.7-.3-.7-.7.3-.7.7-.7ZM353.4,242v-4.6h1.1v4.6h-1.1Z"/>
          <path class="cls-2" d="M355.6,242v-1l2.3-2.7h-2.3v-1h3.7v.9l-2.4,2.7h2.4v1h-3.8,0Z"/>
          <path class="cls-2" d="M364.4,240.7c-.2.8-1,1.5-2.1,1.5s-2.4-.9-2.4-2.5,1.1-2.4,2.2-2.4,2.3.9,2.3,2.4,0,.3,0,.4h-3.4c0,.7.6,1.2,1.3,1.2s1-.4,1.2-.8l.9.3h0ZM363.4,239.2c0-.5-.4-1-1.1-1s-1.1.5-1.1,1h2.3,0Z"/>
          <path class="cls-2" d="M365.3,243.6l-.6-.6c1-1.1,1.6-2.3,1.6-4s-.6-3-1.6-4l.6-.6c1.1,1.1,1.9,2.5,1.9,4.6s-.8,3.6-1.9,4.6Z"/>
          <path class="cls-2" d="M369.1,240.6c.5,0,.9.4.9,1,0,1.3-.9,1.9-1.5,2v-.6c.4,0,.8-.5.8-1h-.2c-.4,0-.7-.3-.7-.7s.3-.7.8-.7h0Z"/>
        </g>
      </g>
      <path class="cls-11" d="M179.6,21.2c-6.9,0-12.2-5.9-14.2-8.4-.5-.6-.7-1.4-.8-2.2,0-.8.3-1.6.7-2.2C167.2,5.9,172.5,0,179.5,0s12.2,5.9,14.2,8.4c.5.6.8,1.4.8,2.2s-.3,1.6-.8,2.2c-1.9,2.5-7.2,8.4-14.2,8.4h.1ZM179.6,2c-6.1,0-10.8,5.3-12.6,7.6-.2.3-.3.6-.3.9s.1.7.3.9c1.8,2.3,6.5,7.6,12.6,7.6s10.8-5.3,12.6-7.6c.2-.3.3-.6.3-.9s-.1-.7-.3-.9h0c-1.8-2.3-6.5-7.6-12.6-7.6ZM179.6,16.8c-1.2,0-2.4-.4-3.5-1.1-1-.7-1.8-1.7-2.3-2.8s-.6-2.4-.4-3.6c.2-1.2.8-2.3,1.7-3.2s2-1.5,3.2-1.7,2.5,0,3.6.4,2.1,1.3,2.8,2.3,1.1,2.2,1.1,3.5-.6,3.2-1.8,4.4-2.7,1.8-4.4,1.8h0ZM179.6,6.4h-.8c-.8.2-1.6.6-2.1,1.1s-1,1.3-1.1,2.1c-.2.8,0,1.7.2,2.4.3.8.9,1.4,1.5,1.9.7.5,1.5.7,2.3.7s2.2-.4,3-1.2,1.2-1.8,1.2-3-.2-1.6-.7-2.3-1.1-1.2-1.9-1.5c-.5-.2-1.1-.3-1.6-.3h0Z"/>
      <path class="cls-11" d="M14.9,114.7c-6.9,0-12.2-5.9-14.2-8.4-.4-.6-.7-1.4-.7-2.2s.3-1.6.7-2.2c1.9-2.5,7.2-8.4,14.2-8.4s12.2,5.9,14.2,8.4c.5.6.8,1.4.8,2.2s-.3,1.6-.8,2.2c-1.9,2.5-7.2,8.4-14.2,8.4ZM14.9,95.6c-6.1,0-10.8,5.3-12.6,7.6-.2.3-.3.6-.3.9s0,.7.3.9c1.8,2.3,6.5,7.6,12.6,7.6s10.8-5.3,12.6-7.6c.2-.3.3-.6.3-.9s-.1-.7-.3-.9h0c-1.8-2.3-6.5-7.6-12.6-7.6ZM14.9,110.4c-1.2,0-2.4-.4-3.5-1.1-1-.7-1.8-1.7-2.3-2.8-.5-1.1-.6-2.4-.4-3.6s.8-2.3,1.7-3.2c.9-.9,2-1.5,3.2-1.7s2.5,0,3.6.4,2.1,1.3,2.8,2.3c.7,1,1.1,2.2,1.1,3.5s-.6,3.2-1.8,4.4c-1.2,1.2-2.7,1.8-4.4,1.8h0ZM14.9,99.9h-.8c-.8.2-1.6.6-2.1,1.1-.6.6-1,1.3-1.1,2.1-.2.8,0,1.7.2,2.4.3.8.9,1.4,1.5,1.9s1.5.7,2.3.7,2.2-.4,3-1.2c.8-.8,1.2-1.8,1.2-3s-.2-1.6-.7-2.3c-.5-.7-1.1-1.2-1.9-1.5-.5-.2-1.1-.3-1.6-.3h0Z"/>
      <g>
        <path class="cls-8" d="M43.9,214.3l-19.1-11.1v-24.3l19.1,11.1v24.3Z"/>
        <path class="cls-6" d="M43.9,190l-19.1-11.1,21.1-12.2,19.1,11.1-21.1,12.2Z"/>
        <path class="cls-9" d="M65,177.8v24.3l-21.1,12.2v-24.3l21.1-12.2Z"/>
      </g>
      <g>
        <path class="cls-8" d="M69.2,226.9l-19.1-11.1v-24.3l19.1,11.1v24.3Z"/>
        <path class="cls-5" d="M69.2,202.6l-19.1-11.1,21.1-12.2,19.1,11.1-21.1,12.2Z"/>
        <path class="cls-9" d="M90.3,190.4v24.3l-21.1,12.2v-24.3l21.1-12.2Z"/>
      </g>
      <g>
        <path class="cls-8" d="M299.2,92.1l-19.1-11.1v-24.3l19.1,11.1v24.3Z"/>
        <path class="cls-4" d="M299.2,67.8l-19.1-11.1,21.1-12.2,19.1,11.1-21.1,12.2Z"/>
        <path class="cls-9" d="M320.3,55.6v24.3l-21.1,12.2v-24.3l21.1-12.2Z"/>
      </g>
      <path class="cls-11" d="M128.5,32v-.5h2.7v.5h-2.7ZM128.5,28.8v-2.7h2.7v2.7h-2.7ZM128.4,23.4v-2.7h2.7v2.7h-2.7ZM128.4,18v-2.7h2.7v2.7h-2.7ZM128.4,12.5v-3.3h2.7v3.3h-2.7ZM157.7,11.9h-2.7v-2.7h2.7v2.7ZM152.2,11.9h-2.7v-2.7h2.7v2.7ZM146.8,11.9h-2.7v-2.7h2.7v2.7ZM141.4,11.9h-2.7v-2.7h2.7v2.7ZM135.9,11.9h-2.7v-2.7h2.7v2.7Z"/>
      <path class="cls-11" d="M54.3,105.5h-.7v-2.7h.7v2.7ZM50.9,105.5h-2.7v-2.7h2.7v2.7ZM45.5,105.5h-2.7v-2.7h2.7v2.7ZM40,105.5h-2.7v-2.7h2.7v2.7ZM34.6,105.5h-2.7v-2.7h2.7v2.7Z"/>
      <g>
        <path class="cls-8" d="M299.2,56.1l-19.1-11.1v-24.3l19.1,11.1v24.3Z"/>
        <path class="cls-3" d="M299.2,31.8l-19.1-11.1,21.1-12.2,19.1,11.1-21.1,12.2Z"/>
        <path class="cls-9" d="M320.3,19.6v24.3l-21.1,12.2v-24.3l21.1-12.2Z"/>
      </g>
    </g>
  </g>
</svg>