<svg width="235" height="51" viewBox="0 0 235 51" fill="none" xmlns="http://www.w3.org/2000/svg">
<g clip-path="url(#clip0_5_50)">
<path d="M72.8529 8.01492C70.1147 8.01492 67.4759 8.3572 66.4049 8.64979C64.8426 9.09144 64.4506 9.77599 64.158 11.1893L57.9529 39.819C57.8535 40.4042 57.7596 40.8956 57.7596 41.3814C57.7596 42.8002 58.6871 43.7276 60.1997 43.7276C61.8614 43.7276 62.546 42.6511 62.8883 40.9894L64.6493 32.83C65.8694 32.9735 67.4814 33.1226 69.778 33.1226C79.8917 33.1226 86.1962 27.6517 86.1962 19.3929C86.1962 12.1609 81.1614 8.0094 72.8585 8.0094L72.8529 8.01492ZM69.5295 28.4356C67.9672 28.4356 66.7416 28.3859 65.621 28.2424L68.8947 13.0442C69.9215 12.9006 71.4341 12.7019 73.002 12.7019C78.3791 12.7019 81.1117 15.2414 81.1117 19.4481C81.1117 24.8251 77.1976 28.4411 69.5295 28.4411V28.4356Z" fill="white"/>
<path d="M232.028 34.2985C231.2 34.2985 230.659 34.7898 229.632 35.9105C227.822 37.7709 226.701 38.7922 225.288 38.7922C224.018 38.7922 223.333 37.7654 223.333 36.1037C223.333 35.1762 223.527 34.05 223.775 32.83L225.586 24.3283H231.012C232.724 24.3283 233.751 23.3511 233.751 21.5901C233.751 20.6129 233.116 19.8787 231.653 19.8787H226.563L227.441 15.9204C227.54 15.3352 227.634 14.7942 227.634 14.3084C227.634 12.9393 226.706 11.9622 225.194 11.9622C223.582 11.9622 222.847 13.0387 222.505 14.7004L221.379 19.8787H219.082C217.321 19.8787 216.3 20.8558 216.3 22.6169C216.3 23.594 216.985 24.3283 218.448 24.3283H220.452L218.641 32.7306C218.448 33.6581 218.199 35.1707 218.199 36.7386C218.199 40.6968 220.253 43.5786 224.647 43.5786C227.187 43.5786 229.434 42.3088 231.145 40.7907C232.807 39.3277 234.027 37.517 234.027 36.3466C234.027 35.1762 233.149 34.2985 232.023 34.2985H232.028Z" fill="white"/>
<path d="M119.657 10.8967C119.657 9.47787 118.679 8.55042 117.167 8.55042C115.555 8.55042 114.82 9.62693 114.478 11.2886L108.372 39.6755C108.229 40.2607 108.13 40.752 108.13 41.2378C108.13 42.6566 109.107 43.5841 110.57 43.5841C112.231 43.5841 112.966 42.5076 113.308 40.8459L119.414 12.4645C119.513 11.8738 119.657 11.388 119.657 10.9022V10.8967Z" fill="white"/>
<path d="M206.865 19.3929C199.048 19.3929 193.721 27.1603 193.721 34.5414C193.721 34.6794 193.721 34.8174 193.726 34.9499C192.501 36.8103 190.933 38.7425 189.856 38.7425C189.078 38.7425 188.78 38.0083 188.78 36.8821C188.78 35.513 189.172 33.2164 189.608 31.2124L193.666 12.4479C193.765 11.8628 193.859 11.3714 193.859 10.8856C193.859 9.46683 192.931 8.53937 191.419 8.53937C189.757 8.53937 189.072 9.61588 188.73 11.2776L186.533 21.441C185.357 20.2209 183.646 19.3873 181.057 19.3873C175.867 19.3873 170.645 23.3842 168.608 29.5121C166.366 35.3032 164.362 38.7315 162.783 38.7315C162.198 38.7315 161.856 38.2402 161.856 37.4121C161.856 34.972 163.225 29.0097 163.81 26.128C164.003 25.0515 164.103 24.6153 164.103 23.9805C164.103 21.833 160.537 19.288 155.894 19.288C150.528 19.288 145.664 22.6886 143.229 27.7345C139.608 34.1328 136.29 38.7315 134.645 38.7315C133.911 38.7315 133.668 37.804 133.469 36.9207L132.255 30.1856L139.729 24.0798C140.414 23.4947 141.292 22.661 141.292 21.59C141.292 20.2706 140.414 19.3929 139.095 19.3929C138.117 19.3929 137.284 19.978 136.456 20.6626L125.221 29.9427L128.981 12.4535C129.08 11.8683 129.224 11.377 129.224 10.8911C129.224 9.47235 128.247 8.54489 126.734 8.54489C125.122 8.54489 124.388 9.6214 124.045 11.2831L117.94 39.67C117.796 40.2552 117.697 40.7465 117.697 41.2323C117.697 42.6511 118.674 43.5786 120.137 43.5786C121.799 43.5786 122.533 42.502 122.875 40.8404L123.659 37.1802L128.252 33.4704L129.378 39.1345C129.82 41.3814 130.99 43.5786 134.021 43.5786C137.052 43.5786 139.409 40.8293 141.783 37.1084C142.501 41.006 145.278 43.5786 149.12 43.5786C152.962 43.5786 155.618 41.282 157.329 38.2015V38.3009C157.329 41.4752 158.941 43.5786 161.773 43.5786C164.335 43.5786 166.466 42.0328 168.365 38.748C169.441 41.6077 171.854 43.5786 175.21 43.5786C179.169 43.5786 182.001 41.1826 183.806 37.8648V38.1573C183.806 41.674 185.567 43.5841 188.449 43.5841C190.994 43.5841 193.158 42.1046 195.002 39.7031C196.404 42.1046 198.921 43.5841 202.322 43.5841C210.139 43.5841 215.466 35.8166 215.466 28.3859C215.466 23.1579 212.287 19.3929 206.86 19.3929H206.865ZM158.157 29.3134C156.738 35.4191 153.713 38.8916 150.29 38.8916C147.994 38.8916 146.724 37.1305 146.724 34.4972C146.724 29.3189 150.484 23.7486 155.518 23.7486C157.031 23.7486 158.207 24.1902 159.228 24.8251L158.157 29.3189V29.3134ZM185.368 26.7242C183.806 33.9065 180.24 38.8861 176.331 38.8861C174.183 38.8861 172.908 37.2244 172.908 34.4917C172.908 29.2637 176.524 23.8424 181.36 23.8424C183.221 23.8424 184.634 24.4773 185.661 25.3054L185.368 26.7242ZM202.907 38.8861C200.075 38.8861 198.899 36.8324 198.899 34.2432C198.899 29.5011 202.173 24.0798 206.275 24.0798C209.107 24.0798 210.283 26.1335 210.283 28.7227C210.283 33.509 207.009 38.8861 202.907 38.8861Z" fill="white"/>
<path d="M98.3581 19.3929C90.5409 19.3929 85.2136 27.1604 85.2136 34.5414C85.2136 39.8191 88.3879 43.5786 93.8091 43.5786C101.626 43.5786 106.954 35.8111 106.954 28.3804C106.954 23.1524 103.779 19.3929 98.3581 19.3929ZM94.3998 38.8916C91.5678 38.8916 90.3919 36.838 90.3919 34.2488C90.3919 29.5066 93.6656 24.0854 97.7674 24.0854C100.599 24.0854 101.775 26.139 101.775 28.7282C101.775 33.5146 98.5016 38.8916 94.3998 38.8916Z" fill="white"/>
<path d="M23.7583 11.3604C28.7372 11.3604 32.7734 9.01233 32.7734 6.11584C32.7734 3.21935 28.7372 0.871277 23.7583 0.871277C18.7794 0.871277 14.7432 3.21935 14.7432 6.11584C14.7432 9.01233 18.7794 11.3604 23.7583 11.3604Z" fill="white"/>
<path d="M23.7583 50.8713C28.7372 50.8713 32.7734 48.5232 32.7734 45.6267C32.7734 42.7302 28.7372 40.3821 23.7583 40.3821C18.7794 40.3821 14.7432 42.7302 14.7432 45.6267C14.7432 48.5232 18.7794 50.8713 23.7583 50.8713Z" fill="white"/>
<path d="M11.1839 18.6188C13.6733 14.3069 13.658 9.63739 11.1495 8.18914C8.64108 6.7409 4.58949 9.06232 2.10003 13.3742C-0.389427 17.6861 -0.374043 22.3556 2.13439 23.8038C4.64283 25.252 8.69442 22.9306 11.1839 18.6188Z" fill="white"/>
<path d="M45.406 38.3714C47.8955 34.0596 47.8801 29.3901 45.3717 27.9418C42.8633 26.4936 38.8117 28.815 36.3222 33.1269C33.8327 37.4387 33.8481 42.1082 36.3566 43.5565C38.865 45.0047 42.9166 42.6833 45.406 38.3714Z" fill="white"/>
<path d="M11.1581 43.5504C13.6665 42.1022 13.6819 37.4327 11.1924 33.1208C8.70297 28.8089 4.65137 26.4875 2.14294 27.9358C-0.365498 29.384 -0.380883 34.0535 2.10858 38.3654C4.59803 42.6772 8.64963 44.9987 11.1581 43.5504Z" fill="white"/>
<path d="M45.3726 23.7997C47.881 22.3515 47.8964 17.682 45.407 13.3701C42.9175 9.05827 38.8659 6.73685 36.3575 8.18509C33.849 9.63334 33.8337 14.3028 36.3231 18.6147C38.8126 22.9266 42.8642 25.248 45.3726 23.7997Z" fill="white"/>
</g>
<defs>
<clipPath id="clip0_5_50">
<rect width="233.786" height="50" fill="white" transform="translate(0.246094 0.871277)"/>
</clipPath>
</defs>
</svg>
