<?xml version="1.0" encoding="UTF-8"?>
<svg xmlns="http://www.w3.org/2000/svg" xmlns:xlink="http://www.w3.org/1999/xlink" version="1.1" viewBox="0 0 51 51">
  <defs>
    <style>
      .cls-1 {
        fill: none;
      }

      .cls-2 {
        fill: #00b00c;
      }

      .cls-3 {
        clip-path: url(#clippath);
      }
    </style>
    <clipPath id="clippath">
      <rect class="cls-1" x=".2" y=".3" width="50" height="50"/>
    </clipPath>
  </defs>
  <!-- Generator: Adobe Illustrator 28.7.1, SVG Export Plug-In . SVG Version: 1.2.0 Build 142)  -->
  <g>
    <g id="Layer_1">
      <g id="Layer_1-2" data-name="Layer_1">
        <g class="cls-3">
          <g>
            <path class="cls-2" d="M25.3,23c-.8,0-1.4.6-1.4,1.4s.6,1.4,1.4,1.4,1.4-.6,1.4-1.4-.6-1.4-1.4-1.4Z"/>
            <path class="cls-2" d="M25.3,13.2c-1.8,0-3.2,1.6-3.2,3.5v1.3h6.4v-1.3c0-1.9-1.4-3.5-3.2-3.5Z"/>
            <path class="cls-2" d="M45,4.3C38.7,1.6,32,.2,25.2.3,18.4.3,11.6,1.6,5.4,4.3c-1.2.5-1.9,1.7-1.9,3v16.9c0,10.9,6.8,20.8,17,24.7l2.3.9c1.5.6,3.3.6,4.8,0l2.3-.9c10.3-3.9,17.1-13.8,17.1-24.7V7.3c0-1.3-.8-2.5-1.9-3h0ZM33.3,31.7c0,.5-.4.8-.8.8h-14.5c-.5,0-.8-.4-.8-.8v-12.9c0-.5.4-.8.8-.8h2.4v-1.3c0-2.8,2.2-5.1,4.9-5.1s4.9,2.3,4.9,5.1v1.3h2.4c.5,0,.8.4.8.8v12.9h0Z"/>
          </g>
        </g>
      </g>
    </g>
  </g>
</svg>