<svg width="87" height="51" viewBox="0 0 87 51" fill="none" xmlns="http://www.w3.org/2000/svg">
<g clip-path="url(#clip0_5_134)">
<path d="M47.2776 27.3682C47.2776 28.0682 47.6276 28.6353 48.3276 29.0697C49.0274 29.4801 49.8723 29.8179 50.8617 30.0835C51.8513 30.3249 52.8409 30.6145 53.8305 30.9524C54.8201 31.2661 55.6648 31.8213 56.3648 32.6178C57.0646 33.39 57.4146 34.3917 57.4146 35.6226C57.4146 37.2639 56.7751 38.5793 55.4959 39.5688C54.2408 40.5583 52.6237 41.0532 50.6445 41.0532C48.8827 41.0532 47.3742 40.667 46.1191 39.8946C44.8641 39.1224 43.971 38.0965 43.4401 36.8174L46.1553 35.2606C46.4449 36.1295 46.988 36.8174 47.7845 37.3242C48.5809 37.8311 49.5344 38.0845 50.6445 38.0845C51.6824 38.0845 52.5392 37.8914 53.2151 37.5053C53.8908 37.0949 54.2287 36.4674 54.2287 35.6226C54.2287 34.9226 53.8788 34.3675 53.1788 33.9572C52.4788 33.5228 51.6341 33.1849 50.6445 32.9436C49.6551 32.6781 48.6655 32.3764 47.6759 32.0385C46.6863 31.7006 45.8416 31.1454 45.1416 30.3731C44.4417 29.6007 44.0917 28.6113 44.0917 27.4045C44.0917 25.8356 44.6951 24.5443 45.9019 23.5306C47.1328 22.517 48.6655 22.01 50.4998 22.01C51.972 22.01 53.2753 22.3479 54.4098 23.0238C55.5683 23.6754 56.4371 24.5926 57.0165 25.7753L54.3735 27.2596C53.7219 25.7149 52.4306 24.9425 50.4998 24.9425C49.6067 24.9425 48.8464 25.1597 48.2189 25.5942C47.5914 26.0046 47.2776 26.5958 47.2776 27.3682Z" fill="white"/>
<path d="M73.4575 22.4807H76.607V40.5825H73.4575V37.9759C72.1781 40.0274 70.2232 41.0532 67.5925 41.0532C65.4684 41.0532 63.7669 40.3895 62.4877 39.062C61.2086 37.7104 60.5688 35.8881 60.5688 33.5953V22.4807H63.7186V33.4142C63.7186 34.8865 64.1169 36.0329 64.9133 36.8536C65.7098 37.65 66.808 38.0484 68.2079 38.0484C69.7766 38.0484 71.0438 37.5656 72.0093 36.6002C72.9747 35.6106 73.4575 34.1021 73.4575 32.0747V22.4807Z" fill="white"/>
<path d="M82.9953 19.1863C82.3919 19.1863 81.8851 18.981 81.4748 18.5707C81.0645 18.1604 80.8594 17.6657 80.8594 17.0864C80.8594 16.5071 81.0645 16.0124 81.4748 15.6021C81.8851 15.1677 82.3919 14.9504 82.9953 14.9504C83.5745 14.9504 84.0694 15.1677 84.4796 15.6021C84.8899 16.0124 85.0951 16.5071 85.0951 17.0864C85.0951 17.6657 84.8899 18.1604 84.4796 18.5707C84.0694 18.981 83.5745 19.1863 82.9953 19.1863ZM81.4023 40.5825V22.4807H84.552V40.5825H81.4023Z" fill="white"/>
<path fill-rule="evenodd" clip-rule="evenodd" d="M2.43598 41.2592C5.50402 46.5738 10.9994 49.7461 17.1355 49.7461C23.2716 49.7461 28.7659 46.5738 31.8351 41.2592C34.9031 35.9456 34.9031 29.6009 31.8351 24.2863L18.9065 1.89375C18.1194 0.530452 16.1516 0.530454 15.3645 1.89375L2.43598 24.2863C-0.632061 29.5998 -0.632061 35.9446 2.43598 41.2592ZM13.4935 12.5468L16.25 7.7724C16.6436 7.09073 17.6274 7.09073 18.0211 7.7724L28.6254 26.14C30.5737 29.5145 30.9394 33.4199 29.7225 36.9936C29.5958 36.4106 29.4187 35.8141 29.1799 35.2114C27.7152 31.5149 24.4031 28.6624 19.3341 26.7325C15.849 25.4106 13.6244 23.4663 12.7205 20.9534C11.5562 17.7145 12.7723 14.1825 13.4935 12.5468ZM8.79324 20.6881L5.64559 26.14C3.24717 30.2942 3.24717 35.2532 5.64559 39.4074C8.04402 43.5616 12.3387 46.0406 17.1355 46.0406C20.3215 46.0406 23.2868 44.946 25.6216 42.9936C25.9262 42.227 26.8691 39.4207 25.7041 36.5284C24.6281 33.8575 22.0387 31.7254 18.0073 30.1898C13.4503 28.4611 10.4897 25.7625 9.20945 22.1711C9.03312 21.6767 8.89612 21.1811 8.79324 20.6881Z" fill="white"/>
</g>
<defs>
<clipPath id="clip0_5_134">
<rect width="86.1111" height="50" fill="white" transform="translate(0.134949 0.871277)"/>
</clipPath>
</defs>
</svg>
