<?xml version="1.0" encoding="UTF-8"?>
<svg xmlns="http://www.w3.org/2000/svg" xmlns:xlink="http://www.w3.org/1999/xlink" version="1.1" viewBox="0 0 50 51">
  <defs>
    <style>
      .cls-1 {
        fill: none;
      }

      .cls-2 {
        fill: #4c00c9;
      }

      .cls-3 {
        fill: #fff;
      }

      .cls-4 {
        clip-path: url(#clippath);
      }
    </style>
    <clipPath id="clippath">
      <rect class="cls-1" y=".3" width="50" height="50"/>
    </clipPath>
  </defs>
  <!-- Generator: Adobe Illustrator 28.7.1, SVG Export Plug-In . SVG Version: 1.2.0 Build 142)  -->
  <g>
    <g id="Layer_1">
      <g id="Layer_1-2" data-name="Layer_1">
        <g id="Layer_1-2">
          <g class="cls-4">
            <g>
              <path class="cls-2" d="M26.9,1.9l4.2,5.7c.5.7,1.4,1.1,2.2.9l7-1.1c1.5-.2,2.9,1.1,2.7,2.6l-1.1,7c0,.9.2,1.7.9,2.2l5.7,4.2c1.3.9,1.3,2.8,0,3.7l-5.7,4.2c-.7.5-1,1.4-.9,2.2l1.1,7c.2,1.6-1.1,2.9-2.7,2.7l-7-1.1c-.9,0-1.7.2-2.2.9l-4.2,5.7c-.9,1.3-2.8,1.3-3.7,0l-4.2-5.7c-.5-.7-1.4-1-2.2-.9l-7,1.1c-1.5.2-2.9-1.1-2.6-2.7l1.1-7c.1-.8-.2-1.7-.9-2.2l-5.7-4.2c-1.3-.9-1.3-2.8,0-3.7l5.7-4.2c.7-.5,1-1.4.9-2.2l-1.1-7c-.2-1.5,1.1-2.9,2.6-2.6l7,1.1c.9.1,1.7-.2,2.2-.9l4.2-5.7c.9-1.3,2.8-1.3,3.7,0Z"/>
              <path class="cls-3" d="M23.2,34.6c-.3,0-.6,0-.9-.4l-7.1-7.1c-.5-.5-.5-1.3,0-1.8s1.3-.5,1.8,0l6.3,6.3,11.8-11.8c.5-.5,1.3-.5,1.8,0s.5,1.3,0,1.8l-12.6,12.6c-.2.2-.6.4-.9.4,0,0-.2,0-.2,0Z"/>
            </g>
          </g>
        </g>
      </g>
    </g>
  </g>
</svg>