<svg width="50" height="51" viewBox="0 0 50 51" fill="none" xmlns="http://www.w3.org/2000/svg">
<g clip-path="url(#clip0_5_180)">
<path d="M26.8667 1.89061L31.05 7.57395C31.5667 8.27395 32.4167 8.62395 33.2667 8.49061L40.25 7.42395C41.8 7.19061 43.1334 8.52395 42.9 10.0739L41.8334 17.0573C41.7 17.9073 42.05 18.7739 42.75 19.2739L48.4334 23.4573C49.7 24.3906 49.7 26.2739 48.4334 27.1906L42.75 31.3739C42.05 31.8906 41.7 32.7406 41.8334 33.5906L42.9 40.5739C43.1334 42.1239 41.8 43.4573 40.25 43.2239L33.2667 42.1573C32.4167 42.0239 31.55 42.3739 31.05 43.0739L26.8667 48.7573C25.9334 50.0239 24.05 50.0239 23.1334 48.7573L18.95 43.0739C18.4334 42.3739 17.5834 42.0239 16.7334 42.1573L9.75003 43.2239C8.20003 43.4573 6.8667 42.1239 7.10003 40.5739L8.1667 33.5906C8.30003 32.7406 7.95003 31.8739 7.25003 31.3739L1.5667 27.1906C0.300033 26.2573 0.300033 24.3739 1.5667 23.4573L7.25003 19.2739C7.95003 18.7573 8.30003 17.9073 8.1667 17.0573L7.10003 10.0739C6.8667 8.52395 8.20003 7.19061 9.75003 7.42395L16.7334 8.49061C17.5834 8.62395 18.45 8.27395 18.95 7.57395L23.1334 1.89061C24.0667 0.623946 25.95 0.623946 26.8667 1.89061Z" fill="#FFA200"/>
<path d="M23.2 34.6406C22.8834 34.6406 22.5667 34.524 22.3167 34.274L15.1667 27.124C14.6834 26.6406 14.6834 25.8406 15.1667 25.3573C15.65 24.874 16.45 24.874 16.9334 25.3573L23.2 31.624L34.9667 19.8573C35.45 19.374 36.25 19.374 36.7334 19.8573C37.2167 20.3406 37.2167 21.1406 36.7334 21.624L24.0834 34.274C23.8334 34.524 23.5167 34.6406 23.2 34.6406Z" fill="white"/>
</g>
<defs>
<clipPath id="clip0_5_180">
<rect width="50" height="50" fill="white" transform="translate(0 0.323975)"/>
</clipPath>
</defs>
</svg>
